/* XPM */
static char *result[] = {
/* columns rows colors chars-per-pixel */
"64 128 159 2 ",
"   c #010101",
".  c #0A0604",
"X  c #0C0906",
"o  c #04070B",
"O  c #05090D",
"+  c #0E0C0A",
"@  c #130A07",
"#  c #120E0A",
"$  c #190E09",
"%  c #16110D",
"&  c #1A140E",
"*  c #1A1A0B",
"=  c #111111",
"-  c #1D1710",
";  c #1D1913",
":  c #1C1C1B",
">  c #210708",
",  c #330B0D",
"<  c #23140C",
"1  c #3E0E10",
"2  c #251C14",
"3  c #2A1E16",
"4  c #331C12",
"5  c #22220F",
"6  c #262610",
"7  c #2B2017",
"8  c #20201D",
"9  c #2D2219",
"0  c #32261C",
"q  c #35291D",
"w  c #392B1F",
"e  c #373718",
"r  c #222221",
"t  c #2D2C2B",
"y  c #3D2E21",
"u  c #342E21",
"i  c #3D3224",
"p  c #353535",
"a  c #3A3A37",
"s  c #4D1114",
"d  c #581317",
"f  c #5C1418",
"g  c #601519",
"h  c #412417",
"j  c #542E1D",
"k  c #59311F",
"l  c #7A1B20",
"z  c #433224",
"x  c #493728",
"c  c #463E2D",
"v  c #4C392A",
"b  c #5E3421",
"n  c #523E2C",
"m  c #403F3A",
"M  c #613622",
"N  c #6A3A25",
"B  c #653823",
"V  c #703E27",
"C  c #713E28",
"Z  c #48481F",
"A  c #44441D",
"S  c #56412F",
"D  c #58432F",
"F  c #4D4331",
"G  c #5B4532",
"H  c #544A36",
"J  c #5F4834",
"K  c #514734",
"L  c #5E523C",
"P  c #754129",
"I  c #7C442B",
"U  c #654C37",
"Y  c #684E37",
"T  c #694F38",
"R  c #63573F",
"E  c #72563D",
"W  c #76583F",
"Q  c #63632B",
"!  c #7B7B35",
"~  c #424242",
"^  c #4D4C45",
"/  c #4B4B4B",
"(  c #535353",
")  c #7B5C42",
"_  c #6D6046",
"`  c #716348",
"'  c #7C6D4F",
"]  c #7F7052",
"[  c #6C6C6C",
"{  c #7B796F",
"}  c gray46",
"|  c #7C7C7C",
" . c #9B2228",
".. c #D52F37",
"X. c #DF313A",
"o. c #81472D",
"O. c #FA3741",
"+. c #FF3842",
"@. c #836246",
"#. c #896749",
"$. c #8C694B",
"%. c #946F4F",
"&. c #867656",
"*. c #957050",
"=. c #9A7452",
"-. c #A17956",
";. c #A77E59",
":. c #A87F5A",
">. c #8B8B3C",
",. c #B2865F",
"<. c #B2B24C",
"1. c #838176",
"2. c #B68961",
"3. c #BB8D64",
"4. c #C9976B",
"5. c #CC9A6D",
"6. c #C49469",
"7. c #D29E70",
"8. c #D6A172",
"9. c #DDA676",
"0. c #DFA877",
"q. c #E0A877",
"w. c #E2AA79",
"e. c #EBB17E",
"r. c #E8E863",
"t. c #FEFE6D",
"y. c #F1F167",
"u. c #868686",
"i. c #8F8D81",
"p. c #989689",
"a. c #9B988B",
"s. c #939393",
"d. c #9C9C9C",
"f. c #AEAB9D",
"g. c #B0AD9E",
"h. c #ACACAC",
"j. c gray63",
"k. c #B7B7B7",
"l. c #BBBBBB",
"z. c #F2B681",
"x. c #F5B883",
"c. c #FCBD86",
"v. c #FFC088",
"b. c #CBC8B7",
"n. c #D1CDBB",
"m. c gray78",
"M. c #D9D5C2",
"N. c gray84",
"B. c gray85",
"V. c #E4E0CD",
"C. c #EEEBD6",
"Z. c #EBE7D3",
"A. c #F0ECD8",
"S. c #F7F3DE",
"D. c #E3E3E3",
"F. c #ECECEC",
"G. c #F4F4F4",
"H. c #FEFEFE",
"J. c None",
/* pixels */
"J.J.J.J.J.J.J.J.J.J.J.J.J.J.J.J.J.J.J.J.J.J.J.J.J.J.J.J.J.J.J.J.J.J.J.J.J.J.J.J.J.J.J.J.J.J.J.J.J.J.J.J.J.J.J.J.J.J.J.J.J.J.J.J.",
"J.J.J.J.J.J.J.J.J.J.J.J.J.J.J.J.J.J.J.J.J.J.J.J.J.J.J.J.J.J.J.J.J.J.J.J.J.J.J.J.J.J.J.J.J.J.J.J.J.J.J.J.J.J.J.J.J.J.J.J.J.J.J.J.",
"J.J.J.J.J.J.J.J.J.J.J.J.J.J.J.J.J.J.J.J.J.J.J.J.J.J.J.J.J.J.J.J.J.J.J.J.J.J.J.J.J.J.J.J.J.J.J.J.J.J.J.J.J.J.J.J.J.J.J.J.J.J.J.J.",
"J.J.J.J.J.J.J.J.J.J.J.J.J.J.J.J.J.J.J.J.J.J.J.J.J.J.J.J.J.J.J.J.J.J.J.J.J.J.J.J.J.J.J.J.J.J.J.J.J.J.J.J.J.J.J.J.J.J.J.J.J.J.J.J.",
"J.J.J.J.J.J.J.J.J.J.J.J.J.J.J.J.J.J.J.J.J.J.J.J.J.J.J.J.J.J.J.J.J.J.J.J.J.J.J.J.J.J.J.J.J.J.J.J.J.J.J.J.J.J.J.J.J.J.J.J.J.J.J.J.",
"J.J.J.J.J.J.J.J.J.J.J.J.J.J.J.J.J.J.J.J.J.J.J.J.J.J.J.J.J.J.J.J.J.J.J.J.J.J.J.J.J.J.J.J.J.J.J.J.J.J.J.J.J.J.J.J.J.J.J.J.J.J.J.J.",
"J.J.J.J.J.J.J.J.J.J.J.J.J.J.J.J.J.J.J.J.J.J.J.J.J.J.J.J.J.J.J.J.J.J.J.J.J.J.J.J.J.J.J.J.J.J.J.J.J.J.J.J.J.J.J.J.J.J.J.J.J.J.J.J.",
"J.J.J.J.J.J.J.J.J.J.J.J.J.J.J.J.J.J.J.J.J.J.J.J.J.J.J.J.J.J.J.J.J.J.J.J.J.J.J.J.J.J.J.J.J.J.J.J.J.J.J.J.J.J.J.J.J.J.J.J.J.J.J.J.",
"J.J.J.J.J.J.J.J.J.J.J.J.J.J.J.J.J.J.J.J.J.J.J.J.J.J.J.J.J.J.J.J.J.J.J.J.J.J.J.J.J.J.J.J.J.J.J.J.J.J.J.J.J.J.J.J.J.J.J.J.J.J.J.J.",
"J.J.J.J.J.J.J.J.J.J.J.J.J.J.J.J.J.J.J.J.J.J.J.J.J.J.J.J.J.J.J.J.J.J.J.J.J.J.J.J.J.J.J.J.J.J.J.J.J.J.J.J.J.J.J.J.J.J.J.J.J.J.J.J.",
"J.J.J.J.J.J.J.J.J.J.J.J.J.J.J.J.J.J.J.J.J.J.J.J.J.J.J.J.J.J.J.J.J.J.J.J.J.J.J.J.J.J.J.J.J.J.J.J.J.J.J.J.J.J.J.J.J.J.J.J.J.J.J.J.",
"J.J.J.J.J.J.J.J.J.J.J.J.J.J.J.J.J.J.J.J.J.J.J.J.J.J.J.J.J.J.J.J.J.J.J.J.J.J.J.J.J.J.J.J.J.J.J.J.J.J.J.J.J.J.J.J.J.J.J.J.J.J.J.J.",
"J.J.J.J.J.J.J.J.J.J.J.J.J.J.J.J.J.J.J.J.J.J.J.J.J.J.J.J.J.J.J.J.J.J.J.J.J.J.J.J.J.J.J.J.J.J.J.J.J.J.J.J.J.J.J.J.J.J.J.J.J.J.J.J.",
"J.J.J.J.J.J.J.J.J.J.J.J.J.J.J.J.J.J.J.J.J.J.J.J.J.J.J.J.J.J.J.J.J.J.J.J.J.J.J.J.J.J.J.J.J.J.J.J.J.J.J.J.J.J.J.J.J.J.J.J.J.J.J.J.",
"J.J.J.J.J.J.J.J.J.J.J.J.J.J.J.J.J.J.J.J.J.J.J.J.J.J.J.J.J.J.J.J.J.J.J.J.J.J.J.J.J.J.J.J.J.J.J.J.J.J.J.J.J.J.J.J.J.J.J.J.J.J.J.J.",
"J.J.J.J.J.J.J.J.J.J.J.J.J.J.J.J.J.J.J.J.J.J.J.J.J.J.J.J.J.J.J.J.J.J.J.J.J.J.J.J.J.J.J.J.J.J.J.J.J.J.J.J.J.J.J.J.J.J.J.J.J.J.J.J.",
"J.J.J.J.J.J.J.J.J.J.J.J.J.J.J.J.J.J.J.J.J.J.J.J.J.J.J.J.J.J.J.J.J.J.J.J.J.J.J.J.J.J.J.J.J.J.J.J.J.J.J.J.J.J.J.J.J.J.J.J.J.J.J.J.",
"J.J.J.J.J.J.J.J.J.J.J.J.J.J.J.J.J.J.J.J.J.J.J.J.J.J.J.J.J.J.J.J.J.J.J.J.J.J.J.J.J.J.J.J.J.J.J.J.J.J.J.J.J.J.J.J.J.J.J.J.J.J.J.J.",
"J.J.J.J.J.J.J.J.J.J.J.J.J.J.J.J.J.J.J.J.J.J.J.J.J.J.J.J.J.J.J.J.J.J.J.J.J.J.J.J.J.J.J.J.J.J.J.J.J.J.J.J.J.J.J.J.J.J.J.J.J.J.J.J.",
"J.J.J.J.J.J.J.J.J.J.J.J.J.J.J.J.J.J.J.J.J.J.J.J.J.J.J.J.J.J.J.J.J.J.J.J.J.J.J.J.J.J.J.J.J.J.J.J.J.J.J.J.J.J.J.J.J.J.J.J.J.J.J.J.",
"J.J.J.J.J.J.J.J.J.J.J.J.J.J.J.J.J.J.J.J.J.J.J.J.J.J.J.J.J.J.J.J.J.J.J.J.J.J.J.J.J.J.J.J.J.J.J.J.J.J.J.J.J.J.J.J.J.J.J.J.J.J.J.J.",
"J.J.J.J.J.J.J.J.J.J.J.J.J.J.J.J.J.J.J.J.J.J.J.J.J.J.J.J.J.J.J.J.J.J.J.J.J.J.J.J.J.J.J.J.J.J.J.J.J.J.J.J.J.J.J.J.J.J.J.J.J.J.J.J.",
"J.J.J.J.J.J.J.J.J.J.J.J.J.J.J.J.J.J.J.J.J.J.J.J.J.J.J.J.J.J.J.J.J.J.J.J.J.J.J.J.J.J.J.J.J.J.J.J.J.J.J.J.J.J.J.J.J.J.J.J.J.J.J.J.",
"J.J.J.J.J.J.J.J.J.J.J.J.J.J.J.J.J.J.J.J.J.J.J.J.J.J.J.J.J.J.J.J.J.J.J.J.J.J.J.J.J.J.J.J.J.J.J.J.J.J.J.J.J.J.J.J.J.J.J.J.J.J.J.J.",
"J.J.J.J.J.J.J.J.J.J.J.J.J.J.J.J.J.J.J.J.J.J.J.J.J.J.J.J.J.J.J.J.J.J.J.J.J.J.J.J.J.J.J.J.J.J.J.J.J.J.J.J.J.J.J.J.J.J.J.J.J.J.J.J.",
"J.J.J.J.J.J.J.J.J.J.J.J.J.J.J.J.J.J.J.J.J.J.J.J.J.J.J.J.J.J.J.J.J.J.J.J.J.J.J.J.J.J.J.J.J.J.J.J.J.J.J.J.J.J.J.J.J.J.J.J.J.J.J.J.",
"J.J.J.J.J.J.J.J.J.J.J.J.J.J.J.J.J.J.J.J.J.J.J.J.J.J.J.J.J.J.J.J.J.J.J.J.J.J.J.J.J.J.J.J.J.J.J.J.J.J.J.J.J.J.J.J.J.J.J.J.J.J.J.J.",
"J.J.J.J.J.J.J.J.J.J.J.J.J.J.J.J.J.J.J.J.J.J.J.J.J.J.J.J.J.J.J.J.J.J.J.J.J.J.J.J.J.J.J.J.J.J.J.J.J.J.J.J.J.J.J.J.J.J.J.J.J.J.J.J.",
"J.J.J.J.J.J.J.J.J.J.J.J.J.J.J.J.J.J.J.J.J.J.J.J.J.J.J.J.J.J.J.J.J.J.J.J.J.J.J.J.J.J.J.J.J.J.J.J.J.J.J.J.J.J.J.J.J.J.J.J.J.J.J.J.",
"J.J.J.J.J.J.J.J.J.J.J.J.J.J.J.J.J.J.J.J.J.J.J.J.J.J.J.J.J.J.J.J.J.J.J.J.J.J.J.J.J.J.J.J.J.J.J.J.J.J.J.J.J.J.J.J.J.J.J.J.J.J.J.J.",
"J.J.J.J.J.J.J.J.J.J.J.J.J.J.J.J.J.J.J.J.J.J.J.J.J.J.J.J.J.J.J.J.J.J.J.J.J.J.J.J.J.J.J.J.J.J.J.J.J.J.J.J.J.J.J.J.J.J.J.J.J.J.J.J.",
"J.J.J.J.J.J.J.J.J.J.J.J.J.J.J.J.J.J.J.J.J.J.J.J.J.J.J.J.J.J.J.J.J.J.J.J.J.J.J.J.J.J.J.J.J.J.J.J.J.J.J.J.J.J.J.J.J.J.J.J.J.J.J.J.",
"J.J.J.J.J.J.J.J.J.J.J.J.J.J.J.J.J.J.J.J.J.J.J.J.J.J.J.J.J.J.J.J.J.J.J.J.J.J.J.J.J.J.J.J.J.J.J.J.J.J.J.J.J.J.J.J.J.J.J.J.J.J.J.J.",
"J.J.J.J.J.J.J.J.J.J.J.J.J.J.J.J.J.J.J.J.J.J.J.J.J.J.J.J.J.J.J.J.J.J.J.J.J.J.J.J.J.J.J.J.J.J.J.J.J.J.J.J.J.J.J.J.J.J.J.J.J.J.J.J.",
"J.J.J.J.J.J.J.J.J.J.J.J.J.J.J.J.J.J.J.J.J.J.J.J.J.J.J.J.J.J.J.J.J.J.J.J.J.J.J.J.J.J.J.J.J.J.J.J.J.J.J.J.J.J.J.J.J.J.J.J.J.J.J.J.",
"J.J.J.J.J.J.J.J.J.J.J.J.J.J.J.J.J.J.J.J.J.J.J.J.J.J.J.J.J.J.J.J.J.J.J.J.J.J.J.J.J.J.J.J.J.J.J.J.J.J.J.J.J.J.J.J.J.J.J.J.J.J.J.J.",
"J.J.J.J.J.J.J.J.J.J.J.J.J.J.J.J.J.J.J.J.J.J.J.J.J.J.J.J.J.J.J.J.J.J.J.J.J.J.J.J.J.J.J.J.J.J.J.J.J.J.J.J.J.J.J.J.J.J.J.J.J.J.J.J.",
"J.J.J.J.J.J.J.J.J.J.J.J.J.J.J.J.J.J.J.J.J.J.J.J.J.J.J.J.J.J.J.J.J.J.J.J.J.J.J.J.J.J.J.J.J.J.J.J.J.J.J.J.J.J.J.J.J.J.J.J.J.J.J.J.",
"J.J.J.J.J.J.J.J.J.J.J.J.J.J.J.J.J.J.J.J.J.J.J.J.J.J.J.J.J.J.J.J.J.J.J.J.J.J.J.J.J.J.J.J.J.J.J.J.J.J.J.J.J.J.J.J.J.J.J.J.J.J.J.J.",
"J.J.J.J.J.J.J.J.J.J.J.J.J.J.J.J.J.J.J.J.J.J.J.J.J.J.J.J.J.J.J.J.J.J.J.J.J.J.J.J.J.J.J.J.J.J.J.J.J.J.J.J.J.J.J.J.J.J.J.J.J.J.J.J.",
"J.J.J.J.J.J.J.J.J.J.J.J.J.J.J.J.J.J.J.J.J.J.J.J.J.J.J.J.J.J.J.J.J.J.J.J.J.J.J.J.J.J.J.J.J.J.J.J.J.J.J.J.J.J.J.J.J.J.J.J.J.J.J.J.",
"J.J.J.J.J.J.J.J.J.J.J.J.J.J.J.J.J.J.J.J.J.J.J.J.J.J.J.J.J.J.J.J.J.J.J.J.J.J.J.J.J.J.J.J.J.J.J.J.J.J.J.J.J.J.J.J.J.J.J.J.J.J.J.J.",
"J.J.J.J.J.J.J.J.J.J.J.J.J.J.J.J.J.J.J.J.J.J.J.J.J.J.J.J.J.J.J.J.J.J.J.J.J.J.J.J.J.J.J.J.J.J.J.J.J.J.J.J.J.J.J.J.J.J.J.J.J.J.J.J.",
"J.J.J.J.J.J.J.J.J.J.J.J.J.J.J.J.J.J.J.J.J.J.J.J.J.J.J.J.J.J.J.J.J.J.J.J.J.J.J.J.J.J.J.J.J.J.J.J.J.J.J.J.J.J.J.J.J.J.J.J.J.J.J.J.",
"J.J.J.J.J.J.J.J.J.J.J.J.J.J.J.J.J.J.J.J.J.J.J.J.J.J.J.J.J.J.J.J.J.J.J.J.J.J.J.J.J.J.J.J.J.J.J.J.J.J.J.J.J.J.J.J.J.J.J.J.J.J.J.J.",
"J.J.J.J.J.J.J.J.J.J.J.J.J.J.J.J.J.J.J.J.J.J.J.J.J.J.J.J.J.J.J.J.J.J.J.J.J.J.J.J.J.J.J.J.J.J.J.J.J.J.J.J.J.J.J.J.J.J.J.J.J.J.J.J.",
"J.J.J.J.J.J.J.J.J.J.J.J.J.J.J.J.J.J.J.J.J.J.J.J.J.J.J.J.J.J.J.J.J.J.J.J.J.J.J.J.J.J.J.J.J.J.J.J.J.J.J.J.J.J.J.J.J.J.J.J.J.J.J.J.",
"J.J.J.J.J.J.J.J.J.J.J.J.J.J.J.J.J.J.J.J.J.J.J.J.J.J.J.J.J.J.J.J.J.J.J.J.J.J.J.J.J.J.J.J.J.J.J.J.J.J.J.J.J.J.J.J.J.J.J.J.J.J.J.J.",
"J.J.J.J.J.J.J.J.J.J.J.J.J.J.J.J.J.J.J.J.J.J.J.J.J.J.J.J.J.J.J.J.J.J.J.J.J.J.J.J.J.J.J.J.J.J.J.J.J.J.J.J.J.J.J.J.J.J.J.J.J.J.J.J.",
"J.J.J.J.J.J.J.J.J.J.J.J.J.J.J.J.J.J.J.J.J.J.J.J.J.J.J.J.J.J.J.J.J.J.J.J.J.J.J.J.J.J.J.J.J.J.J.J.J.J.J.J.J.J.J.J.J.J.J.J.J.J.J.J.",
"J.J.J.J.J.J.J.J.J.J.J.J.J.J.J.J.J.J.J.J.J.J.J.J.J.J.J.J.J.J.J.J.J.J.J.J.J.J.J.J.J.J.J.J.J.J.J.J.J.J.J.J.J.J.J.J.J.J.J.J.J.J.J.J.",
"J.J.J.J.J.J.J.J.J.J.J.J.J.J.J.J.J.J.J.J.J.J.J.J.J.J.J.J.J.J.J.J.J.J.J.J.J.J.J.J.J.J.J.J.J.J.J.J.J.J.J.J.J.J.J.J.J.J.J.J.J.J.J.J.",
"J.J.J.J.J.J.J.J.J.J.J.J.J.J.J.J.J.J.J.J.J.J.J.J.J.J.J.J.J.J.J.J.J.J.J.J.J.J.J.J.J.J.J.J.J.J.J.J.J.J.J.J.J.J.J.J.J.J.J.J.J.J.J.J.",
"J.J.J.J.J.J.J.J.J.J.J.J.J.J.J.J.J.J.J.J.J.J.J.J.J.J.J.J.J.J.J.J.J.J.J.J.J.J.J.J.J.J.J.J.J.J.J.J.J.J.J.J.J.J.J.J.J.J.J.J.J.J.J.J.",
"J.J.J.J.J.J.J.J.J.J.J.J.J.J.J.J.J.J.J.J.J.J.J.J.J.J.J.J.J.J.J.J.J.J.J.J.J.J.J.J.J.J.J.J.J.J.J.J.J.J.J.J.J.J.J.J.J.J.J.J.J.J.J.J.",
"J.J.J.J.J.J.J.J.J.J.J.J.J.J.J.J.J.J.J.J.J.J.J.J.J.J.J.J.J.J.J.J.J.J.J.J.J.J.J.J.J.J.J.J.J.J.J.J.J.J.J.J.J.J.J.J.J.J.J.J.J.J.J.J.",
"J.J.J.J.J.J.J.J.J.J.J.J.J.J.J.J.J.J.J.J.J.J.J.J.J.J.J.J.J.J.J.J.J.J.J.J.J.J.J.J.J.J.J.J.J.J.J.J.J.J.J.J.J.J.J.J.J.J.J.J.J.J.J.J.",
"J.J.J.J.J.J.J.J.J.J.J.J.J.J.J.J.J.J.J.J.J.J.J.J.                    J.J.J.J.J.J.J.J.J.J.J.J.J.J.J.J.J.J.J.J.J.J.J.J.J.J.J.J.J.J.",
"J.J.J.J.J.J.J.J.J.J.J.J.J.J.J.J.J.J.J.J.J.J.J.    . X X                       J.J.J.J.J.J.J.J.J.J.J.J.J.J.J.J.J.J.J.J.J.J.J.J.J.",
"J.J.J.J.J.J.J.J.J.J.J.J.J.J.J.J.J.J.J.J.J.J.J.  . n U U U U D x w 9 & .             J.J.J.J.J.J.J.J.J.J.J.J.J.J.J.J.J.J.J.J.J.J.",
"J.J.J.J.J.J.J.J.J.J.J.J.J.J.J.J.J.J.J.J.J.J.    0 U U U U U U U U U U U G x 9 %           J.J.J.J.J.J.J.J.J.J.J.J.J.J.J.J.J.J.J.",
"J.J.J.J.J.J.J.J.J.J.J.J.J.J.J.J.J.J.J.J.J.J.  . D U U U U U U U U U U U U U U U G w #       J.J.J.J.J.J.J.J.J.J.J.J.J.J.J.J.J.J.",
"J.J.J.J.J.J.J.J.J.J.J.J.J.J.J.J.J.J.J.J.J.    2 U U U J y # # G U U U U U U U U U U U x X     J.J.J.J.J.J.J.J.J.J.J.J.J.J.J.J.J.",
"J.J.J.J.J.J.J.J.J.J.J.J.J.J.J.J.J.J.J.J.J.    y U U J 2 % x U U U U U U U U U U U U U U D .   J.J.J.J.J.J.J.J.J.J.J.J.J.J.J.J.J.",
"J.J.J.J.J.J.J.J.J.J.J.J.J.J.J.J.J.J.J.J.J.  . n U U q - G U U U U U U U U U U U U U U U U 3     J.J.J.J.J.J.J.J.J.J.J.J.J.J.J.J.",
"J.J.J.J.J.J.J.J.J.J.J.J.J.J.J.J.J.J.J.J.    % J U U < z U U U U T U U U U U T U U U U U U z     J.J.J.J.J.J.J.J.J.J.J.J.J.J.J.J.",
"J.J.J.J.J.J.J.J.J.J.J.J.J.J.J.J.J.J.        3 U U U 2 9 U U U U U U U U U U U U U U U U U n     J.J.J.J.J.J.J.J.J.J.J.J.J.J.J.J.",
"J.J.J.J.J.J.J.J.J.J.J.J.J.J.J.J.        -   z U U U D # 2 U U U U U U T U U U U U U U U U G .     J.J.J.J.J.J.J.J.J.J.J.J.J.J.J.",
"J.J.J.J.J.J.J.J.J.J.J.J.J.J.        2 D v . S U U U U G - # 3 n U U U U U U U U U U U U U n #       J.J.J.J.J.J.J.J.J.J.J.J.J.J.",
"J.J.J.J.J.J.J.J.J.J.J.J.J.      & n U U y + J U U U U U U x q z U U U U U U T U U U U U U U $ %       J.J.J.J.J.J.J.J.J.J.J.J.J.",
"J.J.J.J.J.J.J.J.J.J.J.J.    . y U U U U 9 - U U U U U U U U U U U U U U U U U U T U U U U G - 0 n X     J.J.J.J.J.J.J.J.J.J.J.J.",
"J.J.J.J.J.J.J.J.J.J.J.    # n U U U U U & + 0 i v G U U U U U U U U U U U U U U U U U U U U & 0 U G #     J.J.J.J.J.J.J.J.J.J.J.",
"J.J.J.J.J.J.J.J.J.J.    & G U U U U U U . . . .       + - 2 0 y x n G U U U U U U U U U U U - 0 U U G &     J.J.J.J.J.J.J.J.J.J.",
"J.J.J.J.J.J.J.J.J.    & U U U U U U U n . 2 9 9 9 3 2 % @               . + - - 3 2 3 0 q 2 X 0 U U U G #     J.J.J.J.J.J.J.J.J.",
"J.J.J.J.J.J.J.J.    X G U U U U U U U x . 3 7 < # .                           @ # # X + X X   0 U U U U D .     J.J.J.J.J.J.J.J.",
"J.J.J.J.J.J.J.J.    z U U U U U U U U w   +     - 0 z n G U U U T U S x w 2 .   . & 9 9 0 3   u U U U U U x     J.J.J.J.J.J.J.J.",
"J.J.J.J.J.J.J.J.  + U U U U U U U z -   + 9 v U U U U U U U U U U U U U U U U v 3 .   % 7 7 . 0 U U U U U U 7     J.J.J.J.J.J.J.",
"J.J.J.J.J.J.J.J.  # G U U U U x #   2 v U U U U U U U U U U U U U U U U U U U U U J y +   # . 0 U U U U U U G .   J.J.J.J.J.J.J.",
"J.J.J.J.J.J.J.J.    z U U U 0   2 S U U U U U U U U U U U U U U U U U U U U U U U U U U w .   y U U U U U U U q     J.J.J.J.J.J.",
"J.J.J.J.J.J.J.J.      7 G U z x U U U U U U U U U U U U U U U U U U U U U U U U U U U U U n % . v U U U U U U G     J.J.J.J.J.J.",
"J.J.J.J.J.J.J.J.J.        7 n U U U U U U U U U U U U U U U U U U U U U U U U U U U U U U U U 2 . x U U U U U U #   J.J.J.J.J.J.",
"J.J.J.J.J.J.J.J.J.J.J.        X 2 z D U U U U U U U U U U U U U U U U U U U U U U U U U U U U U 2 . D U U U U J +   J.J.J.J.J.J.",
"J.J.J.J.J.J.J.J.J.J.J.J.J.            . % 2 q z v D U U U U U U U U U U U U U U U U U U U U U U J % 2 U U U U z     J.J.J.J.J.J.",
"J.J.J.J.J.J.J.J.J.J.J.J.J.J.J.    -   t ~ p .           + # % - 2 2 9 w 0 q y z x x v D G G U U U i @ G n y &       J.J.J.J.J.J.",
"J.J.J.J.J.J.J.J.J.J.J.J.J.J.J.    p l.H.H.H.D.} +   $.2.=.$.@.) U G v z y q   .                                   J.J.J.J.J.J.J.",
"J.J.J.J.J.J.J.J.J.J.J.J.J.J.    p F.H.H.H.H.H.H.h.% 7.v.v.v.v.v.v.v.v.v.v.x.n < o.o.I C C B M M k .           J.J.J.J.J.J.J.J.J.",
"J.J.J.J.J.J.J.J.J.J.J.J.J.J.    d.D.H.H.H.H.H.H.G.r *.v.v.v.v.v.v.v.v.v.v.v.6.+ j o.o.o.o.o.o.o.I @   J.J.J.J.J.J.J.J.J.J.J.J.J.",
"J.J.J.J.J.J.J.J.J.J.J.J.J.J.  . /   ( G.H.H.H.H.H./ E c.v.v.v.v.v.v.v.v.v.v.c.T $ I o.o.o.o.o.o.P .   J.J.J.J.J.J.J.J.J.J.J.J.J.",
"J.J.J.J.J.J.J.J.J.J.J.J.J.    + (   ~ G.H.H.H.H.H.p @.v.v.v.v.v.v.v.v.v.v.v.v.5.X k o.o.o.o.o.o.C .   J.J.J.J.J.J.J.J.J.J.J.J.J.",
"J.J.J.J.J.J.J.J.J.J.J.J.J.      h.h.F.H.H.H.H.H.D.: ,.v.v.v.v.v.v.v.v.v.v.v.v.c.n < I o.o.o.o.o.N     J.J.J.J.J.J.J.J.J.J.J.J.J.",
"J.J.J.J.J.J.J.J.J.J.J.J.    U w ( G.H.H.H.H.H.H.j.% 8.v.v.v.v.v.v.v.v.v.v.v.v.v.3.. M o.o.o.o.o.j     J.J.J.J.J.J.J.J.J.J.J.J.J.",
"J.J.J.J.J.J.J.J.J.J.J.J.    x E . [ G.H.H.H.H.m.: E v.v.v.v.v.v.v.v.v.5.-.2.x.v.z.z 4 o.o.o.o.o.4     J.J.J.J.J.J.J.J.J.J.J.J.J.",
"J.J.J.J.J.J.J.J.J.J.J.J.J.          r | l.k.} = x z.v.v.v.v.v.v.v.v.=.  & . 7 q.c.:.. N o.o.o.I $   J.J.J.J.J.J.J.J.J.J.J.J.J.J.",
"J.J.J.J.J.J.J.J.J.J.J.J.J.J.    # 4.@.7     9 %.c.v.v.v.v.v.v.v.v.v.e.8.v.0.7 T v.e.9 h o.o.o.k     J.J.J.J.J.J.J.J.J.J.J.J.J.J.",
"J.J.J.J.J.J.J.J.J.J.J.J.J.J.J.    #.v.v.v.v.v.v.v.v.v.v.v.v.v.v.v.v.v.v.v.v.W w v.v.W $ I o.o.4     J.J.J.J.J.J.J.J.J.J.J.J.J.J.",
"J.J.J.J.J.J.J.J.J.J.J.J.J.J.J.J.  - w.v.v.v.v.v.v.v.v.v.v.v.v.v.v.v.v.v.v.v.G D v.v.5.. N o.M     J.J.J.J.J.J.J.J.J.J.J.J.J.J.J.",
"J.J.J.J.J.J.J.J.J.J.J.J.J.J.J.J.    v =.#.5.c.v.v.v.v.v.v.v.v.v.v.2.q ,.5.E + -.v.v.7.. B N X     J.J.J.J.J.J.J.J.J.J.J.J.J.J.J.",
"J.J.J.J.J.J.J.J.J.J.J.J.J.J.J.J.J.    X 2 . D q.v.v.v.v.v.v.v.v.v.e.U .   2 *.c.v.v.w.- < @     J.J.J.J.J.J.J.J.J.J.J.J.J.J.J.J.",
"J.J.J.J.J.J.J.J.J.J.J.J.J.J.J.J.J.    . =.2.z 3.v.v.v.v.v.v.v.v.v.v.v.9.8.c.v.v.v.v.,.#       J.J.J.J.J.J.J.J.J.J.J.J.J.J.J.J.J.",
"J.J.J.J.J.J.J.J.J.J.J.J.J.J.J.J.J.J.      E z.v.v.v.v.v.v.v.v.v.v.v.v.v.v.v.v.v.c.-.#       J.J.J.J.J.J.J.J.J.J.J.J.J.J.J.J.J.J.",
"J.J.J.J.J.J.J.J.J.J.J.J.J.J.J.J.J.J.J.      7 :.c.v.v.v.v.v.v.v.v.v.v.v.v.v.v.9.D       J.J.J.J.J.J.J.J.J.J.J.J.J.J.J.J.J.J.J.J.",
"J.J.J.J.J.J.J.J.J.J.J.J.J.J.J.J.J.J.J.J.        2 ` 7.v.v.v.v.v.v.v.v.v.c.4.U .       J.J.J.J.J.J.J.J.J.J.J.J.J.J.J.J.J.J.J.J.J.",
"J.J.J.J.J.J.J.J.J.J.J.J.J.J.J.J.J.J.J.J.     .X.s     & S @.=.-.,.=.@.D *   ; 8     J.J.J.J.J.J.J.J.J.J.J.J.J.J.J.J.J.J.J.J.J.J.",
"J.J.J.J.J.J.J.J.J.J.J.J.J.J.J.J.J.J.J.    d O.+.s   5 >.Q e 5 * X   % q F ` &.L     J.J.J.J.J.J.J.J.J.J.J.J.J.J.J.J.J.J.J.J.J.J.",
"J.J.J.J.J.J.J.J.J.J.J.J.J.J.J.J.J.J.J.  . ..+.+.,   Q t.t.t.t.t.<.o _ &.&.&.&.` .   J.J.J.J.J.J.J.J.J.J.J.J.J.J.J.J.J.J.J.J.J.J.",
"J.J.J.J.J.J.J.J.J.J.J.J.J.J.J.J.J.J.    l O.+.+.s   A <.t.t.t.t.! * ] &.&.&.&.' -   J.J.J.J.J.J.J.J.J.J.J.J.J.J.J.J.J.J.J.J.J.J.",
"J.J.J.J.J.J.J.J.J.J.J.J.J.J.J.J.J.J.    > f f s . 2 7   6 >.r.y.6 F &.&.&.&.&.&.8     J.J.J.J.J.J.J.J.J.J.J.J.J.J.J.J.J.J.J.J.J.",
"J.J.J.J.J.J.J.J.J.J.J.J.J.J.J.J.J.J.J.            i K % U % X Z X _ &.&.&.&.&.&.i     J.J.J.J.J.J.J.J.J.J.J.J.J.J.J.J.J.J.J.J.J.",
"J.J.J.J.J.J.J.J.J.J.J.J.J.J.J.J.J.J.J.J.J.J.J.    ; % T e.9 % . . c H H H H F q %       J.J.J.J.J.J.J.J.J.J.J.J.J.J.J.J.J.J.J.J.",
"J.J.J.J.J.J.J.J.J.J.J.J.J.J.J.J.J.J.J.J.J.J.J.      % 8.*.          O O o o   # v T 7     J.J.J.J.J.J.J.J.J.J.J.J.J.J.J.J.J.J.J.",
"J.J.J.J.J.J.J.J.J.J.J.J.J.J.J.J.J.J.J.J.J.J.      % ;.q.2 + ^ p .     O O o   % 5.c.$.      J.J.J.J.J.J.J.J.J.J.J.J.J.J.J.J.J.J.",
"J.J.J.J.J.J.J.J.J.J.J.J.J.J.J.J.J.J.J.J.J.J.      S v.$.  1.S.S.C.b.f.a.a.{ o   . n %       J.J.J.J.J.J.J.J.J.J.J.J.J.J.J.J.J.J.",
"J.J.J.J.J.J.J.J.J.J.J.J.J.J.J.J.J.J.  .           U v.)   r b.S.S.S.S.S.S.A.^               J.J.J.J.J.J.J.J.J.J.J.J.J.J.J.J.J.J.",
"J.J.J.J.J.J.J.J.J.J.J.J.J.J.J.J.J.J.                . -     8 b.S.S.S.S.S.S.g.              J.J.J.J.J.J.J.J.J.J.J.J.J.J.J.J.J.J.",
"J.J.J.J.J.J.J.J.    o   .     . . o         = :               t n.S.S.S.S.S.C.m             .   .   o . .       J.J.J.J.J.J.J.J.",
"J.J.J.J.J.J.J.J.      .   o .               t D.D.u.:           t M.S.S.S.S.V.^                 .       . o     J.J.J.J.J.J.J.J.",
"J.J..     .   .                               p B.H.H.B.d.+       t n.S.C.p.:   a | t                           o   o . .   J.J.",
"J.J.  o .   o   .                               + [ l.m.s.          t 1.:   . | G.h.=                           .         o J.J.",
"                                                                          t h.G.s.=                                             ",
"  .                                                                     u.H.N.(                                             .   ",
"    o                                                                 + p :                                     .               ",
"      .   . o                                                                                                         o         ",
"J.J.J.J.          o   .     .                                                                       .                   J.J.J.J.",
"J.J.J.J.  .                                                                                               .         .   J.J.J.J.",
"J.J.J.J.J.J.J.J.J.J.o   o     . .                                                           o .     o   o   J.J.J.J.J.J.J.J.J.J.",
"J.J.J.J.J.J.J.J.J.J..     .   o                                                               o   .   . .   J.J.J.J.J.J.J.J.J.J.",
"J.J.J.J.J.J.J.J.J.J.J.J.J.J.J.J.J.J.J.J.                                                J.J.J.J.J.J.J.J.J.J.J.J.J.J.J.J.J.J.J.J.",
"J.J.J.J.J.J.J.J.J.J.J.J.J.J.J.J.J.J.J.J.                                                J.J.J.J.J.J.J.J.J.J.J.J.J.J.J.J.J.J.J.J."
};
