/* XPM */
static char *result[] = {
/* columns rows colors chars-per-pixel */
"64 128 173 2 ",
"   c #010101",
".  c #090605",
"X  c #0C0906",
"o  c #0E0C0A",
"O  c #120E0A",
"+  c #1B0F0B",
"@  c #15110C",
"#  c #1A140E",
"$  c #1D1B0C",
"%  c #161514",
"&  c #1E1710",
"*  c #1E1914",
"=  c #181818",
"-  c #27080A",
";  c #28090A",
":  c #390D0F",
">  c #370C0E",
",  c #23140C",
"<  c #2A160E",
"1  c #30110E",
"2  c #231A13",
"3  c #291E16",
"4  c #201F1F",
"5  c #381F14",
"6  c #21210E",
"7  c #252314",
"8  c #2B2017",
"9  c #2D2219",
"0  c #292816",
"q  c #30241A",
"w  c #36291E",
"e  c #392B1F",
"r  c #353516",
"t  c #242423",
"y  c #292726",
"u  c #2A2927",
"i  c #2B2A2A",
"p  c #3C2D21",
"a  c #342D21",
"s  c #3D3224",
"d  c #3E3628",
"f  c #34332F",
"g  c #343432",
"h  c #3D3D3D",
"j  c #420F11",
"k  c #65161A",
"l  c #771A1F",
"z  c #482819",
"x  c #522D1D",
"c  c #59311F",
"v  c #443325",
"b  c #493727",
"n  c #493728",
"m  c #4D3A2A",
"M  c #523E2C",
"N  c #5D3321",
"B  c #663824",
"V  c #46461F",
"C  c #4B4825",
"Z  c #56412E",
"A  c #59432F",
"S  c #555524",
"D  c #4B4231",
"F  c #45443E",
"G  c #544432",
"H  c #5C4532",
"J  c #5F4834",
"K  c #564B37",
"L  c #5E533D",
"P  c #654C37",
"I  c #694F38",
"U  c #6B5039",
"Y  c #72563D",
"T  c #75583F",
"R  c #69692D",
"E  c #7E7E36",
"W  c #737331",
"Q  c #434343",
"!  c #4B4B4B",
"~  c #54524C",
"^  c #535353",
"/  c #5C5C5C",
"(  c #595850",
")  c #6C5F46",
"_  c #775A40",
"`  c #7B5C42",
"'  c #6F6247",
"]  c #73664A",
"[  c #796B4E",
"{  c #77694C",
"}  c #7D6E50",
"|  c #7F7051",
" . c #64625A",
".. c #696969",
"X. c #626262",
"o. c #706E65",
"O. c #76746A",
"+. c #737373",
"@. c #7C7B75",
"#. c #831D22",
"$. c #9D2228",
"%. c #AF272D",
"&. c #B5282F",
"*. c #C92C34",
"=. c #EC343D",
"-. c #F2353F",
";. c #FB3741",
":. c #FF3842",
">. c #846346",
",. c #8A684A",
"<. c #926D4E",
"1. c #95704F",
"2. c #857556",
"3. c #977150",
"4. c #9B7553",
"5. c #9F7855",
"6. c #A57D58",
"7. c #838338",
"8. c #8D8D3C",
"9. c #93933F",
"0. c #9A9A42",
"q. c #AC825C",
"w. c #B0845E",
"e. c #AEAE4A",
"r. c #BDBD51",
"t. c #8E8B7F",
"y. c #B68961",
"u. c #BC8D64",
"i. c #C49469",
"p. c #C9976B",
"a. c #CC9A6D",
"s. c #D09C6F",
"d. c #D29E70",
"f. c #D7A273",
"g. c #DBA575",
"h. c #DFA877",
"j. c #E0A877",
"k. c #E4AC7A",
"l. c #EDB27E",
"z. c #C9C956",
"x. c #DEDE5F",
"c. c #E6E662",
"v. c #FEFE6D",
"b. c #F5F569",
"n. c #888888",
"m. c #9A978A",
"M. c #959595",
"N. c #9B9B9B",
"B. c #A5A395",
"V. c #A4A4A4",
"C. c #ABABAB",
"Z. c #BEBBAB",
"A. c #B3B3B3",
"S. c #BBBBBB",
"D. c #F1B680",
"F. c #F6B983",
"G. c #FCBE86",
"H. c #C2BEAE",
"J. c #FFC088",
"K. c #CAC7B6",
"L. c #C4C4C4",
"P. c #C8C8C8",
"I. c #D4D4D4",
"U. c #DCDCDC",
"Y. c #E6E3CF",
"T. c #EEEAD6",
"R. c #F2EEDA",
"E. c #F6F2DD",
"W. c #E2E2E2",
"Q. c #ECECEC",
"!. c gray96",
"~. c #FEFEFE",
"^. c None",
/* pixels */
"^.^.^.^.^.^.^.^.^.^.^.^.^.^.^.^.^.^.^.^.^.^.^.^.^.^.^.^.^.^.^.^.^.^.^.^.^.^.^.^.^.^.^.^.^.^.^.^.^.^.^.^.^.^.^.^.^.^.^.^.^.^.^.^.",
"^.^.^.^.^.^.^.^.^.^.^.^.^.^.^.^.^.^.^.^.^.^.^.^.^.^.^.^.^.^.^.^.^.^.^.^.^.^.^.^.^.^.^.^.^.^.^.^.^.^.^.^.^.^.^.^.^.^.^.^.^.^.^.^.",
"^.^.^.^.^.^.^.^.^.^.^.^.^.^.^.^.^.^.^.^.^.^.^.^.^.^.^.^.^.^.^.^.^.^.^.^.^.^.^.^.^.^.^.^.^.^.^.^.^.^.^.^.^.^.^.^.^.^.^.^.^.^.^.^.",
"^.^.^.^.^.^.^.^.^.^.^.^.^.^.^.^.^.^.^.^.^.^.^.^.^.^.^.^.^.^.^.^.^.^.^.^.^.^.^.^.^.^.^.^.^.^.^.^.^.^.^.^.^.^.^.^.^.^.^.^.^.^.^.^.",
"^.^.^.^.^.^.^.^.^.^.^.^.^.^.^.^.^.^.^.^.^.^.^.^.^.^.^.^.^.^.^.^.^.^.^.^.^.^.^.^.^.^.^.^.^.^.^.^.^.^.^.^.^.^.^.^.^.^.^.^.^.^.^.^.",
"^.^.^.^.^.^.^.^.^.^.^.^.^.^.^.^.^.^.^.^.^.^.^.^.^.^.^.^.^.^.^.^.^.^.^.^.^.^.^.^.^.^.^.^.^.^.^.^.^.^.^.^.^.^.^.^.^.^.^.^.^.^.^.^.",
"^.^.^.^.^.^.^.^.^.^.^.^.^.^.^.^.^.^.^.^.^.^.^.^.^.^.^.^.^.^.^.^.^.^.^.^.^.^.^.^.^.^.^.^.^.^.^.^.^.^.^.^.^.^.^.^.^.^.^.^.^.^.^.^.",
"^.^.^.^.^.^.^.^.^.^.^.^.^.^.^.^.^.^.^.^.^.^.^.^.^.^.^.^.^.^.^.^.^.^.^.^.^.^.^.^.^.^.^.^.^.^.^.^.^.^.^.^.^.^.^.^.^.^.^.^.^.^.^.^.",
"^.^.^.^.^.^.^.^.^.^.^.^.^.^.^.^.^.^.^.^.^.^.^.^.^.^.^.^.^.^.^.^.^.^.^.^.^.^.^.^.^.^.^.^.^.^.^.^.^.^.^.^.^.^.^.^.^.^.^.^.^.^.^.^.",
"^.^.^.^.^.^.^.^.^.^.^.^.^.^.^.^.^.^.^.^.^.^.^.^.^.^.^.^.^.^.^.^.^.^.^.^.^.^.^.^.^.^.^.^.^.^.^.^.^.^.^.^.^.^.^.^.^.^.^.^.^.^.^.^.",
"^.^.^.^.^.^.^.^.^.^.^.^.^.^.^.^.^.^.^.^.^.^.^.^.^.^.^.^.^.^.^.^.^.^.^.^.^.^.^.^.^.^.^.^.^.^.^.^.^.^.^.^.^.^.^.^.^.^.^.^.^.^.^.^.",
"^.^.^.^.^.^.^.^.^.^.^.^.^.^.^.^.^.^.^.^.^.^.^.^.^.^.^.^.^.^.^.^.^.^.^.^.^.^.^.^.^.^.^.^.^.^.^.^.^.^.^.^.^.^.^.^.^.^.^.^.^.^.^.^.",
"^.^.^.^.^.^.^.^.^.^.^.^.^.^.^.^.^.^.^.^.^.^.^.^.^.^.^.^.^.^.^.^.^.^.^.^.^.^.^.^.^.^.^.^.^.^.^.^.^.^.^.^.^.^.^.^.^.^.^.^.^.^.^.^.",
"^.^.^.^.^.^.^.^.^.^.^.^.^.^.^.^.^.^.^.^.^.^.^.^.^.^.^.^.^.^.^.^.^.^.^.^.^.^.^.^.^.^.^.^.^.^.^.^.^.^.^.^.^.^.^.^.^.^.^.^.^.^.^.^.",
"^.^.^.^.^.^.^.^.^.^.^.^.^.^.^.^.^.^.^.^.^.^.^.^.^.^.^.^.^.^.^.^.^.^.^.^.^.^.^.^.^.^.^.^.^.^.^.^.^.^.^.^.^.^.^.^.^.^.^.^.^.^.^.^.",
"^.^.^.^.^.^.^.^.^.^.^.^.^.^.^.^.^.^.^.^.^.^.^.^.^.^.^.^.^.^.^.^.^.^.^.^.^.^.^.^.^.^.^.^.^.^.^.^.^.^.^.^.^.^.^.^.^.^.^.^.^.^.^.^.",
"^.^.^.^.^.^.^.^.^.^.^.^.^.^.^.^.^.^.^.^.^.^.^.^.^.^.^.^.^.^.^.^.^.^.^.^.^.^.^.^.^.^.^.^.^.^.^.^.^.^.^.^.^.^.^.^.^.^.^.^.^.^.^.^.",
"^.^.^.^.^.^.^.^.^.^.^.^.^.^.^.^.^.^.^.^.^.^.^.^.^.^.^.^.^.^.^.^.^.^.^.^.^.^.^.^.^.^.^.^.^.^.^.^.^.^.^.^.^.^.^.^.^.^.^.^.^.^.^.^.",
"^.^.^.^.^.^.^.^.^.^.^.^.^.^.^.^.^.^.^.^.^.^.^.^.^.^.^.^.^.^.^.^.^.^.^.^.^.^.^.^.^.^.^.^.^.^.^.^.^.^.^.^.^.^.^.^.^.^.^.^.^.^.^.^.",
"^.^.^.^.^.^.^.^.^.^.^.^.^.^.^.^.^.^.^.^.^.^.^.^.^.^.^.^.^.^.^.^.^.^.^.^.^.^.^.^.^.^.^.^.^.^.^.^.^.^.^.^.^.^.^.^.^.^.^.^.^.^.^.^.",
"^.^.^.^.^.^.^.^.^.^.^.^.^.^.^.^.^.^.^.^.^.^.^.^.^.^.^.^.^.^.^.^.^.^.^.^.^.^.^.^.^.^.^.^.^.^.^.^.^.^.^.^.^.^.^.^.^.^.^.^.^.^.^.^.",
"^.^.^.^.^.^.^.^.^.^.^.^.^.^.^.^.^.^.^.^.^.^.^.^.^.^.^.^.^.^.^.^.^.^.^.^.^.^.^.^.^.^.^.^.^.^.^.^.^.^.^.^.^.^.^.^.^.^.^.^.^.^.^.^.",
"^.^.^.^.^.^.^.^.^.^.^.^.^.^.^.^.^.^.^.^.^.^.^.^.^.^.^.^.^.^.^.^.^.^.^.^.^.^.^.^.^.^.^.^.^.^.^.^.^.^.^.^.^.^.^.^.^.^.^.^.^.^.^.^.",
"^.^.^.^.^.^.^.^.^.^.^.^.^.^.^.^.^.^.^.^.^.^.^.^.^.^.^.^.^.^.^.^.^.^.^.^.^.^.^.^.^.^.^.^.^.^.^.^.^.^.^.^.^.^.^.^.^.^.^.^.^.^.^.^.",
"^.^.^.^.^.^.^.^.^.^.^.^.^.^.^.^.^.^.^.^.^.^.^.^.^.^.^.^.^.^.^.^.^.^.^.^.^.^.^.^.^.^.^.^.^.^.^.^.^.^.^.^.^.^.^.^.^.^.^.^.^.^.^.^.",
"^.^.^.^.^.^.^.^.^.^.^.^.^.^.^.^.^.^.^.^.^.^.^.^.^.^.^.^.^.^.^.^.^.^.^.^.^.^.^.^.^.^.^.^.^.^.^.^.^.^.^.^.^.^.^.^.^.^.^.^.^.^.^.^.",
"^.^.^.^.^.^.^.^.^.^.^.^.^.^.^.^.^.^.^.^.^.^.^.^.^.^.^.^.^.^.^.^.^.^.^.^.^.^.^.^.^.^.^.^.^.^.^.^.^.^.^.^.^.^.^.^.^.^.^.^.^.^.^.^.",
"^.^.^.^.^.^.^.^.^.^.^.^.^.^.^.^.^.^.^.^.^.^.^.^.^.^.^.^.^.^.^.^.^.^.^.^.^.^.^.^.^.^.^.^.^.^.^.^.^.^.^.^.^.^.^.^.^.^.^.^.^.^.^.^.",
"^.^.^.^.^.^.^.^.^.^.^.^.^.^.^.^.^.^.^.^.^.^.^.^.^.^.^.^.^.^.^.^.^.^.^.^.^.^.^.^.^.^.^.^.^.^.^.^.^.^.^.^.^.^.^.^.^.^.^.^.^.^.^.^.",
"^.^.^.^.^.^.^.^.^.^.^.^.^.^.^.^.^.^.^.^.^.^.^.^.^.^.^.^.^.^.^.^.^.^.^.^.^.^.^.^.^.^.^.^.^.^.^.^.^.^.^.^.^.^.^.^.^.^.^.^.^.^.^.^.",
"^.^.^.^.^.^.^.^.^.^.^.^.^.^.^.^.^.^.^.^.^.^.^.^.^.^.^.^.^.^.^.^.^.^.^.^.^.^.^.^.^.^.^.^.^.^.^.^.^.^.^.^.^.^.^.^.^.^.^.^.^.^.^.^.",
"^.^.^.^.^.^.^.^.^.^.^.^.^.^.^.^.^.^.^.^.^.^.^.^.^.^.^.^.^.^.^.^.^.^.^.^.^.^.^.^.^.^.^.^.^.^.^.^.^.^.^.^.^.^.^.^.^.^.^.^.^.^.^.^.",
"^.^.^.^.^.^.^.^.^.^.^.^.^.^.^.^.^.^.^.^.^.^.^.^.^.^.^.^.^.^.^.^.^.^.^.^.^.^.^.^.^.^.^.^.^.^.^.^.^.^.^.^.^.^.^.^.^.^.^.^.^.^.^.^.",
"^.^.^.^.^.^.^.^.^.^.^.^.^.^.^.^.^.^.^.^.^.^.^.^.^.^.^.^.^.^.^.^.^.^.^.^.^.^.^.^.^.^.^.^.^.^.^.^.^.^.^.^.^.^.^.^.^.^.^.^.^.^.^.^.",
"^.^.^.^.^.^.^.^.^.^.^.^.^.^.^.^.^.^.^.^.^.^.^.^.^.^.^.^.^.^.^.^.^.^.^.^.^.^.^.^.^.^.^.^.^.^.^.^.^.^.^.^.^.^.^.^.^.^.^.^.^.^.^.^.",
"^.^.^.^.^.^.^.^.^.^.^.^.^.^.^.^.^.^.^.^.^.^.^.^.^.^.^.^.^.^.^.^.^.^.^.^.^.^.^.^.^.^.^.^.^.^.^.^.^.^.^.^.^.^.^.^.^.^.^.^.^.^.^.^.",
"^.^.^.^.^.^.^.^.^.^.^.^.^.^.^.^.^.^.^.^.^.^.^.^.^.^.^.^.^.^.^.^.^.^.^.^.^.^.^.^.^.^.^.^.^.^.^.^.^.^.^.^.^.^.^.^.^.^.^.^.^.^.^.^.",
"^.^.^.^.^.^.^.^.^.^.^.^.^.^.^.^.^.^.^.^.^.^.^.^.^.^.^.^.^.^.^.^.^.^.^.^.^.^.^.^.^.^.^.^.^.^.^.^.^.^.^.^.^.^.^.^.^.^.^.^.^.^.^.^.",
"^.^.^.^.^.^.^.^.^.^.^.^.^.^.^.^.^.^.^.^.^.^.^.^.^.^.^.^.^.^.^.^.^.^.^.^.^.^.^.^.^.^.^.^.^.^.^.^.^.^.^.^.^.^.^.^.^.^.^.^.^.^.^.^.",
"^.^.^.^.^.^.^.^.^.^.^.^.^.^.^.^.^.^.^.^.^.^.^.^.^.^.^.^.^.^.^.^.^.^.^.^.^.^.^.^.^.^.^.^.^.^.^.^.^.^.^.^.^.^.^.^.^.^.^.^.^.^.^.^.",
"^.^.^.^.^.^.^.^.^.^.^.^.^.^.^.^.^.^.^.^.^.^.^.^.^.^.^.^.^.^.^.^.^.^.^.^.^.^.^.^.^.^.^.^.^.^.^.^.^.^.^.^.^.^.^.^.^.^.^.^.^.^.^.^.",
"^.^.^.^.^.^.^.^.^.^.^.^.^.^.^.^.^.^.^.^.^.^.^.^.^.^.^.^.^.^.^.^.^.^.^.^.^.^.^.^.^.^.^.^.^.^.^.^.^.^.^.^.^.^.^.^.^.^.^.^.^.^.^.^.",
"^.^.^.^.^.^.^.^.^.^.^.^.^.^.^.^.^.^.^.^.^.^.^.^.^.^.^.^.^.^.^.^.^.^.^.^.^.^.^.^.^.^.^.^.^.^.^.^.^.^.^.^.^.^.^.^.^.^.^.^.^.^.^.^.",
"^.^.^.^.^.^.^.^.^.^.^.^.^.^.^.^.^.^.^.^.^.^.^.^.^.^.^.^.^.^.^.^.^.^.^.^.^.^.^.^.^.^.^.^.^.^.^.^.^.^.^.^.^.^.^.^.^.^.^.^.^.^.^.^.",
"^.^.^.^.^.^.^.^.^.^.^.^.^.^.^.^.^.^.^.^.^.^.^.^.^.^.^.^.^.^.^.^.^.^.^.^.^.^.^.^.^.^.^.^.^.^.^.^.^.^.^.^.^.^.^.^.^.^.^.^.^.^.^.^.",
"^.^.^.^.^.^.^.^.^.^.^.^.^.^.^.^.^.^.^.^.^.^.^.^.^.^.^.^.^.^.^.^.^.^.^.^.^.^.^.^.^.^.^.^.^.^.^.^.^.^.^.^.^.^.^.^.^.^.^.^.^.^.^.^.",
"^.^.^.^.^.^.^.^.^.^.^.^.^.^.^.^.^.^.^.^.^.^.^.^.^.^.^.^.^.^.^.^.^.^.^.^.^.^.^.^.^.^.^.^.^.^.^.^.^.^.^.^.^.^.^.^.^.^.^.^.^.^.^.^.",
"^.^.^.^.^.^.^.^.^.^.^.^.^.^.^.^.^.^.^.^.^.^.^.^.^.^.^.^.^.^.^.^.^.^.^.^.^.^.^.^.^.^.^.^.^.^.^.^.^.^.^.^.^.^.^.^.^.^.^.^.^.^.^.^.",
"^.^.^.^.^.^.^.^.^.^.^.^.^.^.^.^.^.^.^.^.^.^.^.^.^.^.^.^.^.^.^.^.^.^.^.^.^.^.^.^.^.^.^.^.^.^.^.^.^.^.^.^.^.^.^.^.^.^.^.^.^.^.^.^.",
"^.^.^.^.^.^.^.^.^.^.^.^.^.^.^.^.^.^.^.^.^.^.^.^.^.^.^.^.^.^.^.^.^.^.^.^.^.^.^.^.^.^.^.^.^.^.^.^.^.^.^.^.^.^.^.^.^.^.^.^.^.^.^.^.",
"^.^.^.^.^.^.^.^.^.^.^.^.^.^.^.^.^.^.^.^.^.^.^.^.^.^.^.^.^.^.^.^.^.^.^.^.^.^.^.^.^.^.^.^.^.^.^.^.^.^.^.^.^.^.^.^.^.^.^.^.^.^.^.^.",
"^.^.^.^.^.^.^.^.^.^.^.^.^.^.^.^.^.^.^.^.^.^.^.^.^.^.^.^.^.^.^.^.^.^.^.^.^.^.^.^.^.^.^.^.^.^.^.^.^.^.^.^.^.^.^.^.^.^.^.^.^.^.^.^.",
"^.^.^.^.^.^.^.^.^.^.^.^.^.^.^.^.^.^.^.^.^.^.^.^.^.^.^.^.^.^.^.^.^.^.^.^.^.^.^.^.^.^.^.^.^.^.^.^.^.^.^.^.^.^.^.^.^.^.^.^.^.^.^.^.",
"^.^.^.^.^.^.^.^.^.^.^.^.^.^.^.^.^.^.^.^.^.^.^.^.^.^.^.^.^.^.^.^.^.^.^.^.^.^.^.^.^.^.^.^.^.^.^.^.^.^.^.^.^.^.^.^.^.^.^.^.^.^.^.^.",
"^.^.^.^.^.^.^.^.^.^.^.^.^.^.^.^.^.^.^.^.^.^.^.^.^.^.^.^.^.^.^.^.^.^.^.^.^.^.^.^.^.^.^.^.^.^.^.^.^.^.^.^.^.^.^.^.^.^.^.^.^.^.^.^.",
"^.^.^.^.^.^.^.^.^.^.^.^.^.^.^.^.^.^.^.^.^.^.^.^.^.^.^.^.^.^.^.^.^.^.^.^.^.^.^.^.^.^.^.^.^.^.^.^.^.^.^.^.^.^.^.^.^.^.^.^.^.^.^.^.",
"^.^.^.^.^.^.^.^.^.^.^.^.^.^.^.^.^.^.^.^.^.^.^.^.^.^.^.^.^.^.^.^.^.^.^.^.^.^.^.^.^.^.^.^.^.^.^.^.^.^.^.^.^.^.^.^.^.^.^.^.^.^.^.^.",
"^.^.^.^.^.^.^.^.^.^.^.^.^.^.^.^.^.^.^.^.^.^.^.            ^.^.^.^.                ^.^.^.^.^.^.^.^.^.^.^.^.^.^.^.^.^.^.^.^.^.^.^.",
"^.^.^.^.^.^.^.^.^.^.^.^.^.^.^.^.^.^.^.^.^.                              O 2 2 .     ^.^.^.^.^.^.^.^.^.^.^.^.^.^.^.^.^.^.^.^.^.^.",
"^.^.^.^.^.^.^.^.^.^.^.^.^.^.^.^.^.^.^.^.^.    # v b v w 2 .       O p H P P P H #     ^.^.^.^.^.^.^.^.^.^.^.^.^.^.^.^.^.^.^.^.^.",
"^.^.^.^.^.^.^.^.^.^.^.^.^.^.^.^.^.^.^.^.    9 P P P P P P H q O p P P P P P P P H O     ^.^.^.^.^.^.^.^.^.^.^.^.^.^.^.^.^.^.^.^.",
"^.^.^.^.^.^.^.^.^.^.^.^.^.^.^.^.^.^.^.    O H P P P p m P P P P P A H P P P P P P v     ^.^.^.^.^.^.^.^.^.^.^.^.^.^.^.^.^.^.^.^.",
"^.^.^.^.^.^.^.^.^.^.^.^.^.^.^.^.^.^.^.    v P P P P p # H P P P P # v P P P P P P H O   ^.^.^.^.^.^.^.^.^.^.^.^.^.^.^.^.^.^.^.^.",
"^.^.^.^.^.^.^.^.^.^.^.^.^.^.^.^.^.^.^.  o H P P P P P @ w P P P w O H P P P P I P P q     ^.^.^.^.^.^.^.^.^.^.^.^.^.^.^.^.^.^.^.",
"^.^.^.^.^.^.^.^.^.^.^.^.^.^.            3 P P H & p P M O + a 2 O M P H P P P P P P M     ^.      ^.^.^.^.^.^.^.^.^.^.^.^.^.^.^.",
"^.^.^.^.^.^.^.^.^.^.^.^.                v P P P n o n P M v 3 p H P H # p P P P P P P O               ^.^.^.^.^.^.^.^.^.^.^.^.^.",
"^.^.^.^.^.^.^.^.^.^.^.    o w m b q o . M _ P P P p & P I I P P P P v # P P P P P P P 3   2 a v 9 @       ^.^.^.^.^.^.^.^.^.^.^.",
"^.^.^.^.^.^.^.^.^.^.    2 H P P P P p o H J P P P m + P P P P P P P q q P P P P P P P s . H P P P P p       ^.^.^.^.^.^.^.^.^.^.",
"^.^.^.^.^.^.^.^.^.    2 P P P P P P 8 * P P P P P p + P P I P P P P q 8 P P P P P P P M   M P P P P P n X     ^.^.^.^.^.^.^.^.^.",
"^.^.^.^.^.^.^.^.    @ H P P P P P P & 3 P P P P m o m P P P P P P P M o q P P P P P I m . p P P P P P P m     ^.^.^.^.^.^.^.^.^.",
"^.^.^.^.^.^.^.^.    n P P P P P P P o   3 M P P P M P P P P P P P P P M 2 M P P P P w .   8 P P P P P P P q     ^.^.^.^.^.^.^.^.",
"^.^.^.^.^.^.^.^.  # P P P P P P P H o O . . 2 v M P P P P P P P P P P P P P P H w O   # O + P P P P P P P G     ^.^.^.^.^.^.^.^.",
"^.^.^.^.^.^.^.    w P P P P I P P A   3 3 2 O . . @ 3 v n M M P H H H M n w & . . + 3 q & o P P P P P P P P @   ^.^.^.^.^.^.^.^.",
"^.^.^.^.^.^.^.    n P P P P P P P M . 3 q q 3 3 2 + o . . . . . X X . . . . O & 3 9 9 3 O O P P P P P P P P 2   ^.^.^.^.^.^.^.^.",
"^.^.^.^.^.^.^.    M P P P P P P P m   # 3 q q q q q q 3 3 3 2 2 3 3 2 3 3 3 q q q q 3 O . n P P P I P P P P &   ^.^.^.^.^.^.^.^.",
"^.^.^.^.^.^.^.    m P P P P P P P P p X X 2 3 q q q q q 3 q 3 a 9 9 3 q q q q q q 2 X o n P P P P P P P P P O   ^.^.^.^.^.^.^.^.",
"^.^.^.^.^.^.^.    w P P P P P P P P P G 3 X . + 2 3 q 3 q q q 9 q q q q q 9 9 3 o   2 M P P P I P P P P P M     ^.^.^.^.^.^.^.^.",
"^.^.^.^.^.^.^.^.  O J P P P P P P P P P P M 9 + . . O & 3 2 3 9 3 3 3 3 2 + .   & v P P P P P P P P P P P 2     ^.^.^.^.^.^.^.^.",
"^.^.^.^.^.^.^.^.    p P P P I P P P P P P P P J m w 2 O . .   X . . .   X % 9 m P P P P P P P P P P P P v     ^.^.^.^.^.^.^.^.^.",
"^.^.^.^.^.^.^.^.^.  . p P P P P P P P P P P P P P P P J G M m b v v n M H P P P P I P P P P P P P P P v .     ^.^.^.^.^.^.^.^.^.",
"^.^.^.^.^.^.^.^.^.      9 H P P P P P P P P P P P P P P P P P P P P P I P P P P P P P P P P P P P H q .     ^.^.^.^.^.^.^.^.^.^.",
"^.^.^.^.^.^.^.^.^.^.      o w H P P P P P P P P P P P P P P I P P P P P P P P P P P P P P P P J s O       ^.^.^.^.^.^.^.^.^.^.^.",
"^.^.^.^.^.^.^.^.^.^.^.^.    X O 9 m P P P P P P P P P P P P P P P P P P P P P P P P P P P M q + , ,     ^.^.^.^.^.^.^.^.^.^.^.^.",
"^.^.^.^.^.^.^.^.^.^.^.^.    5 B . , # 2 s m Z P P P P P P P P P P P P P P P P P H m v 3 % 9 n   B x     ^.^.^.^.^.^.^.^.^.^.^.^.",
"^.^.^.^.^.^.^.^.^.^.^.^.    z B X i.i.T   i y * # & 2 9 q q 9 q q q q 9 3 & % * y g ^ Q 3 j.j.O B x     ^.^.^.^.^.^.^.^.^.^.^.^.",
"^.^.^.^.^.^.^.^.^.^.^.^.    z c # k.G.<.i U.W.P.C.C.V.n.n.y w >.>._ o X.V.C.C.S.U.Q.~.S.O g.l.3 x x     ^.^.^.^.^.^.^.^.^.^.^.^.",
"^.^.^.^.^.^.^.^.^.^.^.^.    5 x 9 l.J.Z / ~.~.M.g A.~.~.~.^ P J.G.d.2 P.~.W.Q i S.~.~.U.O s.l.9 x x     ^.^.^.^.^.^.^.^.^.^.^.^.",
"^.^.^.^.^.^.^.^.^.^.^.^.^.  # < q l.J.b +.~.~.Q   Q !.~.~./ P J.G.d.= P.~.W.t . V.~.~.I.O s.l.9 z z     ^.^.^.^.^.^.^.^.^.^.^.^.",
"^.^.^.^.^.^.^.^.^.^.^.^.^.    . 9 l.G.P ! ~.~.S.@.S.~.~.!.h _ J.J.h.3 N.~.~.S.V.!.~.~.C.# k.k.# , ,     ^.^.^.^.^.^.^.^.^.^.^.^.",
"^.^.^.^.^.^.^.^.^.^.^.^.^.  . Y & k.J.q.% A.~.~.~.~.~.~.A.% u.J.J.J.I g W.~.~.~.~.~.Q.Q A G.a.. O     ^.^.^.^.^.^.^.^.^.^.^.^.^.",
"^.^.^.^.^.^.^.^.^.^.^.^.^.  v a.O i.J.F.P 7 N.W.~.~.!.A.y J u.g.J.J.f.8 h S.!.~.~.W...* a.J.<.2 q..   ^.^.^.^.^.^.^.^.^.^.^.^.^.",
"^.^.^.^.^.^.^.^.^.^.^.^.^.  M F.9 ` J.J.l.` % i ! X.h % J h.p ,.s.q.J.d.n & h / ^ i 3 y.J.F.v P l.2   ^.^.^.^.^.^.^.^.^.^.^.^.^.",
"^.^.^.^.^.^.^.^.^.^.^.^.^.  O y.` 9 l.J.J.J.f.4.P G ` u.F.D.8 >.b Z J.J.F.u.] A H 3.h.J.J.p.@ w.f.@   ^.^.^.^.^.^.^.^.^.^.^.^.^.",
"^.^.^.^.^.^.^.^.^.^.^.^.^.    O w   3.G.J.J.J.J.J.J.J.J.J.F.m @ 2 a.J.J.J.J.G.J.J.J.J.J.F.H O T 9     ^.^.^.^.^.^.^.^.^.^.^.^.^.",
"^.^.^.^.^.^.^.^.^.^.^.^.^.^.        2 g.J.J.J.J.J.J.J.J.J.J.k.y.f.J.J.J.J.J.J.J.J.J.J.J.w.          ^.^.^.^.^.^.^.^.^.^.^.^.^.^.",
"^.^.^.^.^.^.^.^.^.^.^.^.^.^.^.^.      m l.J.J.J.J.J.J.J.J.J.J.F.D.G.J.J.J.J.J.J.J.J.J.d.2         ^.^.^.^.^.^.^.^.^.^.^.^.^.^.^.",
"^.^.^.^.^.^.^.^.^.^.^.^.^.^.^.^.^.^.    P l.J.J.J.J.J.J.G.i.I e e M w.F.G.J.J.J.J.J.d.w     ^.^.^.^.^.^.^.^.^.^.^.^.^.^.^.^.^.^.",
"^.^.^.^.^.^.^.^.^.^.^.^.^.^.^.^.^.^.^.    Z g.J.J.J.J.J.5.O v ] ,.M @ I l.J.J.G.G.y.3 r $   ^.^.^.^.^.^.^.^.^.^.^.^.^.^.^.^.^.^.",
"^.^.^.^.^.^.^.^.^.^.^.^.^.^.^.^.^.^.    6 0 7 4.l.J.J.J.e P l.J.J.G.q.# >.G.G.h.Y @ S c.R     ^.^.^.^.^.^.^.^.^.^.^.^.^.^.^.^.^.",
"^.^.^.^.^.^.^.^.^.^.^.^.^.^.^.^.^.^.    9.c.R . 9 >.a.l.3.p.J.J.J.J.J.6.>.p.Y * X E z.r.R     ^.^.^.^.^.^.^.^.^.^.^.^.^.^.^.^.^.",
"^.^.^.^.^.^.^.^.^.^.^.^.^.^.^.^.^.^.  @ x.v.z.o 0 @ . 9 Z T <.3.3.1.` A 9 . % o . $ @ .       ^.^.^.^.^.^.^.^.^.^.^.^.^.^.^.^.^.",
"^.^.^.^.^.^.^.^.^.^.^.^.^.^.^.^.^.    S v.v.e.o ] ] @ l k j ; ; - - : k k @ { 0   m i.w     ^.^.^.^.^.^.^.^.^.^.^.^.^.^.^.^.^.^.",
"^.^.^.^.^.^.^.^.^.^.^.^.^.^.^.^.^.    e.v.v.7.* 2.2.7 $.:.:.-.-.:.:.:.:.k d 2.d   P l.e   ^.^.^.^.^.^.^.^.^.^.^.^.^.^.^.^.^.^.^.",
"^.^.^.^.^.^.^.^.^.^.^.^.^.^.^.^.^.    S W 9.r e 2.2.D : =.:.:.-.:.:.:.&.# ] 2.D   2 b X   ^.^.^.^.^.^.^.^.^.^.^.^.^.^.^.^.^.^.^.",
"^.^.^.^.^.^.^.^.^.^.^.^.^.^.^.^.^.      2 n   s 2.2.D   l -.:.:.:.:.*.; 2 2.2.G           ^.^.^.^.^.^.^.^.^.^.^.^.^.^.^.^.^.^.^.",
"^.^.^.^.^.^.^.^.^.^.^.^.^.^.^.^.^.^.  X q.k.I X K 2.d $ 3 &.:.:.-.*.1 0 * 2.2.L       ^.^.^.^.^.^.^.^.^.^.^.^.^.^.^.^.^.^.^.^.^.",
"^.^.^.^.^.^.^.^.^.^.^.^.^.^.^.^.^.^.  v F.J.G.I 2 | d V 0.< *.=.%.< 7.7.$ 2.2.'     ^.^.^.^.^.^.^.^.^.^.^.^.^.^.^.^.^.^.^.^.^.^.",
"^.^.^.^.^.^.^.^.^.^.^.^.^.^.^.^.^.^.  Z J.J.J.q.@ { d C b.8., : 6 9.c.E % 2.2.] .   ^.^.^.^.^.^.^.^.^.^.^.^.^.^.^.^.^.^.^.^.^.^.",
"^.^.^.^.^.^.^.^.^.^.^.^.^.^.^.^.^.^.  2 f.J.G.<.$ [ d @ V S 6   6 r 0 $ # [ 2.[ %   ^.^.^.^.^.^.^.^.^.^.^.^.^.^.^.^.^.^.^.^.^.^.",
"^.^.^.^.^.^.^.^.^.^.^.^.^.^.^.^.^.^.    8 >.Z X a [ s t O.(       = t.o.# { | ' @   ^.^.^.^.^.^.^.^.^.^.^.^.^.^.^.^.^.^.^.^.^.^.",
"^.^.^.^.^.^.^.^.^.^.^.^.^.^.^.^.^.^.              X   g K.m.o     u Y.B.  * O       ^.^.^.^.^.^.^.^.^.^.^.^.^.^.^.^.^.^.^.^.^.^.",
"^.^.^.^.^.^.^.^.^.^.^.^.^.^.^.^.^.^.^.            i = % o o       f R.H. .O.@.      ^.^.^.^.^.^.^.^.^.^.^.^.^.^.^.^.^.^.^.^.^.^.",
"^.^.^.^.^.^.^.^.^.^.^.^.^.^.^.^.^.^.              L.!.W.I.S.=     g E.E.E.E.H.          .   ^.^.^.^.^.^.^.^.^.^.^.^.^.^.^.^.^.^.",
"^.^.^.^.^.^.^.^.^.^.^.^.^.^.^.^.^.^.              g I.!.W.!       y Y.E.E.E.B.              ^.^.^.^.^.^.^.^.^.^.^.^.^.^.^.^.^.^.",
"^.^.^.^.^.^.^.^.    . . . .   . .                   % ! %         y Y.E.E.E.m.                  . . . .   .     ^.^.^.^.^.^.^.^.",
"^.^.^.^.^.^.^.^.    . .   .     . .                               f T.E.E.T.o.                    . .   . .     ^.^.^.^.^.^.^.^.",
"^.^.. .   . .                                                     o F ~ F y .                                   . . . . . . ^.^.",
"^.^.. .     . .   .                                               Q +...+.M.!                                   .   . . . . ^.^.",
". .                                                               4 S.~.~.U.g                                                   ",
"                                                                      h Q o                                                 .   ",
"    . .       .                                                                                                     . .         ",
"      .   .                                                                                                     .         .     ",
"^.^.^.^..   .   .                                                                                       .               ^.^.^.^.",
"^.^.^.^.    .       .       .                                                               .                           ^.^.^.^.",
"^.^.^.^.^.^.^.^.^.^.. .   . .     .                                                             .   . . . . ^.^.^.^.^.^.^.^.^.^.",
"^.^.^.^.^.^.^.^.^.^.. . . . . .                                                             . . . .   . . . ^.^.^.^.^.^.^.^.^.^.",
"^.^.^.^.^.^.^.^.^.^.^.^.^.^.^.^.^.^.^.^.                                                ^.^.^.^.^.^.^.^.^.^.^.^.^.^.^.^.^.^.^.^.",
"^.^.^.^.^.^.^.^.^.^.^.^.^.^.^.^.^.^.^.^.                                                ^.^.^.^.^.^.^.^.^.^.^.^.^.^.^.^.^.^.^.^."
};
