/* XPM */
static char *result[] = {
/* columns rows colors chars-per-pixel */
"64 128 162 2 ",
"   c #010101",
".  c #090604",
"X  c #0C0907",
"o  c #0D0B09",
"O  c #05080C",
"+  c #130505",
"@  c #1B0607",
"#  c #120A07",
"$  c #120D0A",
"%  c #1A0F09",
"&  c #16110C",
"*  c #1A130E",
"=  c #18180A",
"-  c #080D13",
";  c #0B131D",
":  c #151514",
">  c #1B1610",
",  c #1C1913",
"<  c #1C1C1A",
"1  c #2A0A0B",
"2  c #200709",
"3  c #320C0D",
"4  c #24140D",
"5  c #2A170F",
"6  c #3C0D10",
"7  c #221A13",
"8  c #2A1D15",
"9  c #361E13",
"0  c #22220F",
"q  c #2B2017",
"w  c #2D2219",
"e  c #2B2918",
"r  c #3E2215",
"t  c #30231A",
"y  c #342A1E",
"u  c #392B1F",
"i  c #303015",
"p  c #0D1621",
"a  c #0F1A26",
"s  c #13202F",
"d  c #162436",
"f  c #242322",
"g  c #2C2B29",
"h  c #332D21",
"j  c #3C2D21",
"k  c #3E3224",
"l  c #32322D",
"z  c #3F3728",
"x  c #3F3829",
"c  c #3E3D38",
"v  c gray19",
"b  c #420E11",
"n  c #4A1013",
"m  c #521316",
"M  c #5C1518",
"N  c #66171B",
"B  c #741A1E",
"V  c #452618",
"C  c #4A2819",
"Z  c #412417",
"A  c #512D1C",
"S  c #57301E",
"D  c #7C1B20",
"F  c #433324",
"G  c #433B2B",
"H  c #4D3A2A",
"J  c #493728",
"K  c #523E2D",
"L  c #5B3220",
"P  c #653823",
"I  c #6D3C26",
"U  c #713E28",
"Y  c #713E27",
"T  c #44441E",
"R  c #49412F",
"E  c #55402F",
"W  c #58422F",
"Q  c #5A5A27",
"!  c #4E4432",
"~  c #5C4532",
"^  c #564835",
"/  c #5E533D",
"(  c #76412A",
")  c #7C452B",
"_  c #654C37",
"`  c #62573F",
"'  c #72563D",
"]  c #62622A",
"[  c #233B57",
"{  c #284465",
"}  c gray26",
"|  c #53524B",
" . c gray32",
".. c #5B5A56",
"X. c #665A42",
"o. c #795B41",
"O. c #615F57",
"+. c #6D6046",
"@. c #796B4E",
"#. c #7E6F51",
"$. c #7C7A6F",
"%. c gray47",
"&. c #962227",
"*. c #AA262C",
"=. c #A02329",
"-. c #B0272E",
";. c #B92931",
":. c #C32B33",
">. c #DE313A",
",. c #E6333C",
"<. c #F3363F",
"1. c #81472D",
"2. c #F73640",
"3. c #FB3741",
"4. c #FF3842",
"5. c #816145",
"6. c #906C4D",
"7. c #857656",
"8. c #9A7452",
"9. c #9F7855",
"0. c #A47B57",
"q. c #94943F",
"w. c #848438",
"e. c #9C9C43",
"r. c #AC815C",
"t. c #ADAD4A",
"y. c #A0A044",
"u. c #B3B34D",
"i. c #838176",
"p. c #B78A62",
"a. c #B78A62",
"s. c #BF9066",
"d. c #C09066",
"f. c #CD9B6E",
"g. c #C39369",
"h. c #D39F71",
"j. c #D7A273",
"k. c #DBA575",
"l. c #EBB17E",
"z. c #E3AB79",
"x. c #DBDB5E",
"c. c #EFEF66",
"v. c #E3E361",
"b. c #F5F569",
"n. c #FFFF6D",
"m. c #8E8E8E",
"M. c #A6A395",
"N. c #BAB7A7",
"B. c #EFB480",
"V. c #FBBD86",
"C. c #F5B983",
"Z. c #FFC088",
"A. c #CDC9B8",
"S. c #D0CDBC",
"D. c #C0C0C0",
"F. c #D8D6CD",
"G. c #EFECD7",
"H. c #F3EFDB",
"J. c #F7F3DE",
"K. c #EFEFEF",
"L. c #FDFDFD",
"P. c None",
/* pixels */
"P.P.P.P.P.P.P.P.P.P.P.P.P.P.P.P.P.P.P.P.P.P.P.P.P.P.P.P.P.P.P.P.P.P.P.P.P.P.P.P.P.P.P.P.P.P.P.P.P.P.P.P.P.P.P.P.P.P.P.P.P.P.P.P.",
"P.P.P.P.P.P.P.P.P.P.P.P.P.P.P.P.P.P.P.P.P.P.P.P.P.P.P.P.P.P.P.P.P.P.P.P.P.P.P.P.P.P.P.P.P.P.P.P.P.P.P.P.P.P.P.P.P.P.P.P.P.P.P.P.",
"P.P.P.P.P.P.P.P.P.P.P.P.P.P.P.P.P.P.P.P.P.P.P.P.P.P.P.P.P.P.P.P.P.P.P.P.P.P.P.P.P.P.P.P.P.P.P.P.P.P.P.P.P.P.P.P.P.P.P.P.P.P.P.P.",
"P.P.P.P.P.P.P.P.P.P.P.P.P.P.P.P.P.P.P.P.P.P.P.P.P.P.P.P.P.P.P.P.P.P.P.P.P.P.P.P.P.P.P.P.P.P.P.P.P.P.P.P.P.P.P.P.P.P.P.P.P.P.P.P.",
"P.P.P.P.P.P.P.P.P.P.P.P.P.P.P.P.P.P.P.P.P.P.P.P.P.P.P.P.P.P.P.P.P.P.P.P.P.P.P.P.P.P.P.P.P.P.P.P.P.P.P.P.P.P.P.P.P.P.P.P.P.P.P.P.",
"P.P.P.P.P.P.P.P.P.P.P.P.P.P.P.P.P.P.P.P.P.P.P.P.P.P.P.P.P.P.P.P.P.P.P.P.P.P.P.P.P.P.P.P.P.P.P.P.P.P.P.P.P.P.P.P.P.P.P.P.P.P.P.P.",
"P.P.P.P.P.P.P.P.P.P.P.P.P.P.P.P.P.P.P.P.P.P.P.P.P.P.P.P.P.P.P.P.P.P.P.P.P.P.P.P.P.P.P.P.P.P.P.P.P.P.P.P.P.P.P.P.P.P.P.P.P.P.P.P.",
"P.P.P.P.P.P.P.P.P.P.P.P.P.P.P.P.P.P.P.P.P.P.P.P.P.P.P.P.P.P.P.P.P.P.P.P.P.P.P.P.P.P.P.P.P.P.P.P.P.P.P.P.P.P.P.P.P.P.P.P.P.P.P.P.",
"P.P.P.P.P.P.P.P.P.P.P.P.P.P.P.P.P.P.P.P.P.P.P.P.P.P.P.P.P.P.P.P.P.P.P.P.P.P.P.P.P.P.P.P.P.P.P.P.P.P.P.P.P.P.P.P.P.P.P.P.P.P.P.P.",
"P.P.P.P.P.P.P.P.P.P.P.P.P.P.P.P.P.P.P.P.P.P.P.P.P.P.P.P.P.P.P.P.P.P.P.P.P.P.P.P.P.P.P.P.P.P.P.P.P.P.P.P.P.P.P.P.P.P.P.P.P.P.P.P.",
"P.P.P.P.P.P.P.P.P.P.P.P.P.P.P.P.P.P.P.P.P.P.P.P.P.P.P.P.P.P.P.P.P.P.P.P.P.P.P.P.P.P.P.P.P.P.P.P.P.P.P.P.P.P.P.P.P.P.P.P.P.P.P.P.",
"P.P.P.P.P.P.P.P.P.P.P.P.P.P.P.P.P.P.P.P.P.P.P.P.P.P.P.P.P.P.P.P.P.P.P.P.P.P.P.P.P.P.P.P.P.P.P.P.P.P.P.P.P.P.P.P.P.P.P.P.P.P.P.P.",
"P.P.P.P.P.P.P.P.P.P.P.P.P.P.P.P.P.P.P.P.P.P.P.P.P.P.P.P.P.P.P.P.P.P.P.P.P.P.P.P.P.P.P.P.P.P.P.P.P.P.P.P.P.P.P.P.P.P.P.P.P.P.P.P.",
"P.P.P.P.P.P.P.P.P.P.P.P.P.P.P.P.P.P.P.P.P.P.P.P.P.P.P.P.P.P.P.P.P.P.P.P.P.P.P.P.P.P.P.P.P.P.P.P.P.P.P.P.P.P.P.P.P.P.P.P.P.P.P.P.",
"P.P.P.P.P.P.P.P.P.P.P.P.P.P.P.P.P.P.P.P.P.P.P.P.P.P.P.P.P.P.P.P.P.P.P.P.P.P.P.P.P.P.P.P.P.P.P.P.P.P.P.P.P.P.P.P.P.P.P.P.P.P.P.P.",
"P.P.P.P.P.P.P.P.P.P.P.P.P.P.P.P.P.P.P.P.P.P.P.P.P.P.P.P.P.P.P.P.P.P.P.P.P.P.P.P.P.P.P.P.P.P.P.P.P.P.P.P.P.P.P.P.P.P.P.P.P.P.P.P.",
"P.P.P.P.P.P.P.P.P.P.P.P.P.P.P.P.P.P.P.P.P.P.P.P.P.P.P.P.P.P.P.P.P.P.P.P.P.P.P.P.P.P.P.P.P.P.P.P.P.P.P.P.P.P.P.P.P.P.P.P.P.P.P.P.",
"P.P.P.P.P.P.P.P.P.P.P.P.P.P.P.P.P.P.P.P.P.P.P.P.P.P.P.P.P.P.P.P.P.P.P.P.P.P.P.P.P.P.P.P.P.P.P.P.P.P.P.P.P.P.P.P.P.P.P.P.P.P.P.P.",
"P.P.P.P.P.P.P.P.P.P.P.P.P.P.P.P.P.P.P.P.P.P.P.P.P.P.P.P.P.P.P.P.P.P.P.P.P.P.P.P.P.P.P.P.P.P.P.P.P.P.P.P.P.P.P.P.P.P.P.P.P.P.P.P.",
"P.P.P.P.P.P.P.P.P.P.P.P.P.P.P.P.P.P.P.P.P.P.P.P.P.P.P.P.P.P.P.P.P.P.P.P.P.P.P.P.P.P.P.P.P.P.P.P.P.P.P.P.P.P.P.P.P.P.P.P.P.P.P.P.",
"P.P.P.P.P.P.P.P.P.P.P.P.P.P.P.P.P.P.P.P.P.P.P.P.P.P.P.P.P.P.P.P.P.P.P.P.P.P.P.P.P.P.P.P.P.P.P.P.P.P.P.P.P.P.P.P.P.P.P.P.P.P.P.P.",
"P.P.P.P.P.P.P.P.P.P.P.P.P.P.P.P.P.P.P.P.P.P.P.P.P.P.P.P.P.P.P.P.P.P.P.P.P.P.P.P.P.P.P.P.P.P.P.P.P.P.P.P.P.P.P.P.P.P.P.P.P.P.P.P.",
"P.P.P.P.P.P.P.P.P.P.P.P.P.P.P.P.P.P.P.P.P.P.P.P.P.P.P.P.P.P.P.P.P.P.P.P.P.P.P.P.P.P.P.P.P.P.P.P.P.P.P.P.P.P.P.P.P.P.P.P.P.P.P.P.",
"P.P.P.P.P.P.P.P.P.P.P.P.P.P.P.P.P.P.P.P.P.P.P.P.P.P.P.P.P.P.P.P.P.P.P.P.P.P.P.P.P.P.P.P.P.P.P.P.P.P.P.P.P.P.P.P.P.P.P.P.P.P.P.P.",
"P.P.P.P.P.P.P.P.P.P.P.P.P.P.P.P.P.P.P.P.P.P.P.P.P.P.P.P.P.P.P.P.P.P.P.P.P.P.P.P.P.P.P.P.P.P.P.P.P.P.P.P.P.P.P.P.P.P.P.P.P.P.P.P.",
"P.P.P.P.P.P.P.P.P.P.P.P.P.P.P.P.P.P.P.P.P.P.P.P.P.P.P.P.P.P.P.P.P.P.P.P.P.P.P.P.P.P.P.P.P.P.P.P.P.P.P.P.P.P.P.P.P.P.P.P.P.P.P.P.",
"P.P.P.P.P.P.P.P.P.P.P.P.P.P.P.P.P.P.P.P.P.P.P.P.P.P.P.P.P.P.P.P.P.P.P.P.P.P.P.P.P.P.P.P.P.P.P.P.P.P.P.P.P.P.P.P.P.P.P.P.P.P.P.P.",
"P.P.P.P.P.P.P.P.P.P.P.P.P.P.P.P.P.P.P.P.P.P.P.P.P.P.P.P.P.P.P.P.P.P.P.P.P.P.P.P.P.P.P.P.P.P.P.P.P.P.P.P.P.P.P.P.P.P.P.P.P.P.P.P.",
"P.P.P.P.P.P.P.P.P.P.P.P.P.P.P.P.P.P.P.P.P.P.P.P.P.P.P.P.P.P.P.P.P.P.P.P.P.P.P.P.P.P.P.P.P.P.P.P.P.P.P.P.P.P.P.P.P.P.P.P.P.P.P.P.",
"P.P.P.P.P.P.P.P.P.P.P.P.P.P.P.P.P.P.P.P.P.P.P.P.P.P.P.P.P.P.P.P.P.P.P.P.P.P.P.P.P.P.P.P.P.P.P.P.P.P.P.P.P.P.P.P.P.P.P.P.P.P.P.P.",
"P.P.P.P.P.P.P.P.P.P.P.P.P.P.P.P.P.P.P.P.P.P.P.P.P.P.P.P.P.P.P.P.P.P.P.P.P.P.P.P.P.P.P.P.P.P.P.P.P.P.P.P.P.P.P.P.P.P.P.P.P.P.P.P.",
"P.P.P.P.P.P.P.P.P.P.P.P.P.P.P.P.P.P.P.P.P.P.P.P.P.P.P.P.P.P.P.P.P.P.P.P.P.P.P.P.P.P.P.P.P.P.P.P.P.P.P.P.P.P.P.P.P.P.P.P.P.P.P.P.",
"P.P.P.P.P.P.P.P.P.P.P.P.P.P.P.P.P.P.P.P.P.P.P.P.P.P.P.P.P.P.P.P.P.P.P.P.P.P.P.P.P.P.P.P.P.P.P.P.P.P.P.P.P.P.P.P.P.P.P.P.P.P.P.P.",
"P.P.P.P.P.P.P.P.P.P.P.P.P.P.P.P.P.P.P.P.P.P.P.P.P.P.P.P.P.P.P.P.P.P.P.P.P.P.P.P.P.P.P.P.P.P.P.P.P.P.P.P.P.P.P.P.P.P.P.P.P.P.P.P.",
"P.P.P.P.P.P.P.P.P.P.P.P.P.P.P.P.P.P.P.P.P.P.P.P.P.P.P.P.P.P.P.P.P.P.P.P.P.P.P.P.P.P.P.P.P.P.P.P.P.P.P.P.P.P.P.P.P.P.P.P.P.P.P.P.",
"P.P.P.P.P.P.P.P.P.P.P.P.P.P.P.P.P.P.P.P.P.P.P.P.P.P.P.P.P.P.P.P.P.P.P.P.P.P.P.P.P.P.P.P.P.P.P.P.P.P.P.P.P.P.P.P.P.P.P.P.P.P.P.P.",
"P.P.P.P.P.P.P.P.P.P.P.P.P.P.P.P.P.P.P.P.P.P.P.P.P.P.P.P.P.P.P.P.P.P.P.P.P.P.P.P.P.P.P.P.P.P.P.P.P.P.P.P.P.P.P.P.P.P.P.P.P.P.P.P.",
"P.P.P.P.P.P.P.P.P.P.P.P.P.P.P.P.P.P.P.P.P.P.P.P.P.P.P.P.P.P.P.P.P.P.P.P.P.P.P.P.P.P.P.P.P.P.P.P.P.P.P.P.P.P.P.P.P.P.P.P.P.P.P.P.",
"P.P.P.P.P.P.P.P.P.P.P.P.P.P.P.P.P.P.P.P.P.P.P.P.P.P.P.P.P.P.P.P.P.P.P.P.P.P.P.P.P.P.P.P.P.P.P.P.P.P.P.P.P.P.P.P.P.P.P.P.P.P.P.P.",
"P.P.P.P.P.P.P.P.P.P.P.P.P.P.P.P.P.P.P.P.P.P.P.P.P.P.P.P.P.P.P.P.P.P.P.P.P.P.P.P.P.P.P.P.P.P.P.P.P.P.P.P.P.P.P.P.P.P.P.P.P.P.P.P.",
"P.P.P.P.P.P.P.P.P.P.P.P.P.P.P.P.P.P.P.P.P.P.P.P.P.P.P.P.P.P.P.P.P.P.P.P.P.P.P.P.P.P.P.P.P.P.P.P.P.P.P.P.P.P.P.P.P.P.P.P.P.P.P.P.",
"P.P.P.P.P.P.P.P.P.P.P.P.P.P.P.P.P.P.P.P.P.P.P.P.P.P.P.P.P.P.P.P.P.P.P.P.P.P.P.P.P.P.P.P.P.P.P.P.P.P.P.P.P.P.P.P.P.P.P.P.P.P.P.P.",
"P.P.P.P.P.P.P.P.P.P.P.P.P.P.P.P.P.P.P.P.P.P.P.P.P.P.P.P.P.P.P.P.P.P.P.P.P.P.P.P.P.P.P.P.P.P.P.P.P.P.P.P.P.P.P.P.P.P.P.P.P.P.P.P.",
"P.P.P.P.P.P.P.P.P.P.P.P.P.P.P.P.P.P.P.P.P.P.P.P.P.P.P.P.P.P.P.P.P.P.P.P.P.P.P.P.P.P.P.P.P.P.P.P.P.P.P.P.P.P.P.P.P.P.P.P.P.P.P.P.",
"P.P.P.P.P.P.P.P.P.P.P.P.P.P.P.P.P.P.P.P.P.P.P.P.P.P.P.P.P.P.P.P.P.P.P.P.P.P.P.P.P.P.P.P.P.P.P.P.P.P.P.P.P.P.P.P.P.P.P.P.P.P.P.P.",
"P.P.P.P.P.P.P.P.P.P.P.P.P.P.P.P.P.P.P.P.P.P.P.P.P.P.P.P.P.P.P.P.P.P.P.P.P.P.P.P.P.P.P.P.P.P.P.P.P.P.P.P.P.P.P.P.P.P.P.P.P.P.P.P.",
"P.P.P.P.P.P.P.P.P.P.P.P.P.P.P.P.P.P.P.P.P.P.P.P.P.P.P.P.P.P.P.P.P.P.P.P.P.P.P.P.P.P.P.P.P.P.P.P.P.P.P.P.P.P.P.P.P.P.P.P.P.P.P.P.",
"P.P.P.P.P.P.P.P.P.P.P.P.P.P.P.P.P.P.P.P.P.P.P.P.P.P.P.P.P.P.P.P.P.P.P.P.P.P.P.P.P.P.P.P.P.P.P.P.P.P.P.P.P.P.P.P.P.P.P.P.P.P.P.P.",
"P.P.P.P.P.P.P.P.P.P.P.P.P.P.P.P.P.P.P.P.P.P.P.P.P.P.P.P.P.P.P.P.P.P.P.P.P.P.P.P.P.P.P.P.P.P.P.P.P.P.P.P.P.P.P.P.P.P.P.P.P.P.P.P.",
"P.P.P.P.P.P.P.P.P.P.P.P.P.P.P.P.P.P.P.P.P.P.P.P.P.P.P.P.P.P.P.P.P.P.P.P.P.P.P.P.P.P.P.P.P.P.P.P.P.P.P.P.P.P.P.P.P.P.P.P.P.P.P.P.",
"P.P.P.P.P.P.P.P.P.P.P.P.P.P.P.P.P.P.P.P.P.P.P.P.P.P.P.P.P.P.P.P.P.P.P.P.P.P.P.P.P.P.P.P.P.P.P.P.P.P.P.P.P.P.P.P.P.P.P.P.P.P.P.P.",
"P.P.P.P.P.P.P.P.P.P.P.P.P.P.P.P.P.P.P.P.P.P.P.P.P.P.P.P.P.P.P.P.P.P.P.P.P.P.P.P.P.P.P.P.P.P.P.P.P.P.P.P.P.P.P.P.P.P.P.P.P.P.P.P.",
"P.P.P.P.P.P.P.P.P.P.P.P.P.P.P.P.P.P.P.P.P.P.P.P.P.P.P.P.P.P.P.P.P.P.P.P.P.P.P.P.P.P.P.P.P.P.P.P.P.P.P.P.P.P.P.P.P.P.P.P.P.P.P.P.",
"P.P.P.P.P.P.P.P.P.P.P.P.P.P.P.P.P.P.P.P.P.P.P.P.P.P.P.P.P.P.P.P.P.P.P.P.P.P.P.P.P.P.P.P.P.P.P.P.P.P.P.P.P.P.P.P.P.P.P.P.P.P.P.P.",
"P.P.P.P.P.P.P.P.P.P.P.P.P.P.P.P.P.P.P.P.P.P.P.P.P.P.P.P.P.P.P.P.P.P.P.P.P.P.P.P.P.P.P.P.P.P.P.P.P.P.P.P.P.P.P.P.P.P.P.P.P.P.P.P.",
"P.P.P.P.P.P.P.P.P.P.P.P.P.P.P.P.P.P.P.P.P.P.P.P.P.P.P.P.P.P.P.P.P.P.P.P.P.P.P.P.P.P.P.P.P.P.P.P.P.P.P.P.P.P.P.P.P.P.P.P.P.P.P.P.",
"P.P.P.P.P.P.P.P.P.P.P.P.P.P.P.P.P.P.P.P.P.P.P.P.P.        P.P.P.P.P.P.P.              P.P.P.P.P.P.P.P.P.P.P.P.P.P.P.P.P.P.P.P.P.",
"P.P.P.P.P.P.P.P.P.P.P.P.P.P.P.P.P.P.P.P.P.P.P.                  P.P.          X .       P.P.P.P.P.P.P.P.P.P.P.P.P.P.P.P.P.P.P.P.",
"P.P.P.P.P.P.P.P.P.P.P.P.P.P.P.P.P.P.P.P.P.P.      q j F y >             q H _ _ _ j       P.P.P.P.P.P.P.P.P.P.P.P.P.P.P.P.P.P.P.",
"P.P.P.P.P.P.P.P.P.P.P.P.P.P.P.P.P.P.P.P.P.P.    F _ _ _ _ _ ~ j .   8 ~ _ _ _ _ _ _ u     P.P.P.P.P.P.P.P.P.P.P.P.P.P.P.P.P.P.P.",
"P.P.P.P.P.P.P.P.P.P.P.P.P.P.P.P.P.P.P.P.P.    w _ _ _ _ _ _ _ _ E J _ _ _ _ _ _ _ _ _ $     P.P.P.P.P.P.P.P.P.P.P.P.P.P.P.P.P.P.",
"P.P.P.P.P.P.P.P.P.P.P.P.P.P.P.P.P.P.P.P.P.  . ~ _ _ _ ~ . ~ _ _ _ _ _ F _ _ _ _ _ _ _ j     P.P.P.P.P.P.P.P.P.P.P.P.P.P.P.P.P.P.",
"P.P.P.P.P.P.P.P.P.P.P.P.P.P.P.P.P.P.P.P.    8 _ _ _ _ _ 7 y _ _ _ _ ~   ~ _ _ _ _ _ _ _ .   P.P.P.P.P.P.P.P.P.P.P.P.P.P.P.P.P.P.",
"P.P.P.P.P.P.P.P.P.P.P.P.P.P.P.              H _ _ _ _ _ K . K _ _ ~ & y _ _ _ _ _ _ _ _ ,     P.P.P.P.P.P.P.P.P.P.P.P.P.P.P.P.P.",
"P.P.P.P.P.P.P.P.P.P.P.P.P.                . _ _ _ _ _ _ _ h . y j $ 7 _ _ _ _ _ _ _ _ _ j               P.P.P.P.P.P.P.P.P.P.P.P.",
"P.P.P.P.P.P.P.P.P.P.P.P.    o F _ _ K q . 7 _ _ _ _ _ _ _ _ K t 8 F _ _ _ _ _ _ _ _ _ _ ~     . * * X       P.P.P.P.P.P.P.P.P.P.",
"P.P.P.P.P.P.P.P.P.P.P.    & _ _ _ _ _ _ o u _ _ _ _ _ _ _ _ _ _ _ _ _ _ _ _ _ _ _ _ _ _ _ X y _ _ _ _ F X     P.P.P.P.P.P.P.P.P.",
"P.P.P.P.P.P.P.P.P.P.    $ _ _ _ _ _ _ _   H _ _ _ _ _ _ _ _ _ _ _ _ _ _ _ _ _ _ _ _ _ _ _ > 8 _ _ _ _ _ ~ &     P.P.P.P.P.P.P.P.",
"P.P.P.P.P.P.P.P.P.P.  . ~ _ _ _ _ _ _ H   ~ _ _ _ _ _ _ _ _ _ _ _ _ _ _ _ _ _ _ _ _ _ _ _ y $ _ _ _ _ _ _ ~ $     P.P.P.P.P.P.P.",
"P.P.P.P.P.P.P.P.P.    t _ _ _ _ _ _ _ j . _ _ _ _ _ _ _ _ _ _ _ _ _ _ _ _ _ _ _ _ _ _ _ _ F   _ _ _ _ _ _ _ E     P.P.P.P.P.P.P.",
"P.P.P.P.P.P.P.P.P.  . ~ _ _ _ _ _ _ _ q o _ _ _ _ _ _ _ _ _ _ _ _ _ _ _ _ _ _ _ _ _ _ _ _ k   K _ _ _ _ _ _ _ 8     P.P.P.P.P.P.",
"P.P.P.P.P.P.P.P.P.  7 _ _ _ _ _ _ _ _ 7   . j _ _ _ _ _ _ _ _ _ _ _ _ _ _ _ _ _ _ _ _ _ q     J _ _ _ _ _ _ _ H     P.P.P.P.P.P.",
"P.P.P.P.P.P.P.P.    j _ _ _ _ _ _ _ _ * & *   . w K _ _ _ _ _ _ _ _ _ _ _ _ _ _ _ _ F o   7 . j _ _ _ _ _ _ _ _ .   P.P.P.P.P.P.",
"P.P.P.P.P.P.P.P.    H _ _ _ _ _ _ _ _ X > t q > .   o q F ~ _ _ _ _ _ _ _ _ _ J q .   $ 8 t # 8 _ _ _ _ _ _ _ _ $   P.P.P.P.P.P.",
"P.P.P.P.P.P.P.P.    ~ _ _ _ _ _ _ _ _ . 7 t t t t 8 > o       o * 7 8 8 * #     X * 8 t t t o 7 _ _ _ _ _ _ _ _ *   P.P.P.P.P.P.",
"P.P.P.P.P.P.P.P.    K _ _ _ _ _ _ _ _   * t t t t t 8 t t 8 7 > * & o $ & > 7 q t t t t t >   J _ _ _ _ _ _ _ _ $   P.P.P.P.P.P.",
"P.P.P.P.P.P.P.P.    j _ _ _ _ _ _ _ _ y   # 8 y t t t t t t t t t t t t t t t t t t t t *   j _ _ _ _ _ _ _ _ _     P.P.P.P.P.P.",
"P.P.P.P.P.P.P.P.P.  7 _ _ _ _ _ _ _ _ _ H o . $ 8 t t t t t t q t t t t w t t t t t 8 o   k _ _ _ _ _ _ _ _ _ F     P.P.P.P.P.P.",
"P.P.P.P.P.P.P.P.P.    K _ _ _ _ _ _ _ _ _ _ t X   $ 7 t q t q y t t t t 8 t t t q *   X K _ _ _ _ _ _ _ _ _ _ $   P.P.P.P.P.P.P.",
"P.P.P.P.P.P.P.P.P.    * _ _ _ _ _ _ _ _ _ _ _ _ j >     # > 7 8 8 t t t 8 7 > X   X u _ _ _ _ _ _ _ _ _ _ _ j     P.P.P.P.P.P.P.",
"P.P.P.P.P.P.P.P.P.P.    7 _ _ _ _ _ _ _ _ _ _ _ _ _ ~ k 8 $ .               o 8 J _ _ _ _ _ _ _ _ _ _ _ _ H     P.P.P.P.P.P.P.P.",
"P.P.P.P.P.P.P.P.P.P.P.    * ~ _ _ _ _ _ _ _ _ _ _ _ _ _ _ _ _ W K H H H K _ _ _ _ _ _ _ _ _ _ _ _ _ _ _ F       P.P.P.P.P.P.P.P.",
"P.P.P.P.P.P.P.P.P.P.P.P.      j _ _ _ _ _ _ _ _ _ _ _ _ _ _ _ _ _ _ _ _ _ _ _ _ _ _ _ _ _ _ _ _ _ _ ~ 8       P.P.P.P.P.P.P.P.P.",
"P.P.P.P.P.P.P.P.P.P.P.P.P.      X j _ _ _ _ _ _ _ _ _ _ _ _ _ _ _ _ _ _ _ _ _ _ _ _ _ _ _ _ _ _ ~ y .     P.P.P.P.P.P.P.P.P.P.P.",
"P.P.P.P.P.P.P.P.P.P.P.P.P.P.    % 4 . 7 F ~ _ _ _ _ _ _ _ _ _ _ _ _ _ _ _ _ _ _ _ _ _ _ _ _ J 7 . 5 #   P.P.P.P.P.P.P.P.P.P.P.P.",
"P.P.P.P.P.P.P.P.P.P.P.P.P.P.P.  . ( Y C 4   & 8 u F K ~ _ _ _ _ _ _ _ _ _ _ _ _ ~ H F t *   * V U )     P.P.P.P.P.P.P.P.P.P.P.P.",
"P.P.P.P.P.P.P.P.P.P.P.P.P.P.P.    r 1.1.1.) P C 9 4 % X     X X o o o X X o .   . % 5 V S ( 1.1.1.S     P.P.P.P.P.P.P.P.P.P.P.P.",
"P.P.P.P.P.P.P.P.P.P.P.P.P.P.P.      P 1.1.1.1.1.1.1.1.1.1.) U U U U U U U U U 1.1.1.1.1.1.1.1.1.1.#     P.P.P.P.P.P.P.P.P.P.P.P.",
"P.P.P.P.P.P.P.P.P.P.P.P.P.P.    J $ . I 1.1.1.1.1.1.1.1.1.1.1.1.1.1.1.1.1.1.1.1.1.1.1.1.1.1.1.1.9     P.P.P.P.P.P.P.P.P.P.P.P.P.",
"P.P.P.P.P.P.P.P.P.P.P.P.P.P.    z.F   . I 1.1.1.1.1.1.1.1.1.1.1.1.1.1.1.1.1.1.1.1.1.1.1.1.1.( 5 . y     P.P.P.P.P.P.P.P.P.P.P.P.",
"P.P.P.P.P.P.P.P.P.P.P.P.P.P.  X Z.5.* J . S 1.) 1.1.1.1.1.1.1.1.1.1.1.1.1.1.1.1.1.1.1.1.Y r .   F k.    P.P.P.P.P.P.P.P.P.P.P.P.",
"P.P.P.P.P.P.P.P.P.P.P.P.P.P.    a.k.  a.'   5 ( 1.1.1.1.1.1.1.1.1.1.1.1.1.1.1.1.1.1.I Z   7 5.  0.Z.*   P.P.P.P.P.P.P.P.P.P.P.P.",
"P.P.P.P.P.P.P.P.P.P.P.P.P.P.    . ' w F Z.s.t   4 S ) 1.) 1.1.1.1.1.1.1.1.1.1.Y C $   * 9.V.' * C.f.    P.P.P.P.P.P.P.P.P.P.P.P.",
"P.P.P.P.P.P.P.P.P.P.P.P.P.P.P.          9.Z.Z.a.E .   4 r A A A A A A A V 5 #   & ' f.Z.V.h.. * j .     P.P.P.P.P.P.P.P.P.P.P.P.",
"P.P.P.P.P.P.P.P.P.P.P.P.P.P.P.P.P.      X j.Z.Z.Z.l.r.' u 7 7 , 4 , , 4 w ~ 6.f.Z.Z.Z.Z.l.8           P.P.P.P.P.P.P.P.P.P.P.P.P.",
"P.P.P.P.P.P.P.P.P.P.P.P.P.P.P.P.P.P.P.    * j.Z.Z.Z.Z.Z.Z.Z.Z.j.0.a.V.Z.Z.Z.Z.Z.Z.Z.Z.C.j     P.P.P.P.P.P.P.P.P.P.P.P.P.P.P.P.P.",
"P.P.P.P.P.P.P.P.P.P.P.P.P.P.P.P.P.P.P.P.    $ a.Z.Z.V.Z.Z.f.t @ m 3 y f.d.d.h.l.V.V.j.8     P.P.P.P.P.P.P.P.P.P.P.P.P.P.P.P.P.P.",
"P.P.P.P.P.P.P.P.P.P.P.P.P.P.P.P.P.P.P.P.P.      _ j.8.J *   &.3.4.4.n .         7 ~ .     P.P.P.P.P.P.P.P.P.P.P.P.P.P.P.P.P.P.P.",
"P.P.P.P.P.P.P.P.P.P.P.P.P.P.P.P.P.P.P.P.            n *.M B 3.,.4.4.-.n <.:.B . = e       P.P.P.P.P.P.P.P.P.P.P.P.P.P.P.P.P.P.P.",
"P.P.P.P.P.P.P.P.P.P.P.P.P.P.P.P.P.P.P.    i e.t.  M :.,.m @     n   # b ,.:.&.b 0 n.e..     P.P.P.P.P.P.P.P.P.P.P.P.P.P.P.P.P.P.",
"P.P.P.P.P.P.P.P.P.P.P.P.P.P.P.P.P.P.P.    v.n.c.X , >   @ =.<.b m ,.;.1   , h x   t.n.t.    P.P.P.P.P.P.P.P.P.P.P.P.P.P.P.P.P.P.",
"P.P.P.P.P.P.P.P.P.P.P.P.P.P.P.P.P.P.P.    c.n.q.X 7.+.+ ,.4.<.  2.4.4.<.1 / 7.7.e Q n.n.Q     P.P.P.P.P.P.P.P.P.P.P.P.P.P.P.P.P.",
"P.P.P.P.P.P.P.P.P.P.P.P.P.P.P.P.P.P.P.    ] b.] e 7.z B 4.4.,.2 4.4.4.4.D G 7.7.^ X b.n.x..   P.P.P.P.P.P.P.P.P.P.P.P.P.P.P.P.P.",
"P.P.P.P.P.P.P.P.P.P.P.P.P.P.P.P.P.P.P.    o     h 7.q *.4.4.,.. 3.4.4.4.D G 7.7.#.  u.n.n.T     P.P.P.P.P.P.P.P.P.P.P.P.P.P.P.P.",
"P.P.P.P.P.P.P.P.P.P.P.P.P.P.P.P.P.P.P.    g.d.* ! 7.7 :.4.,.6   *.4.4.4.b ^ 7.7.7., w.n.n.e.    P.P.P.P.P.P.P.P.P.P.P.P.P.P.P.P.",
"P.P.P.P.P.P.P.P.P.P.P.P.P.P.P.P.P.P.P.    . u   X.7.h 1 6 . F | X ;.4.>.X #.7.7.7.q = T &       P.P.P.P.P.P.P.P.P.P.P.P.P.P.P.P.",
"P.P.P.P.P.P.P.P.P.P.P.P.P.P.P.P.P.P.P.P.        @.7.7.X.` #.7.7./ X m b x 7.7.7.7.7 o 5.t     P.P.P.P.P.P.P.P.P.P.P.P.P.P.P.P.P.",
"P.P.P.P.P.P.P.P.P.P.P.P.P.P.P.P.P.P.P.P.P.P.      o , h h z G u z k X o ! G G k h o 7 Z.~     P.P.P.P.P.P.P.P.P.P.P.P.P.P.P.P.P.",
"P.P.P.P.P.P.P.P.P.P.P.P.P.P.P.P.P.P.P.P.P.P.      - s a a ; O       o < < c c g     y Z._     P.P.P.P.P.P.P.P.P.P.P.P.P.P.P.P.P.",
"P.P.P.P.P.P.P.P.P.P.P.P.P.P.P.P.P.P.P.P.P.P.P.    O { { { { s       ..J.J.J.J.i.    k Z.~     P.P.P.P.P.P.P.P.P.P.P.P.P.P.P.P.P.",
"P.P.P.P.P.P.P.P.P.P.P.P.P.P.P.P.P.P.P.P.P.P.P.      - [ { { d       O.G.J.S.M.c     V Z.'     P.P.P.P.P.P.P.P.P.P.P.P.P.P.P.P.P.",
"P.P.P.P.P.P.P.P.P.P.P.P.P.P.P.P.P.P.P.P.P.P.P.P.  : l   a d ;               o <     k Z.W     P.P.P.P.P.P.P.P.P.P.P.P.P.P.P.P.P.",
"P.P.P.P.P.P.P.P.P.P.P.P.P.P.P.P.P.P.  .           < J.M.| f :       : m.D.F.K. .    o K .     P.P.P.P.P.P.P.P.P.P.P.P.P.P.P.P.P.",
"P.P.P.P.P.P.P.P.P.P.P.P.P.P.P.P.P.P.              o H.J.J.J.N.        .  .} o               P.P.P.P.P.P.P.P.P.P.P.P.P.P.P.P.P.P.",
"P.P.P.P.P.P.P.P.    O   .     . O                   A.J.J.J.F.          O                   .   .     O . .     P.P.P.P.P.P.P.P.",
"P.P.P.P.P.P.P.P.      .   O .     .                 o l ..$.|                                   O   .   O       P.P.P.P.P.P.P.P.",
"P.P..     .   .                                   o %...R g v                                                   .   O     O P.P.",
"P.P.  O .   O   .                                   m.K.L.L.%.                                                    .   . . O P.P.",
"                                                      X s o                                                                     ",
"O .                                                                                                                             ",
"      O                                                                                                         .               ",
"      .   .                                                                                                         O     .     ",
"P.P.P.P.O     .     .       O .                                                                     .                   P.P.P.P.",
"P.P.P.P.                                                                                      O             .       .   P.P.P.P.",
"P.P.P.P.P.P.P.P.P.P.. O . O   O . .                                                         .   O     . O   P.P.P.P.P.P.P.P.P.P.",
"P.P.P.P.P.P.P.P.P.P.        .                                                                     .   O .   P.P.P.P.P.P.P.P.P.P.",
"P.P.P.P.P.P.P.P.P.P.P.P.P.P.P.P.P.P.P.P.                                                P.P.P.P.P.P.P.P.P.P.P.P.P.P.P.P.P.P.P.P.",
"P.P.P.P.P.P.P.P.P.P.P.P.P.P.P.P.P.P.P.P.                                                P.P.P.P.P.P.P.P.P.P.P.P.P.P.P.P.P.P.P.P."
};
