/* XPM */
static char *result[] = {
/* columns rows colors chars-per-pixel */
"64 128 158 2 ",
"   c #010101",
".  c #090705",
"X  c #0C0906",
"o  c #0D0B09",
"O  c #05080B",
"+  c #150C07",
"@  c #120E0A",
"#  c #150907",
"$  c #15110C",
"%  c #1B140E",
"&  c #1A1A0B",
"*  c #080C12",
"=  c #141414",
"-  c #1E1610",
";  c #1F1811",
":  c #1C1B1B",
">  c #220709",
",  c #230809",
"<  c #350C0E",
"1  c #20120B",
"2  c #2C180F",
"3  c #241B13",
"4  c #291E16",
"5  c #331C12",
"6  c #262219",
"7  c #2E2219",
"8  c #2A2417",
"9  c #32261B",
"0  c #35291E",
"q  c #392B1F",
"w  c #3F2216",
"e  c #3D3D1A",
"r  c #0E1824",
"t  c #18283C",
"y  c #142131",
"u  c gray14",
"i  c #2D2D2D",
"p  c #342E22",
"a  c #3C2D21",
"s  c #3F3022",
"d  c #36322A",
"f  c #363635",
"g  c #3D3B36",
"h  c #3D3D3D",
"j  c #410E11",
"k  c #491013",
"l  c #5E1518",
"z  c #442518",
"x  c #4B291A",
"c  c #532E1D",
"v  c #443324",
"b  c #483627",
"n  c #493728",
"m  c #433B2B",
"M  c #4C3929",
"N  c #5C3320",
"B  c #523E2D",
"V  c #683A25",
"C  c #56412E",
"Z  c #595926",
"A  c #4C4331",
"S  c #5C4532",
"D  c #5F4834",
"F  c #774229",
"G  c #7B442B",
"H  c #654C37",
"J  c #6D523A",
"K  c #72563D",
"L  c #63632A",
"P  c #747432",
"I  c #1A2B40",
"U  c #1F344E",
"Y  c #203651",
"T  c #223A56",
"R  c #264160",
"E  c #284465",
"W  c #454543",
"Q  c gray29",
"!  c #54534C",
"~  c #58564F",
"^  c #575757",
"/  c #5C5C5C",
"(  c #6C5F45",
")  c #775A40",
"_  c #7B5C42",
"`  c #6D6046",
"'  c #786A4D",
"]  c #77694C",
"[  c #6F6D64",
"{  c #6F6F6F",
"}  c #626262",
"|  c #747474",
" . c #7D7D7D",
".. c #902025",
"X. c #9C2228",
"o. c #D32F37",
"O. c #F0353E",
"+. c #81472D",
"@. c #F73640",
"#. c #FF3842",
"$. c #F93741",
"%. c #846347",
"&. c #8D6A4B",
"*. c #896749",
"=. c #926E4E",
"-. c #867656",
";. c #977150",
":. c #9D7654",
">. c #A27A56",
",. c #A77E59",
"<. c #A97F5A",
"1. c #807E73",
"2. c #878739",
"3. c #9E9E44",
"4. c #AB805B",
"5. c #A5A546",
"6. c #B68961",
"7. c #B98B63",
"8. c #CD9A6E",
"9. c #C49469",
"0. c #D19E70",
"q. c #DBA575",
"w. c #E3AB79",
"e. c #E9AF7C",
"r. c #EDB37E",
"t. c #C9C956",
"y. c #D8D85D",
"u. c #E7E763",
"i. c #FDFD6C",
"p. c #838383",
"a. c #8D8D8D",
"s. c #949285",
"d. c #9B998B",
"f. c #929292",
"g. c #ACACAC",
"h. c #B9B6A6",
"j. c #BBBBBB",
"k. c gray70",
"l. c #EFB480",
"z. c #F1B580",
"x. c #F5B983",
"c. c #FBBD86",
"v. c #FFC088",
"b. c #C5C2B1",
"n. c #D1CDBC",
"m. c #C5C5C5",
"M. c #CBCBCB",
"N. c #DAD7C5",
"B. c #DCDCDC",
"V. c gray84",
"C. c #EBE7D3",
"Z. c #F0ECD7",
"A. c #F7F3DE",
"S. c #E4E4E4",
"D. c gray92",
"F. c #F3F3F3",
"G. c #FEFEFE",
"H. c None",
/* pixels */
"H.H.H.H.H.H.H.H.H.H.H.H.H.H.H.H.H.H.H.H.H.H.H.H.H.H.H.H.H.H.H.H.H.H.H.H.H.H.H.H.H.H.H.H.H.H.H.H.H.H.H.H.H.H.H.H.H.H.H.H.H.H.H.H.",
"H.H.H.H.H.H.H.H.H.H.H.H.H.H.H.H.H.H.H.H.H.H.H.H.H.H.H.H.H.H.H.H.H.H.H.H.H.H.H.H.H.H.H.H.H.H.H.H.H.H.H.H.H.H.H.H.H.H.H.H.H.H.H.H.",
"H.H.H.H.H.H.H.H.H.H.H.H.H.H.H.H.H.H.H.H.H.H.H.H.H.H.H.H.H.H.H.H.H.H.H.H.H.H.H.H.H.H.H.H.H.H.H.H.H.H.H.H.H.H.H.H.H.H.H.H.H.H.H.H.",
"H.H.H.H.H.H.H.H.H.H.H.H.H.H.H.H.H.H.H.H.H.H.H.H.H.H.H.H.H.H.H.H.H.H.H.H.H.H.H.H.H.H.H.H.H.H.H.H.H.H.H.H.H.H.H.H.H.H.H.H.H.H.H.H.",
"H.H.H.H.H.H.H.H.H.H.H.H.H.H.H.H.H.H.H.H.H.H.H.H.H.H.H.H.H.H.H.H.H.H.H.H.H.H.H.H.H.H.H.H.H.H.H.H.H.H.H.H.H.H.H.H.H.H.H.H.H.H.H.H.",
"H.H.H.H.H.H.H.H.H.H.H.H.H.H.H.H.H.H.H.H.H.H.H.H.H.H.H.H.H.H.H.H.H.H.H.H.H.H.H.H.H.H.H.H.H.H.H.H.H.H.H.H.H.H.H.H.H.H.H.H.H.H.H.H.",
"H.H.H.H.H.H.H.H.H.H.H.H.H.H.H.H.H.H.H.H.H.H.H.H.H.H.H.H.H.H.H.H.H.H.H.H.H.H.H.H.H.H.H.H.H.H.H.H.H.H.H.H.H.H.H.H.H.H.H.H.H.H.H.H.",
"H.H.H.H.H.H.H.H.H.H.H.H.H.H.H.H.H.H.H.H.H.H.H.H.H.H.H.H.H.H.H.H.H.H.H.H.H.H.H.H.H.H.H.H.H.H.H.H.H.H.H.H.H.H.H.H.H.H.H.H.H.H.H.H.",
"H.H.H.H.H.H.H.H.H.H.H.H.H.H.H.H.H.H.H.H.H.H.H.H.H.H.H.H.H.H.H.H.H.H.H.H.H.H.H.H.H.H.H.H.H.H.H.H.H.H.H.H.H.H.H.H.H.H.H.H.H.H.H.H.",
"H.H.H.H.H.H.H.H.H.H.H.H.H.H.H.H.H.H.H.H.H.H.H.H.H.H.H.H.H.H.H.H.H.H.H.H.H.H.H.H.H.H.H.H.H.H.H.H.H.H.H.H.H.H.H.H.H.H.H.H.H.H.H.H.",
"H.H.H.H.H.H.H.H.H.H.H.H.H.H.H.H.H.H.H.H.H.H.H.H.H.H.H.H.H.H.H.H.H.H.H.H.H.H.H.H.H.H.H.H.H.H.H.H.H.H.H.H.H.H.H.H.H.H.H.H.H.H.H.H.",
"H.H.H.H.H.H.H.H.H.H.H.H.H.H.H.H.H.H.H.H.H.H.H.H.H.H.H.H.H.H.H.H.H.H.H.H.H.H.H.H.H.H.H.H.H.H.H.H.H.H.H.H.H.H.H.H.H.H.H.H.H.H.H.H.",
"H.H.H.H.H.H.H.H.H.H.H.H.H.H.H.H.H.H.H.H.H.H.H.H.H.H.H.H.H.H.H.H.H.H.H.H.H.H.H.H.H.H.H.H.H.H.H.H.H.H.H.H.H.H.H.H.H.H.H.H.H.H.H.H.",
"H.H.H.H.H.H.H.H.H.H.H.H.H.H.H.H.H.H.H.H.H.H.H.H.H.H.H.H.H.H.H.H.H.H.H.H.H.H.H.H.H.H.H.H.H.H.H.H.H.H.H.H.H.H.H.H.H.H.H.H.H.H.H.H.",
"H.H.H.H.H.H.H.H.H.H.H.H.H.H.H.H.H.H.H.H.H.H.H.H.H.H.H.H.H.H.H.H.H.H.H.H.H.H.H.H.H.H.H.H.H.H.H.H.H.H.H.H.H.H.H.H.H.H.H.H.H.H.H.H.",
"H.H.H.H.H.H.H.H.H.H.H.H.H.H.H.H.H.H.H.H.H.H.H.H.H.H.H.H.H.H.H.H.H.H.H.H.H.H.H.H.H.H.H.H.H.H.H.H.H.H.H.H.H.H.H.H.H.H.H.H.H.H.H.H.",
"H.H.H.H.H.H.H.H.H.H.H.H.H.H.H.H.H.H.H.H.H.H.H.H.H.H.H.H.H.H.H.H.H.H.H.H.H.H.H.H.H.H.H.H.H.H.H.H.H.H.H.H.H.H.H.H.H.H.H.H.H.H.H.H.",
"H.H.H.H.H.H.H.H.H.H.H.H.H.H.H.H.H.H.H.H.H.H.H.H.H.H.H.H.H.H.H.H.H.H.H.H.H.H.H.H.H.H.H.H.H.H.H.H.H.H.H.H.H.H.H.H.H.H.H.H.H.H.H.H.",
"H.H.H.H.H.H.H.H.H.H.H.H.H.H.H.H.H.H.H.H.H.H.H.H.H.H.H.H.H.H.H.H.H.H.H.H.H.H.H.H.H.H.H.H.H.H.H.H.H.H.H.H.H.H.H.H.H.H.H.H.H.H.H.H.",
"H.H.H.H.H.H.H.H.H.H.H.H.H.H.H.H.H.H.H.H.H.H.H.H.H.H.H.H.H.H.H.H.H.H.H.H.H.H.H.H.H.H.H.H.H.H.H.H.H.H.H.H.H.H.H.H.H.H.H.H.H.H.H.H.",
"H.H.H.H.H.H.H.H.H.H.H.H.H.H.H.H.H.H.H.H.H.H.H.H.H.H.H.H.H.H.H.H.H.H.H.H.H.H.H.H.H.H.H.H.H.H.H.H.H.H.H.H.H.H.H.H.H.H.H.H.H.H.H.H.",
"H.H.H.H.H.H.H.H.H.H.H.H.H.H.H.H.H.H.H.H.H.H.H.H.H.H.H.H.H.H.H.H.H.H.H.H.H.H.H.H.H.H.H.H.H.H.H.H.H.H.H.H.H.H.H.H.H.H.H.H.H.H.H.H.",
"H.H.H.H.H.H.H.H.H.H.H.H.H.H.H.H.H.H.H.H.H.H.H.H.H.H.H.H.H.H.H.H.H.H.H.H.H.H.H.H.H.H.H.H.H.H.H.H.H.H.H.H.H.H.H.H.H.H.H.H.H.H.H.H.",
"H.H.H.H.H.H.H.H.H.H.H.H.H.H.H.H.H.H.H.H.H.H.H.H.H.H.H.H.H.H.H.H.H.H.H.H.H.H.H.H.H.H.H.H.H.H.H.H.H.H.H.H.H.H.H.H.H.H.H.H.H.H.H.H.",
"H.H.H.H.H.H.H.H.H.H.H.H.H.H.H.H.H.H.H.H.H.H.H.H.H.H.H.H.H.H.H.H.H.H.H.H.H.H.H.H.H.H.H.H.H.H.H.H.H.H.H.H.H.H.H.H.H.H.H.H.H.H.H.H.",
"H.H.H.H.H.H.H.H.H.H.H.H.H.H.H.H.H.H.H.H.H.H.H.H.H.H.H.H.H.H.H.H.H.H.H.H.H.H.H.H.H.H.H.H.H.H.H.H.H.H.H.H.H.H.H.H.H.H.H.H.H.H.H.H.",
"H.H.H.H.H.H.H.H.H.H.H.H.H.H.H.H.H.H.H.H.H.H.H.H.H.H.H.H.H.H.H.H.H.H.H.H.H.H.H.H.H.H.H.H.H.H.H.H.H.H.H.H.H.H.H.H.H.H.H.H.H.H.H.H.",
"H.H.H.H.H.H.H.H.H.H.H.H.H.H.H.H.H.H.H.H.H.H.H.H.H.H.H.H.H.H.H.H.H.H.H.H.H.H.H.H.H.H.H.H.H.H.H.H.H.H.H.H.H.H.H.H.H.H.H.H.H.H.H.H.",
"H.H.H.H.H.H.H.H.H.H.H.H.H.H.H.H.H.H.H.H.H.H.H.H.H.H.H.H.H.H.H.H.H.H.H.H.H.H.H.H.H.H.H.H.H.H.H.H.H.H.H.H.H.H.H.H.H.H.H.H.H.H.H.H.",
"H.H.H.H.H.H.H.H.H.H.H.H.H.H.H.H.H.H.H.H.H.H.H.H.H.H.H.H.H.H.H.H.H.H.H.H.H.H.H.H.H.H.H.H.H.H.H.H.H.H.H.H.H.H.H.H.H.H.H.H.H.H.H.H.",
"H.H.H.H.H.H.H.H.H.H.H.H.H.H.H.H.H.H.H.H.H.H.H.H.H.H.H.H.H.H.H.H.H.H.H.H.H.H.H.H.H.H.H.H.H.H.H.H.H.H.H.H.H.H.H.H.H.H.H.H.H.H.H.H.",
"H.H.H.H.H.H.H.H.H.H.H.H.H.H.H.H.H.H.H.H.H.H.H.H.H.H.H.H.H.H.H.H.H.H.H.H.H.H.H.H.H.H.H.H.H.H.H.H.H.H.H.H.H.H.H.H.H.H.H.H.H.H.H.H.",
"H.H.H.H.H.H.H.H.H.H.H.H.H.H.H.H.H.H.H.H.H.H.H.H.H.H.H.H.H.H.H.H.H.H.H.H.H.H.H.H.H.H.H.H.H.H.H.H.H.H.H.H.H.H.H.H.H.H.H.H.H.H.H.H.",
"H.H.H.H.H.H.H.H.H.H.H.H.H.H.H.H.H.H.H.H.H.H.H.H.H.H.H.H.H.H.H.H.H.H.H.H.H.H.H.H.H.H.H.H.H.H.H.H.H.H.H.H.H.H.H.H.H.H.H.H.H.H.H.H.",
"H.H.H.H.H.H.H.H.H.H.H.H.H.H.H.H.H.H.H.H.H.H.H.H.H.H.H.H.H.H.H.H.H.H.H.H.H.H.H.H.H.H.H.H.H.H.H.H.H.H.H.H.H.H.H.H.H.H.H.H.H.H.H.H.",
"H.H.H.H.H.H.H.H.H.H.H.H.H.H.H.H.H.H.H.H.H.H.H.H.H.H.H.H.H.H.H.H.H.H.H.H.H.H.H.H.H.H.H.H.H.H.H.H.H.H.H.H.H.H.H.H.H.H.H.H.H.H.H.H.",
"H.H.H.H.H.H.H.H.H.H.H.H.H.H.H.H.H.H.H.H.H.H.H.H.H.H.H.H.H.H.H.H.H.H.H.H.H.H.H.H.H.H.H.H.H.H.H.H.H.H.H.H.H.H.H.H.H.H.H.H.H.H.H.H.",
"H.H.H.H.H.H.H.H.H.H.H.H.H.H.H.H.H.H.H.H.H.H.H.H.H.H.H.H.H.H.H.H.H.H.H.H.H.H.H.H.H.H.H.H.H.H.H.H.H.H.H.H.H.H.H.H.H.H.H.H.H.H.H.H.",
"H.H.H.H.H.H.H.H.H.H.H.H.H.H.H.H.H.H.H.H.H.H.H.H.H.H.H.H.H.H.H.H.H.H.H.H.H.H.H.H.H.H.H.H.H.H.H.H.H.H.H.H.H.H.H.H.H.H.H.H.H.H.H.H.",
"H.H.H.H.H.H.H.H.H.H.H.H.H.H.H.H.H.H.H.H.H.H.H.H.H.H.H.H.H.H.H.H.H.H.H.H.H.H.H.H.H.H.H.H.H.H.H.H.H.H.H.H.H.H.H.H.H.H.H.H.H.H.H.H.",
"H.H.H.H.H.H.H.H.H.H.H.H.H.H.H.H.H.H.H.H.H.H.H.H.H.H.H.H.H.H.H.H.H.H.H.H.H.H.H.H.H.H.H.H.H.H.H.H.H.H.H.H.H.H.H.H.H.H.H.H.H.H.H.H.",
"H.H.H.H.H.H.H.H.H.H.H.H.H.H.H.H.H.H.H.H.H.H.H.H.H.H.H.H.H.H.H.H.H.H.H.H.H.H.H.H.H.H.H.H.H.H.H.H.H.H.H.H.H.H.H.H.H.H.H.H.H.H.H.H.",
"H.H.H.H.H.H.H.H.H.H.H.H.H.H.H.H.H.H.H.H.H.H.H.H.H.H.H.H.H.H.H.H.H.H.H.H.H.H.H.H.H.H.H.H.H.H.H.H.H.H.H.H.H.H.H.H.H.H.H.H.H.H.H.H.",
"H.H.H.H.H.H.H.H.H.H.H.H.H.H.H.H.H.H.H.H.H.H.H.H.H.H.H.H.H.H.H.H.H.H.H.H.H.H.H.H.H.H.H.H.H.H.H.H.H.H.H.H.H.H.H.H.H.H.H.H.H.H.H.H.",
"H.H.H.H.H.H.H.H.H.H.H.H.H.H.H.H.H.H.H.H.H.H.H.H.H.H.H.H.H.H.H.H.H.H.H.H.H.H.H.H.H.H.H.H.H.H.H.H.H.H.H.H.H.H.H.H.H.H.H.H.H.H.H.H.",
"H.H.H.H.H.H.H.H.H.H.H.H.H.H.H.H.H.H.H.H.H.H.H.H.H.H.H.H.H.H.H.H.H.H.H.H.H.H.H.H.H.H.H.H.H.H.H.H.H.H.H.H.H.H.H.H.H.H.H.H.H.H.H.H.",
"H.H.H.H.H.H.H.H.H.H.H.H.H.H.H.H.H.H.H.H.H.H.H.H.H.H.H.H.H.H.H.H.H.H.H.H.H.H.H.H.H.H.H.H.H.H.H.H.H.H.H.H.H.H.H.H.H.H.H.H.H.H.H.H.",
"H.H.H.H.H.H.H.H.H.H.H.H.H.H.H.H.H.H.H.H.H.H.H.H.H.H.H.H.H.H.H.H.H.H.H.H.H.H.H.H.H.H.H.H.H.H.H.H.H.H.H.H.H.H.H.H.H.H.H.H.H.H.H.H.",
"H.H.H.H.H.H.H.H.H.H.H.H.H.H.H.H.H.H.H.H.H.H.H.H.H.H.H.H.H.H.H.H.H.H.H.H.H.H.H.H.H.H.H.H.H.H.H.H.H.H.H.H.H.H.H.H.H.H.H.H.H.H.H.H.",
"H.H.H.H.H.H.H.H.H.H.H.H.H.H.H.H.H.H.H.H.H.H.H.H.H.H.H.H.H.H.H.H.H.H.H.H.H.H.H.H.H.H.H.H.H.H.H.H.H.H.H.H.H.H.H.H.H.H.H.H.H.H.H.H.",
"H.H.H.H.H.H.H.H.H.H.H.H.H.H.H.H.H.H.H.H.H.H.H.H.H.H.H.H.H.H.H.H.H.H.H.H.H.H.H.H.H.H.H.H.H.H.H.H.H.H.H.H.H.H.H.H.H.H.H.H.H.H.H.H.",
"H.H.H.H.H.H.H.H.H.H.H.H.H.H.H.H.H.H.H.H.H.H.H.H.H.H.H.H.H.H.H.H.H.H.H.H.H.H.H.H.H.H.H.H.H.H.H.H.H.H.H.H.H.H.H.H.H.H.H.H.H.H.H.H.",
"H.H.H.H.H.H.H.H.H.H.H.H.H.H.H.H.H.H.H.H.H.H.H.H.H.H.H.H.H.H.H.H.H.H.H.H.H.H.H.H.H.H.H.H.H.H.H.H.H.H.H.H.H.H.H.H.H.H.H.H.H.H.H.H.",
"H.H.H.H.H.H.H.H.H.H.H.H.H.H.H.H.H.H.H.H.H.H.H.H.H.H.H.H.H.H.H.H.H.H.H.H.H.H.H.H.H.H.H.H.H.H.H.H.H.H.H.H.H.H.H.H.H.H.H.H.H.H.H.H.",
"H.H.H.H.H.H.H.H.H.H.H.H.H.H.H.H.H.H.H.H.H.H.H.H.H.H.H.H.H.H.H.H.H.H.H.H.H.H.H.H.H.H.H.H.H.H.H.H.H.H.H.H.H.H.H.H.H.H.H.H.H.H.H.H.",
"H.H.H.H.H.H.H.H.H.H.H.H.H.H.H.H.H.H.H.H.H.H.H.H.H.H.H.H.H.H.H.H.H.H.H.H.H.H.H.H.H.H.H.H.H.H.H.H.H.H.H.H.H.H.H.H.H.H.H.H.H.H.H.H.",
"H.H.H.H.H.H.H.H.H.H.H.H.H.H.H.H.H.H.H.H.H.H.H.H.H.H.H.H.H.H.H.H.H.                H.H.H.H.H.H.H.H.H.H.H.H.H.H.H.H.H.H.H.H.H.H.H.",
"H.H.H.H.H.H.H.H.H.H.H.H.H.H.H.H.H.H.H.H.H.H.H.H.H.H.                                  H.H.H.H.H.H.H.H.H.H.H.H.H.H.H.H.H.H.H.H.H.",
"H.H.H.H.H.H.H.H.H.H.H.H.H.H.H.H.H.H.H.H.H.H.                @ % 3 7 7 q a q a q 7     H.H.H.H.H.H.H.H.H.H.H.H.H.H.H.H.H.H.H.H.H.",
"H.H.H.H.H.H.H.H.H.H.H.H.H.H.H.H.H.H.H.H.        . 3 9 v S S H H H H H H H H H H H 3     H.H.H.H.H.H.H.H.H.H.H.H.H.H.H.H.H.H.H.H.",
"H.H.H.H.H.H.H.H.H.H.H.H.H.H.H.H.H.H.H.      % v S H H H H H H H H H H H H H H H H B     H.H.H.H.H.H.H.H.H.H.H.H.H.H.H.H.H.H.H.H.",
"H.H.H.H.H.H.H.H.H.H.H.H.H.H.H.H.H.H.H.    q H H H H H H H H H H H H H 7 9 S H H H H .   H.H.H.H.H.H.H.H.H.H.H.H.H.H.H.H.H.H.H.H.",
"H.H.H.H.H.H.H.H.H.H.H.H.H.H.H.H.H.H.H.  $ H H H H H H H H H H H H H H v 3 X n H H H 3     H.H.H.H.H.H.H.H.H.H.H.H.H.H.H.H.H.H.H.",
"H.H.H.H.H.H.H.H.H.H.H.H.H.H.H.H.H.H.    q H H H H H H H H H H H H H H H H v . S H H a     H.H.H.H.H.H.H.H.H.H.H.H.H.H.H.H.H.H.H.",
"H.H.H.H.H.H.H.H.H.H.H.H.H.H.H.H.H.H.    B H H H H H H H H H H H H H H H H H 4 0 H H B     H.H.H.H.H.H.H.H.H.H.H.H.H.H.H.H.H.H.H.",
"H.H.H.H.H.H.H.H.H.H.H.H.H.H.H.H.H.      H H H H H H H H H H H H H H H H H H 7 9 H H H       H.H.H.H.H.H.H.H.H.H.H.H.H.H.H.H.H.H.",
"H.H.H.H.H.H.H.H.H.H.H.H.H.H.H.H.      % H H H H H H H H H H H H H H H H H v . B H H H X       H.H.H.H.H.H.H.H.H.H.H.H.H.H.H.H.H.",
"H.H.H.H.H.H.H.H.H.H.H.H.H.H.      X X 4 H H H H H H H H H H H H H H B v 3 @ b H H H H ; @ X       H.H.H.H.H.H.H.H.H.H.H.H.H.H.H.",
"H.H.H.H.H.H.H.H.H.H.H.H.H.      3 S @ 0 H H H H H J H H H H H H H H % 3 9 S H H H H H 7 ; D 9       H.H.H.H.H.H.H.H.H.H.H.H.H.H.",
"H.H.H.H.H.H.H.H.H.H.H.H.      a H H . v H H H H H H H H H H H H H H S H H H H H H H H 0 X H H B $       H.H.H.H.H.H.H.H.H.H.H.H.",
"H.H.H.H.H.H.H.H.H.H.H.      n H H H   n H H H H H H H H H H H H H H H H H H H H H H H v . H H H D 7       H.H.H.H.H.H.H.H.H.H.H.",
"H.H.H.H.H.H.H.H.H.H.    . M H H H S   9 n M B B C S S D S S S C B B B n n b v v q 0 4 ;   H H H H H a       H.H.H.H.H.H.H.H.H.H.",
"H.H.H.H.H.H.H.H.H.    . n H H H H C     . .   . . . . . X . . . . . .   . . . . . X X X   S H H H H H v .     H.H.H.H.H.H.H.H.H.",
"H.H.H.H.H.H.H.H.H.    a H H H H H M   3 4 4 4 4 ; @ .                   . @ ; 3 7 5 9 7   M H H H H H H v     H.H.H.H.H.H.H.H.H.",
"H.H.H.H.H.H.H.H.    3 H H H H H H M   3 7 7 ; . . X ; 0 v n B C B M v a 4 $ .   . % 3 7   v H H H H H H H 9     H.H.H.H.H.H.H.H.",
"H.H.H.H.H.H.H.H.  X D H H H H H H M   3 @   X 7 n S H H H H H H H H H H H H D n 9 $   .   q H H H H H H H H @     H.H.H.H.H.H.H.",
"H.H.H.H.H.H.H.    a H H H H H H H v     @ a S H H H H H H H H H H H H H H H H H H D B 6 X . 9 S H H H H H H v     H.H.H.H.H.H.H.",
"H.H.H.H.H.H.H.    D H H H H H H n X X a H H H H H H H H H H H H H H H H H H H H H H H H S 0 o o a H H H H H H     H.H.H.H.H.H.H.",
"H.H.H.H.H.H.H.  @ H H H H H H b   3 S H H H H H H H H H H H H H H H H H H H H H H H H H H H S 7   4 S H H H C     H.H.H.H.H.H.H.",
"H.H.H.H.H.H.H.  . H H H H H B   7 H H H H H H H H H H H H H H H H H H H H H H H H H H H H H H H n @ v H H S %     H.H.H.H.H.H.H.",
"H.H.H.H.H.H.H.    3 S H H H @ 3 H H H H H H H H H H H H H H H H H H H H H H H H H H H H H H H H H S H B 0 .     H.H.H.H.H.H.H.H.",
"H.H.H.H.H.H.H.H.    . 3 a v   M S H H H H H H H H H H H H H H H H H H H H H H H H H H H H H D B v 9 $ .       H.H.H.H.H.H.H.H.H.",
"H.H.H.H.H.H.H.H.H.            X @ @ $ + @ 3 3 3 3 3 3 9 9 9 a a a a a a n v a a a p 9 4 3 @ X X           H.H.H.H.H.H.H.H.H.H.H.",
"H.H.H.H.H.H.H.H.H.H.H.        5 c x z z z 5 5 5 %   v v v v 0 9 0 0 0 0 3 9 X         o     S       H.H.H.H.H.H.H.H.H.H.H.H.H.H.",
"H.H.H.H.H.H.H.H.H.H.H.H.H.    c +.+.+.+.+.+.+.G + v x.v.v.c.z.z.l.z.z.l.w.z.4   h f.M.M.g.W @     H.H.H.H.H.H.H.H.H.H.H.H.H.H.H.",
"H.H.H.H.H.H.H.H.H.H.H.H.H.    N +.+.+.+.+.+.+.z + q.v.v.v.v.v.v.c.c.v.v.v.l.@ | F.G.G.G.G.F.a.      H.H.H.H.H.H.H.H.H.H.H.H.H.H.",
"H.H.H.H.H.H.H.H.H.H.H.H.H.    V +.+.+.+.+.+.V . ;.v.v.v.v.v.v.v.c.v.v.v.v.4.o D.G.G.G.G.G.G.G.Q     H.H.H.H.H.H.H.H.H.H.H.H.H.H.",
"H.H.H.H.H.H.H.H.H.H.H.H.H.    c +.+.+.+.+.+.2 7 x.v.v.v.v.v.v.v.v.v.v.v.v._ h G.G.G.G.G.G.V.g.f.    H.H.H.H.H.H.H.H.H.H.H.H.H.H.",
"H.H.H.H.H.H.H.H.H.H.H.H.H.    x +.+.+.+.+.V . 6.v.v.v.v.v.v.v.v.v.v.v.v.c.H ^ G.G.G.G.G.F.=   /     H.H.H.H.H.H.H.H.H.H.H.H.H.H.",
"H.H.H.H.H.H.H.H.H.H.H.H.H.    5 +.+.+.+.+.+ S v.v.v.v.v.v.v.v.v.v.v.v.v.v._ h G.G.G.G.G.F.h X }     H.H.H.H.H.H.H.H.H.H.H.H.H.H.",
"H.H.H.H.H.H.H.H.H.H.H.H.H.H.  # +.+.+.+.x + w.v.w.J v S 6.v.v.v.v.v.v.v.v.:.= D.G.G.G.G.G.S.M./       H.H.H.H.H.H.H.H.H.H.H.H.H.",
"H.H.H.H.H.H.H.H.H.H.H.H.H.H.    V +.+.G . K c.x.q 3 _ v 3 v.v.v.v.v.v.v.v.z.= | G.G.G.G.G.G.j.o _     H.H.H.H.H.H.H.H.H.H.H.H.H.",
"H.H.H.H.H.H.H.H.H.H.H.H.H.H.    c +.+.x @ l.v.6.. q.v.c.q.c.v.v.v.v.v.v.v.v.,.@  .B.F.F.B.p.= q :.    H.H.H.H.H.H.H.H.H.H.H.H.H.",
"H.H.H.H.H.H.H.H.H.H.H.H.H.H.    # F +.% J v.v.>.; v.v.v.v.v.v.v.v.v.v.v.v.v.v.>.3 : f f : 3 X         H.H.H.H.H.H.H.H.H.H.H.H.H.",
"H.H.H.H.H.H.H.H.H.H.H.H.H.H.H.    5 F X :.c.v.6.  8.v.v.r.x.v.v.v.v.v.v.v.v.v.v.w.,.*.=.6.q.%       H.H.H.H.H.H.H.H.H.H.H.H.H.H.",
"H.H.H.H.H.H.H.H.H.H.H.H.H.H.H.H.    +   q.v.v.c.v % _ %.9 4.v.v.v.v.v.v.v.v.v.v.v.c.v.v.v.%.    H.H.H.H.H.H.H.H.H.H.H.H.H.H.H.H.",
"H.H.H.H.H.H.H.H.H.H.H.H.H.H.H.H.      . 7.v.v.v.l.&.7 3 _ r.v.v.v.v.v.v.v.v.v.v.v.z.r.x.9.X   H.H.H.H.H.H.H.H.H.H.H.H.H.H.H.H.H.",
"H.H.H.H.H.H.H.H.H.H.H.H.H.H.H.H.H.H.    % 9.v.v.v.v.x.l.v.v.v.v.v.v.v.v.v.v.v.e.&.0 6 v %     H.H.H.H.H.H.H.H.H.H.H.H.H.H.H.H.H.",
"H.H.H.H.H.H.H.H.H.H.H.H.H.H.H.H.H.H.H.    % 6.v.v.v.v.v.v.v.v.v.v.v.v.v.v.v.v._ 3 K J       H.H.H.H.H.H.H.H.H.H.H.H.H.H.H.H.H.H.",
"H.H.H.H.H.H.H.H.H.H.H.H.H.H.H.H.H.H.H.H.    X K r.v.v.v.v.v.v.v.v.v.v.v.v.v.v.r.w.=.@     H.H.H.H.H.H.H.H.H.H.H.H.H.H.H.H.H.H.H.",
"H.H.H.H.H.H.H.H.H.H.H.H.H.H.H.H.H.H.H.H.H.      8 &.q.v.v.c.v.v.c.v.v.c.c.c.w.,.0       H.H.H.H.H.H.H.H.H.H.H.H.H.H.H.H.H.H.H.H.",
"H.H.H.H.H.H.H.H.H.H.H.H.H.H.H.H.H.H.H.H.H.H.      . & C &.9.q.w.w.w.q.6.*.M = . l >     H.H.H.H.H.H.H.H.H.H.H.H.H.H.H.H.H.H.H.H.",
"H.H.H.H.H.H.H.H.H.H.H.H.H.H.H.H.H.H.H.H.H.H.      L 5.Z 8 & $ ; $ $ . X = a 8 j #.o..   H.H.H.H.H.H.H.H.H.H.H.H.H.H.H.H.H.H.H.H.",
"H.H.H.H.H.H.H.H.H.H.H.H.H.H.H.H.H.H.H.H.H.H.    & u.i.i.i.y.t.2.  m ` ] -.-.m j #.#...    H.H.H.H.H.H.H.H.H.H.H.H.H.H.H.H.H.H.H.",
"H.H.H.H.H.H.H.H.H.H.H.H.H.H.H.H.H.H.H.H.H.H.    . Z t.i.i.i.i.e 6 -.-.-.-.-.m j #.#.$.>   H.H.H.H.H.H.H.H.H.H.H.H.H.H.H.H.H.H.H.",
"H.H.H.H.H.H.H.H.H.H.H.H.H.H.H.H.H.H.H.H.H.H.  o A   @ L y.i.3.  ` -.-.-.-.-.m < O.@.@.X.    H.H.H.H.H.H.H.H.H.H.H.H.H.H.H.H.H.H.",
"H.H.H.H.H.H.H.H.H.H.H.H.H.H.H.H.H.H.H.H.H.H.  3 p 4 ,.. X P $ m -.-.-.-.-.-.d   < j k >     H.H.H.H.H.H.H.H.H.H.H.H.H.H.H.H.H.H.",
"H.H.H.H.H.H.H.H.H.H.H.H.H.H.H.H.H.H.H.H.H.H.  @   <.q.  0 .   ` ' ' ' ' ' ' 8             H.H.H.H.H.H.H.H.H.H.H.H.H.H.H.H.H.H.H.",
"H.H.H.H.H.H.H.H.H.H.H.H.H.H.H.H.H.H.H.H.H.H.    $ x.H         O       . o X   .       H.H.H.H.H.H.H.H.H.H.H.H.H.H.H.H.H.H.H.H.H.",
"H.H.H.H.H.H.H.H.H.H.H.H.H.H.H.H.H.H.H.H.H.H.    H v.@   y Y T T T r = h.b.s.  ;.    H.H.H.H.H.H.H.H.H.H.H.H.H.H.H.H.H.H.H.H.H.H.",
"H.H.H.H.H.H.H.H.H.H.H.H.H.H.H.H.H.H.H.H.H.    v r.q.  W   I R E Y   s.A.A.n.  8.    H.H.H.H.H.H.H.H.H.H.H.H.H.H.H.H.H.H.H.H.H.H.",
"H.H.H.H.H.H.H.H.H.H.H.H.H.H.H.H.H.H.H.H.H.    ] x.K   1.[ o * t O ! A.A.A.N.  X     H.H.H.H.H.H.H.H.H.H.H.H.H.H.H.H.H.H.H.H.H.H.",
"H.H.H.H.H.H.H.H.H.H.H.H.H.H.H.H.H.H.            0   . ~ A.n.Q   f C.A.A.A.A.              O H.H.H.H.H.H.H.H.H.H.H.H.H.H.H.H.H.H.",
"H.H.H.H.H.H.H.H.H.H.H.H.H.H.H.H.H.H.         .| u : s.N.A.h.:   d.A.A.A.A.A.            X   H.H.H.H.H.H.H.H.H.H.H.H.H.H.H.H.H.H.",
"H.H.H.H.H.H.H.H.    O     O   X .           u B.D.W = [ s.X     g A.A.A.A.Z.=                   O   X     X     H.H.H.H.H.H.H.H.",
"H.H.H.H.H.H.H.H.      X                       i k.F.a.:           h.Z.C.d.f .                   X       O       H.H.H.H.H.H.H.H.",
"H.H.X     X                                       | S.S.i         g ~ =     i a.m.i                               O     O   H.H.",
"H.H.  O     O                                         : :             ^ f.j.G.G. .                              X     X .   H.H.",
"                                                                      g.G.F.m.W                                             O   ",
"                                                                      u : :                                                     ",
"    .                                                                                                               O     X     ",
"        O                                                                                                       .       .       ",
"H.H.H.H.. O   .                                                                                         O               H.H.H.H.",
"H.H.H.H.        . O   .                                                                                 .               H.H.H.H.",
"H.H.H.H.H.H.H.H.H.H.    . O   O   X                                                         X         X     H.H.H.H.H.H.H.H.H.H.",
"H.H.H.H.H.H.H.H.H.H.                                                                          O     O       H.H.H.H.H.H.H.H.H.H.",
"H.H.H.H.H.H.H.H.H.H.H.H.H.H.H.H.H.H.H.H.                                                H.H.H.H.H.H.H.H.H.H.H.H.H.H.H.H.H.H.H.H.",
"H.H.H.H.H.H.H.H.H.H.H.H.H.H.H.H.H.H.H.H.                                                H.H.H.H.H.H.H.H.H.H.H.H.H.H.H.H.H.H.H.H."
};
