/* XPM */
static char *result[] = {
/* columns rows colors chars-per-pixel */
"64 128 174 2 ",
"   c #010101",
".  c #090604",
"X  c #0B0906",
"o  c #0D0B09",
"O  c #160606",
"+  c #110D09",
"@  c #15110C",
"#  c #1A130E",
"$  c #1C1B0C",
"%  c #101007",
"&  c #141311",
"*  c #1D1611",
"=  c #1D1914",
"-  c #1B1B1A",
";  c #220809",
":  c #350D0E",
">  c #23130D",
",  c #2A170E",
"<  c #28190E",
"1  c #37110F",
"2  c #231B13",
"3  c #291E16",
"4  c #201B18",
"5  c #381612",
"6  c #2B2017",
"7  c #25221C",
"8  c #2E2219",
"9  c #292912",
"0  c #31241A",
"q  c #36291D",
"w  c #392B1F",
"e  c #373717",
"r  c #363518",
"t  c #2D2D2A",
"y  c #272725",
"u  c #3C2E21",
"i  c #302E2C",
"p  c #3C3325",
"a  c #32322D",
"s  c #373124",
"d  c #343331",
"f  c #3B3A36",
"g  c #3C3B3A",
"h  c #393736",
"j  c #420F11",
"k  c #561316",
"l  c #412417",
"z  c #452719",
"x  c #4C2A1B",
"c  c #522D1D",
"v  c #5A321F",
"b  c #443325",
"n  c #493727",
"m  c #493728",
"M  c #453D2C",
"N  c #4D3A2A",
"B  c #523E2D",
"V  c #5F3521",
"C  c #6C3B26",
"Z  c #46461E",
"A  c #56412F",
"S  c #59432F",
"D  c #555524",
"F  c #5B5B27",
"G  c #4E4432",
"H  c #5C4532",
"J  c #554B37",
"K  c #5F4834",
"L  c #564C37",
"P  c #5E533D",
"I  c #654C37",
"U  c #684E37",
"Y  c #6E523A",
"T  c #76593F",
"R  c #74573E",
"E  c #62622A",
"W  c #7B7B35",
"Q  c #464646",
"!  c #4B4B4B",
"~  c #5C5C5C",
"^  c #535353",
"/  c #57554E",
"(  c #655941",
")  c #7B5D42",
"_  c #736549",
"`  c #796B4E",
"'  c #7C6E50",
"]  c #636363",
"[  c #6B6B6B",
"{  c #727272",
"}  c gray48",
"|  c #871E23",
" . c #9B2228",
".. c #A6252B",
"X. c #A8252B",
"o. c #B92930",
"O. c #B4282E",
"+. c #CC2D35",
"@. c #DD313A",
"#. c #FF3842",
"$. c #F93741",
"%. c #826246",
"&. c #8D6A4B",
"*. c #896749",
"=. c #936E4E",
"-. c #94704F",
";. c #867656",
":. c #967151",
">. c #9A7452",
",. c #9F7855",
"<. c #A17A56",
"1. c #A97F5A",
"2. c #827F74",
"3. c #818137",
"4. c #848439",
"5. c #90903D",
"6. c #969641",
"7. c #9B9B42",
"8. c #AD825C",
"9. c #B1865F",
"0. c #A8A848",
"q. c #B5B54D",
"w. c #BABA50",
"e. c #B38760",
"r. c #B78962",
"t. c #BB8D64",
"y. c #C49469",
"u. c #C9976B",
"i. c #CD9A6D",
"p. c #C09167",
"a. c #D09C6F",
"s. c #D29E70",
"d. c #D6A172",
"f. c #DBA575",
"g. c #DFA877",
"h. c #E3AB79",
"j. c #E8AF7C",
"k. c #ECB27E",
"l. c #C5C554",
"z. c #E1E160",
"x. c #EDED65",
"c. c #FFFF6D",
"v. c #F0F067",
"b. c #8C8C8C",
"n. c #838383",
"m. c #9A9A9A",
"M. c gray58",
"N. c #9C998C",
"B. c #A09E91",
"V. c #A6A496",
"C. c #AAA799",
"Z. c gray63",
"A. c #ACACAC",
"S. c #BCB9A9",
"D. c #BDBDBD",
"F. c #F2B681",
"G. c #F6B983",
"H. c #FBBD86",
"J. c #FEBF88",
"K. c #FFC088",
"L. c #C9C5B4",
"P. c #D3D0BE",
"I. c #CACACA",
"U. c gray77",
"Y. c gray82",
"T. c gray86",
"R. c #E7E3CF",
"E. c #EDE9D5",
"W. c #F7F3DE",
"Q. c #E4E4E4",
"!. c #ECECEC",
"~. c #F4F4F4",
"^. c #FEFEFE",
"/. c None",
/* pixels */
"/./././././././././././././././././././././././././././././././././././././././././././././././././././././././././././././././.",
"/./././././././././././././././././././././././././././././././././././././././././././././././././././././././././././././././.",
"/./././././././././././././././././././././././././././././././././././././././././././././././././././././././././././././././.",
"/./././././././././././././././././././././././././././././././././././././././././././././././././././././././././././././././.",
"/./././././././././././././././././././././././././././././././././././././././././././././././././././././././././././././././.",
"/./././././././././././././././././././././././././././././././././././././././././././././././././././././././././././././././.",
"/./././././././././././././././././././././././././././././././././././././././././././././././././././././././././././././././.",
"/./././././././././././././././././././././././././././././././././././././././././././././././././././././././././././././././.",
"/./././././././././././././././././././././././././././././././././././././././././././././././././././././././././././././././.",
"/./././././././././././././././././././././././././././././././././././././././././././././././././././././././././././././././.",
"/./././././././././././././././././././././././././././././././././././././././././././././././././././././././././././././././.",
"/./././././././././././././././././././././././././././././././././././././././././././././././././././././././././././././././.",
"/./././././././././././././././././././././././././././././././././././././././././././././././././././././././././././././././.",
"/./././././././././././././././././././././././././././././././././././././././././././././././././././././././././././././././.",
"/./././././././././././././././././././././././././././././././././././././././././././././././././././././././././././././././.",
"/./././././././././././././././././././././././././././././././././././././././././././././././././././././././././././././././.",
"/./././././././././././././././././././././././././././././././././././././././././././././././././././././././././././././././.",
"/./././././././././././././././././././././././././././././././././././././././././././././././././././././././././././././././.",
"/./././././././././././././././././././././././././././././././././././././././././././././././././././././././././././././././.",
"/./././././././././././././././././././././././././././././././././././././././././././././././././././././././././././././././.",
"/./././././././././././././././././././././././././././././././././././././././././././././././././././././././././././././././.",
"/./././././././././././././././././././././././././././././././././././././././././././././././././././././././././././././././.",
"/./././././././././././././././././././././././././././././././././././././././././././././././././././././././././././././././.",
"/./././././././././././././././././././././././././././././././././././././././././././././././././././././././././././././././.",
"/./././././././././././././././././././././././././././././././././././././././././././././././././././././././././././././././.",
"/./././././././././././././././././././././././././././././././././././././././././././././././././././././././././././././././.",
"/./././././././././././././././././././././././././././././././././././././././././././././././././././././././././././././././.",
"/./././././././././././././././././././././././././././././././././././././././././././././././././././././././././././././././.",
"/./././././././././././././././././././././././././././././././././././././././././././././././././././././././././././././././.",
"/./././././././././././././././././././././././././././././././././././././././././././././././././././././././././././././././.",
"/./././././././././././././././././././././././././././././././././././././././././././././././././././././././././././././././.",
"/./././././././././././././././././././././././././././././././././././././././././././././././././././././././././././././././.",
"/./././././././././././././././././././././././././././././././././././././././././././././././././././././././././././././././.",
"/./././././././././././././././././././././././././././././././././././././././././././././././././././././././././././././././.",
"/./././././././././././././././././././././././././././././././././././././././././././././././././././././././././././././././.",
"/./././././././././././././././././././././././././././././././././././././././././././././././././././././././././././././././.",
"/./././././././././././././././././././././././././././././././././././././././././././././././././././././././././././././././.",
"/./././././././././././././././././././././././././././././././././././././././././././././././././././././././././././././././.",
"/./././././././././././././././././././././././././././././././././././././././././././././././././././././././././././././././.",
"/./././././././././././././././././././././././././././././././././././././././././././././././././././././././././././././././.",
"/./././././././././././././././././././././././././././././././././././././././././././././././././././././././././././././././.",
"/./././././././././././././././././././././././././././././././././././././././././././././././././././././././././././././././.",
"/./././././././././././././././././././././././././././././././././././././././././././././././././././././././././././././././.",
"/./././././././././././././././././././././././././././././././././././././././././././././././././././././././././././././././.",
"/./././././././././././././././././././././././././././././././././././././././././././././././././././././././././././././././.",
"/./././././././././././././././././././././././././././././././././././././././././././././././././././././././././././././././.",
"/./././././././././././././././././././././././././././././././././././././././././././././././././././././././././././././././.",
"/./././././././././././././././././././././././././././././././././././././././././././././././././././././././././././././././.",
"/./././././././././././././././././././././././././././././././././././././././././././././././././././././././././././././././.",
"/./././././././././././././././././././././././././././././././././././././././././././././././././././././././././././././././.",
"/./././././././././././././././././././././././././././././././././././././././././././././././././././././././././././././././.",
"/./././././././././././././././././././././././././././././././././././././././././././././././././././././././././././././././.",
"/./././././././././././././././././././././././././././././././././././././././././././././././././././././././././././././././.",
"/./././././././././././././././././././././././././././././././././././././././././././././././././././././././././././././././.",
"/./././././././././././././././././././././././././././././././././././././././././././././././././././././././././././././././.",
"/././././././././././././././././././././././././././././././././././.          /./././././././././././././././././././././././.",
"/./././././././././././././././././././././.                /./.                    /./././././././././././././././././././././.",
"/././././././././././././././././././././.      + # @ .             o 8 m A B 0       /././././././././././././././././././././.",
"/./././././././././././././././././././.    o m I I I I B 0 .   + b I I I I I I b     /././././././././././././././././././././.",
"/./././././././././././././././././././.    N I I I S K I I K b K I I I I I I I I 3     /./././././././././././././././././././.",
"/././././././././././././././././././.    6 I I I I 3 8 I I I I I w N U I I I I U B     /./././././././././././././././././././.",
"/././././././././././././././././././.    B I I I I B + B I I I B o n I I I U I I I 2     /././././././././././././././././././.",
"/./././././././././././././././././.    # I I I n K I 0 # m I N @ 0 I I I I I I I I b     /././././././././././././././././././.",
"/././././././././././././.              w U I H 2 + H I u + . o w I I w b U I I I I S .             /./././././././././././././.",
"/././././././././././.      o = * .     B I I I I 4 3 I I I K I I I N + B U I I I I I *     . +         /./././././././././././.",
"/./././././././././.      w K I K K 8 X B I I I I N # I I I I I I I u 3 I I I I I I I q . N K I K b o     /././././././././././.",
"/././././././././.    o B I I I I I 0 * I I I I I m # I I I I I I I 3 q I I I I I U I N . B I I U I H 3     /./././././././././.",
"/././././././././.    m I I I I I I 3 4 I I I I B @ 3 I I I I I I I b + H I I I I I I H X b I I I U U K 3     /././././././././.",
"/./././././././.    8 I I I I I I I + * B I I I B u I I I I I I I I I 3 + B I U I I H 3   q I I I I I I K @   /././././././././.",
"/./././././././.  . H U I I U I I I o   . 3 m I I I I I I I I I I I I I B K I I K w o   . 2 I I I I I I I b     /./././././././.",
"/././././././.    3 I I I I I I I H . * > o . o 3 b B I I I I I I I I I I K m 0 +   @ 6 # + I I I I I I I K X   /./././././././.",
"/././././././.    b I I I I I I I B . 3 q 3 2 # o . . X # 3 3 u 0 q q 3 # . . . # 3 0 0 # . I I I I I I I I *   /./././././././.",
"/././././././.    B I I I I I I I N . 2 8 0 0 0 0 3 3 > @ + o o X X o + + 2 3 3 0 8 0 2 . 3 I I I I I I I I 2   /./././././././.",
"/././././././.    N I I U I I I I H + . * 3 0 0 3 q 3 q q 3 3 3 3 8 0 3 0 0 u 3 0 0 #   2 I I I I I I I I I *   /./././././././.",
"/././././././.    b I I I I I I I I H 8 . X * 3 0 3 0 0 3 3 u u 0 0 0 0 q 3 3 3 3 o   0 K I I I I I I I U K .   /./././././././.",
"/././././././.    2 I I I I I I I I I I B 3 X . + * 2 8 u 3 3 3 0 0 0 0 3 3 4 +   * N I I I I I I I U I I u     /./././././././.",
"/./././././././.    B U I I I I I I I I I I H u 2 o     . + + * # # # + O   X 4 b I I I I I I I I I I I H +   /././././././././.",
"/./././././././.    # H I I I I I I I I I I I I I K B b 0 2 2 + # @ * 2 u b B I U I I I I I I I I I I I *     /././././././././.",
"/././././././././.    & B I I I I I I I I I I I I I I I I I I I I H I I I I I I I I I I I I I I I I B *     /./././././././././.",
"/./././././././././.    X u K I I U I I I I I I I I I I I I I I I I I I I I I I I I I U I I I I I w X     /././././././././././.",
"/././././././././././.      + q A I U U I I I I I I I I I I I I I I I I I I I I I I I I I I H u @ X     /./././././././././././.",
"/./././././././././././.    > , o > w B H U I U I I I I I I I I I I I I I I U I I I I B u 2 + . x z     /./././././././././././.",
"/./././././././././././.    q C . Y A 6 + * 8 u n N N S A S S A B H B B N N b u q 2 * & * &.8.. C c     /./././././././././././.",
"/./././././././././././.    c V + h.H.,.& b.n.~ Q g g t t @ # 6 0 3 O y h g Q ~ } Z.I.b.* j.j.* v c     /./././././././././././.",
"/./././././././././././.    l c 6 k.K.Y Q ~.^.Y.M.Q.!.Q.Q.! A h.h.t.& A.!.!.Z.M.!.^.^.Y.+ s.F.8 x c     /./././././././././././.",
"/./././././././././././.    , x 0 k.K.n { ^.^.~   [ ^.^.^.~ I K.J.s.4 I.^.T.-   M.^.^.T.+ s.k.0 x x     /./././././././././././.",
"/././././././././././././.  . . 8 k.K.N [ ^.^.[ - [ ~.^.^.^ U J.K.d.= D.^.~.~ g Y.^.^.I.+ d.j.2 z 5     /./././././././././././.",
"/././././././././././././.    6 4 k.K.%.t Q.^.!.T.~.^.^.Q.y =.H.K.F.u [ ^.^.~.~.^.^.^.} 0 G.g.. . .   /././././././././././././.",
"/././././././././././././.  2 1.@ f.K.d.2 [ !.^.^.^.^.~.] 6 d.H.K.K.<.& m.~.^.^.^.^.D.- =.K.e.+ H     /././././././././././././.",
"/./././././././././././.    S j.# <.K.K.9.2 d b.U.Y.A.! = 8.Y <.G.k.G.) & ^ A.Y.I.b.- K F.K.Y u g.@   /././././././././././././.",
"/././././././././././././.  0 k.B B G.K.K.d.T 8 * - * m y.k.0 :.*.K K.H.r.N 2 = * 8 %.F.K.j.3 *.k.3   /././././././././././././.",
"/././././././././././././.    S T + i.K.K.K.K.k.s.u.f.H.K.F.0 m # *.K.K.K.H.g.u.u.k.K.K.H.>.+ t.&.    /././././././././././././.",
"/./././././././././././././.        H G.K.K.K.K.K.K.K.K.J.H.>.q T G.K.K.K.K.K.K.K.K.K.J.h.2   2       /././././././././././././.",
"/././././././././././././././.      . >.H.K.K.K.K.K.K.K.J.H.K.K.K.K.K.K.K.K.K.K.K.K.K.G.I           /./././././././././././././.",
"/././././././././././././././././.    @ t.H.K.K.K.K.K.K.H.H.d.r.8.u.F.K.K.K.K.K.K.K.H.%.    /./././././././././././././././././.",
"/./././././././././././././././././.    # 9.H.K.K.K.K.K.g.H # $ 2 @ b y.J.K.K.K.K.F.) X     /./././././././././././././././././.",
"/././././././././././././././././.    e F @ %.k.H.K.J.J.K 3 8.h.j.t.b 2 t.K.H.H.s.B % X   /././././././././././././././././././.",
"/././././././././././././././././.    3.x.5.$ q <.h.H.J.N =.K.H.K.K.F.A U H.f._ > e w.E     /./././././././././././././././././.",
"/././././././././././././././././.    9 Z F Z     2 A -.r.s.j.k.j.k.h.t.) A @ X % l.c.l.    /./././././././././././././././././.",
"/./././././././././././././././././.    @ K 2   2 J $ . O # 3 6 6 8 * O ; O 7 P . w.c.v.e   /./././././././././././././././././.",
"/././././././././././././././././././.  p G.Y   M ;.J j +.o.X.......O.+.@.1 P _ . 0.c.c.3.    /././././././././././././././././.",
"/././././././././././././././././././.  2 t.A   ( ;._ > +.#.#.#.#.#.#.#...= ' ` @ 5.x.z.q.    /././././././././././././././././.",
"/././././././././././././././././././.        X _ ;.' @ k $.#.#.#.#.#.+.O L ;.` $ $ r #       /././././././././././././././././.",
"/./././././././././././././././././././.      @ ' ;.' @    .#.#.#.#.@.1   I ;._ @ @ ,.A       /././././././././././././././././.",
"/./././././././././././././././././././././.  @ ` ;.' @ E < o.#.$.+.1 D $ P ;.s 8 a.K.j.8   /./././././././././././././././././.",
"/./././././././././././././././././././././.  @ ' ;.' & 0.7.,  .| , 4.z.9 J ' * =.K.K.H.A     /././././././././././././././././.",
"/./././././././././././././././././././././.  @ ` ;.' @ D 6.D   % W l.w.9 G ' @ 1.K.K.G.b     /././././././././././././././././.",
"/./././././././././././././././././././././.  @ ` ;.' @ 7 - .       o &   G ;.4 b i.k.*..   /./././././././././././././././././.",
"/./././././././././././././././././././././.    p p M o N.R.t     . V.P.d s L 7     #       /./././././././././././././././././.",
"/./././././././././././././././././././././.      d a - C.E.a       g / &   .             /././././././././././././././././././.",
"/./././././././././././././././././././././.      L.W.W.W.W.f     & ] ] { b.b.X     /./././././././././././././././././././././.",
"/././././././././././././././././././././././.    C.W.W.W.E.a     X m.^.^.^.n.    /././././././././././././././././././././././.",
"/./././././././././././././././././.  .           V.W.W.W.R.t       o } U.[ X               /./././././././././././././././././.",
"/./././././././././././././././././.              2.W.W.W.R.a                               /./././././././././././././././././.",
"/./././././././.      . .   .     .               d N.S.L.S.y                               .   . . .   . .     /./././././././.",
"/./././././././.    . .   . .   .                 & - . . . .                                   .     .   .     /./././././././.",
"/./.. . .   .                                     ~ ^.!.Q.Q.~                                                   .   . . .   /./.",
"/./..   .     .   .                               . [ D.D.! .                                                     . .   . . /./.",
". .                                                                                                                             ",
"                                                                                                                                ",
"      .       .                                                                                                 .     .         ",
"    . .   . .                                                                                                           . .     ",
"/./././.  .                 .                                                               .       .                   /./././.",
"/./././.      . .                                                                                           .       .   /./././.",
"/./././././././././.. . .     . . .                                                         . .     .   . . /./././././././././.",
"/./././././././././.  .   . .                                                               .   . .   . .   /./././././././././.",
"/./././././././././././././././././././.                                                /./././././././././././././././././././.",
"/./././././././././././././././././././.                                                /./././././././././././././././././././."
};
