/* XPM */
static char *result[] = {
/* columns rows colors chars-per-pixel */
"64 128 180 2 ",
"   c #010101",
".  c #090605",
"X  c #0C0906",
"o  c #0E0B09",
"O  c #180506",
"+  c #130A07",
"@  c #130E0A",
"#  c #180B09",
"$  c #150506",
"%  c #15110B",
"&  c #1B120D",
"*  c #19180B",
"=  c #070B10",
"-  c #080D13",
";  c #0C141E",
":  c #161616",
">  c #1D1610",
",  c #1E1912",
"<  c #1D1D1B",
"1  c #23090A",
"2  c #2B0C0C",
"3  c #210708",
"4  c #340C0E",
"5  c #380D0F",
"6  c #22130C",
"7  c #2B180F",
"8  c #2D1311",
"9  c #231A13",
"0  c #291E16",
"q  c #201711",
"w  c #311211",
"e  c #311B11",
"r  c #381F13",
"t  c #22220F",
"y  c #2B2017",
"u  c #2D2219",
"i  c #272718",
"p  c #3A2014",
"a  c #30231A",
"s  c #36291E",
"d  c #392B1F",
"f  c #39221A",
"g  c #363617",
"h  c #0E1823",
"j  c #13202F",
"k  c #18283C",
"l  c #162436",
"z  c #242422",
"x  c #2C2B28",
"c  c #342D21",
"v  c #3C2E21",
"b  c #3B3328",
"n  c gray22",
"m  c #410E11",
"M  c #461012",
"N  c #4B1114",
"B  c #591417",
"V  c #621619",
"C  c #6A171B",
"Z  c #422417",
"A  c #4C2A1B",
"S  c #472719",
"D  c #532E1D",
"F  c #443325",
"G  c #483627",
"H  c #493728",
"J  c #4D3A2A",
"K  c #443C2C",
"L  c #5C3320",
"P  c #533E2D",
"I  c #403F39",
"U  c #643723",
"Y  c #673924",
"T  c #6B3B25",
"R  c #703E27",
"E  c #4A412F",
"W  c #4E4E21",
"Q  c #55402E",
"!  c #535323",
"~  c #4D4432",
"^  c #5C4532",
"/  c #584A36",
"(  c #5E533D",
")  c #754129",
"_  c #7A432B",
"`  c #654C37",
"'  c #694F38",
"]  c #6A5038",
"[  c #74583E",
"{  c #7D7D35",
"}  c #68682C",
"|  c #1E334C",
" . c #26405F",
".. c #284465",
"X. c gray29",
"o. c #494844",
"O. c #54534B",
"+. c #5B5A56",
"@. c #6B5E45",
"#. c #635740",
"$. c #7A5C41",
"%. c #6E6147",
"&. c #74664A",
"*. c #7A6B4E",
"=. c #76684C",
"-. c #64635A",
";. c #7C6D50",
":. c #7F7052",
">. c #727067",
",. c #79776D",
"<. c #7A7974",
"1. c #6A6A6A",
"2. c #831D22",
"3. c #932127",
"4. c #9D2329",
"5. c #982127",
"6. c #A6252B",
"7. c #B3272E",
"8. c #B7282F",
"9. c #BC2A31",
"0. c #C32B32",
"q. c #CD2D35",
"w. c #D62F37",
"e. c #D82F38",
"r. c #DD3039",
"t. c #E4323B",
"y. c #ED343D",
"u. c #F4363F",
"i. c #81472D",
"p. c #FA3741",
"a. c #FF3842",
"s. c #F73640",
"d. c #806145",
"f. c #8B694A",
"g. c #926E4E",
"h. c #94704F",
"j. c #857555",
"k. c #9A7452",
"l. c #A67D59",
"z. c #A07955",
"x. c #8A8A3B",
"c. c #9C9C43",
"v. c #AD835C",
"b. c #AAAA48",
"n. c #B1B14C",
"m. c #B98B63",
"M. c #CC996D",
"N. c #C49369",
"B. c #D09D6F",
"V. c #D19D70",
"C. c #DFA877",
"Z. c #DBA575",
"A. c #E1AA79",
"S. c #E8AE7C",
"D. c #C3C354",
"F. c #CCCC57",
"G. c #D3D35A",
"H. c #E4E462",
"J. c #E9E964",
"K. c #FEFE6C",
"L. c #918F83",
"P. c #9B988B",
"I. c gray54",
"U. c gray67",
"Y. c #B3B0A1",
"T. c #F5B883",
"R. c #FBBD86",
"E. c #F3B782",
"W. c #C2BEAE",
"Q. c #FFC088",
"!. c #C6C3B2",
"~. c #D0CCBB",
"^. c gainsboro",
"/. c #DCD9C6",
"(. c #ECE8D4",
"). c #F2EEDA",
"_. c #F6F2DD",
"`. c #ECECEC",
"'. c #F9F9F9",
"]. c None",
/* pixels */
"].].].].].].].].].].].].].].].].].].].].].].].].].].].].].].].].].].].].].].].].].].].].].].].].].].].].].].].].].].].].].].].].",
"].].].].].].].].].].].].].].].].].].].].].].].].].].].].].].].].].].].].].].].].].].].].].].].].].].].].].].].].].].].].].].].].",
"].].].].].].].].].].].].].].].].].].].].].].].].].].].].].].].].].].].].].].].].].].].].].].].].].].].].].].].].].].].].].].].].",
"].].].].].].].].].].].].].].].].].].].].].].].].].].].].].].].].].].].].].].].].].].].].].].].].].].].].].].].].].].].].].].].].",
"].].].].].].].].].].].].].].].].].].].].].].].].].].].].].].].].].].].].].].].].].].].].].].].].].].].].].].].].].].].].].].].].",
"].].].].].].].].].].].].].].].].].].].].].].].].].].].].].].].].].].].].].].].].].].].].].].].].].].].].].].].].].].].].].].].].",
"].].].].].].].].].].].].].].].].].].].].].].].].].].].].].].].].].].].].].].].].].].].].].].].].].].].].].].].].].].].].].].].].",
"].].].].].].].].].].].].].].].].].].].].].].].].].].].].].].].].].].].].].].].].].].].].].].].].].].].].].].].].].].].].].].].].",
"].].].].].].].].].].].].].].].].].].].].].].].].].].].].].].].].].].].].].].].].].].].].].].].].].].].].].].].].].].].].].].].].",
"].].].].].].].].].].].].].].].].].].].].].].].].].].].].].].].].].].].].].].].].].].].].].].].].].].].].].].].].].].].].].].].].",
"].].].].].].].].].].].].].].].].].].].].].].].].].].].].].].].].].].].].].].].].].].].].].].].].].].].].].].].].].].].].].].].].",
"].].].].].].].].].].].].].].].].].].].].].].].].].].].].].].].].].].].].].].].].].].].].].].].].].].].].].].].].].].].].].].].].",
"].].].].].].].].].].].].].].].].].].].].].].].].].].].].].].].].].].].].].].].].].].].].].].].].].].].].].].].].].].].].].].].].",
"].].].].].].].].].].].].].].].].].].].].].].].].].].].].].].].].].].].].].].].].].].].].].].].].].].].].].].].].].].].].].].].].",
"].].].].].].].].].].].].].].].].].].].].].].].].].].].].].].].].].].].].].].].].].].].].].].].].].].].].].].].].].].].].].].].].",
"].].].].].].].].].].].].].].].].].].].].].].].].].].].].].].].].].].].].].].].].].].].].].].].].].].].].].].].].].].].].].].].].",
"].].].].].].].].].].].].].].].].].].].].].].].].].].].].].].].].].].].].].].].].].].].].].].].].].].].].].].].].].].].].].].].].",
"].].].].].].].].].].].].].].].].].].].].].].].].].].].].].].].].].].].].].].].].].].].].].].].].].].].].].].].].].].].].].].].].",
"].].].].].].].].].].].].].].].].].].].].].].].].].].].].].].].].].].].].].].].].].].].].].].].].].].].].].].].].].].].].].].].].",
"].].].].].].].].].].].].].].].].].].].].].].].].].].].].].].].].].].].].].].].].].].].].].].].].].].].].].].].].].].].].].].].].",
"].].].].].].].].].].].].].].].].].].].].].].].].].].].].].].].].].].].].].].].].].].].].].].].].].].].].].].].].].].].].].].].].",
"].].].].].].].].].].].].].].].].].].].].].].].].].].].].].].].].].].].].].].].].].].].].].].].].].].].].].].].].].].].].].].].].",
"].].].].].].].].].].].].].].].].].].].].].].].].].].].].].].].].].].].].].].].].].].].].].].].].].].].].].].].].].].].].].].].].",
"].].].].].].].].].].].].].].].].].].].].].].].].].].].].].].].].].].].].].].].].].].].].].].].].].].].].].].].].].].].].].].].].",
"].].].].].].].].].].].].].].].].].].].].].].].].].].].].].].].].].].].].].].].].].].].].].].].].].].].].].].].].].].].].].].].].",
"].].].].].].].].].].].].].].].].].].].].].].].].].].].].].].].].].].].].].].].].].].].].].].].].].].].].].].].].].].].].].].].].",
"].].].].].].].].].].].].].].].].].].].].].].].].].].].].].].].].].].].].].].].].].].].].].].].].].].].].].].].].].].].].].].].].",
"].].].].].].].].].].].].].].].].].].].].].].].].].].].].].].].].].].].].].].].].].].].].].].].].].].].].].].].].].].].].].].].].",
"].].].].].].].].].].].].].].].].].].].].].].].].].].].].].].].].].].].].].].].].].].].].].].].].].].].].].].].].].].].].].].].].",
"].].].].].].].].].].].].].].].].].].].].].].].].].].].].].].].].].].].].].].].].].].].].].].].].].].].].].].].].].].].].].].].].",
"].].].].].].].].].].].].].].].].].].].].].].].].].].].].].].].].].].].].].].].].].].].].].].].].].].].].].].].].].].].].].].].].",
"].].].].].].].].].].].].].].].].].].].].].].].].].].].].].].].].].].].].].].].].].].].].].].].].].].].].].].].].].].].].].].].].",
"].].].].].].].].].].].].].].].].].].].].].].].].].].].].].].].].].].].].].].].].].].].].].].].].].].].].].].].].].].].].].].].].",
"].].].].].].].].].].].].].].].].].].].].].].].].].].].].].].].].].].].].].].].].].].].].].].].].].].].].].].].].].].].].].].].].",
"].].].].].].].].].].].].].].].].].].].].].].].].].].].].].].].].].].].].].].].].].].].].].].].].].].].].].].].].].].].].].].].].",
"].].].].].].].].].].].].].].].].].].].].].].].].].].].].].].].].].].].].].].].].].].].].].].].].].].].].].].].].].].].].].].].].",
"].].].].].].].].].].].].].].].].].].].].].].].].].].].].].].].].].].].].].].].].].].].].].].].].].].].].].].].].].].].].].].].].",
"].].].].].].].].].].].].].].].].].].].].].].].].].].].].].].].].].].].].].].].].].].].].].].].].].].].].].].].].].].].].].].].].",
"].].].].].].].].].].].].].].].].].].].].].].].].].].].].].].].].].].].].].].].].].].].].].].].].].].].].].].].].].].].].].].].].",
"].].].].].].].].].].].].].].].].].].].].].].].].].].].].].].].].].].].].].].].].].].].].].].].].].].].].].].].].].].].].].].].].",
"].].].].].].].].].].].].].].].].].].].].].].].].].].].].].].].].].].].].].].].].].].].].].].].].].].].].].].].].].].].].].].].].",
"].].].].].].].].].].].].].].].].].].].].].].].].].].].].].].].].].].].].].].].].].].].].].].].].].].].].].].].].].].].].].].].].",
"].].].].].].].].].].].].].].].].].].].].].].].].].].].].].].].].].].].].].].].].].].].].].].].].].].].].].].].].].].].].].].].].",
"].].].].].].].].].].].].].].].].].].].].].].].].].].].].].].].].].].].].].].].].].].].].].].].].].].].].].].].].].].].].].].].].",
"].].].].].].].].].].].].].].].].].].].].].].].].].].].].].].].].].].].].].].].].].].].].].].].].].].].].].].].].].].].].].].].].",
"].].].].].].].].].].].].].].].].].].].].].].].].].].].].].].].].].].].].].].].].].].].].].].].].].].].].].].].].].].].].].].].].",
"].].].].].].].].].].].].].].].].].].].].].].].].].].].].].].].].].].].].].].].].].].].].].].].].].].].].].].].].].].].].].].].].",
"].].].].].].].].].].].].].].].].].].].].].].].].].].].].].].].].].].].].].].].].].].].].].].].].].].].].].].].].].].].].].].].].",
"].].].].].].].].].].].].].].].].].].].].].].].].].].].].].].].].].].].].].].].].].].].].].].].].].].].].].].].].].].].].].].].].",
"].].].].].].].].].].].].].].].].].].].].].].].].].].].].].].].].].].].].].].].].].].].].].].].].].].].].].].].].].].].].].].].].",
"].].].].].].].].].].].].].].].].].].].].].].].].].].].].].].].].].].].].].].].].].].].].].].].].].].].].].].].].].].].].].].].].",
"].].].].].].].].].].].].].].].].].].].].].].].].].].].].].].].].].].].].].].].].].].].].].].].].].].].].].].].].].].].].].].].].",
"].].].].].].].].].].].].].].].].].].].].].].].].].].].].].].].].].].].].].].].].].].].].].].].].].].].].].].].].].].].].].].].].",
"].].].].].].].].].].].].].].].].].].].].].].].].].].].].].].].].].].].].].].].].].].].].].].].].].].].].].].].].].].].].].].].].",
"].].].].].].].].].].].].].].].].].].].].].].].].].].].].].].].].].].].].].].].].].].].].].].].].].].].].].].].].].].].].].].].].",
"].].].].].].].].].].].].].].].].].].].].].].].].].].].].].].].].].].].].].].].].].].].].].].].].].].].].].].].].].].].].].].].].",
"].].].].].].].].].].].].].].].].].].].].].].].].].].].].].].].].].].].          ].].].].].].].].].].].].].].].].].].].].].].].].",
"].].].].].].].].].].].].].].].].].].].].].].].            ].].].].                  ].].].].].].].].].].].].].].].].].].].].].].",
"].].].].].].].].].].].].].].].].].].].].].                            q v J H y       ].].].].].].].].].].].].].].].].].].].].].",
"].].].].].].].].].].].].].].].].].].].].    . d P Q J v 9 .       0 P ` ` ` ` ` v     ].].].].].].].].].].].].].].].].].].].].].",
"].].].].].].].].].].].].].].].].].].].].    F ` ` ` ` ` ` ^ y @ H ` ` ` ` ` ` ` ` >     ].].].].].].].].].].].].].].].].].].].].",
"].].].].].].].].].].].].].].].].].].].    y ` ` ` ` J ` ` ` ` ` ` ` ` ` ` ` ` ` ` J     ].].].].].].].].].].].].].].].].].].].].",
"].].].].].].].].].].].].].].].].].].].  . P ` ` ` ` & v ` ` ` ` ` 0 F ` ` ' ` ` ` ` &     ].].].].].].].].].].].].].].].].].].].",
"].].].].].].].].].].].].].].].].].].    > ` ` ` ` ` F % ^ ` ` ` P @ J ` ` ` ` ` ` ` v     ].].].].].].].].].].].].].].].].].].].",
"].].].].].].].].].].].].].              v ` ` ` ` ` ` 9 0 ^ ` P @ s ` ` ` ` ` ` ` ` ^                 ].].].].].].].].].].].].].",
"].].].].].].].].].].].                  P ` ' ` ` ` ` P 9 o % o a ` ` ` ` ` ` ` ` ` ` >     . > %         ].].].].].].].].].].].",
"].].].].].].].].].].      0 J ^ J a o @ ^ ` ` ` ` ` ` ` ` P J ^ ` ` ` ` ` ` ` ` ` ` ` s . H ^ ` ` P 0       ].].].].].].].].].].",
"].].].].].].].].].      F ` ' ` ` ` 0 > ` ` ` ` ` ` ` ` ` ` ` ` ` ` ` ` ` ' ` ` ` ` ` J . Q ` ` ` ` ` F .     ].].].].].].].].].",
"].].].].].].].].].    F ` ` ` ` ` ` > y ` ` ` ` ` ` ` ` ` ` ` ` ` ` ` ` ` ` ` ' ` ` ` ^ o F ` ` ` ` ` ` H     ].].].].].].].].].",
"].].].].].].].].    0 ` ' ` ` ` ` ` o v ` ` ` ` ` ` ` ` ' ` ` ` ` ` ` ` ` ` ` ` ` ` ` ` > a ` ` ` ` ` ` ` d     ].].].].].].].].",
"].].].].].].].].  o ^ ` ` ` ` ` ` ^ . H ` ` ' ` ` ` ` ` ` ` ` ` ` ` ` ` ` ` ` ` ` ` ` ` q > ` ` ` ` ` ` ` ^ o   ].].].].].].].].",
"].].].].].].].    a ` ` ` ` ` ` ` Q   F ` ` ` ` ` ` ` ` ` ` ` ` ` ` ` ` ` ` ` ` ` ` ^ 0   + / ` ` ` ` ` ` ` s     ].].].].].].].",
"].].].].].].].    P ` ` ` ` ` ` ` J   . 9 J ` ` ` ` ` ` ` ` ` ` ' ` ` ` ` ` ` ` ` H &   # . P ' ` ` ` ` ` ' P     ].].].].].].].",
"].].].].].].].  @ ^ ` ` ` ` ` ` ` H . > o   > v P ` ` ` ` ` ` ' ` ` ` ` ` ` / G q . o 0 y . H ` ` ` ` ` ` ` `     ].].].].].].].",
"].].].].].].].  > ` ` ` ` ` ` ` ` v . 0 0 0 @ . . @ 0 v G J P P Q Q Q J v 0 @ . o q u a y . v ` ' ` ` ` ` ` ^ X   ].].].].].].].",
"].].].].].].].  0 ` ` ` ` ` ' ` ` F . u a a a 0 9 > X X .   X . . . . .   X > 0 u a a a >   J ' ` ` ` ` ` ` `     ].].].].].].].",
"].].].].].].].  0 ` ` ` ` ` ` ` ` c . 0 0 a a a a a a 0 0 0 0 0 9 0 0 0 u a a a a a a >   s ` ` ` ` ` ` ` ` P     ].].].].].].].",
"].].].].].].].  # ` ` ` ` ` ` ` ` P @ . q a a a 0 a a a a u u a a a 0 a a a a a a 0 &   s ` ` ` ` ` ` ` ` ` s     ].].].].].].].",
"].].].].].].].    ^ ` ` ` ` ` ` ` ` ^ 0 . o > 0 a a a a a a a a a a a a a a a 0 0 o . v ` ` ` ` ` ` ` ` ` ` @   ].].].].].].].].",
"].].].].].].].    c ` ` ` ` ` ` ` ` ` ` J 9 . . @ 0 0 0 a a a u 0 a a a a 0 q @   > J ` ` ` ` ` ` ` ` ` ` d     ].].].].].].].].",
"].].].].].].].].  . P ` ` ` ` ` ` ` ` ` ` ` P s &   . X + & > 9 9 q > % o   X q F ` ` ` ` ' ` ` ` ` ` ` J     ].].].].].].].].].",
"].].].].].].].].    @ Q ` ` ` ` ` ` ` ` ` ` ` ' ` P F a q @ @ o @ @ @ & 0 F P ` ` ` ` ` ` ` ` ` ` ` ` H X     ].].].].].].].].].",
"].].].].].].].].].    @ H ` ` ' ` ` ` ` ` ` ` ` ` ` ` ` ` ` ` ^ ^ P ` ` ` ` ` ` ` ` ` ` ` ` ` ` ` ^ a .     ].].].].].].].].].].",
"].].].].].].].].].].    . u ^ ` ` ` ` ` ` ` ` ` ` ` ` ` ` ` ` ` ` ` ` ` ` ` ` ` ` ` ` ` ` ` ` ` G *       ].].].].].].].].].].].",
"].].].].].].].].].].].      X a Q ` ` ` ` ` ` ` ` ` ` ` ` ` ` ` ` ` ` ` ` ` ` ` ` ` ` ` ` ^ F > X     ].].].].].].].].].].].].].",
"].].].].].].].].].].].].].    # % & v P ` ` ` ` ` ` ` ` ` ` ` ` ` ` ` ` ` ` ` ` ` ^ P F 0 @ 6 A p     ].].].].].].].].].].].].].",
"].].].].].].].].].].].].].    6 T A 7 & # > u d H P P P P P P P P P P J J F c 0 & # & 7 S U _ _ 6     ].].].].].].].].].].].].].",
"].].].].].].].].].].].].    9 o A i.i.) T D Z e 6 & # & 6 & 6 & & & 1 & 6 8 r S L Y R i.i.i.i.A       ].].].].].].].].].].].].].",
"].].].].].].].].].].].].    [ $.X L i.i.i.i.i.i.i.i._ ) _ _ _ _ _ _ _ i.i.i.i.i.i.i.i.i.i.i.D X ] %   ].].].].].].].].].].].].].",
"].].].].].].].].].].].].    F A.9 X L i.i.i.i.i.i.i.i.i.i.i.i.i.i.i.i.i.i.i.i.i.i.i.i.i.R Z X ' m.    ].].].].].].].].].].].].].",
"].].].].].].].].].].].].].  . ^ v   . A _ i.i.i.i.i.i.i.i.i.i.i.i.i.i.i.i.i.i.i.i._ _ A #   X ` >     ].].].].].].].].].].].].].",
"].].].].].].].].].].].].].          9 + e R i.i.i.i.i.i.i.i.i.i.i.i.i.i.i.i.i._ R D 6 * P           ].].].].].].].].].].].].].].",
"].].].].].].].].].].].].].].].      & f.a + r U _ i.i.i.i.i.i.i.i.i.i.i._ _ U p + 9 ^ N.Q       ].].].].].].].].].].].].].].].].",
"].].].].].].].].].].].].].].].].].    H V.h.s + & p D Y T R T T Y Y Y A e # % s h.A.T.$.    ].].].].].].].].].].].].].].].].].].",
"].].].].].].].].].].].].].].].].].].    J A.R.N.[ d 9 % @ # .       X y P g.M.T.Q.T.$.      ].].].].].].].].].].].].].].].].].].",
"].].].].].].].].].].].].].].].].].].].    d N.R.A.m.d.` Q y $ B 2.M y l.V.S.R.R.Z.^       ].].].].].].].].].].].].].].].].].].].",
"].].].].].].].].].].].].].].].].].].].].    @ G *     $ . 4 w.u.a.y.5 1 2 f ^ $.9       ].].].].].].].].].].].].].].].].].].].].",
"].].].].].].].].].].].].].].].].].].].].    . i X 2 3.0.4 4.q.w.t.e.C 2.u.q.2.O . % o     ].].].].].].].].].].].].].].].].].].].",
"].].].].].].].].].].].].].].].].].].].].  . x.c.$ C 6.6.3 1 3 O 2 3 O B 7.3.V # g G.D.W     ].].].].].].].].].].].].].].].].].].",
"].].].].].].].].].].].].].].].].].].].  . } J.F.@ i , . V q.w.2 5.y.9.5 . s ~ K * G.K.F.    ].].].].].].].].].].].].].].].].].].",
"].].].].].].].].].].].].].].].].].].].  t H.K.b.% =.K B u.a.7.m p.a.a.e.8 %.j.:.* x.K.n.    ].].].].].].].].].].].].].].].].].].",
"].].].].].].].].].].].].].].].].].].    { K.K.! u :., 0.a.a.6.B a.a.a.a.M ( j.j.u ! b.g     ].].].].].].].].].].].].].].].].].].",
"].].].].].].].].].].].].].].].].].].  . F.K.J.t / &.8 r.a.a.5.m p.a.a.p.M ( j.j.c   * f     ].].].].].].].].].].].].].].].].].].",
"].].].].].].].].].].].].].].].].].].  t D.H.D.* %.&.w w.y.4.1 O 0.a.a.t.8 %.j.j.E y M.=.    ].].].].].].].].].].].].].].].].].].",
"].].].].].].].].].].].].].].].].].].      * *   %.=.0 w 2 > ( ~ 2 9.s.5.y :.j.j.(   o       ].].].].].].].].].].].].].].].].].].",
"].].].].].].].].].].].].].].].].].].    + k.`   %.:.*.@.%.j.j.:.~ @ N 1 ( :.;.*.#.        ].].].].].].].].].].].].].].].].].].].",
"].].].].].].].].].].].].].].].].].].].  % C.g.  , i i c v c c i u >     : , o         ].].].].].].].].].].].].].].].].].].].].].",
"].].].].].].].].].].].].].].].].].].].  % C.k.    < >.+.O.O.x       - j l k k =       ].].].].].].].].].].].].].].].].].].].].].",
"].].].].].].].].].].].].].].].].].].].  @ A.v.    n (._._._.P.      h ......k .   ].].].].].].].].].].].].].].].].].].].].].].].",
"].].].].].].].].].].].].].].].].].].].  % Z.v.    o -.P.W.!.<.      ; | l - o     ].].].].].].].].].].].].].].].].].].].].].].].",
"].].].].].].].].].].].].].].].].].].    . M.l.    < o.: o -           o j ;.Y.<   ].].].].].].].].].].].].].].].].].].].].].].].",
"].].].].].].].].].].].].].].].].].].      > >     : U.`.^.U.x       o./._._.~.o   ].].].].].].].].].].].].].].].].].].].].].].].",
"].].].].].].].].].].].].].].].].].].                  < n           ,._._._.W.          .   ].].].].].].].].].].].].].].].].].].",
"].].].].].].].].].].].].].].].].].].                                ,.).).).L.              ].].].].].].].].].].].].].].].].].].",
"].].].].].].].].    . . . .   . .                                   z O.I <                     .   .     .     ].].].].].].].].",
"].].].].].].].].      .   .       .                                 n X.+.<.I.:                 . . .   . .     ].].].].].].].].",
"].]..     . . .                                                     o.^.'.^.1.                                  .     . .   ].].",
"].].. .     .     .                                                                                               = .   . . ].].",
".                                                                                                                               ",
"                                                                                                                                ",
"    =       .                                                                                                       . .   .     ",
"      .                                                                                                         .       .       ",
"].].].].                    .                                                               .           .               ].].].].",
"].].].].=     .   .                                                                                                     ].].].].",
"].].].].].].].].].]..   . . .     .                                                                 .   . . ].].].].].].].].].].",
"].].].].].].].].].].  =     . .                                                             =   . .   . . . ].].].].].].].].].].",
"].].].].].].].].].].].].].].].].].].].].                                                ].].].].].].].].].].].].].].].].].].].].",
"].].].].].].].].].].].].].].].].].].].].                                                ].].].].].].].].].].].].].].].].].].].]."
};
