/* XPM */
static char *result[] = {
/* columns rows colors chars-per-pixel */
"64 128 176 2 ",
"   c #010101",
".  c #090605",
"X  c #0C0906",
"o  c #0E0C0A",
"O  c #140606",
"+  c #120E0A",
"@  c #1C0909",
"#  c #111107",
"$  c #15110C",
"%  c #1B140E",
"&  c #1B1B0C",
"*  c #151413",
"=  c #1D1611",
"-  c #1E1913",
";  c #1C1B1B",
":  c #350D0E",
">  c #29160E",
",  c #28180E",
"<  c #37110F",
"1  c #241B14",
"2  c #291E16",
"3  c #201B18",
"4  c #341D12",
"5  c #262611",
"6  c #2B2017",
"7  c #24211D",
"8  c #2E2219",
"9  c #2B2B13",
"0  c #31241A",
"q  c #37291E",
"w  c #392B1F",
"e  c #3D2215",
"r  c #353516",
"t  c #3B3B1A",
"y  c #222222",
"u  c #2E2D2B",
"i  c #3D2E21",
"p  c #312F2D",
"a  c #3C3325",
"s  c #33322E",
"d  c #373124",
"f  c #343331",
"g  c #3B3B3B",
"h  c #3C3B36",
"j  c #551316",
"k  c #4C2A1B",
"l  c #442618",
"z  c #522E1D",
"x  c #5A321F",
"c  c #443325",
"v  c #483627",
"b  c #493728",
"n  c #41392A",
"m  c #4D3A2A",
"M  c #4A3827",
"N  c #5E3421",
"B  c #523E2C",
"V  c #403F39",
"C  c #663824",
"Z  c #47471E",
"A  c #4C4828",
"S  c #56412F",
"D  c #59432F",
"F  c #525223",
"G  c #4E4432",
"H  c #41403A",
"J  c #5C4532",
"K  c #544A36",
"L  c #5F4834",
"P  c #574734",
"I  c #5E533D",
"U  c #654C37",
"Y  c #684E37",
"T  c #6D523A",
"R  c #73563D",
"E  c #75583F",
"W  c #62622A",
"Q  c #787834",
"!  c #434343",
"~  c #4E4E4E",
"^  c gray34",
"/  c #665A42",
"(  c #7C5D42",
")  c #72654A",
"_  c #796B4E",
"`  c #6A685F",
"'  c #7C6E50",
"]  c #636363",
"[  c #6A6A6A",
"{  c #706E65",
"}  c #747268",
"|  c #7A7A7A",
" . c gray44",
".. c #8A1F24",
"X. c #9E2329",
"o. c #962127",
"O. c #A6242B",
"+. c #B5282F",
"@. c #B92930",
"#. c #CB2D35",
"$. c #DB3039",
"%. c #FF3842",
"&. c #F93741",
"*. c #846346",
"=. c #8C6A4B",
"-. c #896749",
";. c #936F4E",
":. c #95704F",
">. c #867656",
",. c #997352",
"<. c #957050",
"1. c #A27A56",
"2. c #87873A",
"3. c #9B9B42",
"4. c #AC815C",
"5. c #B1855F",
"6. c #A4A446",
"7. c #B5B54D",
"8. c #BEBE51",
"9. c #838176",
"0. c #B58961",
"q. c #BA8C63",
"w. c #B38760",
"e. c #BF9066",
"r. c #C69569",
"t. c #C9976B",
"y. c #CC9A6D",
"u. c #C29267",
"i. c #D29E70",
"p. c #D7A273",
"a. c #DCA575",
"s. c #E0A977",
"d. c #E4AC7A",
"f. c #E9AF7C",
"g. c #ECB27E",
"h. c #C5C554",
"j. c #C9C956",
"k. c #CDCD58",
"l. c #DBDB5E",
"z. c #D2D25A",
"x. c #E1E160",
"c. c #EBEB65",
"v. c #FDFD6C",
"b. c #F1F167",
"n. c #8B8B8B",
"m. c #8F8D81",
"M. c #9B998C",
"N. c #999689",
"B. c #9B9B9B",
"V. c #909090",
"C. c #A6A496",
"Z. c #ACA99B",
"A. c #B1AE9F",
"S. c #ABABAB",
"D. c #A4A4A4",
"F. c #B8B5A6",
"G. c #BCBCBC",
"H. c #F1B681",
"J. c #F6B983",
"K. c #FBBD86",
"L. c #FEBF88",
"P. c #FFC088",
"I. c #C7C3B2",
"U. c #CBCBCB",
"Y. c gray77",
"T. c #DCD9C6",
"R. c #D6D3C0",
"E. c #D2D2D2",
"W. c #DBDBDB",
"Q. c #EDE9D5",
"!. c #F7F3DE",
"~. c #E5E5E5",
"^. c #EFEFEF",
"/. c #F4F4F4",
"(. c #FEFEFE",
"). c None",
/* pixels */
").).).).).).).).).).).).).).).).).).).).).).).).).).).).).).).).).).).).).).).).).).).).).).).).).).).).).).).).).).).).).).).).",
").).).).).).).).).).).).).).).).).).).).).).).).).).).).).).).).).).).).).).).).).).).).).).).).).).).).).).).).).).).).).).).).",
").).).).).).).).).).).).).).).).).).).).).).).).).).).).).).).).).).).).).).).).).).).).).).).).).).).).).).).).).).).).).).).).",
").).).).).).).).).).).).).).).).).).).).).).).).).).).).).).).).).).).).).).).).).).).).).).).).).).).).).).).).).).).).).).).).",
").).).).).).).).).).).).).).).).).).).).).).).).).).).).).).).).).).).).).).).).).).).).).).).).).).).).).).).).).).).).).).).).",
").).).).).).).).).).).).).).).).).).).).).).).).).).).).).).).).).).).).).).).).).).).).).).).).).).).).).).).).).).).).).).).).",
").).).).).).).).).).).).).).).).).).).).).).).).).).).).).).).).).).).).).).).).).).).).).).).).).).).).).).).).).).).).).).).).",
").).).).).).).).).).).).).).).).).).).).).).).).).).).).).).).).).).).).).).).).).).).).).).).).).).).).).).).).).).).).).).).).",
").).).).).).).).).).).).).).).).).).).).).).).).).).).).).).).).).).).).).).).).).).).).).).).).).).).).).).).).).).).).).).).).",
").).).).).).).).).).).).).).).).).).).).).).).).).).).).).).).).).).).).).).).).).).).).).).).).).).).).).).).).).).).).).).).).",
").).).).).).).).).).).).).).).).).).).).).).).).).).).).).).).).).).).).).).).).).).).).).).).).).).).).).).).).).).).).).).).).",
").).).).).).).).).).).).).).).).).).).).).).).).).).).).).).).).).).).).).).).).).).).).).).).).).).).).).).).).).).).).).).).).",
").).).).).).).).).).).).).).).).).).).).).).).).).).).).).).).).).).).).).).).).).).).).).).).).).).).).).).).).).).).).).).).).",
").).).).).).).).).).).).).).).).).).).).).).).).).).).).).).).).).).).).).).).).).).).).).).).).).).).).).).).).).).).).).).).).",
").).).).).).).).).).).).).).).).).).).).).).).).).).).).).).).).).).).).).).).).).).).).).).).).).).).).).).).).).).).).).).).).",
").).).).).).).).).).).).).).).).).).).).).).).).).).).).).).).).).).).).).).).).).).).).).).).).).).).).).).).).).).).).).).).).",
").).).).).).).).).).).).).).).).).).).).).).).).).).).).).).).).).).).).).).).).).).).).).).).).).).).).).).).).).).).).).).).).",
").).).).).).).).).).).).).).).).).).).).).).).).).).).).).).).).).).).).).).).).).).).).).).).).).).).).).).).).).).).).).).).).",
").).).).).).).).).).).).).).).).).).).).).).).).).).).).).).).).).).).).).).).).).).).).).).).).).).).).).).).).).).).).).).).).",
").).).).).).).).).).).).).).).).).).).).).).).).).).).).).).).).).).).).).).).).).).).).).).).).).).).).).).).).).).).).).).).).",
").).).).).).).).).).).).).).).).).).).).).).).).).).).).).).).).).).).).).).).).).).).).).).).).).).).).).).).).).).).).).).).).",
").).).).).).).).).).).).).).).).).).).).).).).).).).).).).).).).).).).).).).).).).).).).).).).).).).).).).).).).).).).).).).).).",
").).).).).).).).).).).).).).).).).).).).).).).).).).).).).).).).).).).).).).).).).).).).).).).).).).).).).).).).).).).).).).).).",
").).).).).).).).).).).).).).).).).).).).).).).).).).).).).).).).).).).).).).).).).).).).).).).).).).).).).).).).).).).).).).).).",
").).).).).).).).).).).).).).).).).).).).).).).).).).).).).).).).).).).).).).).).).).).).).).).).).).).).).).).).).).).).).).).).",
").).).).).).).).).).).).).).).).).).).).).).).).).).).).).).).).).).).).).).).).).).).).).).).).).).).).).).).).).).).).).).).).",
").).).).).).).).).).).).).).).).).).).).).).).).).).).).).).).).).).).).).).).).).).).).).).).).).).).).).).).).).).).).).).).).",
").).).).).).).).).).).).).).).).).).).).).).).).).).).).).).).).).).).).).).).).).).).).).).).).).).).).).).).).).).).).).).).).",
").).).).).).).).).).).).).).).).).).).).).).).).).).).).).).).).).).).).).).).).).).).).).).).).).).).).).).).).).).).).).).).).",
").).).).).).).).).).).).).).).).).).).).).).).).).).).).).).).).).).).).).).).).).).).).).).).).).).).).).).).).).).).).).).).).",
").).).).).).).).).).).).).).).).).).).).).).).).).).).).).).).).).).).).).).).).).).).).).).).).).).).).).).).).).).).).).).).).",
").).).).).).).).).).).).).).).).).).).).).).).).).).).).).).).).).).).).).).).).).).).).).).).).).).).).).).).).).).).).).).).).",
").).).).).).).).).).).).).).).).).).).).).).).).).).).).).).).).).).).).).).).).).).).).).).).).).).).).).).).).).).).).).).).).",
").).).).).).).).).).).).).).).).).).).).).).).).).).).).).).).).).).).).).).).).).).).).).).).).).).).).).).).).).).).).).).).).",
").).).).).).).).).).).).).).).).).).).).).).).).).).).).).).).).).).).).).).).).).).).).).).).).).).).).).).).).).).).).).).).).",
").).).).).).).).).).).).).).).).).).).).).).).).).).).).).).).).).).).).).).).).).).).).).).).).).).).).).).).).).).).).).).).).",
").).).).).).).).).).).).).).).).).).).).).).).).).).).).).).).).).).).).).).).).).).).).).).).).).).).).).).).).).).).).).).).).",
").).).).).).).).).).).).).).).).).).).).).).).).).).).).).).).).).).).).).).).).).).).).).).).).).).).).).).).).).).).).).).).).",
").).).).).).).).).).).).).).).).).).).).).).).).).).).).).).).).).).).).).).).).).).).).).).).).).).).).).).).).).).).).).).).).",
").).).).).).).).).).).).).).).).).).).).).).).).).).).).).).).).).).).).).).).).).).).).).).).).).).).).).).).).).).).).).).).).",
").).).).).).).).).).).).).).).).).).).).).).).).).).).).).).).).).).).).).).).).).).).).).).).).).).).).).).).).).).).).).).).).",
").).).).).).).).).).).).).).).).).).).).).).).).).).).).).).).).).).).).).).).).).).).).).).).).).).).).).).).).).).).).).).).).",
").).).).).).).).).).).).).).).).).).).).).).).).).).).).).).).).).).).).).).).).).).).).).).).).).).).).).).).).).).).).).).).).",
").).).).).).).).).).).).).).).).).).).).).).).).).).).).).).).).).).).).).).).).).).).).).).).).).).).).).).).).).).).).).).).).",
").).).).).).).).).).).).).).).).).).).).).).).).).).).).).).).).).).).).).).).).).).).).).).).).).).).).).).).).).).).).).).).).",
").).).).).).).).).).).).).).).).).).).).).).).).).).).).).).).).).).).).).).).).).).).).).).).).).).).).).).).).).).).).).).).).",
").).).).).).).).).).).).).).).).).).).).).).).).).).).).).).).).).).).).).).).).).).).).).).).).).).).).).).).).).).).).).).).).",
").).).).).).).).).).).).).).).).).).).).).).).).).).).).).).).).).).).).).).).).).).).).).).).).).).).).).).).).).).).).).).).).",
").).).).).).).).).).).).).).).).).).).).).).).).).).).).).).).).).).).).).).).).).).).).).).).).).).).).).).).).).).).).).).).).",
").).).).).).).).).).).).).).).).).).).).).).).).).).).).).).).).).).).).).).).).).).).).).).).).).).).).).).).).).).).).).).).).",
").).).).).).).).).).).).).).).).).).).).).).).).).).).).).).).).).).).).).).).).).).).).).).).).).).).).).).).).).).).).).).).).",
").).).).).).).).).).).).).).).).).).).).).).).).).).).).).).).).).).).).).).).).).).).).).).).).).).).).).).).).).).).).).).).).",
").).).).).).).).).).).).).).).).).).).).).).).).).).).).).).).).).).).).).).).).).).).).).).).).).).).).).).).).).).).).).).).).",
").).).).).).).).).).).).).).).).).).).).).).).).).).).).).).).).).).).).).).).).).).).).).).).).).).).).).).).).).).).).).).).).",
").).).).).).).).).).).).).).).).).).).).).).).).).).).).).).).).).).).).).).).).).).).).).).).).).).).).).).).).).).).).).).).).",
").).).).).).).).).).).).).).).).).).).).).).).).).).).).).).).).).).).).).).).).).).).).).).).).).).).).).).).).).).).).).).).).",
").).).).).).).).).).).).).).).).).).).).).).).).).).).).).).).).).).).          ).).).).).).).).).).).).).).).).).).).).).).).).",
").).).).).).).).).).).).).).).).).).).).).).                ).).                    ).).).).).).).).).).).).).).).).).).).).).).",
").).).).).).).).).).).).).).).).).).).).).      + $ + .             X 8 M S B 0       ).).).).).).).).).).).).).).).).).).).).).",
").).).).).).).).).).).).).).).).).).).).    X M U U U U m 0 .   X a U U U U U U c     ).).).).).).).).).).).).).).).).).).).).).",
").).).).).).).).).).).).).).).).).).).).    v U U U U U U U J i U U U U U U U U U 2     ).).).).).).).).).).).).).).).).).).).).",
").).).).).).).).).).).).).).).).).).).    2 U U U U 2 0 U U U U U i m U U U U U U B     ).).).).).).).).).).).).).).).).).).).).",
").).).).).).).).).).).).).).).).).).).    B U U U U m + B U U U D o v U U U U Y U U %     ).).).).).).).).).).).).).).).).).).).",
").).).).).).).).).).).).).).).).).).).  % U U U B U U 6 % S U S % 2 U U U U U U U U c     ).).).).).).).).).).).).).).).).).).).",
").).).).).).).).).).).).).              i U U J $ > B U y . X X 8 L U c m U U U U U B .             ).).).).).).).).).).).).).).",
").).).).).).).).).).).      . * + .     b U U U L % i U Y U B L U U B + m U U U U U U =       .         ).).).).).).).).).).).).",
").).).).).).).).).).      q L U U L 2 . B U U U U b % U Y U U U Y U i 1 U U U U U U U 0 . B L U J i X     ).).).).).).).).).).).",
").).).).).).).).).      v U U U U U i $ U U U U U m $ J U Y U U U U 4 0 U U U U U U U m   J U U U U J 1     ).).).).).).).).).).",
").).).).).).).).).    c U U U U U U 1 1 U U U U L = 2 U U Y U U U U i - U U U U U U U J . b U U U U U U 2     ).).).).).).).).).",
").).).).).).).).    2 U U U U U U U * 1 U U U U m 2 J U U U U U U U J - * J U U U U U i   i U U U U U U J X   ).).).).).).).).).",
").).).).).).).).    S U U U Y U U U X   + i J U U U U U U U U U U U U L i J U U U m =   . 1 U U U U U U U c     ).).).).).).).).",
").).).).).).).).  1 U U U U U U U J X = + . X 2 c B U U U U U U U U U U U U U c 1 . X 1 $ $ U U U U U U U J .   ).).).).).).).).",
").).).).).).).    i U U U U U U U B X 2 8 2 = X . . + 1 i i c b m m M c 0 1 X . X 1 2 0 = X U U U U U U U L %   ).).).).).).).).",
").).).).).).).    m U Y U U U U U B   2 8 0 0 8 2 1 + + . . . .   . . . . + - 1 8 0 0 2 . = U U U U U U Y U 1   ).).).).).).).).",
").).).).).).).    B U Y U U Y U U B . O 2 0 0 0 8 0 0 0 2 2 2 2 2 2 2 8 2 2 8 0 0 8 2   + B Y U U Y U U U U =   ).).).).).).).).",
").).).).).).).    v U U U U U U U U m + . + 2 0 0 0 0 0 0 0 i 2 0 0 0 0 i i 2 0 8 1   = B Y Y U U Y U U U U X   ).).).).).).).).",
").).).).).).).    0 Y U U Y U U U U U L i o . X = 2 8 0 0 8 0 8 0 0 4 2 2 2 2 1 .   q J U Y U U U U U U U m     ).).).).).).).).",
").).).).).).).).  X J U U U U U U U U U U J c - . . . + = 1 1 2 3 2 2 1 $ o . X 2 B U Y U U U U U U U U J %     ).).).).).).).).",
").).).).).).).).    2 U U U U U U U U U U U U U J c 0 = + X .   . . o o $ 1 c B U U U U U U U U U U U U q     ).).).).).).).).).",
").).).).).).).).).  . 0 U U U U U U U U U U U U U U U U L J S B B B B B U U U U U U U Y U U U U U U U i     ).).).).).).).).).).",
").).).).).).).).).).    1 B U U U U U U U U U U U Y U U U Y Y U U U U U U U U U U U U U U U U U Y S 1       ).).).).).).).).).).",
").).).).).).).).).).).    . 0 S U U U U Y U U U U U U U U U Y U U U U U U U U U U U U U U U Y B 0 X     ).).).).).).).).).).).).",
").).).).).).).).).).).).    X + 1 v J U U U U U Y U U U U U U U U U U U U U U U U U U U J b 2 + , 4     ).).).).).).).).).).).).",
").).).).).).).).).).).).    e N . 8 = & q M B J U U U U U U U U U U U U U U U J B b i 1 + i U . C z     ).).).).).).).).).).).).",
").).).).).).).).).).).).    k N + i.i.T X h p y * $ 1 1 1 8 8 0 i 2 2 3 1 $ = 7 p ! ] ] * s.d.% x z     ).).).).).).).).).).).).",
").).).).).).).).).).).).    l z 2 g.P.T ! ^.~.S.] S.S.D.B.p 0 -.*.Y o | D.G.[ [ U./.(.E.+ i.H.4 z z     ).).).).).).).).).).).).",
").).).).).).).).).).).).    > k 8 g.P.v  .(.(.^ . [ (.(.(.^ U P.L.i.7 U.(.W.;   B.(.(.W.+ i.H.8 k k     ).).).).).).).).).).).).",
").).).).).).).).).).).).).  . X 0 g.P.m [ (.(.[ ; ] /.(.(.^ U P.L.i.- G.(.^.] g E.(.(.U.+ i.f.1 l 4     ).).).).).).).).).).).).",
").).).).).).).).).).).).).    6 1 g.P.*.u ~.(./.W./.(.(.~.y ;.P.P.H.w [ (.(./.^.(.(.(.| 2 J.a.. . .   ).).).).).).).).).).).).).",
").).).).).).).).).).).).).  1 4.% p.P.p.1 [ ~.(.(.(.(./.] 6 p.K.P.P.1.* B./.(.(.(.(.Y.* ;.L.5.+ J     ).).).).).).).).).).).).).",
").).).).).).).).).).).).    D f.% 1.P.P.0.2 f n.Y.E.S.~ = 4.T 1.J.g.J.( * ~ S.E.U.n.; L H.P.T w a.$   ).).).).).).).).).).).).).",
").).).).).).).).).).).).).  0 g.B B J.P.P.p.R 8 = ; - M e.H.0 :.=.L P.K.0.m - - = 8 *.H.P.d.2 =.g.2   ).).).).).).).).).).).).).",
").).).).).).).).).).).).).    D E + y.P.P.P.P.g.i.t.a.K.P.g.0 M % -.P.P.P.K.a.y.y.g.P.P.P.,.+ q.=.    ).).).).).).).).).).).).).",
").).).).).).).).).).).).).).        D K.P.P.P.P.P.P.P.L.P.L.,.w E J.P.P.P.P.P.P.P.P.P.P.s.2   -       ).).).).).).).).).).).).).",
").).).).).).).).).).).).).).).      . ,.L.P.P.P.P.P.P.P.P.K.p.0.4.t.g.P.P.P.P.P.P.P.P.H.U           ).).).).).).).).).).).).).).",
").).).).).).).).).).).).).).).).).    # q.L.P.P.P.P.P.P.a.S % % 1 # v t.P.P.P.P.P.P.K.-.    ).).).).).).).).).).).).).).).).).).",
").).).).).).).).).).).).).).).).).).    % 5.P.P.P.P.P.P.D 6 4.s.f.e.v 1 q.P.P.P.P.g.) O     ).).).).).).).).).).).).).).).).).).",
").).).).).).).).).).).).).).).).).).    o $ *.g.P.P.P.P.B :.P.P.P.P.H.S Y P.P.L.p.B & c     ).).).).).).).).).).).).).).).).).).",
").).).).).).).).).).).).).).).).).).    2.2.& q ,.d.K.P.f.J.P.P.L.P.P.d.s.K.p.( & r 8.l.o   ).).).).).).).).).).).).).).).).).).",
").).).).).).).).).).).).).).).).).).  # l.v.z.5   1 D ,.y.a.g.g.g.g.s.i.,.S % o # h.v.b.F     ).).).).).).).).).).).).).).).).).",
").).).).).).).).).).).).).).).).).    F b.v.c.5 a G 6   O $ 6 6 6 7 % @ @   G / # 7.v.v.6.    ).).).).).).).).).).).).).).).).).",
").).).).).).).).).).).).).).).).).    W k.x.7.# / >.) % X.@.O.O.O.O.+.#...- ' _ & 2.x.k.6.    ).).).).).).).).).).).).).).).).).",
").).).).).).).).).).).).).).).).).        & $ X ) >.' $ j &.%.%.%.%.%.#.@ K >.' & # $ o       ).).).).).).).).).).).).).).).).).",
").).).).).).).).).).).).).).).).).).    1 4.w $ _ >.' $ . o.%.%.%.%.$.: . Y >.' 1 1 t.E     ).).).).).).).).).).).).).).).).).).",
").).).).).).).).).).).).).).).).).).).  q g.U $ _ >.' $ W , @.%.&.#.< F & I >.>.6 m L.,.    ).).).).).).).).).).).).).).).).).).",
").).).).).).).).).).).).).).).).).).).  a J.T $ ' >.' * 6.3., X..., 2.l.9 K >.>.d 0 L.,.    ).).).).).).).).).).).).).).).).).).",
").).).).).).).).).).).).).).).).).).).  q g.R $ _ >.' $ 6.v.7.Z W h.v.b.t G >.>.G 6 L.;.    ).).).).).).).).).).).).).).).).).).",
").).).).).).).).).).).).).).).).).).).  X U 0 $ _ >.' $ Q h.h.h.j.x.c.l.r G >.>.G # E 6     ).).).).).).).).).).).).).).).).).).",
").).).).).).).).).).).).).).).).).).).          a a n o o *         o # . d K n 3         ).).).).).).).).).).).).).).).).).).).",
").).).).).).).).).).).).).).).).).).).).).        s s ; M.T.f       9.F.g + *           ).).).).).).).).).).).).).).).).).).).).",
").).).).).).).).).).).).).).).).).).).).).).      C.!.!.!.!.H       F.!.R.T.F.      ).).).).).).).).).).).).).).).).).).).).).).",
").).).).).).).).).).).).).).).).).).).).).).).    C.!.!.!.Q.f       N.!.!.!.I.    ).).).).).).).).).).).).).).).).).).).).).).).",
").).).).).).).).).).).).).).).).).).              M.!.!.!.Q.u       F.!.!.!.A.          . . ).).).).).).).).).).).).).).).).).).",
").).).).).).).).).).).).).).).).).).              ` !.!.!.!.h     . S.Q.Q.T.[               ).).).).).).).).).).).).).).).).).).",
").).).).).).).).      . .     .   .               y } m.Z.N.u       . ; $   X                   . . .   .       ).).).).).).).).",
").).).).).).).).    . . .   .   . X               X h y X * X     o V.D.S.E.S.X                 .     . . .     ).).).).).).).).",
").).. .   .   .                                     | /./.D.*       h W.(.W.h                                   . .   . . . ).).",
").)..   .     .   .                                   y !             o g *                                     .   .     . ).).",
".                                                                                                                               ",
"                                                                                                                                ",
"    . .     .                                                                                                   .   .     .     ",
"      .     .                                                                                                   .               ",
").).).).  .     .     .     .                                                               .                           ).).).).",
").).).).      .                                                                                     .     .             ).).).).",
").).).).).).).).).)..   X   .     X                                                           .     .   . . ).).).).).).).).).).",
").).).).).).).).).).. .       .                                                             .   . .   .   . ).).).).).).).).).).",
").).).).).).).).).).).).).).).).).).).).                                                ).).).).).).).).).).).).).).).).).).).).",
").).).).).).).).).).).).).).).).).).).).                                                ).).).).).).).).).).).).).).).).).).).)."
};
