/* XPM */
static char *result[] = {
/* columns rows colors chars-per-pixel */
"64 64 212 2 ",
"   c #1C0C00",
".  c #271401",
"X  c #2F1600",
"o  c #2E1B04",
"O  c #311701",
"+  c #351E04",
"@  c #381F04",
"#  c #3A1D0A",
"$  c #372004",
"%  c #392004",
"&  c #3B2309",
"*  c #3E2514",
"=  c #411E02",
"-  c #422504",
";  c #462805",
":  c #4C2B06",
">  c #45270A",
",  c #472A08",
"<  c #4D2E0B",
"1  c #522E06",
"2  c #512F08",
"3  c #4E300E",
"4  c #563106",
"5  c #5B3407",
"6  c #54310A",
"7  c #5C360A",
"8  c #5E3A0E",
"9  c #472C17",
"0  c #542E16",
"q  c #4F3011",
"w  c #523312",
"e  c #5A3711",
"r  c #563419",
"t  c #5E3A18",
"y  c #693501",
"u  c #633806",
"i  c #6D3D04",
"p  c #603608",
"a  c #653A0A",
"s  c #6C3E08",
"d  c #703F0B",
"f  c #623C14",
"g  c #693F11",
"h  c #633D1C",
"j  c #794607",
"k  c #74420A",
"l  c #7A450A",
"z  c #7E490C",
"x  c #6D4214",
"c  c #68421A",
"v  c #734513",
"b  c #754717",
"n  c #794711",
"m  c #7D4A12",
"M  c #724A1A",
"N  c #7C4D1B",
"B  c #7C5014",
"V  c #5C4029",
"C  c #674425",
"Z  c #724A22",
"A  c #774B29",
"S  c #7D532B",
"D  c #7F5837",
"F  c #814A05",
"G  c #834B0C",
"H  c #894F0C",
"J  c #8D510D",
"K  c #94550D",
"L  c #9B590E",
"P  c #814D13",
"I  c #884F14",
"U  c #834F19",
"Y  c #855012",
"T  c #8B5314",
"R  c #82511E",
"E  c #8A541A",
"W  c #965B19",
"Q  c #A35E0F",
"!  c #A8610F",
"~  c #B5670D",
"^  c #BD6C09",
"/  c #AB6310",
"(  c #B36711",
")  c #B56912",
"_  c #BC6D12",
"`  c #B36C1F",
"'  c #865525",
"]  c #88582B",
"[  c #8B5A2B",
"{  c #935B23",
"}  c #975F2C",
"|  c #995F28",
" . c #875A36",
".. c #8B5E35",
"X. c #9A6426",
"o. c #9C652C",
"O. c #8C6036",
"+. c #9C6533",
"@. c #986737",
"#. c #A56A2E",
"$. c #B97323",
"%. c #A76D35",
"&. c #A26C3A",
"*. c #AB743D",
"=. c #B2753D",
"-. c #B77938",
";. c #C26E03",
":. c #C16F12",
">. c #C57213",
",. c #CA7514",
"<. c #C8761B",
"1. c #C97723",
"2. c #CC7A24",
"3. c #976A43",
"4. c #9D6D43",
"5. c #9E7144",
"6. c #A36E44",
"7. c #A57144",
"8. c #AC7343",
"9. c #A8764B",
"0. c #B17642",
"q. c #B57A45",
"w. c #BA7D45",
"e. c #B0764B",
"r. c #B47C4B",
"t. c #BA7D49",
"y. c #B47F51",
"u. c #D98A38",
"i. c #E38E24",
"p. c #E38F2B",
"a. c #E5902D",
"s. c #E69233",
"d. c #E5943A",
"f. c #E8973E",
"g. c #E6983A",
"h. c #AA834D",
"j. c #BE8047",
"k. c #B7834B",
"l. c #BD814C",
"z. c #BC8A4E",
"x. c #B58152",
"c. c #BC8453",
"v. c #BA8D55",
"b. c #BF9256",
"n. c #B89661",
"m. c #C78549",
"M. c #C1844E",
"N. c #DE934C",
"B. c #C28554",
"V. c #C88753",
"C. c #C28C55",
"Z. c #CB8C55",
"A. c #C38C5B",
"S. c #CC8D5A",
"D. c #D08F58",
"F. c #C59759",
"G. c #C3955C",
"H. c #CE925D",
"J. c #D69357",
"K. c #DA9252",
"L. c #D4945C",
"P. c #DD9A5D",
"I. c #E59544",
"U. c #EA9945",
"Y. c #EC9D4B",
"T. c #E29751",
"R. c #E39B56",
"E. c #EC9F52",
"W. c #E19D5D",
"Q. c #EEA154",
"!. c #EFA359",
"~. c #EEAC5B",
"^. c #F1A55C",
"/. c #F0AF5D",
"(. c #D49761",
"). c #DD9C62",
"_. c #E19E63",
"`. c #D9AA6C",
"'. c #E5A266",
"]. c #E9A367",
"[. c #E5A269",
"{. c #EAA66A",
"}. c #E4AA6C",
"|. c #EDAA6D",
" X c #F1A762",
".X c #F3AA65",
"XX c #F4AD6D",
"oX c #F4B46A",
"OX c #FDB26E",
"+X c #F6AF71",
"@X c #EDB474",
"#X c #EBB975",
"$X c #F7B172",
"%X c #FBB573",
"&X c #F6BB74",
"*X c #FFB872",
"=X c #F7BA79",
"-X c #F8BB7A",
";X c #ECC07C",
":X c #F5C476",
">X c #F7C47D",
",X c #F9C27F",
"<X c #EDC580",
"1X c #EFCC85",
"2X c #F3C782",
"3X c #F9C581",
"4X c #F4C983",
"5X c #FACB85",
"6X c #FACF88",
"7X c #FBD48C",
"8X c #FCD98F",
"9X c #FCD990",
/* pixels */
"7X7X8X7X3X+X+X+X+X+X+X+X+X+X$X+X$X$X+X+X+X+X+X+X+X+X+X+X+X+X+X$X$X+X5X9X5X+X+X+X+X+X+X$X+X+X+X+X+X+X+X$X$X$X+X+X+X+X+X+X+X+X+X+X",
"7X7X7X7X,X+X+X$X+X+XOX$X+X+X+X$X$X+X+X+X$X+X+X$X$X+X+X$X+X+X+X+X+X+X5X7X3X+X+X+X$X+X+X$X$X+X+X$X$X$X+X+X+X$X$X+X$X$X+X$X$X+X$X+X",
"=X=X=X=X*X+X+X+X+X+X+X$X+X+X+X$X+X+X+X+X$X+X=X5X5X%X+X+X+X+X$X+X+X+X=X-X=X+X+X+X$X+X+X+X+X$X$X+X+X+X+X+XXX$X$X+X+X+X+X$X+X+X+X+X",
"+X+X+X+XXXXXXX+X$X$X+X$X+X$X+X$X$X+X+X+X+X$X-X7X6X=X+X+X+X+X$X$X+X+X+X+X+X+X+X+X$X$X$X$X$X$X$X+X+X$X$X+X+X$X+X+X$X$X$X$X+X$X$X+X",
"+X+X+X+X XQ.^.+X+X+X+X+X+X$X$X$X$X+X+X+X=X3X3X3X3X%X+X+X+X$X+X$X$X$X$X$X+X+X+X+X$X-X3X3X3X-X$X+X$X+X$X+X+X+X$X+X$X=X3X=X$X$X$X+X",
"+X+X+X+XQ.p.U.XX$X+X+X+X+X+X+X$X$X$X+X+X3X7X5X$X+X+X+X+X+X$X+X+X$X$X$X%X+X+X$X+X&X5X8X7X7X5X%X+X$X$X+X$X+X$X$XXX&X5X7X2X$X$X+X$X",
"+XOX+X+X^.U.E.XX$X+X|.|.XX+X$X$X$X+X+X$X-X5X,X%X+X+X+X+X$X$X+X+X+X{._._.+X-X-X-X:X&X:X>X5X3X+X+X=X=XoX!..X+X$X$X+X3X6X-X$X+X+X$X",
"+X$X+X+X+XXXXXOX+X{.L.V.S.[.+X+X$X$X+X$X$X$X$X$X+X+X+X+X$X+X+X+X_.y.7.9.`.7X7X9X5X~.s.^.$X$X+X=X5X5X~.d.Q..X$X$X+X+X$X$X$X+X+X+X",
"+X$X+X+X+X$X+X$X+X[.t.-.o.w.).{.|.XX+X+X+X+X+X$X+X+X+X+XXX|.{.P.e.A f V G.4X6X6X5X!.d.Q.+X+X+X=X3X5X/.f.Y.^..X XXXXX+X+X$X$X$X$X",
"+X$X+XOX+X$X$X+X+XXXD.! F W %.t.B.).|.+X+X+X$X$X+X+X+X{.S.l.t.&.R q 2 0 y.@X-X-X=XXX^.XX+X+X+X+X%X=XoX XQ.U.U.I.Y..X+X+X+X+X$X+X",
"+X$X+X+X+XXXXXXX+X|.J.| y i d g N @.J.'._.{.{._.{.{._.D.#.U v a ; o # * 9.{.XX+X+X+X+X+X+X+X$X$X$X$X$X$X^.f.s.p.s.Q.XX+X+X+X+X$X",
"OX$X$X+X^.Y.^.XX+XL.%.T i s 2 2 6 c +.0.t.t.t.t.t.t.q.#.E n u : ; + # > 4._.+X+X+X$X+X+X+X=X3X5X5X3X=X$X.X^.Y.s.s.I.Y.^.+X+X+X+X",
"+X+X$X+XQ.a.U.XX_.0.I P k 5 + + O - 5 k n P P G m P m d k k : O @ @ & #  .P.XX+X$X+X+X+X$X=X7X7X8X7X,X+X+X$X.Xf.a.a.p.Q.XX$X$X$X",
"+X+X+X+X XY.~.@XS.| G l k p + + @ ; 4 5 d l k G l l G l p 5 - @ @ @ @ @ h 8.(.{.+X+X+X=X,X3X3X5X3X,X=XXX+X+XXXQ.Y.Y.Y..X+X+X+X+X",
"+X+X+X$XXXXX&X;Xz.o.l k k 7 @ @ % @ O : d d d d d d d k : % % @ @ @ % @ : v +.J.{.|.XX-X7X5X=X$X$X$X$XXXXX+XXXXXXXXXXXXX+X$X$X$X",
"+XOX$X+X+X$X=X;XG.X.G l k 7 @ @ @ # @ - 4 5 5 5 5 5 5 5 4 4 - % @ @ % @ ; < x %.t.M.L.@X5X-X|._.S.S.Z.Z.D.D.L.{.+X$X$X+X+X+X+X+X",
"+X+X+X+X+X+X%X$X[.q.E G k 7 @ @ % @ % $ % @ $ $ % % % & i k : % $ @ % % % % ; a n E o.Z.}.].L.0.{ R N U U ' +.P.XX+X$X$X$X+X+X$X",
"$X+XOX$X+X+X+X+XXX).0.{ l s 4 , % % @ % @ - 1 4 4 4 4 4 k l 1 @ % % % % % % - : 7 l E o.=.=.%.E n a 6 1 2 2 x l.{.XX.XXX$X$X$X$X",
"OX+X+X+X+X$X+X$X+XXXP.0.E l l 7 % % % @ @ , s l k k k j k k 1 @ % $ $ $ % % $ % ; j k k z n l s k 1 @ % @ 7 C B.{.E.U.^.XX$X+X+X",
"+X+X+X$X$X+X$X$X+X+X+X).8.{ k 7 - @ @ - : p k l l z K L L Q p @ @ % % % % % % % & 5 5 5 5 7 5 5 4 ; $ % ; h 3.`.XXI.p.Q.XX$X$X+X",
"+X+X%X+X+X$X+XOX+X+X$XXXP.=.k 6 & + + : i k l l j z / _ ^ ^ i @ $ % % % @ $ % @ % % - % % - % - % % % % ; O.H.|.XX^.Q..XOX$X+X+X",
"$X+X+X+X+X$X+X+X+X+X+XXX].z.N 4 % @ + 1 s l k G K L _ ,.u.d.N + @ $ % @ % % % % % $ % % % % % % % % % @ 3 &.).+X+X+X+X+X+X$X$X+X",
"$X$X+X+X+X+X+X+X+X+X$X&X#XC.N 4 - @ + : k l k H ~ _ ;.;.Y.OX .O @ % $ $ % $ % % % $ % % @ % @ % % % % % w 7.[.+X$X+X$X+X$X$X+X+X",
"$X$X+X%X+X+X+X+X+X+X&X>X;XF.m 4 % @ + 1 s l k H ) <.u.u..XOX..X @ % @ % @ % % % % % % % % % % % % % % % w 6.[.+X+X$X$X+X+X$X+X+X",
"$X+X$XOX+X+X$X+X+X+X%X3X4Xv.n 1 - % @ : d j k H ~ <.Q..XOX*X..X @ $ $ $ % % @ + % % % % % % @ % % $ % % w 6.[.+X+X$X+X+X+X+X$XOX",
"+X$X+X+X+X+X$X$X$X$X$X$X|.r.g , % @ + : d l k J ~ 2.^.*XOX*X..X @ % % @ % @ % 1 : % $ % % $ % % $ @ % % q 6.[.+X+X$X$X$X+X+X+X+X",
"+X$X+X+X+X+X+X+X$X$X$X+X).@.3 - @ @ + , s l k H ~ 2.^.OXOX*X..X @ $ % % % @ , k u % % % $ @ % % % % % % < 4._.+X$X+X+X+X+X+X+X$X",
"+X$X$X$X+X$X+X+X+X$X$X_.M.S % % @ - , 5 k l l H ~ 2.^.OX$X*X..X @ @ $ % % @ : j k % $ % % % % @ % @ % % ; ..S.XX+X$X$X+X+X+X+X$X",
"+XOX$X+X$X+X$X+X+X+X{.V.] 8 % % @ 1 s k l l l H ~ 2.^.OXOX*X..X @ % % @ @ @ , j s % % % % % % % % % % % & Z 8.'.XX$X+X$X$X+X+X+X",
"+X+X$X+X$X+X$X-X-X_.Z.@.8 > % % @ 1 k l l l k H ~ 2.^.OX*X*X..X @ @ % @ % : 1 l k % % % @ % @ % + % % % $ h @.'.+X+X+X+X$X+X+X+X",
"$X$X+X+X+X%X=X7X<XA. .8 & % % % @ 1 k l k l k H ~ 2.^.OXOX*X..X @ % @ @ 1 k k l s % $ % % $ % @ % % @ % & 8 *.).+X+X+X$X$X$X$X+X",
"+X+X$X$X+X_.(.`.(.@.7 > + % % % % 1 d j l l k H ~ 2.^.OXOX*X..X @ % @ @ 1 G k G k & $ @ % % % @ % @ % % $ 3 ] Z.{.+X$X$X+X+X$X$X",
"$X$X5X8X<Xb.@.R b 7 & % % % % 1 d l l l l l k H ^ 2.^.$XOX*X..O @ @ % + 1 z J >.! ; + % @ % @ % % % @ % % - q O.L.|.+X$X+X+X$X+X",
"$X$X4X9X<Xh.N n d 7 o @ % % + 2 j l k l l k d H ~ 2.^.$XOX*X..X @ % @ + 1 l H >./ ; + % % $ + @ + % % % % % & h &.C.H.|.$X$X+X$X",
"$X$X=X-X`.5.N P l l k 4 @ 1 k k k l k l k K ) >.>.>.<.1.^.*X..X @ o 5 l k j H >./ ; @ @ % + - a k : + @ $ $ $ > r C O.(.+X+XXX$X",
"+X+X+X+X[.9.S N U m s 5 @ 4 l k l l l l d H ) >.>.>.>.>.E.*X..X @ o 5 l l k J >./ ; @ @ @ + - a k 1 + % % % % % $ , V A.|.+X+X+X",
"+X$X+X$XXX[.H.V.j.o.v 1 $ 4 l l l l k K ~ _ :.>.>.>.>.>.!.OX..O @ + 5 l K :.:.>./ ; @ + - p k j k : + % % % + % & , 9 x.|.+X+X$X",
"+X$X+X$X$X+X+X|.'.t.' 7 ; 4 j l l k d K _ >.>.>.>.>.>.>.^.*X..O @ O 5 j K ,.>.>.! ; @ @ - s l l k 1 + $ @ % % % % & * x.|.$X+X+X",
"$X$X$X+X+X+X+X$XXX'.c.[ 5 7 1 7 l k k K _ >.>.>.>.>.>.>.!.*X..X @ + 5 l K ,.>.>./ ; + + - i l l s 1 + % % % % % % & 9 x.|.$X+X+X",
"+X+X$X$X$X$X+X$X$XXX'.k.x 2 + 1 k l k K ) >.>.>.>.>.>.>.!.*X..X @ o p l K >.>.>./ , + + - s l l k : + % % @ % @ $ 6 r x.|.+X$X+X",
"+X+X+X+X%X+X+X+X$X+X|.v.b 4 % 1 k l l G K Q ^ >.>.>.>.>.!.*X..X @ o 4 l L >.>.>.! ; @ @ - s l l k 1 @ $ % @ @ % . 6 E K.|.XXXX.X",
"+X+X+X+X+X+X+X%X+X+X{.k.g < % 1 k l l k d H ( >.>.>.>.>.Q.OX..X @ o 5 l K ,.>.>.! ; @ @ - s l j k : + @ % % % @   x ` E.+XXXY.Y.",
"+X$X$X+X+X%X$X+X+X+X_.6.3 ; % 1 l l l l k G K Q _ ,.>.>.u.I.N @ $ O 5 l K ,.>.>.! ; @ @ - s l l s : @ @ % @ @ : 1 P _ T.XX Xp.p.",
"$X+XOX+X=X3X-X+X|.{.(. .# & % 1 d k k l l k d H ~ >.:.:.^ ;.i $ % + 5 l K >.>.>./ - @ @ - s l l k 1 @ @ @ & @ 7 k J ` N.XX Xs.s.",
"+X$X$X$X3X9X2X_.B.e...t % % % - 4 u k l l l k H ) ,.,.>.>.,.k + $ + 5 l H Q Q >./ ; % + - s l l k : @ % @ : 5 i d K ) N.+X].s.a.",
"+X+X$X$X-X5X#Xx.A 0 > ; - % % @ @ : d k j l k H / >.>.>.>.,.i + $ o p l k k H >./ ; + % - s l l s 1 @ $ @ p j l d I ( T.XX.XY.U.",
"+X$X$X+X$X$X[.7.c 8 4 : 1 1 , : @ ; 4 a k l k G K ! _ >.>.,.k o % + 5 l l l K >.! ; + + - s j l k 1 + $ % 5 k l k I W m.XXXXXX.X",
"+X$X$X$X$X+X[.y.] N n B m m v 5 & @ + : s l k l k z ( >.>.,.k + $ o 5 l k l H >./ ; + @ - s j l s 1 @ % # p l k k G I t.{.+X$X$X",
"+X+X$X$X$X+X+X_.A.n.G.v.G.z.=.' 6 - & ; 4 p k l k G L Q _ ,.k $ @ + 5 l j l J >.! ; + @ - s l l k a 1 : 6 a j z l m U B.|.+X+X+X",
"%X+X$X$X$X$X$X$X$X<X1X1X1X#X!.w.' 7 % $ @ : s j l l k j ( ,.k o + O p l l l J >./ ; $ @ - s k l j l l v z m P Y Y Y } A.|.+X+X+X",
"+X+X+X+X=X3X3X3X5X6X9X7X7X:XQ.N.m.' 8 % % - 4 u 5 p p 5 z H 4 $ @ + 5 F k l G Q J - % @ - 5 z W #.=.0.0.w.k.t.j.k.M.B._.+X+X+X+X",
"+X+X+X%X3X9X9X7X7X9X7X9X7XoXg.I.W.M.' 4 & @ % % @ % @ @ - & $ $ + . 5 G l l k G k % % % % u H $.K.].].].].{.{.[.{.{.XX+X+X$X+X+X",
"-X-X%X+X=X3X5X7X7X8X7X5X>XoXQ.Y.E.T.m.[ e ; % & 1 : : : 1 2 : : : , 5 p p p u k k % % $ ; ' -.N..X$X+X+X+X+X+X+X+X+X$X+X+X+X+X+X",
"7X7X=X+X+X=X-X9X9X9X7X3X&XXXXX!.I.d.R.M.[ 7 - - 4 s x M M M M M x g 1 = O # 4 F s % $ + q e.P..X+X$X+X+X$X+X$X+X+X$X$X$X%X+X%X+X",
"6X5X-X+X+X+X=X3X5X6X5X=X+X$X$X.XY.U. X[.C.@.Z Z +.8.q.x.v.v.v.v.q.0.| b M S x z 4 $ $ @ r c.|.$X$X+X+X+X$X$X+X+X+X.X^. X^.|.+X+X",
"=X$X%X+X+X+X+X=X=X&X=X$X+X$X$XXXXX.XXX+X{.L.r.t.J._.{.|.|.|.@X}.[._.P.K.L.L.4.t : + + + r c.+X+X+X$X$X+X+X+X+X$X+XY.f.f.d.E.+X+X",
"+X+X$X$X$X$X$X+X+X+X+X+X+X$X$X+X+X$X+X+X+X+X[.{.+X+X+X+X+X+X+XXX+X+X+X+X+X|.).3.Z w ; ; h B.|.+X+X+X$X$X+X+X+X+XXXY.d.d.s.Y.XX+X",
"$X+X+X+X+X+X+X$X+X+X+X$X$X$X+X$X$X+X$X$X+X+X+X$X+X+X+X$X+X+X+X+X+X+X+X+X+X+X|.).l...h h D (.+X+X+X+X$X+X+X+X+X+X+X X^.^.^..X+X+X",
"$X+X+X+X$X+X+X+X+X+X+X+X+X+X$X+X$X$X+X+X+X+X+X$X+X$X$X$X$X$X$X+X+X+X+X+X+X+X+X+X[.S.B.x.H.{.+X+X+X+X+X+X+X+X+X+X+X+X+X+X$X+XOX+X",
"$X+X$X+X$X+X$X$X+X+X+X+XOX$X$X$X$X$X-X3X2X3X$X!.E.E.E.Q.E.!.$X$X+X+X+X+X$X+X$X+X+X+X|.|.+X+X+X+X$X+X$X$X$X+X+X+X+X+X%X XE.^.XX+X",
"+X+X+X+X+X+X+X+X+X+X+X+X+X+X+X+X+X$X5X7X7X8X:Xg.p.p.p.p.i.Y.$X+X+X+X$X$X+X+X$X+X$X$X+X$X+X+X+X+X+X+X$X$X$X$X$X+X+X+X%XQ.a.Y.XX$X",
"+X$X%X-X%X+X$X+X+X+X+X=X-X%X+X$X=X-X5X5X5X7XoXY.Y.Y.U.U.I.!.$X+X+X+X+X+X+X+X+X+X+X+X+X$X+X+X+X+X+X+XXX X^..XXX+X+X.X XE.U.Y.^. X",
"$X$X5X6X,X+X+X$X$X+X$X2X6X,X%X=X5X5X-X$X$X&X$XXXXXXX+XXX.X$X+X+X$X+X+X+X$X+X+X+X+X$X$X+X$X+X+X+XOXXXE.s.s.a.Y..X+XY.s.Q.XX^.d.s.",
"$X%X6X7X3X+X+X+X+X+X%X3X9X5X$X=X7X7X-X+X+X+X+X+X+X+X+X+X+X$X$X+X$X+X$X$X+X+X$X+X+X+X+X+X+X+X+X+X+XXXY.a.p.p.U..X+XI.p.Q.+X Xs.s."
};
