/* XPM */
static char *result[] = {
/* columns rows colors chars-per-pixel */
"64 128 162 2 ",
"   c #000000",
".  c #0C0100",
"X  c #000008",
"o  c #130300",
"O  c #1B0501",
"+  c #170801",
"@  c #1C0901",
"#  c #140B0C",
"$  c #180D0C",
"%  c #171010",
"&  c #1C1414",
"*  c #240D02",
"=  c #290E02",
"-  c #210701",
";  c #251103",
":  c #2D1303",
">  c #27160C",
",  c #321604",
"<  c #351905",
"1  c #3B1D05",
"2  c #291910",
"3  c #3E2106",
"4  c #3F290B",
"5  c #363131",
"6  c #393535",
"7  c #401F06",
"8  c #432207",
"9  c #4C2400",
"0  c #452408",
"q  c #4A2609",
"w  c #452909",
"e  c #4C2A0A",
"r  c #542D0C",
"t  c #582F0D",
"y  c #5C320E",
"u  c #573C0F",
"i  c #4D2E10",
"p  c #5B3611",
"a  c #5A3E10",
"s  c #63350F",
"d  c #663610",
"f  c #643A11",
"g  c #6C3C12",
"h  c #713E13",
"j  c #423F3F",
"k  c #624312",
"l  c #6C4114",
"z  c #6C4A15",
"x  c #624C1D",
"c  c #764215",
"v  c #7A4516",
"b  c #7F4916",
"n  c #7B4D18",
"m  c #77591F",
"M  c #7F5B1C",
"N  c #43403F",
"B  c #675220",
"V  c #685320",
"C  c #745C23",
"Z  c #844C19",
"A  c #86521A",
"S  c #8A541B",
"D  c #855D1C",
"F  c #8E581D",
"G  c #925A1E",
"H  c #86601D",
"J  c #8A621E",
"K  c #8F6924",
"L  c #966321",
"P  c #9B6220",
"I  c #946920",
"U  c #9F6922",
"Y  c #9A7D32",
"T  c #A56623",
"R  c #AA6522",
"E  c #A76823",
"W  c #AB6A25",
"Q  c #B16E26",
"!  c #AC7C28",
"~  c #B37227",
"^  c #B57B27",
"/  c #B67528",
"(  c #B97429",
")  c #B77B29",
"_  c #B87B2A",
"`  c #BF8B26",
"'  c #B5812B",
"]  c #BB852B",
"[  c #BE8A2D",
"{  c #A08235",
"}  c #AE8231",
"|  c #AD8D3A",
" . c #BC8733",
".. c #BF8C31",
"X. c #B1903B",
"o. c #B9973E",
"O. c #C18D2E",
"+. c #C8902F",
"@. c #C18E31",
"#. c #C59434",
"$. c #C89231",
"%. c #C5953A",
"&. c #C79A3F",
"*. c #CA9D3D",
"=. c #CDA13D",
"-. c #D6AC34",
";. c #D0A53C",
":. c #D6AD3C",
">. c #D9B13C",
",. c #CB9D40",
"<. c #C7A445",
"1. c #CDA341",
"2. c #CEA946",
"3. c #D1A643",
"4. c #D7AF43",
"5. c #D5AD49",
"6. c #D7B043",
"7. c #DBB345",
"8. c #D7B14A",
"9. c #D9B34C",
"0. c #DDB84E",
"q. c #DAB550",
"w. c #D5B25A",
"e. c #DABA5F",
"r. c #E1BA4F",
"t. c #DBBC65",
"y. c #DCBF69",
"u. c #DEC26E",
"i. c #DDC270",
"p. c #DFC97D",
"a. c #A3988E",
"s. c #B2A89E",
"d. c #9EA1A4",
"f. c #B5ABA1",
"g. c #B1B4B7",
"h. c #B5B8BB",
"j. c #BCBBBA",
"k. c #DFCC85",
"l. c #E1CD85",
"z. c #E2CF89",
"x. c #E6DC9E",
"c. c #D5C8B5",
"v. c #E7DEA1",
"b. c #C3C3C3",
"n. c #D0CFCE",
"m. c #D9D1C4",
"M. c #D3D1CF",
"N. c #D5D5D4",
"B. c #D8D7D7",
"V. c #DBDBDB",
"C. c #EADFCE",
"Z. c #EFE7DB",
"A. c #D9DCE0",
"S. c gray88",
"D. c #E8E8E7",
"F. c #EDEDEC",
"G. c #F3EEE7",
"H. c #EFF0F0",
"J. c #F5F5F5",
"K. c #FAFAFA",
"L. c #F7F8FA",
"P. c None",
/* pixels */
"P.P.P.P.P.P.P.P.P.P.P.P.P.P.P.P.P.P.P.P.P.P.P.P.P.P.P.P.P.P.P.P.P.P.P.P.P.P.P.P.P.P.P.P.P.P.P.P.P.P.P.P.P.P.P.P.P.P.P.P.P.P.P.P.",
"P.P.P.P.P.P.P.P.P.P.P.P.P.P.P.P.P.P.P.P.P.P.P.P.P.P.P.P.P.P.P.P.P.P.P.P.P.P.P.P.P.P.P.P.P.P.P.P.P.P.P.P.P.P.P.P.P.P.P.P.P.P.P.P.",
"P.P.P.P.P.P.P.P.P.P.P.P.P.P.P.P.P.P.P.P.P.P.P.P.P.P.P.P.P.P.P.P.P.P.P.P.P.P.P.P.P.P.P.P.P.P.P.P.P.P.P.P.P.P.P.P.P.P.P.P.P.P.P.P.",
"P.P.P.P.P.P.P.P.P.P.P.P.P.P.P.P.P.P.P.P.P.P.P.P.P.P.P.P.P.P.P.P.P.P.P.P.P.P.P.P.P.P.P.P.P.P.P.P.P.P.P.P.P.P.P.P.P.P.P.P.P.P.P.P.",
"P.P.P.P.P.P.P.P.P.P.P.P.P.P.P.P.P.P.P.P.P.P.P.P.P.P.P.P.P.P.P.P.P.P.P.P.P.P.P.P.P.P.P.P.P.P.P.P.P.P.P.P.P.P.P.P.P.P.P.P.P.P.P.P.",
"P.P.P.P.P.P.P.P.P.P.P.P.P.P.P.P.P.P.P.P.P.P.P.P.P.P.P.P.P.P.P.P.P.P.P.P.P.P.P.P.P.P.P.P.P.P.P.P.P.P.P.P.P.P.P.P.P.P.P.P.P.P.P.P.",
"P.P.P.P.P.P.P.P.P.P.P.P.P.P.P.P.P.P.P.P.P.P.P.P.P.P.P.P.P.P.P.P.P.P.P.P.P.P.P.P.P.P.P.P.P.P.P.P.P.P.P.P.P.P.P.P.P.P.P.P.P.P.P.P.",
"P.P.P.P.P.P.P.P.P.P.P.P.P.P.P.P.P.P.P.P.P.P.P.P.P.P.P.P.P.P.P.P.P.P.P.P.P.P.P.P.P.P.P.P.P.P.P.P.P.P.P.P.P.P.P.P.P.P.P.P.P.P.P.P.",
"P.P.P.P.P.P.P.P.P.P.P.P.P.P.P.P.P.P.P.P.P.P.P.P.P.P.P.P.P.P.P.P.P.P.P.P.P.P.P.P.P.P.P.P.P.P.P.P.P.P.P.P.P.P.P.P.P.P.P.P.P.P.P.P.",
"P.P.P.P.P.P.P.P.P.P.P.P.P.P.P.P.P.P.P.P.P.P.P.P.P.P.P.P.P.P.P.P.P.P.P.P.P.P.P.P.P.P.P.P.P.P.P.P.P.P.P.P.P.P.P.P.P.P.P.P.P.P.P.P.",
"P.P.P.P.P.P.P.P.P.P.P.P.P.P.P.P.P.P.P.P.P.P.P.P.P.P.P.P.P.P.P.P.P.P.P.P.P.P.P.P.P.P.P.P.P.P.P.P.P.P.P.P.P.P.P.P.P.P.P.P.P.P.P.P.",
"P.P.P.P.P.P.P.P.P.P.P.P.P.P.P.P.P.P.P.P.P.P.P.P.P.P.P.P.P.P.P.P.P.P.P.P.P.P.P.P.P.P.P.P.P.P.P.P.P.P.P.P.P.P.P.P.P.P.P.P.P.P.P.P.",
"P.P.P.P.P.P.P.P.P.P.P.P.P.P.P.P.P.P.P.P.P.P.P.P.P.P.P.P.P.P.P.P.P.P.P.P.P.P.P.P.P.P.P.P.P.P.P.P.P.P.P.P.P.P.P.P.P.P.P.P.P.P.P.P.",
"P.P.P.P.P.P.P.P.P.P.P.P.P.P.P.P.P.P.P.P.P.P.P.P.P.P.P.P.P.P.P.P.P.P.P.P.P.P.P.P.P.P.P.P.P.P.P.P.P.P.P.P.P.P.P.P.P.P.P.P.P.P.P.P.",
"P.P.P.P.P.P.P.P.P.P.P.P.P.P.P.P.P.P.P.P.P.P.P.P.P.P.P.P.P.P.P.P.P.P.P.P.P.P.P.P.P.P.P.P.P.P.P.P.P.P.P.P.P.P.P.P.P.P.P.P.P.P.P.P.",
"P.P.P.P.P.P.P.P.P.P.P.P.P.P.P.P.P.P.P.P.P.P.P.P.P.P.P.P.P.P.P.P.P.P.P.P.P.P.P.P.P.P.P.P.P.P.P.P.P.P.P.P.P.P.P.P.P.P.P.P.P.P.P.P.",
"P.P.P.P.P.P.P.P.P.P.P.P.P.P.P.P.P.P.P.P.P.P.P.P.P.P.P.P.P.P.P.P.P.P.P.P.P.P.P.P.P.P.P.P.P.P.P.P.P.P.P.P.P.P.P.P.P.P.P.P.P.P.P.P.",
"P.P.P.P.P.P.P.P.P.P.P.P.P.P.P.P.P.P.P.P.P.P.P.P.P.P.P.P.P.P.P.P.P.P.P.P.P.P.P.P.P.P.P.P.P.P.P.P.P.P.P.P.P.P.P.P.P.P.P.P.P.P.P.P.",
"P.P.P.P.P.P.P.P.P.P.P.P.P.P.P.P.P.P.P.P.P.P.P.P.P.P.P.P.P.P.P.P.P.P.P.P.P.P.P.P.P.P.P.P.P.P.P.P.P.P.P.P.P.P.P.P.P.P.P.P.P.P.P.P.",
"P.P.P.P.P.P.P.P.P.P.P.P.P.P.P.P.P.P.P.P.P.P.P.P.P.P.P.P.P.P.P.P.P.P.P.P.P.P.P.P.P.P.P.P.P.P.P.P.P.P.P.P.P.P.P.P.P.P.P.P.P.P.P.P.",
"P.P.P.P.P.P.P.P.P.P.P.P.P.P.P.P.P.P.P.P.P.P.P.P.P.P.P.P.P.P.P.P.P.P.P.P.P.P.P.P.P.P.P.P.P.P.P.P.P.P.P.P.P.P.P.P.P.P.P.P.P.P.P.P.",
"P.P.P.P.P.P.P.P.P.P.P.P.P.P.P.P.P.P.P.P.P.P.P.P.P.P.P.P.P.P.P.P.P.P.P.P.P.P.P.P.P.P.P.P.P.P.P.P.P.P.P.P.P.P.P.P.P.P.P.P.P.P.P.P.",
"P.P.P.P.P.P.P.P.P.P.P.P.P.P.P.P.P.P.P.P.P.P.P.P.P.P.P.P.P.P.P.P.P.P.P.P.P.P.P.P.P.P.P.P.P.P.P.P.P.P.P.P.P.P.P.P.P.P.P.P.P.P.P.P.",
"P.P.P.P.P.P.P.P.P.P.P.P.P.P.P.P.P.P.P.P.P.P.P.P.P.P.P.P.P.P.P.P.P.P.P.P.P.P.P.P.P.P.P.P.P.P.P.P.P.P.P.P.P.P.P.P.P.P.P.P.P.P.P.P.",
"P.P.P.P.P.P.P.P.P.P.P.P.P.P.P.P.P.P.P.P.P.P.P.P.P.P.P.P.P.P.P.P.P.P.P.P.P.P.P.P.P.P.P.P.P.P.P.P.P.P.P.P.P.P.P.P.P.P.P.P.P.P.P.P.",
"P.P.P.P.P.P.P.P.P.P.P.P.P.P.P.P.P.P.P.P.P.P.P.P.P.P.P.P.P.P.P.P.P.P.P.P.P.P.P.P.P.P.P.P.P.P.P.P.P.P.P.P.P.P.P.P.P.P.P.P.P.P.P.P.",
"P.P.P.P.P.P.P.P.P.P.P.P.P.P.P.P.P.P.P.P.P.P.P.P.P.P.P.P.P.P.P.P.P.P.P.P.P.P.P.P.P.P.P.P.P.P.P.P.P.P.P.P.P.P.P.P.P.P.P.P.P.P.P.P.",
"P.P.P.P.P.P.P.P.P.P.P.P.P.P.P.P.P.P.P.P.P.P.P.P.P.P.P.P.P.P.P.P.P.P.P.P.P.P.P.P.P.P.P.P.P.P.P.P.P.P.P.P.P.P.P.P.P.P.P.P.P.P.P.P.",
"P.P.P.P.P.P.P.P.P.P.P.P.P.P.P.P.P.P.P.P.P.P.P.P.P.P.P.P.P.P.P.P.P.P.P.P.P.P.P.P.P.P.P.P.P.P.P.P.P.P.P.P.P.P.P.P.P.P.P.P.P.P.P.P.",
"P.P.P.P.P.P.P.P.P.P.P.P.P.P.P.P.P.P.P.P.P.P.P.P.P.P.P.P.P.P.P.P.P.P.P.P.P.P.P.P.P.P.P.P.P.P.P.P.P.P.P.P.P.P.P.P.P.P.P.P.P.P.P.P.",
"P.P.P.P.P.P.P.P.P.P.P.P.P.P.P.P.P.P.P.P.P.P.P.P.P.P.P.P.P.P.P.P.P.P.P.P.P.P.P.P.P.P.P.P.P.P.P.P.P.P.P.P.P.P.P.P.P.P.P.P.P.P.P.P.",
"P.P.P.P.P.P.P.P.P.P.P.P.P.P.P.P.P.P.P.P.P.P.P.P.P.P.P.P.P.P.P.P.P.P.P.P.P.P.P.P.P.P.P.P.P.P.P.P.P.P.P.P.P.P.P.P.P.P.P.P.P.P.P.P.",
"P.P.P.P.P.P.P.P.P.P.P.P.P.P.P.P.P.P.P.P.P.P.P.P.P.P.P.P.P.P.P.P.P.P.P.P.P.P.P.P.P.P.P.P.P.P.P.P.P.P.P.P.P.P.P.P.P.P.P.P.P.P.P.P.",
"P.P.P.P.P.P.P.P.P.P.P.P.P.P.P.P.P.P.P.P.P.P.P.P.P.P.P.P.P.P.P.P.P.P.P.P.P.P.P.P.P.P.P.P.P.P.P.P.P.P.P.P.P.P.P.P.P.P.P.P.P.P.P.P.",
"P.P.P.P.P.P.P.P.P.P.P.P.P.P.P.P.P.P.P.P.P.P.P.P.P.P.P.P.P.P.P.P.P.P.P.P.P.P.P.P.P.P.P.P.P.P.P.P.P.P.P.P.P.P.P.P.P.P.P.P.P.P.P.P.",
"P.P.P.P.P.P.P.P.P.P.P.P.P.P.P.P.P.P.P.P.P.P.P.P.P.P.P.P.P.P.P.P.P.P.P.P.P.P.P.P.P.P.P.P.P.P.P.P.P.P.P.P.P.P.P.P.P.P.P.P.P.P.P.P.",
"P.P.P.P.P.P.P.P.P.P.P.P.P.P.P.P.P.P.P.P.P.P.P.P.P.P.P.P.P.P.P.P.P.P.P.P.P.P.P.P.P.P.P.P.P.P.P.P.P.P.P.P.P.P.P.P.P.P.P.P.P.P.P.P.",
"P.P.P.P.P.P.P.P.P.P.P.P.P.P.P.P.P.P.P.P.P.P.P.P.P.P.P.P.P.P.P.P.P.P.P.P.P.P.P.P.P.P.P.P.P.P.P.P.P.P.P.P.P.P.P.P.P.P.P.P.P.P.P.P.",
"P.P.P.P.P.P.P.P.P.P.P.P.P.P.P.P.P.P.P.P.P.P.P.P.P.P.P.P.P.P.P.P.P.P.P.P.P.P.P.P.P.P.P.P.P.P.P.P.P.P.P.P.P.P.P.P.P.P.P.P.P.P.P.P.",
"P.P.P.P.P.P.P.P.P.P.P.P.P.P.P.P.P.P.P.P.P.P.P.P.P.P.P.P.P.P.P.P.P.P.P.P.P.P.P.P.P.P.P.P.P.P.P.P.P.P.P.P.P.P.P.P.P.P.P.P.P.P.P.P.",
"P.P.P.P.P.P.P.P.P.P.P.P.P.P.P.P.P.P.P.P.P.P.P.P.P.P.P.P.P.P.P.P.P.P.P.P.P.P.P.P.P.P.P.P.P.P.P.P.P.P.P.P.P.P.P.P.P.P.P.P.P.P.P.P.",
"P.P.P.P.P.P.P.P.P.P.P.P.P.P.P.P.P.P.P.P.P.P.P.P.P.P.P.P.P.P.P.P.P.P.P.P.P.P.P.P.P.P.P.P.P.P.P.P.P.P.P.P.P.P.P.P.P.P.P.P.P.P.P.P.",
"P.P.P.P.P.P.P.P.P.P.P.P.P.P.P.P.P.P.P.P.P.P.P.P.P.P.P.P.P.P.P.P.P.P.P.P.P.P.P.P.P.P.P.P.P.P.P.P.P.P.P.P.P.P.P.P.P.P.P.P.P.P.P.P.",
"P.P.P.P.P.P.P.P.P.P.P.P.P.P.P.P.P.P.P.P.P.P.P.P.P.P.P.P.P.P.P.P.P.P.P.P.P.P.P.P.P.P.P.P.P.P.P.P.P.P.P.P.P.P.P.P.P.P.P.P.P.P.P.P.",
"P.P.P.P.P.P.P.P.P.P.P.P.P.P.P.P.P.P.P.P.P.P.P.P.P.P.P.P.P.P.P.P.P.P.P.P.P.P.P.P.P.P.P.P.P.P.P.P.P.P.P.P.P.P.P.P.P.P.P.P.P.P.P.P.",
"P.P.P.P.P.P.P.P.P.P.P.P.P.P.P.P.P.P.P.P.P.P.P.P.P.P.P.P.P.P.P.P.P.P.P.P.P.P.P.P.P.P.P.P.P.P.P.P.P.P.P.P.P.P.P.P.P.P.P.P.P.P.P.P.",
"P.P.P.P.P.P.P.P.P.P.P.P.P.P.P.P.P.P.P.P.P.P.P.P.P.P.P.P.P.P.P.P.P.P.P.P.P.P.P.P.P.P.P.P.P.P.P.P.P.P.P.P.P.P.P.P.P.P.P.P.P.P.P.P.",
"P.P.P.P.P.P.P.P.P.P.P.P.P.P.P.P.P.P.P.P.P.P.P.P.P.P.P.P.P.P.P.P.P.P.P.P.P.P.P.P.P.P.P.P.P.P.P.P.P.P.P.P.P.P.P.P.P.P.P.P.P.P.P.P.",
"P.P.P.P.P.P.P.P.P.P.P.P.P.P.P.P.P.P.P.P.P.P.P.P.P.P.P.P.P.P.P.P.P.P.P.P.P.P.P.P.P.P.P.P.P.P.P.P.P.P.P.P.P.P.P.P.P.P.P.P.P.P.P.P.",
"P.P.P.P.P.P.P.P.P.P.P.P.P.P.P.P.P.P.P.P.P.P.P.P.P.P.P.P.P.P.P.P.P.P.P.P.P.P.P.P.P.P.P.P.P.P.P.P.P.P.P.P.P.P.P.P.P.P.P.P.P.P.P.P.",
"P.P.P.P.P.P.P.P.P.P.P.P.P.P.P.P.P.P.P.P.P.P.P.P.P.P.P.P.P.P.P.P.P.P.P.P.P.P.P.P.P.P.P.P.P.P.P.P.P.P.P.P.P.P.P.P.P.P.P.P.P.P.P.P.",
"P.P.P.P.P.P.P.P.P.P.P.P.P.P.P.P.P.P.P.P.P.P.P.P.P.P.P.P.P.P.P.P.P.P.P.P.P.P.P.P.P.P.P.P.P.P.P.P.P.P.P.P.P.P.P.P.P.P.P.P.P.P.P.P.",
"P.P.P.P.P.P.P.P.P.P.P.P.P.P.P.P.P.P.P.P.P.P.P.P.P.P.P.P.P.P.P.P.P.P.P.P.P.P.P.P.P.P.P.P.P.P.P.P.P.P.P.P.P.P.P.P.P.P.P.P.P.P.P.P.",
"P.P.P.P.P.P.P.P.P.P.P.P.P.P.P.P.P.P.P.P.P.P.P.P.P.P.P.P.P.P.P.P.P.P.P.P.P.P.P.P.P.P.P.P.P.P.P.P.P.P.P.P.P.P.P.P.P.P.P.P.P.P.P.P.",
"P.P.P.P.P.P.P.P.P.P.P.P.P.P.P.P.P.P.P.P.P.P.P.P.P.P.P.P.P.P.P.P.P.P.P.P.P.P.P.P.P.P.P.P.P.P.P.P.P.P.P.P.P.P.P.P.P.P.P.P.P.P.P.P.",
"P.P.P.P.P.P.P.P.P.P.P.P.P.P.P.P.P.P.P.P.P.P.P.P.P.P.P.P.P.P.P.P.P.P.P.P.P.P.P.P.P.P.P.P.P.P.P.P.P.P.P.P.P.P.P.P.P.P.P.P.P.P.P.P.",
"P.P.P.P.P.P.P.P.P.P.P.P.P.P.P.P.P.P.P.P.P.P.P.P.P.P.P.P.P.P.P.P.P.P.P.P.P.P.P.P.P.P.P.P.P.P.P.P.P.P.P.P.P.P.P.P.P.P.P.P.P.P.P.P.",
"P.P.P.P.P.P.P.P.P.P.P.P.P.P.P.P.P.P.P.P.P.P.P.P.P.P.P.P.P.P.P.P.P.P.P.P.P.P.P.P.P.P.P.P.P.P.P.P.P.P.P.P.P.P.P.P.P.P.P.P.P.P.P.P.",
"P.P.P.P.P.P.P.P.P.P.P.P.P.P.P.P.P.P.P.P.P.P.P.P.P.P.P.P.P.P.P.P.P.P.P.P.P.P.P.P.P.P.P.P.P.P.P.P.P.P.P.P.P.P.P.P.P.P.P.P.P.P.P.P.",
"P.P.P.P.P.P.P.P.P.P.P.P.P.P.P.P.P.P.P.P.P.P.P.P.P.P.P.P.P.            P.P.P.P.P.P.P.P.P.P.P.P.P.P.P.P.P.P.P.P.P.P.P.P.P.P.P.P.P.",
"P.P.P.P.P.P.P.P.P.P.P.P.P.P.P.P.P.P.P.P.P.P.P.P.P.P.P.P.P.5 6 5 5 6 5 P.P.P.P.P.P.P.P.P.P.P.P.P.P.P.P.P.P.P.P.P.P.P.P.P.P.P.P.P.",
"P.P.P.P.P.P.P.P.P.P.P.P.P.P.P.P.P.P.P.P.P.P.P.P.P.P.      V.H.D.D.F.V.      P.P.P.P.P.P.P.P.P.P.P.P.P.P.P.P.P.P.P.P.P.P.P.P.P.P.",
"P.P.P.P.P.P.P.P.P.P.P.P.P.P.P.P.P.P.P.P.P.P.P.P.P.P.6 6 6 F.K.K.K.K.F.N j N P.P.P.P.P.P.P.P.P.P.P.P.P.P.P.P.P.P.P.P.P.P.P.P.P.P.",
"P.P.P.P.P.P.P.P.P.P.P.P.      P.P.P.P.P.P.P.P.o #   j.B.M.J.L.L.L.L.L.H.J.B.  & . P.P.P.P.P.P.P.P.      P.P.P.P.P.P.P.P.P.P.P.P.",
"P.P.P.P.P.P.P.P.P.P.P.P.= = = P.P.P.P.P.P.P.P.# $   b.S.V.J.J.L.L.L.J.J.K.V.  & . P.P.P.P.P.P.P.P.= ; = P.P.P.P.P.P.P.P.P.P.P.P.",
"P.P.P.P.P.P.P.P.P.o   8 c v y     P.P.P.P.P.P.. #   b.V.V.J.K.L.L.L.J.B.S.b.  % . P.P.P.P.P.P.    y v c 8   + P.P.P.P.P.P.P.P.P.",
"P.P.P.P.P.P.P.P.P.o   3 c c y = < : P.P.P.P.P.; >   j.N.n.H.J.J.J.K.J.n.B.j.  2 @ P.P.P.P.P.: < = y c c 8   o P.P.P.P.P.P.P.P.P.",
"P.P.P.P.P.P.P.P.P.o . ; 0 3 y v b r     P.P.P.      d.h.g.N.V.V.J.K.J.h.h.d.  X   P.P.P.    t v v y 3 0 =   o P.P.P.P.P.P.P.P.P.",
"P.P.P.P.P.P.P.P.P.. . * 8 1 y h c t , 1 , P.P.i p 9 a.f.s.M.B.B.J.K.G.s.s.a.9 p e P.P.: 1 , y c c r 1 8 = . . P.P.P.P.P.P.P.P.P.",
"P.P.P.P.P.P.P.P.P.o   ; 0 8 8 8 < d v v e     F Q E  .@.@.n.A.V.L.K.H.#.O. .E Q F     e b v s 1 8 8 8 0 ;   . P.P.P.P.P.P.P.P.P.",
"P.P.P.P.P.P.P.P.P.o . * 0 8 8 8 1 y c h 8 .   G ~ W ] O.O.c.m.m.Z.G.C.O.O.] W ~ G   . 0 c g y 3 8 8 8 0 *   o P.P.P.P.P.P.P.P.P.",
"P.P.P.P.P.P.P.P.P..   ; 0 8 8 8 8 8 1 8 , =   G ~ E ] [ @.:.>.:.-.-.-.[ @.] W W G   = , 8 1 8 8 8 8 8 8 ; . . P.P.P.P.P.P.P.P.P.",
"P.P.P.P.P.P.P.P.P.o   ; 8 8 8 8 8 0 8 8 , =   G Q W ] O.O.5.q.8.8.q.5.[ ..] W Q G   = , 0 8 8 8 8 8 8 8 =   o P.P.P.P.P.P.P.P.P.",
"P.P.P.P.P.P.P.P.P.o . * 8 8 8 8 8 8 0 0 < -   G ~ W ] @.[ 5.9.9.8.8.5.O.[ ] W ~ G   - , 0 0 0 8 8 8 8 8 ; . o P.P.P.P.P.P.P.P.P.",
"P.P.P.P.P.P.P.P.P.. . ; 8 8 8 8 q 1 < < < < O F W E ] [ [ 5.8.8.8.9.5.[ @.] E Q G @ < < < < 3 0 0 8 8 8 =   . P.P.P.P.P.P.P.P.P.",
"P.P.P.P.P.P.P.P.P.o   ; q 0 8 8 0 :   +       G / ~ ] [ [ 5.8.8.9.9.5.O.O.] Q ( G       o   : 0 8 0 0 q ; . o P.P.P.P.P.P.P.P.P.",
"P.P.P.P.P.P.P.P.P.o   ; < , 1 8 0 : +   k J M A S S ' #.[ 5.9.8.8.8.5.O.O.' A S A M D k   + , 0 3 3 , < @   o P.P.P.P.P.P.P.P.P.",
"P.P.P.P.P.P.P.P.P.P.P.P..   : 0 q =     I $.@.z     ! [ [ 8.9.0.8.8.5.[ O.!     z +.+.I     * 0 0 :   . P.P.P.P.P.P.P.P.P.P.P.P.",
"P.P.P.P.P.P.P.P.P.P.P.P.o . * < = y n g } =.=.m   : ! O.[ =.=.=.8.9.5.[ @.! :   C *.=.} g n y ; < * o o P.P.P.P.P.P.P.P.P.P.P.P.",
"P.P.P.P.P.P.P.P.P.P.P.P.      @   n ( R 1.0.0.C     ! #.@.] ] [ 8.9.5.@.$.!     C 0.0.*.R ( Z   +       P.P.P.P.P.P.P.P.P.P.P.P.",
"P.P.P.P.P.P.P.P.P.o P.1 r r 8 ;   D ] ~ *.9.9.X.Y { K J K ] [ ..8.9.5.J J K { Y X.8.9.*./ ' D   ; 0 r t < P.+ P.P.P.P.P.P.P.P.P.",
"P.P.P.P.P.P.. o . +   q Z Z y     D @.] =.9.8.9.r.r.B     ! O...5.9.<.    V r.9.r.8.8.1.] +.D     y Z Z q   o o o . P.P.P.P.P.P.",
"P.P.P.P.P.P.P.P.. .   : r e g F Z ! 3.=.5.9.9.8.8.9.C o w ' @.@.8.9.<.w o C 8.8.8.8.9.5.=.3.} Z F g e r :   o . P.P.P.P.P.P.P.P.",
"P.P.P.P.P.P.P.P.P.o O       g ~ R &.0.8.7.:.6.8.8.8.x     ! O...8.0.<.    x 9.9.8.:.6.7.9.9.%.R ~ g       O . P.P.P.P.P.P.P.P.P.",
"P.P.P.P.P.P.P.P.P.+   e F A T ' ^ &.9.6.u.l.l.e.7.8.o.X.X.1.1.1.8.8.5.X.| o.8.8.t.k.l.u.7.9.*.^ ] U A F e   + P.P.P.P.P.P.P.P.P.",
"P.P.P.P.P.P.P.P.P.    y ~ Q ) $.[ *.q.6.l.v.v.y.:.8.7.7.7.7.7.7.6.5.7.7.7.7.7.-.y.v.v.l.4.9.=.[ $._ W ( p     P.P.P.P.P.P.P.P.P.",
"P.P.P.P.P.P.@   e F S U ] ' ] [ [ $.*.#.w.u.y.p.l.l.l.l.l.l.l.l.l.l.l.l.l.l.l.z.p.y.u.w.#.*.#.[ O.' ' ' U S G e   O P.P.P.P.P.P.",
"P.P.P.P.P.P.@   y ~ Q ) @.O.[ [ [ ] ` ] =.6.-.z.v.x.x.x.x.x.x.x.x.x.x.x.x.x.x.v.l.-.>.=.] ] ] [ [ O.O.O._ Q / p   @ P.P.P.P.P.P.",
"P.P.P.P.P.P.@   r W E ~ @.[ [ [ [ ....[ %.&.%.w.t.t.t.t.t.t.t.t.t.t.t.t.t.t.t.u.w.%.&.%.[ ..[ [ [ [ [ [ ~ E W r   O P.P.P.P.P.P.",
"P.P.P.P.P.P.    e ~ E ~ #.[ @.O.O...[ O.[ [ ] ;.6.6.6.6.6.6.6.6.6.6.6.:.6.6.:.6.;.] ] [ O.O.O.O.[ O.O.@.) E W e     P.P.P.P.P.P.",
"P.P.P.+   0 P P U W Q P a k k k k k k u L ) ~ ..%.%.%.%.%.%.%.%.%.%.%.%.%.%.%.%...~ ) L u k k k k k k a P Q W T P P w   O P.P.P.",
"P.P.P.+   w W Q Q E Q G             .   Z Q E ^ [ [ ] [ ] [ ] [ ] [ [ ] [ [ ] [ ' R Q Z   .             F Q E Q ~ W e   + P.P.P.",
"P.P.P.+   0 W Q P 0 r 7 @ - : 1 , y g g y e w P / ~ ~ ~ ~ ~ ~ ~ ~ / ~ ~ ~ ~ ~ _ P 8 r p g h t < 7 , - O 8 r q P Q E q   o P.P.P.",
"P.P.P.+   0 E ~ P   o O < , 1 e 8 g b b e     S W E E E E R E E E E E E E E E E S     e Z v f 8 e 1 : < O o   G Q E w   + P.P.P.",
"P.P.P.+   w Q Q P < 1 r h d A R E E E W l   * 3 e e b Z Z Z Z Z Z Z Z Z Z v e e w @   l W E E E E A d h r 1 < T / W e   + P.P.P.",
"P.P.P.o   0 E Q G 8 8 s Z v G W E W E W l   @       s h g h g h g h h g h s       @   g Q E E E W G v Z y 8 q G E T 0   + P.P.P.",
"P.P.P.P.P.P.3 1 e c h A E W A = 8 1 3 3 : . . = : : < < < < < 1 , : , < < < : : = . . ; 3 3 1 8 = A W E A h c e 1 3 P.P.P.P.P.P.",
"P.P.P.P.P.P.    : c g S Q Q S   O .   . . . . @ = - - - - O o O       + O O = = - . . . . . . o   S ~ ~ S g h :     P.P.P.P.P.P.",
"P.P.P.P.P.P.P.P.P.,   f Q Q S   , = ; : @ . . < 0 8 8 0 8 @ o O P.P.P.+ o * 8 8 <   . @ = = = ,   S Q W g   , P.P.P.P.P.P.P.P.P.",
"P.P.P.P.P.P.P.P.P.;   p W Q S   : = = = @ .   < 0 8 8 8 8 O . . P.P.P.. . @ 8 8 < . . O = = = ,   S Q W f   = P.P.P.P.P.P.P.P.P.",
"P.P.P.P.P.P.P.P.P.@   f Q ~ S   - o O o o o . < 0 8 8 8 8 @ . . P.P.P.o . * 0 q 1 . . . o o o -   S ~ Q f   @ P.P.P.P.P.P.P.P.P.",
"P.P.P.P.P.P.P.P.P.+   y R E Z , 7 7 7 7 = . . < 8 8 8 8 8 O . . P.P.P..   * 1 1 , . . = 7 7 7 8 , Z E E p   O P.P.P.P.P.P.P.P.P.",
"P.P.P.P.P.P.P.P.P.+   8 v v c c c c c v q   . 1 q 8 q 8 w O . . P.P.P.P.P.P.. . . o   e v c c c c c c v 8   + P.P.P.P.P.P.P.P.P.",
"P.P.P.P.P.P.P.P.P.o   8 c c c v v v c v e   . < 8 8 1 < < + . . P.P.P.P.P.P.. . . o   e v c v v c c c c 8   o P.P.P.P.P.P.P.P.P.",
"P.P.P.P.P.P.P.P.P.+   8 v v v c c c c b e   . < 0 0 = . . P.P.P.P.P.P.P.P.P.P.P.P.O   e v v c c c v v Z 8   + P.P.P.P.P.P.P.P.P.",
"P.P.P.P.P.P.P.P.P.o   1 g g h v c h g g 8   . : 1 1 @   . P.P.P.P.P.P.P.P.P.P.P.P.o   8 h g h c v h d g 1   o P.P.P.P.P.P.P.P.P.",
"P.P.P.P.P.P.P.P.P.o . * 8 1 y v Z s < w : . o . . . P.P.P.P.P.P.P.P.P.P.P.P.P.P.P.o   ; 8 < d v Z t < 8 *   o P.P.P.P.P.P.P.P.P.",
"P.P.P.P.P.P.P.P.P..   * 1 , e g d r < 1 =   o . . . P.P.P.P.P.P.P.P.P.P.P.P.P.P.P.. . = 7 < r g d r < 1 * . . P.P.P.P.P.P.P.P.P.",
"P.P.P.P.P.P.P.P.P.P.P.P..   ; 8 8 < - - + . o P.P.P.P.P.P.P.P.P.P.P.P.P.P.P.P.P.P.o . O - - , 8 7 =     P.P.P.P.P.P.P.P.P.P.P.P.",
"P.P.P.P.P.P.P.P.P.P.P.P.. . * < < : O - o . . P.P.P.P.P.P.P.P.P.P.P.P.P.P.P.P.P.P.. . o @ O : < < = . o P.P.P.P.P.P.P.P.P.P.P.P.",
"P.P.P.P.P.P.P.P.P.P.P.P.o . . .   . . . P.P.P.P.P.P.P.P.P.P.P.P.P.P.P.P.P.P.P.P.P.P.P.P.. . . . . . . o P.P.P.P.P.P.P.P.P.P.P.P.",
"P.P.P.P.P.P.P.P.P.P.P.P.. . . . . . . . . P.P.P.P.P.P.P.P.P.P.P.P.P.P.P.P.P.P.P.P.P.P.    . . . . . . . P.P.P.P.P.P.P.P.P.P.P.P.",
"P.P.P.P.P.P.P.P.P.P.P.P.P.P.P.P.P.P.                                                        P.P.P.P.P.P.P.P.P.P.P.P.P.P.P.P.P.P.",
"P.P.P.P.P.P.P.P.P.              P.                                                            P.              P.P.P.P.P.P.P.P.P.",
"P.P.P.P.P.P.P.P.P.                                                                                            P.P.P.P.P.P.P.P.P.",
"P.P.P.                                                                                                                    P.P.P.",
"P.P.P.                                                                                                                    P.P.P.",
"                                                                                                                                ",
"                                                                                                                                ",
"                                                                                                                                ",
"                                                                                                                                ",
"P.P.P.                                                                                                                    P.P.P.",
"P.P.P.                                                                                                                    P.P.P.",
"P.P.P.P.P.P.P.P.P.                                                                                            P.P.P.P.P.P.P.P.P.",
"P.P.P.P.P.P.P.P.P.                                                                                            P.P.P.P.P.P.P.P.P.",
"P.P.P.P.P.P.P.P.P.P.P.P.P.P.P.P.P.                                                            P.P.P.P.P.P.P.P.P.P.P.P.P.P.P.P.P.",
"P.P.P.P.P.P.P.P.P.P.P.P.P.P.P.P.P.P.                                                        P.P.P.P.P.P.P.P.P.P.P.P.P.P.P.P.P.P.",
"P.P.P.P.P.P.P.P.P.P.P.P.P.P.P.P.P.P.P.P.P.P.P.P.P.P.P.P.P.P.P.P.P.P.P.P.P.P.P.P.P.P.P.P.P.P.P.P.P.P.P.P.P.P.P.P.P.P.P.P.P.P.P.P."
};
