/* XPM */
static char *result[] = {
/* columns rows colors chars-per-pixel */
"64 64 40 1 ",
"  c black",
". c #353535",
"X c #490905",
"o c #511D0B",
"O c #6D0D08",
"+ c #51350B",
"@ c #792C10",
"# c #793F10",
"$ c #795110",
"% c gray25",
"& c #4C4C4C",
"* c #515151",
"= c #555555",
"- c gray38",
"; c #717171",
": c gray47",
"> c gray50",
", c #DB1A11",
"< c #E12A15",
"1 c #E63919",
"2 c #EC491D",
"3 c #F25921",
"4 c #F26B21",
"5 c #F27D21",
"6 c #F27E21",
"7 c #F29021",
"8 c #F29F21",
"9 c #F2A221",
"0 c #F2B121",
"q c #F2C121",
"w c #F2E021",
"e c #808080",
"r c gray64",
"t c gray72",
"y c #C3C3C3",
"u c gray89",
"i c #F1F1F1",
"p c #F8F8F8",
"a c white",
"s c None",
/* pixels */
"ssssssssssssssssssssssssssssssssssssssssssssssssssssssssssssssss",
"ssssssssssssssssssssssssssssssssssssssssssssssssssssssssssssssss",
"ssssssssssssssssssssssssssssssssssssssssssssssssssssssssssssssss",
"ssssssssssssssssssssssssssssssssssssssssssssssssssssssssssssssss",
"ssssssssssssssssssssssssssssssssssssssssssssssssssssssssssssssss",
"ssssssssssssssssssssssssssssssssssssssssssssssssssssssssssssssss",
"ssssssssssssssssssssssssssssssssssssssssssssssssssssssssssssssss",
"ssssssssssssssssssssssssssssssssssssssssssssssssssssssssssssssss",
"ssssssssssssssssssssssssssssssssssssssssssssssssssssssssssssssss",
"ssssssssssssssssssssssssssssssssssssssssssssssssssssssssssssssss",
"ssssssssssssssssssssssssssssssssssssssssssssssssssssssssssssssss",
"ssssssssssssssssssssssssssssssssssssssssssssssssssssssssssssssss",
"ssssssssssssssssssssssssssssssssssssssssssssssssssssssssssssssss",
"ssssssssssssssssssssssssssssssssssssssssssssssssssssssssssssssss",
"ssssssssssssssssssssssssssssssssssssssssssssssssssssssssssssssss",
"ssssssssssssssssssssssssssssssssssssssssssssssssssssssssssssssss",
"ssssssssssssssssssssssssssssssssssssssssssssssssssssssssssssssss",
"ssssssssssssssssssssssssssssssssssssssssssssssssssssssssssssssss",
"ssssssssssssssssssssssssssssssssssssssssssssssssssssssssssssssss",
"ssssssssssssssssssssssssssssssssssssssssssssssssssssssssssssssss",
"ssssssssssssssssss           ssssss          sssssssssssssssssss",
"sssssssssssssssss o@$#@$#@$#@      $#@$#@$#@$+ sssssssssssssssss",
"sssssssssssssssss @3953953953      9539539539$ sssssssssssssssss",
"sssssssssssssss  35995399935935935935935931,31,  sssssssssssssss",
"sssssssssss   s  555975q093455555553453451111<,  s   sssssssssss",
"sssssssssss   s  953999wq9333953953333333,13,,,  s   sssssssssss",
"sssssssss  aaa ss $933399933399995395395331,,O s  aaa ssssssssss",
"ssssssss =eaaae=  #5345q09345q09555543543111,O  =eaaae= ssssssss",
"ssssssss eaaaaa>  @3359wq9359wq9359333333,13,O  eaaaaae ssssssss",
"ssssssss ea eauiau; 3339qw99995399995331,31, ;uaaaa> ae ssssssss",
"ssssssss %eetiiiiy- 54358q9755555799753211<, :iipaitee% ssssssss",
"ssssssss   aiuaiur* 953359953359359999333,,, eauiauia   ssssssss",
"ssssssss ea eauyru; 33395336933395395331,31, ;uryuae a> ssssssss",
"ssssssss :ietiyyyy- 6435553453335435433211<, -yyyyitei: ssssssss",
"ssssssss ;uaiuryur* 953359333333333333333,,, *ruyruiau; ssssssss",
"ssssssss *ruyru;  $933333333331,31,33331,31,,O  ;uryur* ssssssss",
"ssssssss .*yyy;&  #53331231231111111231111<,,O  &;yyy*. ssssssss",
"sssssssss  ryu  s @3333,13,13,13,13,13,13,,,,O s  uyr  sssssssss",
"sssssssssss   sss O,31,31,31,31,,,,,,,31,,,,,O sss   sssssssssss",
"sssssssssss   ssssXO1111<,1<,1<,,,,,,,1<,,,,OX sss   sssssssssss",
"ssssssssssssssssss  ,13,,,,,,,,,,,,,,,,,,,,,  ssssssssssssssssss",
"ssssssssssssssssssss O,,,,,,,,O  O,,,,,,,,O ssssssssssssssssssss",
"ssssssssssssssssssss XOOOOOOOOX  XOOOOOOOOX ssssssssssssssssssss",
"sssssssssssssssssssss          ss          sssssssssssssssssssss",
"ssssssssssssssssssssssssssssssssssssssssssssssssssssssssssssssss",
"ssssssssssssssssssssssssssssssssssssssssssssssssssssssssssssssss",
"ssssssssssssssssssssssssssssssssssssssssssssssssssssssssssssssss",
"ssssssssssssssssssssssssssssssssssssssssssssssssssssssssssssssss",
"ssssssssssssssssssssssssssssssssssssssssssssssssssssssssssssssss",
"ssssssssssssssssssssssssssssssssssssssssssssssssssssssssssssssss",
"ssssssssssssssssssssssssssssssssssssssssssssssssssssssssssssssss",
"ssssssssssssssssssssssssssssssssssssssssssssssssssssssssssssssss",
"ssssssssssssssssssssssssssssssssssssssssssssssssssssssssssssssss",
"ssssssssssssssssssssssssssssssssssssssssssssssssssssssssssssssss",
"ssssssssssssssssssssssssssssssssssssssssssssssssssssssssssssssss",
"ssssssssssssssssssssssssssssssssssssssssssssssssssssssssssssssss",
"ssssssssssssssssssssssssssssssssssssssssssssssssssssssssssssssss",
"ssssssssssssssssssssssssssssssssssssssssssssssssssssssssssssssss",
"ssssssssssssssssssssssssssssssssssssssssssssssssssssssssssssssss",
"ssssssssssssssssssssssssssssssssssssssssssssssssssssssssssssssss",
"ssssssssssssssssssssssssssssssssssssssssssssssssssssssssssssssss",
"ssssssssssssssssssssssssssssssssssssssssssssssssssssssssssssssss",
"ssssssssssssssssssssssssssssssssssssssssssssssssssssssssssssssss",
"ssssssssssssssssssssssssssssssssssssssssssssssssssssssssssssssss"
};
