/* XPM */
static char *result[] = {
/* columns rows colors chars-per-pixel */
"64 64 73 1 ",
"  c #007F00",
". c #008500",
"X c #028800",
"o c #0B8900",
"O c #00850C",
"+ c #0D880C",
"@ c #128B00",
"# c #1C8D00",
"$ c #148A0C",
"% c #008611",
"& c #098711",
"* c #128911",
"= c #1A8A11",
"- c #218F00",
"; c #218E0C",
": c #259100",
"> c #2B9300",
", c #2B920C",
"< c #319600",
"1 c #359900",
"2 c #3B9C00",
"3 c #32950C",
"4 c #36980C",
"5 c #289011",
"6 c #409F00",
"7 c #409E0C",
"8 c #43A100",
"9 c #4DA300",
"0 c #4EA900",
"q c #53A600",
"w c #56A900",
"e c #5CAD00",
"r c #5CAB0C",
"t c #5EB000",
"y c #5EAD11",
"u c #60AF00",
"i c #62B200",
"p c #67B800",
"a c #69BC00",
"s c #60AD18",
"d c #69AC3B",
"f c #71C600",
"g c #75CA00",
"h c #79CE00",
"j c #76CA0C",
"k c #79CC0C",
"l c #7ED300",
"z c #7ED800",
"x c #7ED20C",
"c c #7CCF11",
"v c #7DD110",
"b c #468D47",
"n c #498F47",
"m c #4C9247",
"M c #509647",
"N c #549A47",
"B c #5C925C",
"V c #60975C",
"C c #6FAD49",
"Z c #75AC57",
"A c #76AB5C",
"S c #78AC5C",
"D c #7DC447",
"F c #80D500",
"G c #82D800",
"H c #80D50C",
"J c #80D411",
"K c #81AB6D",
"L c #81C747",
"P c #87CE47",
"I c #89D047",
"U c #8AC75C",
"Y c #8CCA5C",
/* pixels */
"PzHFFFFF<.XXwueelFFFFllFFFFFFFlFFFFFFlFl:.X@wueuhFFFFFFlFFFFFFFF",
"PzHllFFl<.oXwueehFFFFFFFFFFlFFFFFFFlFlFh>.X@weeulFFFFFFFFlFlllFl",
"PzHFFFFF<.XXqueulFFFFFFFhFFFFFFFlFFFFFFl-.XXeuuuhFFFFlFFFFFFFFFF",
"Llxhlhlh<.XXqeeegllllFFFFFFFFlFFFFFFFFFl1--:wwwehFlhFFFFhlhllhlh",
"mX;#####oXX.qeeeeuuilFFFFFFFFFFFFFFFFFlFhllg>X@#eiuilFFl<@######",
"bXOXXX..XXXXeueueeeehFllFFlFlFlFFFFlFFFFFFFF:.X@wueehFFh-.XXXXXX",
"bX+XXXXXXXXXqueuuueulFFFFFFFFFFFhFFFFFFFFFFh-.XXeuuulFFl#.X..XX.",
"bX+XXXXXXXX.qeeqwewwglhhhFlllhllFFFFFlFFFFFF1-->wwwelFFh<->:->--",
"bX+XXXXXX.XX@o@oo@@o####eueuueuuhFFFFFlFFFlFhllh:Xo-hFlFllllhlll",
"bX+XXXXXXXXXXX.XX..XX..XweeeeeeeFFlFFFFFFFFFFFFF:.X#lFFFzFFFFFzF",
"b.O.X.......XXXXXXXXXXXowuuueeuulFFFFFFFFFFFlFFl-.X@hFlFlFlllllF",
"M@,:>::>>:>:oXXXXXXXXXXXqewwewwwgllhlFFFFlFFFFFh1:-<lFlFFFFFFFFF",
"PzxlllllFhFh>.XXXXXXXXXXooooo@o@eueulFFFFFFFFFFFFFhFFFFFFFFFFFFF",
"PFHFFFlFFFFF<.XXXX.XXX.XXXXXXXXowueuhFFFllFFFFlFFFFFzFlFFFFFFFFF",
"PlHFlFlFFlFF<.oX.XX.XXXX.XX.....wueeFGFFFFFGFFFFFFFFFGFFFFFFFFFl",
"PzHFFFFFFFFF>.XX####XXXX####>>:<eiuighhhhFhhlFFFFFFFhhhhhlhhlFFF",
"PzHlFFFFFFFh<.XXweew-XXXweeehFFhlFFl>X@#eeeulFFFFFFh>o@#wuuuFFFF",
"PzHzlFFlFFFF1.oowuue-.XowueehFFFFFFF:.XowueuhFFFhFFF-.XowewuhFFF",
"PFHGFFFFFFFF> X.qeee-XXXwueeFFFFFhFh: XXwuuuFFFFGGFF-XX@euuuFFFF",
"LhkhhlhlhFFF6:<>uiui-.XXwwwwgFhFFFFF2>><wwwwghhggggg-.XowwwegFhh",
"nX$owueehGFFFhFFllFl>.XXooX@wueuhFFFllFh>.oooo@o@oooXXXXXoX#euee",
"n.+XwueehGFFFFFFFFFl<.ooXXXowueeFFFFFFFl>XXXX.X.XX.XXXXXXX.@euee",
"b O.wuuehGFFFFFFFlFF> .....XweeuhFlFFFFh- ..XXXXXXXXXXXXX..owuee",
"N:3<qwwwgFhFhhhhFFFl6><>><>1uiuulFFFFFFF2><<XXXXXXXXXXXX#--:uiii",
"Plxz1.oXwueeeueuhGFFFFFlFllFFhFFFFFFFFlFFlFl-XoXXXXXXX.@wueehFFF",
"PzHz< XXweeeeeeehFlFFFFFFFFFFFFFFFFlFFFFFFFh:XXXXXXXXoX@wueuFFFF",
"IGHF1.XXwueuuuuuhGFFGFFFFllFFFFFFFFFFFFFFGFl:.XX........wueuhFlF",
"Dgkg<.XXqwwwwwqwglhhhhhhlFFFFFFFFFFFFFFlhggg-XXX----<<<1uiupFFFF",
"mX+XXXXXXXXXXXXXwueeeeeuhFFFFFFFFFFFhFFh:XoXXX.@wueuFFFFFFlFFFFF",
"bX$XXXoXoXoXXXXowueeeeeehFFFFFFFFFFFFFFF>.XXXXX@wueuhFFFhFFFFFlF",
"b.O...... ......wuuuuuuuFGGGFFFGFFFFGFFF:.oX.X.XwewuFFFFFFFFFFFF",
"N:411111111<1111wwqwqwqwghhhhhhhlFFFgggg-.XX--->iiiphFFFFFFFlFFF",
"PzHFFFFFFFFFFFFF<.XXXXXoqeeeueeehFFl:.XX.XXowueuhFFFFFFFFFFFFFFF",
"PFHFhFFFFFFFFFFF<.ooXXXXqueueeeulFFl>.oXooX@wuuulFFFFFFhFFFFFFFF",
"PlHFGFGFFFFFFhFh- ...XXoeuuueeeehFFl- ......wueulFFFGFGFFFFGFFFF",
"PzHFgggghhhhFFFF8111oXXXqqqqeeeulFFl61111111uiiihFFlgggghhhhhFFF",
"PzHF<.X.queeFFFFFFFF<.XX.X.XwueehFFFGFFFFFFFlFFFFFFl-.XoweeuFFFF",
"PFHF1.oowueehFFFFFFF<XooooX@weeuhFFFFFFFFFFFFFFFlFFl-.X@eeeuhFFF",
"PzHF> ..wuuuFFFFFFFl: .. ...euuuFFFFFFFFFFlFFFFFFFGF-XX@euuuFFFF",
"PlHF9<21qqqqghhhlFFl61212211qqqwghhFhhhghFFFFFFFgggf-XXoqqqeghhh",
"PzHFFFFF<.XXwueehFFFFFFFFFFF>.XXeueeeeeehFFFFlFl-...XXXX...oweee",
"PzxFFzFF1 XXweeuhFFFFFFFFFFh>..oqueueeeeFFlFFFFh-X@oXXoXXoX#eeee",
"PGHFFlFz1.XXwuuuFGFGFFFFFGGF>.XoeuueuuuuFGFFFFGh# .. ... . Xeuue",
"DfjglFFF<.XX9qqqghghhFFFgggf:XXo9qqqqqqwghhgFFFh622122222222qqqq",
"b.OXgFFF<.oXX.XXqeeehFFl:...XXXX ..XX.XXwueehFFFFFFFFFFFFFFl-.XX",
"bX+XgFFF<XooXXXXweeeFFFl<X@oXoXoooooXXXowueuhFFFFFFFFlFlFzFh-Xoo",
"bX+XhGFF> . .X.oeuuuFGFF- ...  .. ..XX.oeuuuGGFGFGFFFFFFFFFl@  .",
"bX+Xagfg8222@XXo6qqwghgg826222622222oXXo9qqqfgfghhhglFFFFlFl8222",
"bX+X....gGGF1.XXX..XweeeFFFFFFFFFFFF:.XX.X.X...XweeehFFFFFFFFFFF",
"bX$XoXXXgGhF<.XXXXXXweuuhFFFFFFFFFFl>Xooooooooo@eueuFFFFFFFFlFlF",
"b.O XXXXhGGF<.oXXXXXeiuuFGFFFFFFFFGF-  .. ...  XwueehFhFFFFFFFFF",
"N272@XXXaggf:.XXXXXX6qqqafffghhghggg926622262666ipipFFFFFFFFFFFF",
"IFHF1XXX.....XXXXXXXX...X...queeeeeeFGFFGFGGFGFFGFFFFFFFFFFFFFFF",
"PzHl1.oo@oooooXoXXX.XXXXXoXoqueueeeuhFFFFFFFllFFFFFFFlFFhFFFllFl",
"PzHF> X. . ..  .XXXXXXXXXXXoeuuueeeuFFGGGGFFFFFFFFFFFGGGGGFGGGFF",
"PzHF926666666666@.XXXXXXXXXX9q9qqqqwghghghgglFFFFFFlfffffffgghgg",
"PzHFGFFFFFGGFFGF>.XXXXXXXXXX...X.X.XweweeweelFFFFlll# ......weee",
"PlHFFFFzFFFhFFFF<X@ooXoooXooXXXXXXXoweeeeteelFFFFzFl>X@o@@o#eeee",
"PFHFFFFFFFFFFlFl: .... .. . XXXXXXXoweuueewtlGFGFlFl@ X.  .Xeuue",
"LgkgFFFFFFFFFFFFq66866666666@XXXXX.o9qqqeeetggghlFFz928866669qq9",
"CwrelFlFFFzzFFFFFGFGGGFFGFGF<XXXXXXXX..XwttteewtlFFFGGGGGGGl# X.",
"CesyvJvJvJJvJJJJJvJJJJJvJJJJ5%****&****=yyyyyyyycJJJvvvJvJvv5&=*",
"d0wtgzzzzzzzllllzzzzzzzzzzzloXXX..X..X.X0twwwtwtlzzzlzzzzzzlX...",
"KZAAUYYYYYYYYYYYYYUYYYYYYYYUVBBBBBBBBBBBASSAAAASUYYYYYYYYYYYBBBB"
};
