/* XPM */
static char *result[] = {
/* columns rows colors chars-per-pixel */
"64 64 241 2 ",
"   c #020803",
".  c #00000D",
"X  c #021B00",
"o  c #08140A",
"O  c #18100F",
"+  c #0B1810",
"@  c #131C11",
"#  c #072000",
"$  c #0B2200",
"%  c #132505",
"&  c #192D00",
"*  c #113109",
"=  c #162111",
"-  c #192414",
";  c #142C11",
":  c #1E2B13",
">  c #193414",
",  c #27250F",
"<  c #243800",
"1  c #232511",
"2  c #212E13",
"3  c #222E18",
"4  c #332811",
"5  c #253314",
"6  c #293515",
"7  c #273A17",
"8  c #2B3B17",
"9  c #243219",
"0  c #283519",
"q  c #2C3C19",
"w  c #383816",
"e  c #4F1F15",
"r  c #7C0D11",
"t  c #7C1512",
"y  c #7C1C13",
"u  c #4E2F16",
"i  c #473816",
"p  c #7D2415",
"a  c #792B17",
"s  c #7D2B16",
"d  c #7D3719",
"f  c #2D4300",
"g  c #334A01",
"h  c #2E421A",
"j  c #2E4C1B",
"k  c #33441A",
"l  c #3A441C",
"z  c #35491B",
"x  c #3A4D1C",
"c  c #3E531C",
"v  c #3D4A21",
"b  c #2B5724",
"n  c #3D5524",
"m  c #335825",
"M  c #3E5925",
"N  c #454A1C",
"B  c #544C1E",
"V  c #41551D",
"C  c #46591E",
"Z  c #5C761C",
"A  c #444621",
"S  c #414C23",
"D  c #445225",
"F  c #425C25",
"G  c #4A5B27",
"H  c #465B29",
"J  c #585625",
"K  c #655626",
"L  c #466127",
"P  c #4A6425",
"I  c #4E6A25",
"U  c #45632A",
"Y  c #4B6529",
"T  c #476A2B",
"R  c #4C6A2A",
"E  c #4E6E2E",
"W  c #526D24",
"Q  c #53642B",
"!  c #566729",
"~  c #526C2C",
"^  c #54732B",
"/  c #577728",
"(  c #5A762C",
")  c #5B7B2D",
"_  c #5D7532",
"`  c #5C7B33",
"'  c #64792C",
"]  c #71732D",
"[  c #647936",
"{  c #647D36",
"}  c #6D7D39",
"|  c #424541",
" . c #454B42",
".. c #484F42",
"X. c #4A5242",
"o. c #4E5943",
"O. c #515E44",
"+. c #536144",
"@. c #6A7D49",
"#. c #820712",
"$. c #831413",
"%. c #821B14",
"&. c #8B1917",
"*. c #921B18",
"=. c #822315",
"-. c #882617",
";. c #843718",
":. c #93311B",
">. c #EC1E30",
",. c #DA3B2F",
"<. c #DE3A30",
"1. c #E22E2F",
"2. c #EB2A30",
"3. c #E53530",
"4. c #EB3431",
"5. c #E43C30",
"6. c #EB3C32",
"7. c #88451C",
"8. c #93411D",
"9. c #9D6924",
"0. c #9E7026",
"q. c #A06623",
"w. c #A46B25",
"e. c #AA6D26",
"r. c #A87328",
"t. c #B17429",
"y. c #DC4931",
"u. c #DB5933",
"i. c #E44331",
"p. c #EB4233",
"a. c #E44C33",
"s. c #EA4B33",
"d. c #E45334",
"f. c #EA5735",
"g. c #E45C35",
"h. c #DC7739",
"j. c #E36336",
"k. c #E76937",
"l. c #E87439",
"z. c #65851D",
"x. c #5D802F",
"c. c #5E8331",
"v. c #68892C",
"b. c #70812F",
"n. c #638434",
"m. c #688736",
"M. c #658A35",
"N. c #6B8B36",
"B. c #658239",
"V. c #69853A",
"C. c #6D8C3C",
"Z. c #738935",
"A. c #718E3C",
"S. c #7A8C3E",
"D. c #6C9333",
"F. c #6C973B",
"G. c #6C943D",
"H. c #769536",
"J. c #739C36",
"K. c #72953F",
"L. c #739C3C",
"P. c #7B9C3C",
"I. c #6EA33D",
"U. c #75A238",
"Y. c #75A13B",
"T. c #7AA43B",
"R. c #7DAB3D",
"E. c #718A4A",
"W. c #749940",
"Q. c #779D41",
"!. c #77A140",
"~. c #7AA441",
"^. c #75AD40",
"/. c #7DAC42",
"(. c #7EB041",
"). c #819C3D",
"_. c #8B9B3C",
"`. c #AF9A32",
"'. c #B59D34",
"]. c #8BB82B",
"[. c #84AD33",
"{. c #84A33F",
"}. c #83AD3B",
"|. c #8BB734",
" X c #8BB637",
".X c #8CB63C",
"XX c #B5A435",
"oX c #BCA437",
"OX c #B7AA37",
"+X c #B8A937",
"@X c #BAAA38",
"#X c #BAAC38",
"$X c #BEB23B",
"%X c #DB8C37",
"&X c #DE923A",
"*X c #E58D39",
"=X c #E98E3A",
"-X c #E4923A",
";X c #EA913A",
":X c #E49A3C",
">X c #C0B53B",
",X c #E7A23F",
"<X c #829D40",
"1X c #88A440",
"2X c #82AC42",
"3X c #84B343",
"4X c #8AB547",
"5X c #8ABB45",
"6X c #92BC46",
"7X c #8AAC51",
"8X c #8DB152",
"9X c #8FAD61",
"0X c #8CC147",
"qX c #8DC349",
"wX c #89C749",
"eX c #91C547",
"rX c #91C549",
"tX c #9CC549",
"yX c #94CB4A",
"uX c #9ACC4A",
"iX c #9CD44D",
"pX c #9ED94F",
"aX c #9FDA50",
"sX c #A3D34D",
"dX c #A1DA4F",
"fX c #A9D94F",
"gX c #A3DC51",
"hX c #ABDD51",
"jX c #A5E152",
"kX c #AAE554",
"lX c #A6E955",
"zX c #ADEC56",
"xX c #B3E554",
"cX c #B1ED57",
"vX c #ADF158",
"bX c #B2F158",
"nX c #F2EE53",
"mX c #F5F455",
"MX c #F5FB56",
"NX c #F8FB57",
"BX c #F9FF59",
/* pixels */
"9X8X8X8X8X8X8X8X8X8X8X8X+.v  . . . .| ..7X8X8X7Xo.D  . . . . . . . . . . . .| o.7X8X8X7XX. ... . . .S O.7X8X7X8X8X8X8X8X8X8X8X9X",
"8X].|.|.|.|.|.|.|.|.|.|.g   # o X X X & [. X X|.f   = # $ $ $ $ # # # # # $   f [. X|.|.& X $ $ $ %   k |. X|.|.|.|.|. X|. X].8X",
"8X|..X.X.X.X.X.X.X.X.X.Xv @ 3 3 : : - 8 }..X.X.Xv - 9 : 3 3 3 3 3 3 : 9 3 > - z  X.X.X.Xq : 3 3 3 9 @ n .X.X.X.X.X.X.X.X.X.X|.8X",
"8X|..X.X.X.X.X.X.X.X.X.Xv @ > - : : = 7 [..X.X.Xk - 9 : 2 2 2 > : : : : : : = z .X.X.X[.8 : 3 2 2 2 @ x  X.X X X.X.X.X.X.X.X|.8X",
"8X|..X.X.X.X.X.XW x c c M.D.D.D.D.J.D.D.F c c c M.D.v.D.R.}.R.R.R.3X}.R.T.U.U.L.F c c C T.}.{.T./ W ^ W D c x W .X.X.X.X X.X X8X",
"8X|..X.X.X.X.X.Xz . @ = D.U.J.J.U.T.T.U.7 . o : D.J.J.J.5X5X5X5X5X5X5X5X3XR.}.T.: o . h 3X4X5X}.) ' ' / = = . x  X.X.X.X.X.X X8X",
"8X|..X.X.X.X.X.Xc % 2 5 D.J.J.J.J.T.U.J.h = : 9 D.J.J.F.3X.X3X3X5X5X5X5X}.R.}.T.8 : - z 1X4X4X}.) ( ) W 5 > @ c .X.X.X.X X.X|.8X",
"8X|..X.X.X.X.X.Xc @ > > D.J.J.J.U.U.U.J.k : : q D.J.D.J.3X5X5X5X3X5X5X5XR.R.R.T.6 : = x 3X.X4X2X' ( ' / 5 5 = V  X.X X.X.X.X|.8X",
"8X X.X.XW c V V P I T I ^ / ^ / 5X0X5X5X5X0X6X5X~ G U E rXyXyXqXn.x.x.x.R R R P 6 5 : z L.T.P._.%X%X%X%XD.D.D.v.C V x I  X.X X8X",
"8X X.X Xc + : : I E W W T I T T 4XyXyXrXyXiXyXyXR n n U rXyXyXeX) E ^ E M n M n 6 6 2 z K.P.L._.;X=X=X-XU.J.U.D.- = . c  X.X|.8X",
"8X|..X.XV : 7 5 P I I I W T I ^ 5XyXeX0XyXyXyXyXR n n U rXyXyXyXx.T / E F n M c 5 5 2 k P.P.L._.-X;X=X&XJ.J.U.D.5 5 @ c .X.X|.8X",
"7X|. X|.C 2 7 f W / ^ ^ ^ W I ^ 4XrXrX0XyXyXyXyXR F H R 6XyXyXeXx.^ x./ L F L F h 8 6 x P.P.L._.-X-X=X*XJ.J.J.D.5 9 = V  X X|.8X",
"O.g c x v.D.D.J.dXkXkXkXpXiXiXiXh.d.g.j.Z.c.v.N.yXiXiXyXn.) ) c.wXyXyXyXyXyXyXyX0X0XwX6X&X&X-X%Xt.t.e.t.N.D.G.N.D.D.D.v.x v g +.",
"|   = @ D.U.J.J.zXbXbXbXlXjXjXjXg.>.6.3.] ^ ^ ) pXgXgXpX/ P P / iXpXiXiXpXpXsXiXyXyXyXtX;X;X=X*Xw.w.w.0.D.N.N.D.J.J.U.D.@ -   | ",
" .% 9 3 D.J.J.J.kXvXcXzXjXjXjXdXj.4.p.i.] x./ c.iXaXgXiX) I I ) yXiXiXiXiXiXiXiXyXwXwXtX-X=X=X*Xr.w.w.w.N.D.D.D.J.J.U.D.: 3 $  .",
" .$ 3 2 D.J.J.J.kXbXvXvXhXdXfXfXj.4.p.i.' x.) n.pXgXgXiX) R I / yXiXiXuXiXsXiXiXyXyXyXuX:X;X:X*Xr.w.w.r.Z.H.N.D.D.J.F.D.8 q & X.",
" .$ 3 2 5XyXeXeXgXgXgXgXh.g.j.j.:.*.*.:.hXkXkXkXzXzXcXkX^ M F F v.n.v.Z.&X:X:X:X-X:X-X,XmXNXMXnXXXXXXXoX&X&X*X%Xk k h C |.}.[.7X",
" .$ 3 2 5XiXuXuXaXgXgXgXg.>.4.3.*.p r d zXbXbXbXvXcXbXzXI n M F ^ ^ ^ ' *X=X=X=X=X=X=X,XMXMXMXMX#X+XXX>X=X=X;X%X, % . N .X.X X8X",
" .$ 9 2 0XuXyXyXaXgXaXgXj.2.6.6.*.y #.;.zXbXvXvXbXcXcXzXI n M F ^ ) / ' -X=X=X=X=X;X=X:XBXBXBXmX#XoXXX>X=X=X=X%X6 : + V .X.X|.8X",
" .$ 3 2  XuXtXuXsXfXgXfXl.s.f.a.:.d =.7.hXcXxXcXzXzXzXlX^ F H U ) c.x.b.-X-X:X;X-X-X=X:XNXMXMXmX#XXXoX'.-X*X=X%Xw 6 , C .X.X|.8X",
" .$ 3 2 u.f.g.g.g.j.g.k.nXNXNXmX#X`.'.XXk.j.j.j.] E ^ ) 5XeX0XeXiXpXpXdXxXhXkXhXt.r.t.t.$X>X>X$X+X+X#XXXt.e.t.e.q.9.q.0.v.v.z.E.",
" .% 3 2 ,.4.4.4.4.4.2.p.nXBXBXMX>X+X#X@Xa.2.2.3.J m v F eXyXyXyXjXjXjXjXlXlXlXhXr.w.9.r.XXXXXXOX+X+X+XXXw.w.w.w.e.w.w.0.v.v.z.E.",
" .X : 1 ,.p.6.p.p.p.6.s.mXBXBXMX>X+X+XXXf.6.p.p.J m F I eXyXyXyXgXjXjXjXkXkXlXjXr.w.w.r.+X+XOX+X+X+X#XXXe.e.w.w.w.w.e.w.v.v.z.E.",
"X.< 8 8 y.5.5.5.5.5.6.p.nXNXMXMX>XXX+XXXd.3.5.i.K M D P 0XeXqXyXgXjXgXjXlXkXlXlXr.w.w.r.oX@X+X+XXXXX+X'.w.q.w.w.w.w.w.0.v.b.z.E.",
"7X[..X[.J e u u p -.&.:.+X$X$X$X+X+X+XXX:.&.-.-.=.p p s W R Y ^ gXjXjXjXzXzXzXlXR.R.R.{.;X-X-X*Xr.r.r.0.i i w l W ! ! I 8 q < X.",
"8X|..X.Xj o * ; p y t p '.OXXXXX+X+X+X+X;.r =.y %.%.%.p D M v T gXjXjXjXzXzXbXlX(./.^.1X;X;X=X*Xw.w.w.q.7 > > h Y R T L : 1 X | ",
"8X|..X.Xc O 1 @ y %.y -.XXOXOXOXOX+X#XXX7.r %.$.%.%.%.=.D F n R aXjXjXjXcXcXcXlX(.R.R..X-X;X;X*Xe.w.e.9.6 5 : 7 I Y R L 3 9 $  .",
"8X[..X.XP q z v a p y p '.oXoX+XXXXXXXXX7.p ;.s p p p s G F F W gXjXjXjXlXzXzXkX/.T.Y.{.*X*X=X%Xw.w.q.9.k 8 7 j R R R P 2 3 #  .",
"o.f x x eXuXiXyXQ w v i y.d.a.a.:.7.;.7.H.J.J.H.G D D G D.J.F.U.iXpXpXpXyXyXyXeXc h h N w.t.t.w.i w w N F.G.F.G.n.n.n.` 2 3 $  .",
"D % 3 3 uXgXdXaXT 9 h l <.6.6.3.&.t #.p H.U.U.J.P M M L J.U.L.Y.iXdXpXiXyXeXyX0Xh 2 > i q.w.q.9.6 > 2 z W.W.W.W.n.n.M.` : 3 #  .",
"..& 0 6 yXgXaXsXY 0 q l <.6.6.p.*.y $.s H.J.J.J.L M M F F.J.J.U.pXpXpXpXyXyXyX0Xh 2 * i w.e.e.q.6 2 , j W.W.W.W.n.n.n.` 2 3 $  .",
"..1 0 0 rXgXiXiXR q v l y.5.5.5.:.d d ;.J.T.T.T.P M F L J.T.L.T.sXsXsXsXeX6XeX5Xc z z N 9.w.w.9.l h h c G.F.F.G.n.c.m.` 2 3 $  .",
"..& 0 5 ^.8X(.3X) ^ ^ ^ ;.&.-.-.P.T.P.T.gXkXlXjXM.x.x.n.qXyXeXtXj.d.d.u.B j h C 0XwXqX5XQ D B P L.L.Q.F.h h 8 x ( ( ` ~ : 3 # ..",
"..& 0 6 !./././.n.) ) ) d $.y s J.R.T.T.jXzXkXkXD.c.c.v.yXyXyXuXa.2.6.3.u ; - z wXyXyX0XF N V G T.!.~.K.6 5 2 h ^ ^ ( ~ : 9 #  .",
"..& 0 7 ~./.(./.c.^ ) ^ s #.$.=.P.T.T.R.kXzXzXkXD.) c.n.eXyXyXtXd.6.p.i.i > 2 c qXyXyX0XG N N G !.!.T.L.0 5 3 q _ _ _ ~ 3 3 $  .",
" .& 0 9 ~./.^.^.v.^ ) ) d ;.s ;.T.R.R./.gXjXjXgXM.) x.n.yXuXyXtXd.4.p.5.i 5 4 N wXyXwX0XP G C W !.!.!.L.k q q b ^ ^ ^ E : 3 $  .",
"X.% 7 6 G.F.F.F.^ ~ ^ ~ n.v.V.v.eXyXyXyX^ U T R L F F R kXcXzXxXg.4.p.5.-.y t d Y.Y.Y.!.R.~.1X~.~.~.~.!.c.c.c.` 6 2 5 9 3 3 #  .",
"X.& 7 6 M.F.F.F.^ ~ ^ ~ v.N.N.N.eXyXyXyXR n F n M M n I kXbXzXcXg.6.p.5.-.=.$.;.L.U.Y.Y.1X2X2X2X~.~.~.!.B.B.c.c.: : : : : 5 $  .",
" .X 3 : M.F.F.F._ ~ ~ ~ m.M.m.N.yXyXyXyXT v n n M F n R kXbXbXxXa.>.4.2.$.t #.d J.I.I.Y././.2X/.~.~.^.!.c.c.E.c.2 2 2 : : 3 X  .",
"O.g x x c.G.M.G.( ! ~ ^ M.N.N.N.5XyXeX0X` R W R F M n Y xXxXxXxXl.j.k.j.8.;.;.7.).).).).Q.1X{.~.!.!.!.W.B.c.c.c.2 : 2 2 6 q & X.",
"7X|..X XV - 8 6 F P U Y ).{.<X1X~ U L R iXdXiXiXI n M J u.f.s.k.mXNXNXmXXXXXXXoXa.i.s.y.;.s -.d ~ Q E E ! ~ ! Q 2 2 - 8 ' ' Z @.",
"8X|..X.XV + 2 3 F P F U ).{.1X<XU n n L iXgXgXpXR n M J 5.6.2.f.NXBXBXNX>X@X#XoXp.6.6.3.&.t $.a Q Y Y Q ! ! ! Q 3 2 : k / ' Z @.",
"8X|..X.Xc o : - H G F G ).1X<X1XY M M L iXjXgXdXT b b J i.p.4.j.NXMXBXmX#XXX@X'.s.6.p.5.%.=.$.s Y Y Q Q _ Q ! Q : : @ 8 ( ' Z E.",
"7X[. X}.F 0 k 8 U R R R P.)._.).Q F F P iXdXdXiX] K K K ,.5.1.g.mXMXMXmX>XXX@XXXy.5.3.,.=.y y a ! Q Q Q Q Q Q Q 8 q 6 z / W Z @.",
"X.2 q q n.C.B.G.G.W.W.K.Y F F H n.m.n.m.3X0XwX5Xd.5.p.5.*.%.$.;.XX#X>XoX+XXX+XXX;.$.%.=., , , w } } } [ 8 6 5 l { { E._ 5 0 % ..",
" .X : - M.W.G.E.W.W.W.W.U n n F n.m.m.N.5XwX5X4Xd.4.p.5.-.y $.;.XXOXXXoX+X+XOXXX-.$.p y , ; % 8 } } } [ 6 6 > k E.B.{ ` 2 1 X  .",
" .# 3 > c.G.M.G.W.W.W.W.U M F F } v.m.M.5XwX0X5Xd.4.6.6.*.=.$.;.XXXXXX'.+X+X#XXX;.$.%.y , : % 8 } } } } 6 5 : v { B.E.` 3 3 % D ",
" .# : > B.W.M.G.K.K.K.K.Q G G Y m.N.N.C.(.5X3X3Xu.y.a.y.=.p y ;.'.>X>X'.XX'.XX`.d y p p , : = 8 [ } } [ q 7 6 v ` { { ( 3 3 +  .",
" .# 9 2 ` B.n.B.B.n.B.B.A.S.S.S.<X<X<X<XY F F U m.A.N.b.k 6 2 u i.p.p.i.-.s -.-.A A A N 6 5 5 8 A D D G ~ Q E U 3 3 3 5 2 3 X ..",
" .$ 3 2 _ n.{ B.{ ` B.` S.S.S.S.<X<X<XS.U n n F m.M.M.M.h 5 > i 5.6.6.5.&.y y y A v A v 6 6 5 6 S D S D ~ ~ E Q : 3 : : 2 9 %  .",
"..# 3 2 [ n.{ n.B.B.{ B.S.S.S.S.<X<X<X).Y F n F n.M.C.m.7 2 ; u 5.6.6.3.-.y %.p A A v v 5 5 5 6 D D D D E ~ ~ T 3 : 3 : @ @   S ",
" .# 3 2 ( n.{ [ ` ` ` ` S.S.S.S.<X).<XP.G M F F M.C.C.M.v h h B y.d.d.y.-.y %.=.A v N N 6 5 5 7 v S S D E Q ~ Y 3 : : 9 V c k O.",
" .# 3 2 W / / Z q 2 2 5 _ [ [ [ A.A.A.A.U n M F Q.!.Q.Q.A.A.C.C.E.G.W.A.s %.%.a G H Y H 6 5 5 6 0 0 5 8 Y T T L 2 2 @ c .X.X|.7X",
" .% 9 2 W / W / q 2 2 2 _ [ [ } C.A.A.N.H F M L Q.Q.Q.Q.C.A.A.C.W.E.W.C.a y %.a G G H H 6 5 5 5 9 9 5 h U Y T L 5 5 @ V .X.X X8X",
"S   @ @ W / Z / 5 o @ = [ [ { { A.A.A.A.U M n H Q.Q.~.Q.A.C.A.A.K.G.W.C.a &.&.p G H Y H 7 6 5 5 9 5 2 8 T R T L @ @ . x .X.X X8X",
"+.k D c W W W W V V c V ~ [ _ [ C.A.A.C.P F F U G.W.W.K.V.} V.B.C.G.E.V.a y y p G H H D 5 5 5 9 q q 8 k L L L F c c x W .X.X|.8X",
"8X|..X.Xc @ 5 5 [..X.X.XN = 5 9 C.A.A.A.^ ^ ~ E 7 2 5 : : 2 : 6 Y ~ E R 3 3 2 2 2 2 2 2 2 2 : 6 U T T U : 5 @ c  X.X X.X.X.X|.8X",
"8X|..X.Xc = 5 5 }..X.X|.x = 5 5 V.A.C.A.^ ~ ^ ^ 7 : : 5 5 5 3 6 R R Q R 9 : 2 3 2 2 2 2 2 2 : q T E T U 5 5 = c .X.X.X.X.X.X|.8X",
"8X|..X.Xc . @ = [..X.X.Xz . @ - C.S.A.A.( ^ ^ ~ 2 o @ @ @ @ + - Q ~ ~ Q : + @ @ + @ @ @ @ @ o : T +.T T @ @ . x .X.X.X.X.X.X|.8X",
"8X|..X.XW x C C }..X.X.XI x V V n.V.V.V.~ R R R V V c c c c V V T Y Y U V c c c V c V V c c V V U U U U V c c W .X X.X.X.X.X|.8X",
"8X|..X.X.X.X.X.X.X.X.X.X X.X.X Xx = 9 2 2 3 : 8 [..X.X.X.X.X.X}.k - : z [..X.X.X.X.X.X.X.X.X.X[.9 : = n .X.X.X.X.X.X.X.X.X.X|.8X",
"8X|..X.X.X.X.X.X.X.X.X.X.X.X.X.Xx @ 9 3 3 3 - q  X4X.X.X.X.X.X Xk 1 - l .X.X.X.X.X.X.X5X.X.X.X}.7 3 - v .X.X.X.X.X.X.X.X.X.X|.8X",
"8X].|.|.|.|.|.|. X|.|.|.|.|.|.|.k   % # $ $ X < ].|.|.|.|.|.|.[.< X X < |.|.|.|.|.|.|.|.|.|. X[.& #   g |.|.|.|.|.|.|.|.|.|.].8X",
"9X8X8X8X8X8X8X8X8X8X7X8X8X8X8X7XO.S  ... . .| X.7X8X8X8X8X8X8X7Xo. .| o.7X8X8X7X8X8X8X8X8X8X8X7XX. .| +.8X8X8X8X8X8X8X8X8X8X8X9X"
};
