/* XPM */
static char *result[] = {
/* columns rows colors chars-per-pixel */
"64 64 46 1 ",
"  c #2C7E07",
". c #327E17",
"X c #357C1E",
"o c #367E21",
"O c #387F22",
"+ c #34810A",
"@ c #348019",
"# c #398219",
"$ c #378023",
"% c #3B8224",
"& c #3E8729",
"* c #418626",
"= c #448827",
"- c #448928",
"; c #498D2A",
": c #469D2D",
"> c #489F2E",
", c #4A823E",
"< c #489734",
"1 c #479B31",
"2 c #4B9B36",
"3 c #4D9E38",
"4 c #509F38",
"5 c #4BA12F",
"6 c #4DA033",
"7 c #4FA039",
"8 c #52A139",
"9 c #58A43B",
"0 c #6FB33C",
"q c #76BC37",
"w c #72B63E",
"e c #75B93E",
"r c #78BE3D",
"t c #79C039",
"y c #57854F",
"u c #5A874F",
"i c #579B49",
"p c #589C4A",
"a c #639C57",
"s c #72B641",
"d c #76BA40",
"f c #79BD41",
"g c #7BB74F",
"h c #7CB950",
"j c #7EB45B",
"k c #80B65C",
/* pixels */
"hg,,ppy,ii,,pp,,pppp,,ggpp,,pp,,hh,,ppy,pp,,ppy,ippp,,kgppy,ii,,",
"re#@12..>>@@22@@1222@#ee62@@12.Xeq#.11..22@@2>..::21.Xqq62@.:>..",
"8822%%24dd33sd2234ds*O44%%2243OO4822%%14sd33es4334rs*O44%$2333oo",
"3282Oo28de83dr8734dr%#33%%2333%O2283OO24dd44rr8434dr%O33%%2832%O",
"$*se%XO%4832*=ee%$442<%*wddd33se**ee%oO%4833==ee%O4422$*wrdd44we",
"o%ed%OO%2244o%de*O2333O%dffd88re%%sd*oO$2233oOdd*%2333o*dfdd88df",
"32**2222$*es42*=ee*$333244*=se=*2<**2232O*sd42*=se*%233344*=es=*",
"32oo2432O%ee42o%dd%O232343o%dd%o22oo2332O*ed4<OOdeOO232233O%deOo",
"%OO$22%%22**O$22=*2232O*ed22882<%OOO32%%22**O$32**2233O%sd228432",
"OOO$22OO33OoOO23OO2422O%df832232$%O$22OO32ooOO32O%2323O*ed833323",
"2222$%OO22OO22$*ee42%%22$=sd82%%2222%$X%22Oo22O%ee42$%22*=ed43%O",
"3322%OO%43%%22O*dd43$%23%%df32%%2342$OO%43*%23O*ed84%$33o%ed42$O",
"32%$2224ddde%O32%=er22$$2283%$3333%%2222ddde%$22%*ee32O$2243$%33",
"22%%2428dfds*O23$*es83*%2232%$2322O%2248ddde*O33%*ed82%%2332$%33",
"O%22O%sd84*%23O%ee*%24de*$232233$$24o%ed84*%22O%ee=%24de%O332333",
"O%22%=er82OO33O%dd*%28dd%$233323$%22%=ee83O%33O%ee*%34ds*O233322",
"22$*ee**sd42333288ee7383328332%$22O%ee**dd32333248rs4347323332$%",
"22$%dd**ee84333322dd7223223332$$22%*ee**ed88333322dd4332233332$O",
"o%2244ee**dd4332$%483372$%233332%%2244ee%*sd7233%%443342%$333323",
"O$2823dr**df8232%%223333%$233322O%2324fd**df7332$$<33332$$283722",
"3233O*ddddfd433322$%2333233332%$2232%*efddff333232$%3333223372$O",
"2232$*dffdrs434483%$2322333332%$2232$*efddde824843%$2332733322%%",
"oO2334df82%%34dd822272$$2332O%23O%2322dd82%%28dd432232O%2732%%22",
"O%3448ee42*%23ds323332%%2233%$23$%3389se42**24sd423332%$2272$$22",
"3334de*%38ee%O43$$23%O22O%3322$%2334dd*$28de%O44OO32O%22%$3322$o",
"4434fd%$24de*O22**22$$84%$3384%$8824fd*$24de*$<3**22$$38%$2388$$",
"fdO%df22$$2432$%ed%%23dd7234fd43de%%dd42$%2432O%dd%$28dd8227fd83",
"ds%*wd94%$2333%%ed%$23dd8234ww87de%*sd84%$3332$*dw*$24dd8277sw43",
"442248ef8333O$223432OO243332$%22442288fd8332O%223332$$433333%%23",
"338423sd3332$%882232%$332233$%48338822dd4232$%482232%$332232$%48",
"34fd%O43OO3334fd%O333332O$3334ff33dd%O23$$3334dd%%233333o$2334df",
"48se*$22%%2238ww*$333288$%2238sw88ew*$22%$2234we*$232288%$2234ee",
"fe%%22O%22o%23%O2333O%dd82%%32%*fd%$42%o22o%22$%2332O%rd43%O33%O",
"ee*$22$%88$%44%%3444O%ed22$%22o%ee*$22%$88$%88%%2888O%es42%$22Oo",
"8322%%24ff43df4334dr%O34Oo2232oo2422%O38df44ff3238fe%O22oo2333OX",
"2284%o24ew44we8422ds*$22*=8833=*2288o%22es44ww8822dw*%22==4833=*",
"o%ff%XO$2322O*drOo3332o%dfff82fr%Ore%XoO3432o*dr%o3332%%dffd32ff",
"$%ww-$$%2288$*ww;=<232$*edew89ww*%ww*%%$<344%%ww=*2232$*wdee89ee",
"22O%2372%%ff42O%dd%O333333o%dd%%33%%2373O%rd43%%fd%O233333$%fd%X",
"22OO2322$%0w4<%*ew*$232288%*ww*$<2o%2222%%ww4<%%ww*$332284%*ws*$",
"OXOO22OO32%OoO33oo2432o%rd423333OOoO23O%23%Oo%22oo2332O%df423333",
"%%%$22o%33Oo$%22==2322%*ws983322%%$%<2OO22OO%$22==2222%%we983322",
"3332OOXO22oo33o%dd42OO33o%dd82o$3343OoXO22oo23o%ff42OO33o%dd42OX",
"3322%%$&88==2<$*ww94%$22$&sd22%%233<&$%&88==22%*ww98&%22$*ew22&$",
"32o%3323ffff%o33XOdf82oo2332Oo2333OO2334dffd%O22o%ef42oo2333O%23",
"22%%2289wee0*%<2*;ww83==2232%&232<%%2388edww*%22*;ww33==2232%%23",
"Xo23XOdf22OO33o%ddOo28fd$O233333oO33oOfd42OO22o%drOo24ff%o233373",
"%%<2=;ww98&%23%*es;=33ds&%333321%%<2*;ww88%&23%-sw;=33dw*$233322",
"72o%rdOOrd42333328ff7233723332Oo33o%drOOff43333334ff4333333332$X",
"22%&ww;;ww993333<2sd7233227272&%<2%*we;;ww983333<2ws8233223332&$",
"o$2728fdoOrd4332oo223333OO233372OO2334fdXodd7272oO333333oo233377",
"%%2324dd;;dd4342&&123322&&23222<%%2322fd;;rd7373&$223332%&232322",
"7732oOeffffd432272Oo2373223372oo3332o%efffff822222oo3323333332oo",
"2232&=efdww0438832&&2321273722&&2233&-edesww739833-%232233332<&$",
"XO3328fd72oo38ff323333oo2222oo22Oo2323ff81Xo28ff823332oo2732oo37",
"$*33890w32;;<2sd2232<2&&2272&&1<%&23990032;;<2ss223222%&<232&%22",
"3238fdOo38ff%@32$o67oo62o$2722Oo2338fdOX28ff%X23Xo22$$77oo2322oX",
"9822dd-%22sw&%22;;<<&&89&&2298&&8912dd=%<2ss&%<1=;22$&78&%2398&%",
"fdOOdf43oo2273oOdd$$27fd7277ff77ff%%ff82oo2372o%ff%X77dd8328ff87",
"ew-=ss94%&232<&*0s&&<1ss82220s73sw**0s99&&232<&-0s&&12ss82770072",
"332234ff8372oo227772oO227322oo<3332227ff8333oo227332%$663362oO22",
"339922ss3242&&991722&&322233&&99339922ss2133&&992<33&&772272&&99",
">5re  ::  ::>5re++&551>: +1155qr65rq  ::  :516rq+ 155&11  :556et",
"aajjyyaayyaaaajjuuaaaaaayyaaaajjaajjuyaayyaaaajjyyaaaaaayyaaaajj"
};
