/* XPM */
static char *result[] = {
/* columns rows colors chars-per-pixel */
"64 128 150 2 ",
"   c #010101",
".  c #090604",
"X  c #0B0907",
"o  c #0B0A09",
"O  c #05090D",
"+  c #120A07",
"@  c #130E0B",
"#  c #15110C",
"$  c #19130E",
"%  c #18180A",
"&  c #080D13",
"*  c #0B121B",
"=  c #141413",
"-  c #1E1611",
";  c #1C1913",
":  c #200709",
">  c #240809",
",  c #380C0F",
"<  c #300B0C",
"1  c #23140C",
"2  c #241B14",
"3  c #291E16",
"4  c #321B11",
"5  c #20200E",
"6  c #2B2017",
"7  c #2D2219",
"8  c #242410",
"9  c #3E2216",
"0  c #32251B",
"q  c #372A1E",
"w  c #392B1F",
"e  c #303015",
"r  c #3C3C1A",
"t  c #13202F",
"y  c #152435",
"u  c #202020",
"i  c #2C2B29",
"p  c #342E22",
"a  c #3C2D21",
"s  c #3E3124",
"d  c #32322D",
"f  c #3F3829",
"g  c #353533",
"h  c #3D3D3A",
"j  c #521316",
"k  c #452618",
"l  c #4C2A1A",
"z  c #412417",
"x  c #532E1D",
"c  c #443325",
"v  c #483627",
"b  c #493728",
"n  c #443C2B",
"m  c #4C392A",
"M  c #523E2D",
"N  c #6F3D27",
"B  c #653823",
"V  c #733F28",
"C  c #49412F",
"Z  c #4C4C21",
"A  c #56402F",
"S  c #58422F",
"D  c #505022",
"F  c #585826",
"G  c #42413B",
"H  c #5C4532",
"J  c #544A36",
"K  c #5E533D",
"L  c #754029",
"P  c #7D452C",
"I  c #654C37",
"U  c #684E37",
"Y  c #684E38",
"T  c #6C513A",
"R  c #72563D",
"E  c #606029",
"W  c #1F344E",
"Q  c #284465",
"!  c gray25",
"~  c #4A4842",
"^  c #4B4B4B",
"/  c gray32",
"(  c #595750",
")  c #595850",
"_  c #655941",
"`  c #7C5D42",
"'  c #7D6E51",
"]  c #626262",
"[  c #686868",
"{  c #7C7A6F",
"}  c #7B7B7B",
"|  c #7F7D73",
" . c #8F2025",
".. c #AF272D",
"X. c #BF2A32",
"o. c #C72C34",
"O. c #DF313A",
"+. c #81472D",
"@. c #FF3842",
"#. c #FB3741",
"$. c #816144",
"%. c #886649",
"&. c #8C694B",
"*. c #906C4D",
"=. c #867656",
"-. c #997352",
";. c #9F7855",
":. c #A27956",
">. c #A37B58",
",. c #808037",
"<. c #8C8C3C",
"1. c #AD835D",
"2. c #87857A",
"3. c #B38760",
"4. c #B98C63",
"5. c #BF9066",
"6. c #C09066",
"7. c #C39368",
"8. c #CF9C6F",
"9. c #D39F71",
"0. c #DFA877",
"q. c #DBA575",
"w. c #E7AE7B",
"e. c #EBB17E",
"r. c #FFFF6D",
"t. c #8F8D80",
"y. c #9B988B",
"u. c #9A9A9A",
"i. c gray58",
"p. c #AAA799",
"a. c #A0A0A0",
"s. c gray67",
"d. c #BBBBBB",
"f. c #EFB480",
"g. c #F3B782",
"h. c #F7BA84",
"j. c #FBBD86",
"k. c #C1BEAE",
"l. c #FFC088",
"z. c #C5C2B1",
"x. c #D4D1BF",
"c. c #DDDDDD",
"v. c #E0DCC9",
"b. c #ECE8D4",
"n. c #F3EFDB",
"m. c #F7F3DE",
"M. c #ECECEC",
"N. c #F4F4F4",
"B. c #FFFFFF",
"V. c None",
/* pixels */
"V.V.V.V.V.V.V.V.V.V.V.V.V.V.V.V.V.V.V.V.V.V.V.V.V.V.V.V.V.V.V.V.V.V.V.V.V.V.V.V.V.V.V.V.V.V.V.V.V.V.V.V.V.V.V.V.V.V.V.V.V.V.V.V.",
"V.V.V.V.V.V.V.V.V.V.V.V.V.V.V.V.V.V.V.V.V.V.V.V.V.V.V.V.V.V.V.V.V.V.V.V.V.V.V.V.V.V.V.V.V.V.V.V.V.V.V.V.V.V.V.V.V.V.V.V.V.V.V.V.",
"V.V.V.V.V.V.V.V.V.V.V.V.V.V.V.V.V.V.V.V.V.V.V.V.V.V.V.V.V.V.V.V.V.V.V.V.V.V.V.V.V.V.V.V.V.V.V.V.V.V.V.V.V.V.V.V.V.V.V.V.V.V.V.V.",
"V.V.V.V.V.V.V.V.V.V.V.V.V.V.V.V.V.V.V.V.V.V.V.V.V.V.V.V.V.V.V.V.V.V.V.V.V.V.V.V.V.V.V.V.V.V.V.V.V.V.V.V.V.V.V.V.V.V.V.V.V.V.V.V.",
"V.V.V.V.V.V.V.V.V.V.V.V.V.V.V.V.V.V.V.V.V.V.V.V.V.V.V.V.V.V.V.V.V.V.V.V.V.V.V.V.V.V.V.V.V.V.V.V.V.V.V.V.V.V.V.V.V.V.V.V.V.V.V.V.",
"V.V.V.V.V.V.V.V.V.V.V.V.V.V.V.V.V.V.V.V.V.V.V.V.V.V.V.V.V.V.V.V.V.V.V.V.V.V.V.V.V.V.V.V.V.V.V.V.V.V.V.V.V.V.V.V.V.V.V.V.V.V.V.V.",
"V.V.V.V.V.V.V.V.V.V.V.V.V.V.V.V.V.V.V.V.V.V.V.V.V.V.V.V.V.V.V.V.V.V.V.V.V.V.V.V.V.V.V.V.V.V.V.V.V.V.V.V.V.V.V.V.V.V.V.V.V.V.V.V.",
"V.V.V.V.V.V.V.V.V.V.V.V.V.V.V.V.V.V.V.V.V.V.V.V.V.V.V.V.V.V.V.V.V.V.V.V.V.V.V.V.V.V.V.V.V.V.V.V.V.V.V.V.V.V.V.V.V.V.V.V.V.V.V.V.",
"V.V.V.V.V.V.V.V.V.V.V.V.V.V.V.V.V.V.V.V.V.V.V.V.V.V.V.V.V.V.V.V.V.V.V.V.V.V.V.V.V.V.V.V.V.V.V.V.V.V.V.V.V.V.V.V.V.V.V.V.V.V.V.V.",
"V.V.V.V.V.V.V.V.V.V.V.V.V.V.V.V.V.V.V.V.V.V.V.V.V.V.V.V.V.V.V.V.V.V.V.V.V.V.V.V.V.V.V.V.V.V.V.V.V.V.V.V.V.V.V.V.V.V.V.V.V.V.V.V.",
"V.V.V.V.V.V.V.V.V.V.V.V.V.V.V.V.V.V.V.V.V.V.V.V.V.V.V.V.V.V.V.V.V.V.V.V.V.V.V.V.V.V.V.V.V.V.V.V.V.V.V.V.V.V.V.V.V.V.V.V.V.V.V.V.",
"V.V.V.V.V.V.V.V.V.V.V.V.V.V.V.V.V.V.V.V.V.V.V.V.V.V.V.V.V.V.V.V.V.V.V.V.V.V.V.V.V.V.V.V.V.V.V.V.V.V.V.V.V.V.V.V.V.V.V.V.V.V.V.V.",
"V.V.V.V.V.V.V.V.V.V.V.V.V.V.V.V.V.V.V.V.V.V.V.V.V.V.V.V.V.V.V.V.V.V.V.V.V.V.V.V.V.V.V.V.V.V.V.V.V.V.V.V.V.V.V.V.V.V.V.V.V.V.V.V.",
"V.V.V.V.V.V.V.V.V.V.V.V.V.V.V.V.V.V.V.V.V.V.V.V.V.V.V.V.V.V.V.V.V.V.V.V.V.V.V.V.V.V.V.V.V.V.V.V.V.V.V.V.V.V.V.V.V.V.V.V.V.V.V.V.",
"V.V.V.V.V.V.V.V.V.V.V.V.V.V.V.V.V.V.V.V.V.V.V.V.V.V.V.V.V.V.V.V.V.V.V.V.V.V.V.V.V.V.V.V.V.V.V.V.V.V.V.V.V.V.V.V.V.V.V.V.V.V.V.V.",
"V.V.V.V.V.V.V.V.V.V.V.V.V.V.V.V.V.V.V.V.V.V.V.V.V.V.V.V.V.V.V.V.V.V.V.V.V.V.V.V.V.V.V.V.V.V.V.V.V.V.V.V.V.V.V.V.V.V.V.V.V.V.V.V.",
"V.V.V.V.V.V.V.V.V.V.V.V.V.V.V.V.V.V.V.V.V.V.V.V.V.V.V.V.V.V.V.V.V.V.V.V.V.V.V.V.V.V.V.V.V.V.V.V.V.V.V.V.V.V.V.V.V.V.V.V.V.V.V.V.",
"V.V.V.V.V.V.V.V.V.V.V.V.V.V.V.V.V.V.V.V.V.V.V.V.V.V.V.V.V.V.V.V.V.V.V.V.V.V.V.V.V.V.V.V.V.V.V.V.V.V.V.V.V.V.V.V.V.V.V.V.V.V.V.V.",
"V.V.V.V.V.V.V.V.V.V.V.V.V.V.V.V.V.V.V.V.V.V.V.V.V.V.V.V.V.V.V.V.V.V.V.V.V.V.V.V.V.V.V.V.V.V.V.V.V.V.V.V.V.V.V.V.V.V.V.V.V.V.V.V.",
"V.V.V.V.V.V.V.V.V.V.V.V.V.V.V.V.V.V.V.V.V.V.V.V.V.V.V.V.V.V.V.V.V.V.V.V.V.V.V.V.V.V.V.V.V.V.V.V.V.V.V.V.V.V.V.V.V.V.V.V.V.V.V.V.",
"V.V.V.V.V.V.V.V.V.V.V.V.V.V.V.V.V.V.V.V.V.V.V.V.V.V.V.V.V.V.V.V.V.V.V.V.V.V.V.V.V.V.V.V.V.V.V.V.V.V.V.V.V.V.V.V.V.V.V.V.V.V.V.V.",
"V.V.V.V.V.V.V.V.V.V.V.V.V.V.V.V.V.V.V.V.V.V.V.V.V.V.V.V.V.V.V.V.V.V.V.V.V.V.V.V.V.V.V.V.V.V.V.V.V.V.V.V.V.V.V.V.V.V.V.V.V.V.V.V.",
"V.V.V.V.V.V.V.V.V.V.V.V.V.V.V.V.V.V.V.V.V.V.V.V.V.V.V.V.V.V.V.V.V.V.V.V.V.V.V.V.V.V.V.V.V.V.V.V.V.V.V.V.V.V.V.V.V.V.V.V.V.V.V.V.",
"V.V.V.V.V.V.V.V.V.V.V.V.V.V.V.V.V.V.V.V.V.V.V.V.V.V.V.V.V.V.V.V.V.V.V.V.V.V.V.V.V.V.V.V.V.V.V.V.V.V.V.V.V.V.V.V.V.V.V.V.V.V.V.V.",
"V.V.V.V.V.V.V.V.V.V.V.V.V.V.V.V.V.V.V.V.V.V.V.V.V.V.V.V.V.V.V.V.V.V.V.V.V.V.V.V.V.V.V.V.V.V.V.V.V.V.V.V.V.V.V.V.V.V.V.V.V.V.V.V.",
"V.V.V.V.V.V.V.V.V.V.V.V.V.V.V.V.V.V.V.V.V.V.V.V.V.V.V.V.V.V.V.V.V.V.V.V.V.V.V.V.V.V.V.V.V.V.V.V.V.V.V.V.V.V.V.V.V.V.V.V.V.V.V.V.",
"V.V.V.V.V.V.V.V.V.V.V.V.V.V.V.V.V.V.V.V.V.V.V.V.V.V.V.V.V.V.V.V.V.V.V.V.V.V.V.V.V.V.V.V.V.V.V.V.V.V.V.V.V.V.V.V.V.V.V.V.V.V.V.V.",
"V.V.V.V.V.V.V.V.V.V.V.V.V.V.V.V.V.V.V.V.V.V.V.V.V.V.V.V.V.V.V.V.V.V.V.V.V.V.V.V.V.V.V.V.V.V.V.V.V.V.V.V.V.V.V.V.V.V.V.V.V.V.V.V.",
"V.V.V.V.V.V.V.V.V.V.V.V.V.V.V.V.V.V.V.V.V.V.V.V.V.V.V.V.V.V.V.V.V.V.V.V.V.V.V.V.V.V.V.V.V.V.V.V.V.V.V.V.V.V.V.V.V.V.V.V.V.V.V.V.",
"V.V.V.V.V.V.V.V.V.V.V.V.V.V.V.V.V.V.V.V.V.V.V.V.V.V.V.V.V.V.V.V.V.V.V.V.V.V.V.V.V.V.V.V.V.V.V.V.V.V.V.V.V.V.V.V.V.V.V.V.V.V.V.V.",
"V.V.V.V.V.V.V.V.V.V.V.V.V.V.V.V.V.V.V.V.V.V.V.V.V.V.V.V.V.V.V.V.V.V.V.V.V.V.V.V.V.V.V.V.V.V.V.V.V.V.V.V.V.V.V.V.V.V.V.V.V.V.V.V.",
"V.V.V.V.V.V.V.V.V.V.V.V.V.V.V.V.V.V.V.V.V.V.V.V.V.V.V.V.V.V.V.V.V.V.V.V.V.V.V.V.V.V.V.V.V.V.V.V.V.V.V.V.V.V.V.V.V.V.V.V.V.V.V.V.",
"V.V.V.V.V.V.V.V.V.V.V.V.V.V.V.V.V.V.V.V.V.V.V.V.V.V.V.V.V.V.V.V.V.V.V.V.V.V.V.V.V.V.V.V.V.V.V.V.V.V.V.V.V.V.V.V.V.V.V.V.V.V.V.V.",
"V.V.V.V.V.V.V.V.V.V.V.V.V.V.V.V.V.V.V.V.V.V.V.V.V.V.V.V.V.V.V.V.V.V.V.V.V.V.V.V.V.V.V.V.V.V.V.V.V.V.V.V.V.V.V.V.V.V.V.V.V.V.V.V.",
"V.V.V.V.V.V.V.V.V.V.V.V.V.V.V.V.V.V.V.V.V.V.V.V.V.V.V.V.V.V.V.V.V.V.V.V.V.V.V.V.V.V.V.V.V.V.V.V.V.V.V.V.V.V.V.V.V.V.V.V.V.V.V.V.",
"V.V.V.V.V.V.V.V.V.V.V.V.V.V.V.V.V.V.V.V.V.V.V.V.V.V.V.V.V.V.V.V.V.V.V.V.V.V.V.V.V.V.V.V.V.V.V.V.V.V.V.V.V.V.V.V.V.V.V.V.V.V.V.V.",
"V.V.V.V.V.V.V.V.V.V.V.V.V.V.V.V.V.V.V.V.V.V.V.V.V.V.V.V.V.V.V.V.V.V.V.V.V.V.V.V.V.V.V.V.V.V.V.V.V.V.V.V.V.V.V.V.V.V.V.V.V.V.V.V.",
"V.V.V.V.V.V.V.V.V.V.V.V.V.V.V.V.V.V.V.V.V.V.V.V.V.V.V.V.V.V.V.V.V.V.V.V.V.V.V.V.V.V.V.V.V.V.V.V.V.V.V.V.V.V.V.V.V.V.V.V.V.V.V.V.",
"V.V.V.V.V.V.V.V.V.V.V.V.V.V.V.V.V.V.V.V.V.V.V.V.V.V.V.V.V.V.V.V.V.V.V.V.V.V.V.V.V.V.V.V.V.V.V.V.V.V.V.V.V.V.V.V.V.V.V.V.V.V.V.V.",
"V.V.V.V.V.V.V.V.V.V.V.V.V.V.V.V.V.V.V.V.V.V.V.V.V.V.V.V.V.V.V.V.V.V.V.V.V.V.V.V.V.V.V.V.V.V.V.V.V.V.V.V.V.V.V.V.V.V.V.V.V.V.V.V.",
"V.V.V.V.V.V.V.V.V.V.V.V.V.V.V.V.V.V.V.V.V.V.V.V.V.V.V.V.V.V.V.V.V.V.V.V.V.V.V.V.V.V.V.V.V.V.V.V.V.V.V.V.V.V.V.V.V.V.V.V.V.V.V.V.",
"V.V.V.V.V.V.V.V.V.V.V.V.V.V.V.V.V.V.V.V.V.V.V.V.V.V.V.V.V.V.V.V.V.V.V.V.V.V.V.V.V.V.V.V.V.V.V.V.V.V.V.V.V.V.V.V.V.V.V.V.V.V.V.V.",
"V.V.V.V.V.V.V.V.V.V.V.V.V.V.V.V.V.V.V.V.V.V.V.V.V.V.V.V.V.V.V.V.V.V.V.V.V.V.V.V.V.V.V.V.V.V.V.V.V.V.V.V.V.V.V.V.V.V.V.V.V.V.V.V.",
"V.V.V.V.V.V.V.V.V.V.V.V.V.V.V.V.V.V.V.V.V.V.V.V.V.V.V.V.V.V.V.V.V.V.V.V.V.V.V.V.V.V.V.V.V.V.V.V.V.V.V.V.V.V.V.V.V.V.V.V.V.V.V.V.",
"V.V.V.V.V.V.V.V.V.V.V.V.V.V.V.V.V.V.V.V.V.V.V.V.V.V.V.V.V.V.V.V.V.V.V.V.V.V.V.V.V.V.V.V.V.V.V.V.V.V.V.V.V.V.V.V.V.V.V.V.V.V.V.V.",
"V.V.V.V.V.V.V.V.V.V.V.V.V.V.V.V.V.V.V.V.V.V.V.V.V.V.V.V.V.V.V.V.V.V.V.V.V.V.V.V.V.V.V.V.V.V.V.V.V.V.V.V.V.V.V.V.V.V.V.V.V.V.V.V.",
"V.V.V.V.V.V.V.V.V.V.V.V.V.V.V.V.V.V.V.V.V.V.V.V.V.V.V.V.V.V.V.V.V.V.V.V.V.V.V.V.V.V.V.V.V.V.V.V.V.V.V.V.V.V.V.V.V.V.V.V.V.V.V.V.",
"V.V.V.V.V.V.V.V.V.V.V.V.V.V.V.V.V.V.V.V.V.V.V.V.V.V.V.V.V.V.V.V.V.V.V.V.V.V.V.V.V.V.V.V.V.V.V.V.V.V.V.V.V.V.V.V.V.V.V.V.V.V.V.V.",
"V.V.V.V.V.V.V.V.V.V.V.V.V.V.V.V.V.V.V.V.V.V.V.V.V.V.V.V.V.V.V.V.V.V.V.V.V.V.V.V.V.V.V.V.V.V.V.V.V.V.V.V.V.V.V.V.V.V.V.V.V.V.V.V.",
"V.V.V.V.V.V.V.V.V.V.V.V.V.V.V.V.V.V.V.V.V.V.V.V.V.V.V.V.V.V.V.V.V.V.V.V.V.V.V.V.V.V.V.V.V.V.V.V.V.V.V.V.V.V.V.V.V.V.V.V.V.V.V.V.",
"V.V.V.V.V.V.V.V.V.V.V.V.V.V.V.V.V.V.V.V.V.V.V.V.V.V.V.V.V.V.V.V.V.V.V.V.V.V.V.V.V.V.V.V.V.V.V.V.V.V.V.V.V.V.V.V.V.V.V.V.V.V.V.V.",
"V.V.V.V.V.V.V.V.V.V.V.V.V.V.V.V.V.V.V.V.V.V.V.V.V.V.V.V.V.V.V.V.V.V.V.V.V.V.V.V.V.V.V.V.V.V.V.V.V.V.V.V.V.V.V.V.V.V.V.V.V.V.V.V.",
"V.V.V.V.V.V.V.V.V.V.V.V.V.V.V.V.V.V.V.V.V.V.V.V.V.V.V.V.V.V.V.V.V.V.V.V.V.V.V.V.V.V.V.V.V.V.V.V.V.V.V.V.V.V.V.V.V.V.V.V.V.V.V.V.",
"V.V.V.V.V.V.V.V.V.V.V.V.V.V.V.V.V.V.V.V.V.V.V.V.V.V.V.V.V.V.V.V.V.V.V.V.V.V.V.V.V.V.V.V.V.V.V.V.V.V.V.V.V.V.V.V.V.V.V.V.V.V.V.V.",
"V.V.V.V.V.V.V.V.V.V.V.V.V.V.V.V.V.V.V.V.V.V.V.V.V.V.V.V.V.V.V.V.V.V.V.V.V.V.V.V.V.V.V.V.V.V.V.V.V.V.V.V.V.V.V.V.V.V.V.V.V.V.V.V.",
"V.V.V.V.V.V.V.V.V.V.V.V.V.V.V.V.V.V.V.V.V.V.V.                    V.V.V.V.V.V.V.V.V.V.V.V.V.V.V.V.V.V.V.V.V.V.V.V.V.V.V.V.V.V.V.",
"V.V.V.V.V.V.V.V.V.V.V.V.V.V.V.V.V.V.V.V.V.V.                                V.V.V.V.V.V.V.V.V.V.V.V.V.V.V.V.V.V.V.V.V.V.V.V.V.V.",
"V.V.V.V.V.V.V.V.V.V.V.V.V.V.V.V.V.V.V.V.V.    - M H A m m c w 7 2 # .               V.V.V.V.V.V.V.V.V.V.V.V.V.V.V.V.V.V.V.V.V.V.",
"V.V.V.V.V.V.V.V.V.V.V.V.V.V.V.V.V.V.V.V.V.  . H I I I I I I I I I I I H m q - .         V.V.V.V.V.V.V.V.V.V.V.V.V.V.V.V.V.V.V.V.",
"V.V.V.V.V.V.V.V.V.V.V.V.V.V.V.V.V.V.V.V.    3 I I I I I I I I I I I I I I I I I v -       V.V.V.V.V.V.V.V.V.V.V.V.V.V.V.V.V.V.V.",
"V.V.V.V.V.V.V.V.V.V.V.V.V.V.V.V.V.V.V.V.    v I I I I 0 $ v I I I I I I I I I I I I M .   V.V.V.V.V.V.V.V.V.V.V.V.V.V.V.V.V.V.V.",
"V.V.V.V.V.V.V.V.V.V.V.V.V.V.V.V.V.V.V.V.    I I I H X 2 v I I I I I I I Y I I I I I I w     V.V.V.V.V.V.V.V.V.V.V.V.V.V.V.V.V.V.",
"V.V.V.V.V.V.V.V.V.V.V.V.V.V.V.V.V.V.V.V.  $ I I I # 0 I I I I I I I I I I I I I I I I H     V.V.V.V.V.V.V.V.V.V.V.V.V.V.V.V.V.V.",
"V.V.V.V.V.V.V.V.V.V.V.V.V.V.V.V.V.V.V.    7 I I H . I I I I I I I I I I I I I I I I I I @   V.V.V.V.V.V.V.V.V.V.V.V.V.V.V.V.V.V.",
"V.V.V.V.V.V.V.V.V.V.V.V.V.V.V.V.V.V.      c I I H . I I I I I I I I I I I I I I I I I I 3     V.V.V.V.V.V.V.V.V.V.V.V.V.V.V.V.V.",
"V.V.V.V.V.V.V.V.V.V.V.V.V.V.V.V.          A I I I 2 @ M I I I U I I I I I I I I I I I I w       V.V.V.V.V.V.V.V.V.V.V.V.V.V.V.V.",
"V.V.V.V.V.V.V.V.V.V.V.V.V.V.        3 q   I I I I I q . 7 c I I I I I I I I I I I I I I v   .       V.V.V.V.V.V.V.V.V.V.V.V.V.V.",
"V.V.V.V.V.V.V.V.V.V.V.V.V.      # M I a + I I I I I I M q - M I I I Y I I I I I I I I I M   M -       V.V.V.V.V.V.V.V.V.V.V.V.V.",
"V.V.V.V.V.V.V.V.V.V.V.V.      q I I I 3 2 I I I I I I I I I I I Y I I I I I I I I I I I H   A I 0       V.V.V.V.V.V.V.V.V.V.V.V.",
"V.V.V.V.V.V.V.V.V.V.V.    o A I I I I $ 3 I I I I I I I I I I I I I I I I I I I I I I I I   m I I c       V.V.V.V.V.V.V.V.V.V.V.",
"V.V.V.V.V.V.V.V.V.V.    # H I I I I I X     X @ = 3 6 0 a s v m M S H I I I I I I I I H M   m I I I c       V.V.V.V.V.V.V.V.V.V.",
"V.V.V.V.V.V.V.V.V.    # I I I I I I I   - 2 - $ $ @ + X                                     a I I I I c       V.V.V.V.V.V.V.V.V.",
"V.V.V.V.V.V.V.V.    @ H I I I I I I A   3 0 0 3 $ # .                     . + - 2 2 2 3 2   c I I I I I q     V.V.V.V.V.V.V.V.V.",
"V.V.V.V.V.V.V.V.    A I I I I I I I v   2 @     X 2 q c M S I I I H A m w 2 .   X $ 7 7 3   a I I I I I I $     V.V.V.V.V.V.V.V.",
"V.V.V.V.V.V.V.    7 I I I Y I I I H 3     $ w A I I I I I I I I I I I Y I I I m 6 .   # 7   c I I I I I I H     V.V.V.V.V.V.V.V.",
"V.V.V.V.V.V.V.    A I I I I I I q . . 0 H I I I I I I I I I I I I I I I I I I I I I w X     c I I I Y I I I 7     V.V.V.V.V.V.V.",
"V.V.V.V.V.V.V.    H I I I I v . . a I I I I I I Y I I I I I I I I I I I I I I I I I I I 0   # H I I I I I I H     V.V.V.V.V.V.V.",
"V.V.V.V.V.V.V.    3 I I I v   7 H I I I I I I I I I I I I I I I I I I I I I I I I I I I I A @ X A I I I I I I @   V.V.V.V.V.V.V.",
"V.V.V.V.V.V.V.V.    # m I H m I I I I I I I I I I I I I I I I I I Y I I I I I I I I I I I I H $ . H I I I I I #   V.V.V.V.V.V.V.",
"V.V.V.V.V.V.V.V.V.      @ q M I I I I I I I I I I I I I I I I I I I I I Y I I I I I I I I I I I + 2 I I I I v     V.V.V.V.V.V.V.",
"V.V.V.V.V.V.V.V.V.V.          . - 7 a m H I I I I I I I I I I I I I I I I I I I I I I I I I I I M   H H c 2       V.V.V.V.V.V.V.",
"V.V.V.V.V.V.V.V.V.V.V.V.V.        0         . X # = $ 2 3 2 3 2 3 3 2 3 2 3 3 3 3 2 2 2 3 3 2 $ $   .           V.V.V.V.V.V.V.V.",
"V.V.V.V.V.V.V.V.V.V.V.V.V.V.V.  . 0 . ^ ] ^ @     $ $.R I H H I I H H I H v   1 3 4 4 4 4 4 4 9 $           V.V.V.V.V.V.V.V.V.V.",
"V.V.V.V.V.V.V.V.V.V.V.V.V.V.      ~ c.B.B.B.N.a.o m l.j.l.l.l.l.l.l.l.l.l.h.3 1 +.+.+.+.+.+.+.+.z     V.V.V.V.V.V.V.V.V.V.V.V.V.",
"V.V.V.V.V.V.V.V.V.V.V.V.V.V.    ! B.B.B.B.B.B.B.u.. g.l.l.l.l.l.l.l.l.l.l.l.8.. x +.+.+.+.+.+.+.z     V.V.V.V.V.V.V.V.V.V.V.V.V.",
"V.V.V.V.V.V.V.V.V.V.V.V.V.V.    d.B.B.B.B.B.B.B.N.  4.l.l.l.l.l.l.l.l.l.l.l.l.T X P +.+.+.+.+.+.l     V.V.V.V.V.V.V.V.V.V.V.V.V.",
"V.V.V.V.V.V.V.V.V.V.V.V.V.V.    } o } B.B.B.B.B.B.u ;.l.l.l.l.l.l.l.l.l.l.l.l.f.X k +.+.+.+.+.+.9     V.V.V.V.V.V.V.V.V.V.V.V.V.",
"V.V.V.V.V.V.V.V.V.V.V.V.V.V.    ^   g B.B.B.B.B.B.= :.l.l.l.l.l.l.l.l.l.l.l.l.l.*.  L +.+.+.+.+.4     V.V.V.V.V.V.V.V.V.V.V.V.V.",
"V.V.V.V.V.V.V.V.V.V.V.V.V.      s.} c.B.B.B.B.B.M.  7.l.l.l.l.l.l.l.l.l.l.l.l.l.j.3 4 +.+.+.+.+.+   V.V.V.V.V.V.V.V.V.V.V.V.V.V.",
"V.V.V.V.V.V.V.V.V.V.V.V.V.  $ 7 / B.B.B.B.B.B.B.} $ h.l.l.l.l.l.l.l.g.T 3 3 R j.l.>.  N +.+.+.L     V.V.V.V.V.V.V.V.V.V.V.V.V.V.",
"V.V.V.V.V.V.V.V.V.V.V.V.    v 7.  ] N.B.B.B.B.s.  -.l.l.l.l.l.l.l.l.4.2 &.&.$ U l.l.0 4 +.+.+.x     V.V.V.V.V.V.V.V.V.V.V.V.V.V.",
"V.V.V.V.V.V.V.V.V.V.V.V.V.      .   = [ u.i.^   R l.l.l.l.l.l.l.l.l.l.l.l.l.>.. l.l.1.  L +.+.4     V.V.V.V.V.V.V.V.V.V.V.V.V.V.",
"V.V.V.V.V.V.V.V.V.V.V.V.V.        ` &.m ; 8 A 5.l.l.l.l.l.l.l.l.l.l.l.l.l.l.6.  l.l.j.# x +.B     V.V.V.V.V.V.V.V.V.V.V.V.V.V.V.",
"V.V.V.V.V.V.V.V.V.V.V.V.V.V.V.    2 h.l.j.l.l.l.l.l.l.l.l.l.l.l.l.l.0.h.l.j.U $ l.l.l.a 9 N .     V.V.V.V.V.V.V.V.V.V.V.V.V.V.V.",
"V.V.V.V.V.V.V.V.V.V.V.V.V.V.V.V.    ` j.l.l.l.l.l.l.l.l.l.l.l.l.l.l.0 # I 2 . 3.l.l.l.`   +     V.V.V.V.V.V.V.V.V.V.V.V.V.V.V.V.",
"V.V.V.V.V.V.V.V.V.V.V.V.V.V.V.V.V.  . ;.$.T 5.l.l.l.l.l.l.l.l.l.l.l.e.$.c R w.l.l.l.j.M       V.V.V.V.V.V.V.V.V.V.V.V.V.V.V.V.V.",
"V.V.V.V.V.V.V.V.V.V.V.V.V.V.V.V.V.      # c   6 f.l.l.l.l.l.l.l.l.l.l.l.l.l.l.l.l.j.T       V.V.V.V.V.V.V.V.V.V.V.V.V.V.V.V.V.V.",
"V.V.V.V.V.V.V.V.V.V.V.V.V.V.V.V.V.V.    . ;.9.%.h.l.l.l.l.l.l.l.l.l.l.l.l.l.l.l.e.m     V.V.V.V.V.V.V.V.V.V.V.V.V.V.V.V.V.V.V.V.",
"V.V.V.V.V.V.V.V.V.V.V.V.V.V.V.V.V.V.V.      M q.l.l.l.l.l.l.l.l.l.l.l.l.l.l.l.;.#     V.V.V.V.V.V.V.V.V.V.V.V.V.V.V.V.V.V.V.V.V.",
"V.V.V.V.V.V.V.V.V.V.V.V.V.V.V.V.V.V.V.V..       m >.e.l.l.l.l.l.l.l.l.l.w.*.3       V.V.V.V.V.V.V.V.V.V.V.V.V.V.V.V.V.V.V.V.V.V.",
"V.V.V.V.V.V.V.V.V.V.V.V.V.V.V.V.V.V.V.V.    j ..+     7 S ` -.:.:.` I 7   o f ;   . V.V.V.V.V.V.V.V.V.V.V.V.V.V.V.V.V.V.V.V.V.V.",
"V.V.V.V.V.V.V.V.V.V.V.V.V.V.V.V.V.V.V.    < #.@., n _ C # % 5 5 5 r F e ; =.=.n     V.V.V.V.V.V.V.V.V.V.V.V.V.V.V.V.V.V.V.V.V.V.",
"V.V.V.V.V.V.V.V.V.V.V.V.V.V.V.V.V.V.V.    o.@.@.> J =.=.p E r.r.r.r.r.,.2 =.=._     V.V.V.V.V.V.V.V.V.V.V.V.V.V.V.V.V.V.V.V.V.V.",
"V.V.V.V.V.V.V.V.V.V.V.V.V.V.V.V.V.V.    j @.@.@., m =.=.s Z r.r.r.r.r.<.= =.=.'     V.V.V.V.V.V.V.V.V.V.V.V.V.V.V.V.V.V.V.V.V.V.",
"V.V.V.V.V.V.V.V.V.V.V.V.V.V.V.V.V.V.     .O.O.X.> n =.=.f 8 ,.,.,.,.,.D   ' =.=.#   V.V.V.V.V.V.V.V.V.V.V.V.V.V.V.V.V.V.V.V.V.V.",
"V.V.V.V.V.V.V.V.V.V.V.V.V.V.V.V.V.V.              n =.=.K # ;   q 2 X 2 7 =.=.=.;   V.V.V.V.V.V.V.V.V.V.V.V.V.V.V.V.V.V.V.V.V.V.",
"V.V.V.V.V.V.V.V.V.V.V.V.V.V.V.V.V.V.V.V.          ; J J J J f   h.H $ J n f p 8 o   V.V.V.V.V.V.V.V.V.V.V.V.V.V.V.V.V.V.V.V.V.V.",
"V.V.V.V.V.V.V.V.V.V.V.V.V.V.V.V.V.V.V.V.V.V.V.V.                l.I   O * &         V.V.V.V.V.V.V.V.V.V.V.V.V.V.V.V.V.V.V.V.V.V.",
"V.V.V.V.V.V.V.V.V.V.V.V.V.V.V.V.V.V.V.V.V.V.V.V.        ( z.( @ l.c t Q Q y       V.V.V.V.V.V.V.V.V.V.V.V.V.V.V.V.V.V.V.V.V.V.V.",
"V.V.V.V.V.V.V.V.V.V.V.V.V.V.V.V.V.V.V.V.V.V.V.V.V.V.    d v.d S j.2 y Q W     V.V.V.V.V.V.V.V.V.V.V.V.V.V.V.V.V.V.V.V.V.V.V.V.V.",
"V.V.V.V.V.V.V.V.V.V.V.V.V.V.V.V.V.V.V.V.V.V.V.V.V.V.V.    ;   1.l.w   * O     V.V.V.V.V.V.V.V.V.V.V.V.V.V.V.V.V.V.V.V.V.V.V.V.V.",
"V.V.V.V.V.V.V.V.V.V.V.V.V.V.V.V.V.V.V.V.V.V.V.V.V.V.V.    o # v w.`   h     V.V.V.V.V.V.V.V.V.V.V.V.V.V.V.V.V.V.V.V.V.V.V.V.V.V.",
"V.V.V.V.V.V.V.V.V.V.V.V.V.V.V.V.V.V.  .                   ~ k.. .   i 2.                .   V.V.V.V.V.V.V.V.V.V.V.V.V.V.V.V.V.V.",
"V.V.V.V.V.V.V.V.V.V.V.V.V.V.V.V.V.V.                      o b.p.2.v.n.|                     V.V.V.V.V.V.V.V.V.V.V.V.V.V.V.V.V.V.",
"V.V.V.V.V.V.V.V.      . .     .                             y.m.m.m.m.{                     .   . O     . .     V.V.V.V.V.V.V.V.",
"V.V.V.V.V.V.V.V.      .   O .   O .                         G y.y.y.2.g                         .   .   O       V.V.V.V.V.V.V.V.",
"V.V..     .   .                                             o u ; u d O                                         . . O     O V.V.",
"V.V..   .   O     .                                       ^ N.c.c.M.c.!                                             .   .   V.V.",
"                                                                                                                          .     ",
". O                                                                                                                             ",
"      .     O                                                                                                                   ",
"      .                                                                                                         .     O .       ",
"V.V.V.V.      .             .                                                               O       .                   V.V.V.V.",
"V.V.V.V..         O                                                                                         .       .   V.V.V.V.",
"V.V.V.V.V.V.V.V.V.V.. .   .   . . .                                                         . .   O     . . V.V.V.V.V.V.V.V.V.V.",
"V.V.V.V.V.V.V.V.V.V.    O   O                                                                       . . O   V.V.V.V.V.V.V.V.V.V.",
"V.V.V.V.V.V.V.V.V.V.V.V.V.V.V.V.V.V.V.V.                                                V.V.V.V.V.V.V.V.V.V.V.V.V.V.V.V.V.V.V.V.",
"V.V.V.V.V.V.V.V.V.V.V.V.V.V.V.V.V.V.V.V.                                                V.V.V.V.V.V.V.V.V.V.V.V.V.V.V.V.V.V.V.V."
};
