/* XPM */
static char *result[] = {
/* columns rows colors chars-per-pixel */
"64 128 158 2 ",
"   c #010101",
".  c #090705",
"X  c #0C0906",
"o  c #0D0B09",
"O  c #05080B",
"+  c #150C07",
"@  c #120E0A",
"#  c #150907",
"$  c #15110C",
"%  c #1B140E",
"&  c #1A1A0B",
"*  c #080C12",
"=  c #141414",
"-  c #1E1610",
";  c #1F1811",
":  c #1C1B1B",
">  c #220709",
",  c #230809",
"<  c #350C0E",
"1  c #20120B",
"2  c #2C180F",
"3  c #241B13",
"4  c #291E16",
"5  c #331C12",
"6  c #262219",
"7  c #2E2219",
"8  c #2A2417",
"9  c #32261B",
"0  c #35291E",
"q  c #392B1F",
"w  c #3F2216",
"e  c #3D3D1A",
"r  c #0E1824",
"t  c #18283C",
"y  c #142131",
"u  c gray14",
"i  c #2D2D2D",
"p  c #342E22",
"a  c #3C2D21",
"s  c #3F3022",
"d  c #36322A",
"f  c #363635",
"g  c #3D3B36",
"h  c #3D3D3D",
"j  c #410E11",
"k  c #491013",
"l  c #5E1518",
"z  c #442518",
"x  c #4B291A",
"c  c #532E1D",
"v  c #443324",
"b  c #483627",
"n  c #493728",
"m  c #433B2B",
"M  c #4C3929",
"N  c #5C3320",
"B  c #523E2D",
"V  c #683A25",
"C  c #56412E",
"Z  c #595926",
"A  c #4C4331",
"S  c #5C4532",
"D  c #5F4834",
"F  c #774229",
"G  c #7B442B",
"H  c #654C37",
"J  c #6D523A",
"K  c #72563D",
"L  c #63632A",
"P  c #747432",
"I  c #1A2B40",
"U  c #1F344E",
"Y  c #203651",
"T  c #223A56",
"R  c #264160",
"E  c #284465",
"W  c #454543",
"Q  c gray29",
"!  c #54534C",
"~  c #58564F",
"^  c #575757",
"/  c #5C5C5C",
"(  c #6C5F45",
")  c #775A40",
"_  c #7B5C42",
"`  c #6D6046",
"'  c #786A4D",
"]  c #77694C",
"[  c #6F6D64",
"{  c #6F6F6F",
"}  c #626262",
"|  c #747474",
" . c #7D7D7D",
".. c #902025",
"X. c #9C2228",
"o. c #D32F37",
"O. c #F0353E",
"+. c #81472D",
"@. c #F73640",
"#. c #FF3842",
"$. c #F93741",
"%. c #846347",
"&. c #8D6A4B",
"*. c #896749",
"=. c #926E4E",
"-. c #867656",
";. c #977150",
":. c #9D7654",
">. c #A27A56",
",. c #A77E59",
"<. c #A97F5A",
"1. c #807E73",
"2. c #878739",
"3. c #9E9E44",
"4. c #AB805B",
"5. c #A5A546",
"6. c #B68961",
"7. c #B98B63",
"8. c #CD9A6E",
"9. c #C49469",
"0. c #D19E70",
"q. c #DBA575",
"w. c #E3AB79",
"e. c #E9AF7C",
"r. c #EDB37E",
"t. c #C9C956",
"y. c #D8D85D",
"u. c #E7E763",
"i. c #FDFD6C",
"p. c #838383",
"a. c #8D8D8D",
"s. c #949285",
"d. c #9B998B",
"f. c #929292",
"g. c #ACACAC",
"h. c #B9B6A6",
"j. c #BBBBBB",
"k. c gray70",
"l. c #EFB480",
"z. c #F1B580",
"x. c #F5B983",
"c. c #FBBD86",
"v. c #FFC088",
"b. c #C5C2B1",
"n. c #D1CDBC",
"m. c #C5C5C5",
"M. c #CBCBCB",
"N. c #DAD7C5",
"B. c #DCDCDC",
"V. c gray84",
"C. c #EBE7D3",
"Z. c #F0ECD7",
"A. c #F7F3DE",
"S. c #E4E4E4",
"D. c gray92",
"F. c #F3F3F3",
"G. c #FEFEFE",
"H. c None",
/* pixels */
"H.H.H.H.H.H.H.H.H.H.H.H.H.H.H.H.H.H.H.H.H.H.H.H.H.H.H.H.H.H.H.H.H.H.H.H.H.H.H.H.H.H.H.H.H.H.H.H.H.H.H.H.H.H.H.H.H.H.H.H.H.H.H.H.",
"H.H.H.H.H.H.H.H.H.H.H.H.H.H.H.H.H.H.H.H.H.H.H.H.H.H.H.H.H.H.H.H.H.H.H.H.H.H.H.H.H.H.H.H.H.H.H.H.H.H.H.H.H.H.H.H.H.H.H.H.H.H.H.H.",
"H.H.H.H.H.H.H.H.H.H.H.H.H.H.H.H.H.H.H.H.H.H.H.H.H.H.H.H.H.H.H.H.H.H.H.H.H.H.H.H.H.H.H.H.H.H.H.H.H.H.H.H.H.H.H.H.H.H.H.H.H.H.H.H.",
"H.H.H.H.H.H.H.H.H.H.H.H.H.H.H.H.H.H.H.H.H.H.H.H.H.H.H.H.H.H.H.H.H.H.H.H.H.H.H.H.H.H.H.H.H.H.H.H.H.H.H.H.H.H.H.H.H.H.H.H.H.H.H.H.",
"H.H.H.H.H.H.H.H.H.H.H.H.H.H.H.H.H.H.H.H.H.H.H.H.H.H.H.H.H.H.H.H.H.H.H.H.H.H.H.H.H.H.H.H.H.H.H.H.H.H.H.H.H.H.H.H.H.H.H.H.H.H.H.H.",
"H.H.H.H.H.H.H.H.H.H.H.H.H.H.H.H.H.H.H.H.H.H.H.H.H.H.H.H.H.H.H.H.H.H.H.H.H.H.H.H.H.H.H.H.H.H.H.H.H.H.H.H.H.H.H.H.H.H.H.H.H.H.H.H.",
"H.H.H.H.H.H.H.H.H.H.H.H.H.H.H.H.H.H.H.H.H.H.H.H.H.H.H.H.H.H.H.H.H.H.H.H.H.H.H.H.H.H.H.H.H.H.H.H.H.H.H.H.H.H.H.H.H.H.H.H.H.H.H.H.",
"H.H.H.H.H.H.H.H.H.H.H.H.H.H.H.H.H.H.H.H.H.H.H.H.H.H.H.H.H.H.H.H.H.H.H.H.H.H.H.H.H.H.H.H.H.H.H.H.H.H.H.H.H.H.H.H.H.H.H.H.H.H.H.H.",
"H.H.H.H.H.H.H.H.H.H.H.H.H.H.H.H.H.H.H.H.H.H.H.H.H.H.H.H.H.H.H.H.H.H.H.H.H.H.H.H.H.H.H.H.H.H.H.H.H.H.H.H.H.H.H.H.H.H.H.H.H.H.H.H.",
"H.H.H.H.H.H.H.H.H.H.H.H.H.H.H.H.H.H.H.H.H.H.H.H.H.H.H.H.H.H.H.H.H.H.H.H.H.H.H.H.H.H.H.H.H.H.H.H.H.H.H.H.H.H.H.H.H.H.H.H.H.H.H.H.",
"H.H.H.H.H.H.H.H.H.H.H.H.H.H.H.H.H.H.H.H.H.H.H.H.H.H.H.H.H.H.H.H.H.H.H.H.H.H.H.H.H.H.H.H.H.H.H.H.H.H.H.H.H.H.H.H.H.H.H.H.H.H.H.H.",
"H.H.H.H.H.H.H.H.H.H.H.H.H.H.H.H.H.H.H.H.H.H.H.H.H.H.H.H.H.H.H.H.H.H.H.H.H.H.H.H.H.H.H.H.H.H.H.H.H.H.H.H.H.H.H.H.H.H.H.H.H.H.H.H.",
"H.H.H.H.H.H.H.H.H.H.H.H.H.H.H.H.H.H.H.H.H.H.H.H.H.H.H.H.H.H.H.H.H.H.H.H.H.H.H.H.H.H.H.H.H.H.H.H.H.H.H.H.H.H.H.H.H.H.H.H.H.H.H.H.",
"H.H.H.H.H.H.H.H.H.H.H.H.H.H.H.H.H.H.H.H.H.H.H.H.H.H.H.H.H.H.H.H.H.H.H.H.H.H.H.H.H.H.H.H.H.H.H.H.H.H.H.H.H.H.H.H.H.H.H.H.H.H.H.H.",
"H.H.H.H.H.H.H.H.H.H.H.H.H.H.H.H.H.H.H.H.H.H.H.H.H.H.H.H.H.H.H.H.H.H.H.H.H.H.H.H.H.H.H.H.H.H.H.H.H.H.H.H.H.H.H.H.H.H.H.H.H.H.H.H.",
"H.H.H.H.H.H.H.H.H.H.H.H.H.H.H.H.H.H.H.H.H.H.H.H.H.H.H.H.H.H.H.H.H.H.H.H.H.H.H.H.H.H.H.H.H.H.H.H.H.H.H.H.H.H.H.H.H.H.H.H.H.H.H.H.",
"H.H.H.H.H.H.H.H.H.H.H.H.H.H.H.H.H.H.H.H.H.H.H.H.H.H.H.H.H.H.H.H.H.H.H.H.H.H.H.H.H.H.H.H.H.H.H.H.H.H.H.H.H.H.H.H.H.H.H.H.H.H.H.H.",
"H.H.H.H.H.H.H.H.H.H.H.H.H.H.H.H.H.H.H.H.H.H.H.H.H.H.H.H.H.H.H.H.H.H.H.H.H.H.H.H.H.H.H.H.H.H.H.H.H.H.H.H.H.H.H.H.H.H.H.H.H.H.H.H.",
"H.H.H.H.H.H.H.H.H.H.H.H.H.H.H.H.H.H.H.H.H.H.H.H.H.H.H.H.H.H.H.H.H.H.H.H.H.H.H.H.H.H.H.H.H.H.H.H.H.H.H.H.H.H.H.H.H.H.H.H.H.H.H.H.",
"H.H.H.H.H.H.H.H.H.H.H.H.H.H.H.H.H.H.H.H.H.H.H.H.H.H.H.H.H.H.H.H.H.H.H.H.H.H.H.H.H.H.H.H.H.H.H.H.H.H.H.H.H.H.H.H.H.H.H.H.H.H.H.H.",
"H.H.H.H.H.H.H.H.H.H.H.H.H.H.H.H.H.H.H.H.H.H.H.H.H.H.H.H.H.H.H.H.H.H.H.H.H.H.H.H.H.H.H.H.H.H.H.H.H.H.H.H.H.H.H.H.H.H.H.H.H.H.H.H.",
"H.H.H.H.H.H.H.H.H.H.H.H.H.H.H.H.H.H.H.H.H.H.H.H.H.H.H.H.H.H.H.H.H.H.H.H.H.H.H.H.H.H.H.H.H.H.H.H.H.H.H.H.H.H.H.H.H.H.H.H.H.H.H.H.",
"H.H.H.H.H.H.H.H.H.H.H.H.H.H.H.H.H.H.H.H.H.H.H.H.H.H.H.H.H.H.H.H.H.H.H.H.H.H.H.H.H.H.H.H.H.H.H.H.H.H.H.H.H.H.H.H.H.H.H.H.H.H.H.H.",
"H.H.H.H.H.H.H.H.H.H.H.H.H.H.H.H.H.H.H.H.H.H.H.H.H.H.H.H.H.H.H.H.H.H.H.H.H.H.H.H.H.H.H.H.H.H.H.H.H.H.H.H.H.H.H.H.H.H.H.H.H.H.H.H.",
"H.H.H.H.H.H.H.H.H.H.H.H.H.H.H.H.H.H.H.H.H.H.H.H.H.H.H.H.H.H.H.H.H.H.H.H.H.H.H.H.H.H.H.H.H.H.H.H.H.H.H.H.H.H.H.H.H.H.H.H.H.H.H.H.",
"H.H.H.H.H.H.H.H.H.H.H.H.H.H.H.H.H.H.H.H.H.H.H.H.H.H.H.H.H.H.H.H.H.H.H.H.H.H.H.H.H.H.H.H.H.H.H.H.H.H.H.H.H.H.H.H.H.H.H.H.H.H.H.H.",
"H.H.H.H.H.H.H.H.H.H.H.H.H.H.H.H.H.H.H.H.H.H.H.H.H.H.H.H.H.H.H.H.H.H.H.H.H.H.H.H.H.H.H.H.H.H.H.H.H.H.H.H.H.H.H.H.H.H.H.H.H.H.H.H.",
"H.H.H.H.H.H.H.H.H.H.H.H.H.H.H.H.H.H.H.H.H.H.H.H.H.H.H.H.H.H.H.H.H.H.H.H.H.H.H.H.H.H.H.H.H.H.H.H.H.H.H.H.H.H.H.H.H.H.H.H.H.H.H.H.",
"H.H.H.H.H.H.H.H.H.H.H.H.H.H.H.H.H.H.H.H.H.H.H.H.H.H.H.H.H.H.H.H.H.H.H.H.H.H.H.H.H.H.H.H.H.H.H.H.H.H.H.H.H.H.H.H.H.H.H.H.H.H.H.H.",
"H.H.H.H.H.H.H.H.H.H.H.H.H.H.H.H.H.H.H.H.H.H.H.H.H.H.H.H.H.H.H.H.H.H.H.H.H.H.H.H.H.H.H.H.H.H.H.H.H.H.H.H.H.H.H.H.H.H.H.H.H.H.H.H.",
"H.H.H.H.H.H.H.H.H.H.H.H.H.H.H.H.H.H.H.H.H.H.H.H.H.H.H.H.H.H.H.H.H.H.H.H.H.H.H.H.H.H.H.H.H.H.H.H.H.H.H.H.H.H.H.H.H.H.H.H.H.H.H.H.",
"H.H.H.H.H.H.H.H.H.H.H.H.H.H.H.H.H.H.H.H.H.H.H.H.H.H.H.H.H.H.H.H.H.H.H.H.H.H.H.H.H.H.H.H.H.H.H.H.H.H.H.H.H.H.H.H.H.H.H.H.H.H.H.H.",
"H.H.H.H.H.H.H.H.H.H.H.H.H.H.H.H.H.H.H.H.H.H.H.H.H.H.H.H.H.H.H.H.H.H.H.H.H.H.H.H.H.H.H.H.H.H.H.H.H.H.H.H.H.H.H.H.H.H.H.H.H.H.H.H.",
"H.H.H.H.H.H.H.H.H.H.H.H.H.H.H.H.H.H.H.H.H.H.H.H.H.H.H.H.H.H.H.H.H.H.H.H.H.H.H.H.H.H.H.H.H.H.H.H.H.H.H.H.H.H.H.H.H.H.H.H.H.H.H.H.",
"H.H.H.H.H.H.H.H.H.H.H.H.H.H.H.H.H.H.H.H.H.H.H.H.H.H.H.H.H.H.H.H.H.H.H.H.H.H.H.H.H.H.H.H.H.H.H.H.H.H.H.H.H.H.H.H.H.H.H.H.H.H.H.H.",
"H.H.H.H.H.H.H.H.H.H.H.H.H.H.H.H.H.H.H.H.H.H.H.H.H.H.H.H.H.H.H.H.H.H.H.H.H.H.H.H.H.H.H.H.H.H.H.H.H.H.H.H.H.H.H.H.H.H.H.H.H.H.H.H.",
"H.H.H.H.H.H.H.H.H.H.H.H.H.H.H.H.H.H.H.H.H.H.H.H.H.H.H.H.H.H.H.H.H.H.H.H.H.H.H.H.H.H.H.H.H.H.H.H.H.H.H.H.H.H.H.H.H.H.H.H.H.H.H.H.",
"H.H.H.H.H.H.H.H.H.H.H.H.H.H.H.H.H.H.H.H.H.H.H.H.H.H.H.H.H.H.H.H.H.H.H.H.H.H.H.H.H.H.H.H.H.H.H.H.H.H.H.H.H.H.H.H.H.H.H.H.H.H.H.H.",
"H.H.H.H.H.H.H.H.H.H.H.H.H.H.H.H.H.H.H.H.H.H.H.H.H.H.H.H.H.H.H.H.H.H.H.H.H.H.H.H.H.H.H.H.H.H.H.H.H.H.H.H.H.H.H.H.H.H.H.H.H.H.H.H.",
"H.H.H.H.H.H.H.H.H.H.H.H.H.H.H.H.H.H.H.H.H.H.H.H.H.H.H.H.H.H.H.H.H.H.H.H.H.H.H.H.H.H.H.H.H.H.H.H.H.H.H.H.H.H.H.H.H.H.H.H.H.H.H.H.",
"H.H.H.H.H.H.H.H.H.H.H.H.H.H.H.H.H.H.H.H.H.H.H.H.H.H.H.H.H.H.H.H.H.H.H.H.H.H.H.H.H.H.H.H.H.H.H.H.H.H.H.H.H.H.H.H.H.H.H.H.H.H.H.H.",
"H.H.H.H.H.H.H.H.H.H.H.H.H.H.H.H.H.H.H.H.H.H.H.H.H.H.H.H.H.H.H.H.H.H.H.H.H.H.H.H.H.H.H.H.H.H.H.H.H.H.H.H.H.H.H.H.H.H.H.H.H.H.H.H.",
"H.H.H.H.H.H.H.H.H.H.H.H.H.H.H.H.H.H.H.H.H.H.H.H.H.H.H.H.H.H.H.H.H.H.H.H.H.H.H.H.H.H.H.H.H.H.H.H.H.H.H.H.H.H.H.H.H.H.H.H.H.H.H.H.",
"H.H.H.H.H.H.H.H.H.H.H.H.H.H.H.H.H.H.H.H.H.H.H.H.H.H.H.H.H.H.H.H.H.H.H.H.H.H.H.H.H.H.H.H.H.H.H.H.H.H.H.H.H.H.H.H.H.H.H.H.H.H.H.H.",
"H.H.H.H.H.H.H.H.H.H.H.H.H.H.H.H.H.H.H.H.H.H.H.H.H.H.H.H.H.H.H.H.H.H.H.H.H.H.H.H.H.H.H.H.H.H.H.H.H.H.H.H.H.H.H.H.H.H.H.H.H.H.H.H.",
"H.H.H.H.H.H.H.H.H.H.H.H.H.H.H.H.H.H.H.H.H.H.H.H.H.H.H.H.H.H.H.H.H.H.H.H.H.H.H.H.H.H.H.H.H.H.H.H.H.H.H.H.H.H.H.H.H.H.H.H.H.H.H.H.",
"H.H.H.H.H.H.H.H.H.H.H.H.H.H.H.H.H.H.H.H.H.H.H.H.H.H.H.H.H.H.H.H.H.H.H.H.H.H.H.H.H.H.H.H.H.H.H.H.H.H.H.H.H.H.H.H.H.H.H.H.H.H.H.H.",
"H.H.H.H.H.H.H.H.H.H.H.H.H.H.H.H.H.H.H.H.H.H.H.H.H.H.H.H.H.H.H.H.H.H.H.H.H.H.H.H.H.H.H.H.H.H.H.H.H.H.H.H.H.H.H.H.H.H.H.H.H.H.H.H.",
"H.H.H.H.H.H.H.H.H.H.H.H.H.H.H.H.H.H.H.H.H.H.H.H.H.H.H.H.H.H.H.H.H.H.H.H.H.H.H.H.H.H.H.H.H.H.H.H.H.H.H.H.H.H.H.H.H.H.H.H.H.H.H.H.",
"H.H.H.H.H.H.H.H.H.H.H.H.H.H.H.H.H.H.H.H.H.H.H.H.H.H.H.H.H.H.H.H.H.H.H.H.H.H.H.H.H.H.H.H.H.H.H.H.H.H.H.H.H.H.H.H.H.H.H.H.H.H.H.H.",
"H.H.H.H.H.H.H.H.H.H.H.H.H.H.H.H.H.H.H.H.H.H.H.H.H.H.H.H.H.H.H.H.H.H.H.H.H.H.H.H.H.H.H.H.H.H.H.H.H.H.H.H.H.H.H.H.H.H.H.H.H.H.H.H.",
"H.H.H.H.H.H.H.H.H.H.H.H.H.H.H.H.H.H.H.H.H.H.H.H.H.H.H.H.H.H.H.H.H.H.H.H.H.H.H.H.H.H.H.H.H.H.H.H.H.H.H.H.H.H.H.H.H.H.H.H.H.H.H.H.",
"H.H.H.H.H.H.H.H.H.H.H.H.H.H.H.H.H.H.H.H.H.H.H.H.H.H.H.H.H.H.H.H.H.H.H.H.H.H.H.H.H.H.H.H.H.H.H.H.H.H.H.H.H.H.H.H.H.H.H.H.H.H.H.H.",
"H.H.H.H.H.H.H.H.H.H.H.H.H.H.H.H.H.H.H.H.H.H.H.H.H.H.H.H.H.H.H.H.H.H.H.H.H.H.H.H.H.H.H.H.H.H.H.H.H.H.H.H.H.H.H.H.H.H.H.H.H.H.H.H.",
"H.H.H.H.H.H.H.H.H.H.H.H.H.H.H.H.H.H.H.H.H.H.H.H.H.H.H.H.H.H.H.H.H.H.H.H.H.H.H.H.H.H.H.H.H.H.H.H.H.H.H.H.H.H.H.H.H.H.H.H.H.H.H.H.",
"H.H.H.H.H.H.H.H.H.H.H.H.H.H.H.H.H.H.H.H.H.H.H.H.H.H.H.H.H.H.H.H.H.H.H.H.H.H.H.H.H.H.H.H.H.H.H.H.H.H.H.H.H.H.H.H.H.H.H.H.H.H.H.H.",
"H.H.H.H.H.H.H.H.H.H.H.H.H.H.H.H.H.H.H.H.H.H.H.                H.H.H.H.H.H.H.H.H.H.H.H.H.H.H.H.H.H.H.H.H.H.H.H.H.H.H.H.H.H.H.H.H.",
"H.H.H.H.H.H.H.H.H.H.H.H.H.H.H.H.H.H.H.H.H.                                  H.H.H.H.H.H.H.H.H.H.H.H.H.H.H.H.H.H.H.H.H.H.H.H.H.H.",
"H.H.H.H.H.H.H.H.H.H.H.H.H.H.H.H.H.H.H.H.H.    7 q a q a a 7 7 3 % X                 H.H.H.H.H.H.H.H.H.H.H.H.H.H.H.H.H.H.H.H.H.H.",
"H.H.H.H.H.H.H.H.H.H.H.H.H.H.H.H.H.H.H.H.    3 H H H H H H H H H H D H S b 9 -           H.H.H.H.H.H.H.H.H.H.H.H.H.H.H.H.H.H.H.H.",
"H.H.H.H.H.H.H.H.H.H.H.H.H.H.H.H.H.H.H.H.    B H H H H H H H H H H H H H H H H H v %       H.H.H.H.H.H.H.H.H.H.H.H.H.H.H.H.H.H.H.",
"H.H.H.H.H.H.H.H.H.H.H.H.H.H.H.H.H.H.H.H.  X H H H H S 9 4 H H H H H H H H H H H H H a     H.H.H.H.H.H.H.H.H.H.H.H.H.H.H.H.H.H.H.",
"H.H.H.H.H.H.H.H.H.H.H.H.H.H.H.H.H.H.H.    3 H H H M X 3 b H H H H H H H H H H H H H H @   H.H.H.H.H.H.H.H.H.H.H.H.H.H.H.H.H.H.H.",
"H.H.H.H.H.H.H.H.H.H.H.H.H.H.H.H.H.H.H.    q H H C . v H H H H H H H H H H H H H H H H q     H.H.H.H.H.H.H.H.H.H.H.H.H.H.H.H.H.H.",
"H.H.H.H.H.H.H.H.H.H.H.H.H.H.H.H.H.H.H.    B H H q 4 H H H H H H H H H H H H H H H H H B     H.H.H.H.H.H.H.H.H.H.H.H.H.H.H.H.H.H.",
"H.H.H.H.H.H.H.H.H.H.H.H.H.H.H.H.H.H.      H H H 9 4 H H H H H H H H H H H H H H H H H H       H.H.H.H.H.H.H.H.H.H.H.H.H.H.H.H.H.",
"H.H.H.H.H.H.H.H.H.H.H.H.H.H.H.H.H.      o H H H M . v H H H H H H H H H H H H H H H H H %       H.H.H.H.H.H.H.H.H.H.H.H.H.H.H.H.",
"H.H.H.H.H.H.H.H.H.H.H.H.H.H.H.      X @ - H H H H n @ 3 n C H H H H H H H H H H H H H H 3 X X       H.H.H.H.H.H.H.H.H.H.H.H.H.H.",
"H.H.H.H.H.H.H.H.H.H.H.H.H.H.      9 D - 4 H H H H H D 7 - $ H H H H H H H H H H H H H H 9 @ D 3       H.H.H.H.H.H.H.H.H.H.H.H.H.",
"H.H.H.H.H.H.H.H.H.H.H.H.      $ B H H @ q H H H H H H H H D H H H H H H H H H H H H H H s . H H a       H.H.H.H.H.H.H.H.H.H.H.H.",
"H.H.H.H.H.H.H.H.H.H.H.      8 H H H H   v H H H H H H H H H H H H H H H H H H H H H H H n   H H H n       H.H.H.H.H.H.H.H.H.H.H.",
"H.H.H.H.H.H.H.H.H.H.      a H H H H H   - 7 9 q v v M n B B B B B S D D S S D S B B M M 9   S H H H M .     H.H.H.H.H.H.H.H.H.H.",
"H.H.H.H.H.H.H.H.H.      b H H H H H S   X X X X . .   . . .   X . X . X . . X .   . . .     S H H H H M       H.H.H.H.H.H.H.H.H.",
"H.H.H.H.H.H.H.H.H.    v H H H H H H M   9 7 9 4 3 % @ .                   . @ - 4 4 4 4 3   M H H H H H v     H.H.H.H.H.H.H.H.H.",
"H.H.H.H.H.H.H.H.    9 H H H H H H H v   9 3 $ .   o % 8 a v M B B C M v 9 - o   . % 4 7 3   M H H H H H H 4     H.H.H.H.H.H.H.H.",
"H.H.H.H.H.H.H.    @ H H H H H H H H q   .   @ 9 n S H H H H H H H H H H H H D M 7 @   @ 3   n H H H H H H D .   H.H.H.H.H.H.H.H.",
"H.H.H.H.H.H.H.    v H H H H H H S 9 X X 4 B H H H H H H H H H H H H H H H H H H H D a @     v H H H H H H H q     H.H.H.H.H.H.H.",
"H.H.H.H.H.H.H.    H H H H H H v X X q B H H H H H H H H H H H H H H H H H H H H H H H H a X o M H H H H H H D     H.H.H.H.H.H.H.",
"H.H.H.H.H.H.H.    S H H H D 3   9 S H H H H H H H H H H H H H H H H H H H H H H H H H H H S -   b H H H H H H @   H.H.H.H.H.H.H.",
"H.H.H.H.H.H.H.    - B H H v @ n H H H H H H H H H H H H H H H H H H H H H H H H H H H H H H H 9   M H H H H H .   H.H.H.H.H.H.H.",
"H.H.H.H.H.H.H.H.    X 9 B D S H H H H H H H H H H H H H H H H H H H H H H H H H H H H H H H H H 3 @ H H H C 3     H.H.H.H.H.H.H.",
"H.H.H.H.H.H.H.H.H.      X % 9 b B D H H H H H H H H H H H H H H H H H H H H H H H H H H H H H D M   b a 3 X     H.H.H.H.H.H.H.H.",
"H.H.H.H.H.H.H.H.H.H.H.          . o @ 3 4 9 q a a a v b a a a a a a 9 9 9 3 3 3 3 3 ; $ $ @ @ o X             H.H.H.H.H.H.H.H.H.",
"H.H.H.H.H.H.H.H.H.H.H.H.H.H.      S     O         . 9 4 9 9 0 0 9 9 v b v v   1 5 5 5 z z z x c 5         H.H.H.H.H.H.H.H.H.H.H.",
"H.H.H.H.H.H.H.H.H.H.H.H.H.H.H.    @ W g.M.M.a.W   4 z.e.l.l.l.l.z.z.c.v.v.x.v + G +.+.+.+.+.+.+.x     H.H.H.H.H.H.H.H.H.H.H.H.H.",
"H.H.H.H.H.H.H.H.H.H.H.H.H.H.      a.F.G.G.G.G.F.| @ l.v.v.v.v.v.v.v.v.v.v.v.q.$ z +.+.+.+.+.+.+.N     H.H.H.H.H.H.H.H.H.H.H.H.H.",
"H.H.H.H.H.H.H.H.H.H.H.H.H.H.    Q G.G.G.G.G.G.G.D.o 4.v.v.v.v.v.v.v.v.v.v.v.v.;.  V +.+.+.+.+.+.V     H.H.H.H.H.H.H.H.H.H.H.H.H.",
"H.H.H.H.H.H.H.H.H.H.H.H.H.H.    f.g.V.G.G.G.G.G.G.h _ v.v.v.v.v.v.v.v.v.v.v.v.x.9 5 +.+.+.+.+.+.c     H.H.H.H.H.H.H.H.H.H.H.H.H.",
"H.H.H.H.H.H.H.H.H.H.H.H.H.H.    /   = D.G.G.G.G.G.^ H v.v.v.v.v.v.v.v.v.v.v.v.v.6.. N +.+.+.+.+.x     H.H.H.H.H.H.H.H.H.H.H.H.H.",
"H.H.H.H.H.H.H.H.H.H.H.H.H.H.    } o g G.G.G.G.G.G.A K v.v.v.v.v.v.v.v.v.v.v.v.v.c.S + +.+.+.+.+.5     H.H.H.H.H.H.H.H.H.H.H.H.H.",
"H.H.H.H.H.H.H.H.H.H.H.H.H.      / m.D.G.G.G.G.G.D.= :.v.v.v.v.v.v.v.v.7.D v J w.c.w.X x +.+.+.+.+   H.H.H.H.H.H.H.H.H.H.H.H.H.H.",
"H.H.H.H.H.H.H.H.H.H.H.H.H.    %.O j.G.G.G.G.G.G.| = z.v.v.v.v.v.v.v.c.3 b ) 4 a x.c._ . G +.+.F     H.H.H.H.H.H.H.H.H.H.H.H.H.H.",
"H.H.H.H.H.H.H.H.H.H.H.H.H.    :.q = p.V.F.F.B. .o ,.v.v.v.v.v.v.v.v.v.0.c.v.q.  6.v.r.@ x +.+.c     H.H.H.H.H.H.H.H.H.H.H.H.H.H.",
"H.H.H.H.H.H.H.H.H.H.H.H.H.        o 3 : f f : 3 >.v.v.v.v.v.v.v.v.v.v.v.v.v.v.- >.v.c.J 1 +.F #     H.H.H.H.H.H.H.H.H.H.H.H.H.H.",
"H.H.H.H.H.H.H.H.H.H.H.H.H.H.      % q.6.=.*.,.w.v.v.v.v.v.v.v.v.v.v.x.r.v.v.0.  6.v.v.:.# F 2     H.H.H.H.H.H.H.H.H.H.H.H.H.H.H.",
"H.H.H.H.H.H.H.H.H.H.H.H.H.H.H.H.    *.v.v.c.v.v.v.v.v.v.v.v.v.v.v.v.,.q %._ % v x.v.v.q.  +     H.H.H.H.H.H.H.H.H.H.H.H.H.H.H.H.",
"H.H.H.H.H.H.H.H.H.H.H.H.H.H.H.H.H.  X 9.x.e.l.v.v.v.v.v.v.v.v.v.v.v.e.K 8 8 &.r.v.v.v.7.        H.H.H.H.H.H.H.H.H.H.H.H.H.H.H.H.",
"H.H.H.H.H.H.H.H.H.H.H.H.H.H.H.H.H.    % b 4 q &.w.v.v.v.v.v.v.v.v.v.v.v.r.r.v.v.v.v.8.&     H.H.H.H.H.H.H.H.H.H.H.H.H.H.H.H.H.H.",
"H.H.H.H.H.H.H.H.H.H.H.H.H.H.H.H.H.H.      J K 3 _ v.v.v.v.v.v.v.v.v.v.v.v.v.v.v.c.6.&     H.H.H.H.H.H.H.H.H.H.H.H.H.H.H.H.H.H.H.",
"H.H.H.H.H.H.H.H.H.H.H.H.H.H.H.H.H.H.H.    @ =.q.r.v.v.v.v.v.v.v.v.v.v.v.v.v.v.r.) X     H.H.H.H.H.H.H.H.H.H.H.H.H.H.H.H.H.H.H.H.",
"H.H.H.H.H.H.H.H.H.H.H.H.H.H.H.H.H.H.H.H.      q ,.w.c.v.v.v.v.v.v.v.v.v.c.w.=.3       H.H.H.H.H.H.H.H.H.H.H.H.H.H.H.H.H.H.H.H.H.",
"H.H.H.H.H.H.H.H.H.H.H.H.H.H.H.H.H.H.H.H.    > l . % M *.6.q.w.w.w.q.7.=.C ;         H.H.H.H.H.H.H.H.H.H.H.H.H.H.H.H.H.H.H.H.H.H.",
"H.H.H.H.H.H.H.H.H.H.H.H.H.H.H.H.H.H.H.H.  . o.#.j 6 p $ X X $ $ 3 $ $ 8 Z 5.L       H.H.H.H.H.H.H.H.H.H.H.H.H.H.H.H.H.H.H.H.H.H.",
"H.H.H.H.H.H.H.H.H.H.H.H.H.H.H.H.H.H.H.    ..#.#.j m -.-.] ( m   2.t.y.i.i.i.u.&     H.H.H.H.H.H.H.H.H.H.H.H.H.H.H.H.H.H.H.H.H.H.",
"H.H.H.H.H.H.H.H.H.H.H.H.H.H.H.H.H.H.H.  , @.#.#.j m -.-.-.-.-.6 e i.i.i.i.t.Z X     H.H.H.H.H.H.H.H.H.H.H.H.H.H.H.H.H.H.H.H.H.H.",
"H.H.H.H.H.H.H.H.H.H.H.H.H.H.H.H.H.H.    X.@.O.O.< m -.-.-.-.-.( . 3.i.y.L X   A @   H.H.H.H.H.H.H.H.H.H.H.H.H.H.H.H.H.H.H.H.H.H.",
"H.H.H.H.H.H.H.H.H.H.H.H.H.H.H.H.H.H.    , k k <   d -.-.-.-.-.-.m $ P o . 4.6 p 3   H.H.H.H.H.H.H.H.H.H.H.H.H.H.H.H.H.H.H.H.H.H.",
"H.H.H.H.H.H.H.H.H.H.H.H.H.H.H.H.H.H.H.            9 ' ' ' ' ' ' `     p   q.4.  $   H.H.H.H.H.H.H.H.H.H.H.H.H.H.H.H.H.H.H.H.H.H.",
"H.H.H.H.H.H.H.H.H.H.H.H.H.H.H.H.H.H.H.H.H.      O   . o X         O       H x.$     H.H.H.H.H.H.H.H.H.H.H.H.H.H.H.H.H.H.H.H.H.H.",
"H.H.H.H.H.H.H.H.H.H.H.H.H.H.H.H.H.H.H.H.H.H.    ;.  s.b.h.@ r T T T Y y   @ c.H     H.H.H.H.H.H.H.H.H.H.H.H.H.H.H.H.H.H.H.H.H.H.",
"H.H.H.H.H.H.H.H.H.H.H.H.H.H.H.H.H.H.H.H.H.H.    8.  n.A.A.s.  Y E R I   A   q.r.v     H.H.H.H.H.H.H.H.H.H.H.H.H.H.H.H.H.H.H.H.H.",
"H.H.H.H.H.H.H.H.H.H.H.H.H.H.H.H.H.H.H.H.H.H.    X   N.A.A.A.~ O I * o [  .  K x._     H.H.H.H.H.H.H.H.H.H.H.H.H.H.H.H.H.H.H.H.H.",
"H.H.H.H.H.H.H.H.H.H.H.H.H.H.H.H.H.H.                A.A.A.A.Z.f   ! n.A.! .   9           O H.H.H.H.H.H.H.H.H.H.H.H.H.H.H.H.H.H.",
"H.H.H.H.H.H.H.H.H.H.H.H.H.H.H.H.H.H.                A.A.A.A.A.d.  : h.Z.N.s.: p  . .        H.H.H.H.H.H.H.H.H.H.H.H.H.H.H.H.H.H.",
"H.H.H.H.H.H.H.H.      X .     O .                 = Z.A.A.A.A.g     O s.[ = Y D.B.u             O     .   .     H.H.H.H.H.H.H.H.",
"H.H.H.H.H.H.H.H.      . O         O                 f d.C.A.h.          : a.F.h.i               .   .     O     H.H.H.H.H.H.H.H.",
"H.H..     O . O                             i m.a.i     $ ~ g         i D.B.|                                   . O         H.H.",
"H.H.X                                          .G.G.j.a.^             : :                                         . O . O . H.H.",
"                                                W m.G.G.g.                                                                      ",
".                                                   = u :                                                                   .   ",
"                                                                                                                    O           ",
"    O     O   .                                                                                                 .               ",
"H.H.H.H.  X                   O                                                               O                         H.H.H.H.",
"H.H.H.H.        X                                                                                       O               H.H.H.H.",
"H.H.H.H.H.H.H.H.H.H.X     .   .   O                                                         . .   O X       H.H.H.H.H.H.H.H.H.H.",
"H.H.H.H.H.H.H.H.H.H.  O   O                                                                           O X   H.H.H.H.H.H.H.H.H.H.",
"H.H.H.H.H.H.H.H.H.H.H.H.H.H.H.H.H.H.H.H.                                                H.H.H.H.H.H.H.H.H.H.H.H.H.H.H.H.H.H.H.H.",
"H.H.H.H.H.H.H.H.H.H.H.H.H.H.H.H.H.H.H.H.                                                H.H.H.H.H.H.H.H.H.H.H.H.H.H.H.H.H.H.H.H."
};
