/* XPM */
static char *result[] = {
/* columns rows colors chars-per-pixel */
"64 128 150 2 ",
"   c #010101",
".  c #090604",
"X  c #0B0907",
"o  c #0B0A09",
"O  c #05090D",
"+  c #120A07",
"@  c #130E0B",
"#  c #15110C",
"$  c #19130E",
"%  c #18180A",
"&  c #080D13",
"*  c #0B121B",
"=  c #141413",
"-  c #1E1611",
";  c #1C1913",
":  c #200709",
">  c #240809",
",  c #380C0F",
"<  c #300B0C",
"1  c #23140C",
"2  c #241B14",
"3  c #291E16",
"4  c #321B11",
"5  c #20200E",
"6  c #2B2017",
"7  c #2D2219",
"8  c #242410",
"9  c #3E2216",
"0  c #32251B",
"q  c #372A1E",
"w  c #392B1F",
"e  c #303015",
"r  c #3C3C1A",
"t  c #13202F",
"y  c #152435",
"u  c #202020",
"i  c #2C2B29",
"p  c #342E22",
"a  c #3C2D21",
"s  c #3E3124",
"d  c #32322D",
"f  c #3F3829",
"g  c #353533",
"h  c #3D3D3A",
"j  c #521316",
"k  c #452618",
"l  c #4C2A1A",
"z  c #412417",
"x  c #532E1D",
"c  c #443325",
"v  c #483627",
"b  c #493728",
"n  c #443C2B",
"m  c #4C392A",
"M  c #523E2D",
"N  c #6F3D27",
"B  c #653823",
"V  c #733F28",
"C  c #49412F",
"Z  c #4C4C21",
"A  c #56402F",
"S  c #58422F",
"D  c #505022",
"F  c #585826",
"G  c #42413B",
"H  c #5C4532",
"J  c #544A36",
"K  c #5E533D",
"L  c #754029",
"P  c #7D452C",
"I  c #654C37",
"U  c #684E37",
"Y  c #684E38",
"T  c #6C513A",
"R  c #72563D",
"E  c #606029",
"W  c #1F344E",
"Q  c #284465",
"!  c gray25",
"~  c #4A4842",
"^  c #4B4B4B",
"/  c gray32",
"(  c #595750",
")  c #595850",
"_  c #655941",
"`  c #7C5D42",
"'  c #7D6E51",
"]  c #626262",
"[  c #686868",
"{  c #7C7A6F",
"}  c #7B7B7B",
"|  c #7F7D73",
" . c #8F2025",
".. c #AF272D",
"X. c #BF2A32",
"o. c #C72C34",
"O. c #DF313A",
"+. c #81472D",
"@. c #FF3842",
"#. c #FB3741",
"$. c #816144",
"%. c #886649",
"&. c #8C694B",
"*. c #906C4D",
"=. c #867656",
"-. c #997352",
";. c #9F7855",
":. c #A27956",
">. c #A37B58",
",. c #808037",
"<. c #8C8C3C",
"1. c #AD835D",
"2. c #87857A",
"3. c #B38760",
"4. c #B98C63",
"5. c #BF9066",
"6. c #C09066",
"7. c #C39368",
"8. c #CF9C6F",
"9. c #D39F71",
"0. c #DFA877",
"q. c #DBA575",
"w. c #E7AE7B",
"e. c #EBB17E",
"r. c #FFFF6D",
"t. c #8F8D80",
"y. c #9B988B",
"u. c #9A9A9A",
"i. c gray58",
"p. c #AAA799",
"a. c #A0A0A0",
"s. c gray67",
"d. c #BBBBBB",
"f. c #EFB480",
"g. c #F3B782",
"h. c #F7BA84",
"j. c #FBBD86",
"k. c #C1BEAE",
"l. c #FFC088",
"z. c #C5C2B1",
"x. c #D4D1BF",
"c. c #DDDDDD",
"v. c #E0DCC9",
"b. c #ECE8D4",
"n. c #F3EFDB",
"m. c #F7F3DE",
"M. c #ECECEC",
"N. c #F4F4F4",
"B. c #FFFFFF",
"V. c None",
/* pixels */
"V.V.V.V.V.V.V.V.V.V.V.V.V.V.V.V.V.V.V.V.V.V.V.V.V.V.V.V.V.V.V.V.V.V.V.V.V.V.V.V.V.V.V.V.V.V.V.V.V.V.V.V.V.V.V.V.V.V.V.V.V.V.V.V.",
"V.V.V.V.V.V.V.V.V.V.V.V.V.V.V.V.V.V.V.V.V.V.V.V.V.V.V.V.V.V.V.V.V.V.V.V.V.V.V.V.V.V.V.V.V.V.V.V.V.V.V.V.V.V.V.V.V.V.V.V.V.V.V.V.",
"V.V.V.V.V.V.V.V.V.V.V.V.V.V.V.V.V.V.V.V.V.V.V.V.V.V.V.V.V.V.V.V.V.V.V.V.V.V.V.V.V.V.V.V.V.V.V.V.V.V.V.V.V.V.V.V.V.V.V.V.V.V.V.V.",
"V.V.V.V.V.V.V.V.V.V.V.V.V.V.V.V.V.V.V.V.V.V.V.V.V.V.V.V.V.V.V.V.V.V.V.V.V.V.V.V.V.V.V.V.V.V.V.V.V.V.V.V.V.V.V.V.V.V.V.V.V.V.V.V.",
"V.V.V.V.V.V.V.V.V.V.V.V.V.V.V.V.V.V.V.V.V.V.V.V.V.V.V.V.V.V.V.V.V.V.V.V.V.V.V.V.V.V.V.V.V.V.V.V.V.V.V.V.V.V.V.V.V.V.V.V.V.V.V.V.",
"V.V.V.V.V.V.V.V.V.V.V.V.V.V.V.V.V.V.V.V.V.V.V.V.V.V.V.V.V.V.V.V.V.V.V.V.V.V.V.V.V.V.V.V.V.V.V.V.V.V.V.V.V.V.V.V.V.V.V.V.V.V.V.V.",
"V.V.V.V.V.V.V.V.V.V.V.V.V.V.V.V.V.V.V.V.V.V.V.V.V.V.V.V.V.V.V.V.V.V.V.V.V.V.V.V.V.V.V.V.V.V.V.V.V.V.V.V.V.V.V.V.V.V.V.V.V.V.V.V.",
"V.V.V.V.V.V.V.V.V.V.V.V.V.V.V.V.V.V.V.V.V.V.V.V.V.V.V.V.V.V.V.V.V.V.V.V.V.V.V.V.V.V.V.V.V.V.V.V.V.V.V.V.V.V.V.V.V.V.V.V.V.V.V.V.",
"V.V.V.V.V.V.V.V.V.V.V.V.V.V.V.V.V.V.V.V.V.V.V.V.V.V.V.V.V.V.V.V.V.V.V.V.V.V.V.V.V.V.V.V.V.V.V.V.V.V.V.V.V.V.V.V.V.V.V.V.V.V.V.V.",
"V.V.V.V.V.V.V.V.V.V.V.V.V.V.V.V.V.V.V.V.V.V.V.V.V.V.V.V.V.V.V.V.V.V.V.V.V.V.V.V.V.V.V.V.V.V.V.V.V.V.V.V.V.V.V.V.V.V.V.V.V.V.V.V.",
"V.V.V.V.V.V.V.V.V.V.V.V.V.V.V.V.V.V.V.V.V.V.V.V.V.V.V.V.V.V.V.V.V.V.V.V.V.V.V.V.V.V.V.V.V.V.V.V.V.V.V.V.V.V.V.V.V.V.V.V.V.V.V.V.",
"V.V.V.V.V.V.V.V.V.V.V.V.V.V.V.V.V.V.V.V.V.V.V.V.V.V.V.V.V.V.V.V.V.V.V.V.V.V.V.V.V.V.V.V.V.V.V.V.V.V.V.V.V.V.V.V.V.V.V.V.V.V.V.V.",
"V.V.V.V.V.V.V.V.V.V.V.V.V.V.V.V.V.V.V.V.V.V.V.V.V.V.V.V.V.V.V.V.V.V.V.V.V.V.V.V.V.V.V.V.V.V.V.V.V.V.V.V.V.V.V.V.V.V.V.V.V.V.V.V.",
"V.V.V.V.V.V.V.V.V.V.V.V.V.V.V.V.V.V.V.V.V.V.V.V.V.V.V.V.V.V.V.V.V.V.V.V.V.V.V.V.V.V.V.V.V.V.V.V.V.V.V.V.V.V.V.V.V.V.V.V.V.V.V.V.",
"V.V.V.V.V.V.V.V.V.V.V.V.V.V.V.V.V.V.V.V.V.V.V.V.V.V.V.V.V.V.V.V.V.V.V.V.V.V.V.V.V.V.V.V.V.V.V.V.V.V.V.V.V.V.V.V.V.V.V.V.V.V.V.V.",
"V.V.V.V.V.V.V.V.V.V.V.V.V.V.V.V.V.V.V.V.V.V.V.V.V.V.V.V.V.V.V.V.V.V.V.V.V.V.V.V.V.V.V.V.V.V.V.V.V.V.V.V.V.V.V.V.V.V.V.V.V.V.V.V.",
"V.V.V.V.V.V.V.V.V.V.V.V.V.V.V.V.V.V.V.V.V.V.V.V.V.V.V.V.V.V.V.V.V.V.V.V.V.V.V.V.V.V.V.V.V.V.V.V.V.V.V.V.V.V.V.V.V.V.V.V.V.V.V.V.",
"V.V.V.V.V.V.V.V.V.V.V.V.V.V.V.V.V.V.V.V.V.V.V.V.V.V.V.V.V.V.V.V.V.V.V.V.V.V.V.V.V.V.V.V.V.V.V.V.V.V.V.V.V.V.V.V.V.V.V.V.V.V.V.V.",
"V.V.V.V.V.V.V.V.V.V.V.V.V.V.V.V.V.V.V.V.V.V.V.V.V.V.V.V.V.V.V.V.V.V.V.V.V.V.V.V.V.V.V.V.V.V.V.V.V.V.V.V.V.V.V.V.V.V.V.V.V.V.V.V.",
"V.V.V.V.V.V.V.V.V.V.V.V.V.V.V.V.V.V.V.V.V.V.V.V.V.V.V.V.V.V.V.V.V.V.V.V.V.V.V.V.V.V.V.V.V.V.V.V.V.V.V.V.V.V.V.V.V.V.V.V.V.V.V.V.",
"V.V.V.V.V.V.V.V.V.V.V.V.V.V.V.V.V.V.V.V.V.V.V.V.V.V.V.V.V.V.V.V.V.V.V.V.V.V.V.V.V.V.V.V.V.V.V.V.V.V.V.V.V.V.V.V.V.V.V.V.V.V.V.V.",
"V.V.V.V.V.V.V.V.V.V.V.V.V.V.V.V.V.V.V.V.V.V.V.V.V.V.V.V.V.V.V.V.V.V.V.V.V.V.V.V.V.V.V.V.V.V.V.V.V.V.V.V.V.V.V.V.V.V.V.V.V.V.V.V.",
"V.V.V.V.V.V.V.V.V.V.V.V.V.V.V.V.V.V.V.V.V.V.V.V.V.V.V.V.V.V.V.V.V.V.V.V.V.V.V.V.V.V.V.V.V.V.V.V.V.V.V.V.V.V.V.V.V.V.V.V.V.V.V.V.",
"V.V.V.V.V.V.V.V.V.V.V.V.V.V.V.V.V.V.V.V.V.V.V.V.V.V.V.V.V.V.V.V.V.V.V.V.V.V.V.V.V.V.V.V.V.V.V.V.V.V.V.V.V.V.V.V.V.V.V.V.V.V.V.V.",
"V.V.V.V.V.V.V.V.V.V.V.V.V.V.V.V.V.V.V.V.V.V.V.V.V.V.V.V.V.V.V.V.V.V.V.V.V.V.V.V.V.V.V.V.V.V.V.V.V.V.V.V.V.V.V.V.V.V.V.V.V.V.V.V.",
"V.V.V.V.V.V.V.V.V.V.V.V.V.V.V.V.V.V.V.V.V.V.V.V.V.V.V.V.V.V.V.V.V.V.V.V.V.V.V.V.V.V.V.V.V.V.V.V.V.V.V.V.V.V.V.V.V.V.V.V.V.V.V.V.",
"V.V.V.V.V.V.V.V.V.V.V.V.V.V.V.V.V.V.V.V.V.V.V.V.V.V.V.V.V.V.V.V.V.V.V.V.V.V.V.V.V.V.V.V.V.V.V.V.V.V.V.V.V.V.V.V.V.V.V.V.V.V.V.V.",
"V.V.V.V.V.V.V.V.V.V.V.V.V.V.V.V.V.V.V.V.V.V.V.V.V.V.V.V.V.V.V.V.V.V.V.V.V.V.V.V.V.V.V.V.V.V.V.V.V.V.V.V.V.V.V.V.V.V.V.V.V.V.V.V.",
"V.V.V.V.V.V.V.V.V.V.V.V.V.V.V.V.V.V.V.V.V.V.V.V.V.V.V.V.V.V.V.V.V.V.V.V.V.V.V.V.V.V.V.V.V.V.V.V.V.V.V.V.V.V.V.V.V.V.V.V.V.V.V.V.",
"V.V.V.V.V.V.V.V.V.V.V.V.V.V.V.V.V.V.V.V.V.V.V.V.V.V.V.V.V.V.V.V.V.V.V.V.V.V.V.V.V.V.V.V.V.V.V.V.V.V.V.V.V.V.V.V.V.V.V.V.V.V.V.V.",
"V.V.V.V.V.V.V.V.V.V.V.V.V.V.V.V.V.V.V.V.V.V.V.V.V.V.V.V.V.V.V.V.V.V.V.V.V.V.V.V.V.V.V.V.V.V.V.V.V.V.V.V.V.V.V.V.V.V.V.V.V.V.V.V.",
"V.V.V.V.V.V.V.V.V.V.V.V.V.V.V.V.V.V.V.V.V.V.V.V.V.V.V.V.V.V.V.V.V.V.V.V.V.V.V.V.V.V.V.V.V.V.V.V.V.V.V.V.V.V.V.V.V.V.V.V.V.V.V.V.",
"V.V.V.V.V.V.V.V.V.V.V.V.V.V.V.V.V.V.V.V.V.V.V.V.V.V.V.V.V.V.V.V.V.V.V.V.V.V.V.V.V.V.V.V.V.V.V.V.V.V.V.V.V.V.V.V.V.V.V.V.V.V.V.V.",
"V.V.V.V.V.V.V.V.V.V.V.V.V.V.V.V.V.V.V.V.V.V.V.V.V.V.V.V.V.V.V.V.V.V.V.V.V.V.V.V.V.V.V.V.V.V.V.V.V.V.V.V.V.V.V.V.V.V.V.V.V.V.V.V.",
"V.V.V.V.V.V.V.V.V.V.V.V.V.V.V.V.V.V.V.V.V.V.V.V.V.V.V.V.V.V.V.V.V.V.V.V.V.V.V.V.V.V.V.V.V.V.V.V.V.V.V.V.V.V.V.V.V.V.V.V.V.V.V.V.",
"V.V.V.V.V.V.V.V.V.V.V.V.V.V.V.V.V.V.V.V.V.V.V.V.V.V.V.V.V.V.V.V.V.V.V.V.V.V.V.V.V.V.V.V.V.V.V.V.V.V.V.V.V.V.V.V.V.V.V.V.V.V.V.V.",
"V.V.V.V.V.V.V.V.V.V.V.V.V.V.V.V.V.V.V.V.V.V.V.V.V.V.V.V.V.V.V.V.V.V.V.V.V.V.V.V.V.V.V.V.V.V.V.V.V.V.V.V.V.V.V.V.V.V.V.V.V.V.V.V.",
"V.V.V.V.V.V.V.V.V.V.V.V.V.V.V.V.V.V.V.V.V.V.V.V.V.V.V.V.V.V.V.V.V.V.V.V.V.V.V.V.V.V.V.V.V.V.V.V.V.V.V.V.V.V.V.V.V.V.V.V.V.V.V.V.",
"V.V.V.V.V.V.V.V.V.V.V.V.V.V.V.V.V.V.V.V.V.V.V.V.V.V.V.V.V.V.V.V.V.V.V.V.V.V.V.V.V.V.V.V.V.V.V.V.V.V.V.V.V.V.V.V.V.V.V.V.V.V.V.V.",
"V.V.V.V.V.V.V.V.V.V.V.V.V.V.V.V.V.V.V.V.V.V.V.V.V.V.V.V.V.V.V.V.V.V.V.V.V.V.V.V.V.V.V.V.V.V.V.V.V.V.V.V.V.V.V.V.V.V.V.V.V.V.V.V.",
"V.V.V.V.V.V.V.V.V.V.V.V.V.V.V.V.V.V.V.V.V.V.V.V.V.V.V.V.V.V.V.V.V.V.V.V.V.V.V.V.V.V.V.V.V.V.V.V.V.V.V.V.V.V.V.V.V.V.V.V.V.V.V.V.",
"V.V.V.V.V.V.V.V.V.V.V.V.V.V.V.V.V.V.V.V.V.V.V.V.V.V.V.V.V.V.V.V.V.V.V.V.V.V.V.V.V.V.V.V.V.V.V.V.V.V.V.V.V.V.V.V.V.V.V.V.V.V.V.V.",
"V.V.V.V.V.V.V.V.V.V.V.V.V.V.V.V.V.V.V.V.V.V.V.V.V.V.V.V.V.V.V.V.V.V.V.V.V.V.V.V.V.V.V.V.V.V.V.V.V.V.V.V.V.V.V.V.V.V.V.V.V.V.V.V.",
"V.V.V.V.V.V.V.V.V.V.V.V.V.V.V.V.V.V.V.V.V.V.V.V.V.V.V.V.V.V.V.V.V.V.V.V.V.V.V.V.V.V.V.V.V.V.V.V.V.V.V.V.V.V.V.V.V.V.V.V.V.V.V.V.",
"V.V.V.V.V.V.V.V.V.V.V.V.V.V.V.V.V.V.V.V.V.V.V.V.V.V.V.V.V.V.V.V.V.V.V.V.V.V.V.V.V.V.V.V.V.V.V.V.V.V.V.V.V.V.V.V.V.V.V.V.V.V.V.V.",
"V.V.V.V.V.V.V.V.V.V.V.V.V.V.V.V.V.V.V.V.V.V.V.V.V.V.V.V.V.V.V.V.V.V.V.V.V.V.V.V.V.V.V.V.V.V.V.V.V.V.V.V.V.V.V.V.V.V.V.V.V.V.V.V.",
"V.V.V.V.V.V.V.V.V.V.V.V.V.V.V.V.V.V.V.V.V.V.V.V.V.V.V.V.V.V.V.V.V.V.V.V.V.V.V.V.V.V.V.V.V.V.V.V.V.V.V.V.V.V.V.V.V.V.V.V.V.V.V.V.",
"V.V.V.V.V.V.V.V.V.V.V.V.V.V.V.V.V.V.V.V.V.V.V.V.V.V.V.V.V.V.V.V.V.V.V.V.V.V.V.V.V.V.V.V.V.V.V.V.V.V.V.V.V.V.V.V.V.V.V.V.V.V.V.V.",
"V.V.V.V.V.V.V.V.V.V.V.V.V.V.V.V.V.V.V.V.V.V.V.V.V.V.V.V.V.V.V.V.V.V.V.V.V.V.V.V.V.V.V.V.V.V.V.V.V.V.V.V.V.V.V.V.V.V.V.V.V.V.V.V.",
"V.V.V.V.V.V.V.V.V.V.V.V.V.V.V.V.V.V.V.V.V.V.V.V.V.V.V.V.V.V.V.V.V.V.V.V.V.V.V.V.V.V.V.V.V.V.V.V.V.V.V.V.V.V.V.V.V.V.V.V.V.V.V.V.",
"V.V.V.V.V.V.V.V.V.V.V.V.V.V.V.V.V.V.V.V.V.V.V.V.V.V.V.V.V.V.V.V.V.V.V.V.V.V.V.V.V.V.V.V.V.V.V.V.V.V.V.V.V.V.V.V.V.V.V.V.V.V.V.V.",
"V.V.V.V.V.V.V.V.V.V.V.V.V.V.V.V.V.V.V.V.V.V.V.V.V.V.V.V.V.V.V.V.V.V.V.V.V.V.V.V.V.V.V.V.V.V.V.V.V.V.V.V.V.V.V.V.V.V.V.V.V.V.V.V.",
"V.V.V.V.V.V.V.V.V.V.V.V.V.V.V.V.V.V.V.V.V.V.V.V.V.V.V.V.V.V.V.V.V.V.V.V.V.V.V.V.V.V.V.V.V.V.V.V.V.V.V.V.V.V.V.V.V.V.V.V.V.V.V.V.",
"V.V.V.V.V.V.V.V.V.V.V.V.V.V.V.V.V.V.V.V.V.V.V.V.V.V.V.V.V.V.V.V.V.V.V.V.V.V.V.V.V.V.V.V.V.V.V.V.V.V.V.V.V.V.V.V.V.V.V.V.V.V.V.V.",
"V.V.V.V.V.V.V.V.V.V.V.V.V.V.V.V.V.V.V.V.V.V.V.V.V.V.V.V.V.V.V.V.V.V.V.V.V.V.V.V.V.V.V.V.V.V.V.V.V.V.V.V.V.V.V.V.V.V.V.V.V.V.V.V.",
"V.V.V.V.V.V.V.V.V.V.V.V.V.V.V.V.V.V.V.V.V.V.V.V.V.V.V.V.V.V.V.                    V.V.V.V.V.V.V.V.V.V.V.V.V.V.V.V.V.V.V.V.V.V.V.",
"V.V.V.V.V.V.V.V.V.V.V.V.V.V.V.V.V.V.V.V.V.V.V.V.V.V.                                V.V.V.V.V.V.V.V.V.V.V.V.V.V.V.V.V.V.V.V.V.V.",
"V.V.V.V.V.V.V.V.V.V.V.V.V.V.V.V.V.V.V.V.V.V.              . # 2 7 w c m m S S M 2     V.V.V.V.V.V.V.V.V.V.V.V.V.V.V.V.V.V.V.V.V.",
"V.V.V.V.V.V.V.V.V.V.V.V.V.V.V.V.V.V.V.V.        . - q b H Y Y I I I I I I I I I H .   V.V.V.V.V.V.V.V.V.V.V.V.V.V.V.V.V.V.V.V.V.",
"V.V.V.V.V.V.V.V.V.V.V.V.V.V.V.V.V.V.V.      2 c I I I I I I I I I I I I I I I I I 3     V.V.V.V.V.V.V.V.V.V.V.V.V.V.V.V.V.V.V.V.",
"V.V.V.V.V.V.V.V.V.V.V.V.V.V.V.V.V.V.V.  . m I I I I I I I I I I I I v $ 0 I I I I b     V.V.V.V.V.V.V.V.V.V.V.V.V.V.V.V.V.V.V.V.",
"V.V.V.V.V.V.V.V.V.V.V.V.V.V.V.V.V.V.    w I I I I I I I I I I I I I I b 2 o H I I I     V.V.V.V.V.V.V.V.V.V.V.V.V.V.V.V.V.V.V.V.",
"V.V.V.V.V.V.V.V.V.V.V.V.V.V.V.V.V.V.    H I I I I I I I I I I I I I I I I 0 @ I I I #   V.V.V.V.V.V.V.V.V.V.V.V.V.V.V.V.V.V.V.V.",
"V.V.V.V.V.V.V.V.V.V.V.V.V.V.V.V.V.V.  @ Y I Y I I I I I I I I I I I I I I I . H I I 7     V.V.V.V.V.V.V.V.V.V.V.V.V.V.V.V.V.V.V.",
"V.V.V.V.V.V.V.V.V.V.V.V.V.V.V.V.V.    3 I I I I I I I I I I I I I I I I I I . H I I c       V.V.V.V.V.V.V.V.V.V.V.V.V.V.V.V.V.V.",
"V.V.V.V.V.V.V.V.V.V.V.V.V.V.V.V.      w I I I I I I I I Y I I I I I I I M @ 3 I I I S           V.V.V.V.V.V.V.V.V.V.V.V.V.V.V.V.",
"V.V.V.V.V.V.V.V.V.V.V.V.V.V.      .   c Y I I I I I Y I I I I Y Y I a 7 . q I I I I I   q 3         V.V.V.V.V.V.V.V.V.V.V.V.V.V.",
"V.V.V.V.V.V.V.V.V.V.V.V.V.      $ M   M I I I I Y I I I I I I I I M 2 0 M I I I I I I @ q I M @       V.V.V.V.V.V.V.V.V.V.V.V.V.",
"V.V.V.V.V.V.V.V.V.V.V.V.      0 I S   H I I I I I I I I I I I I I I I I I I I I I I I 2 3 I I I q       V.V.V.V.V.V.V.V.V.V.V.V.",
"V.V.V.V.V.V.V.V.V.V.V.      c I I m   I I I I I I I I I I I I I I I I I I I I I I I I 3 $ I Y I I M o     V.V.V.V.V.V.V.V.V.V.V.",
"V.V.V.V.V.V.V.V.V.V.      c I I Y m   M S I I I I I I I H H H M m b a a q 3 3 $ @ .     o Y I I I I H $     V.V.V.V.V.V.V.V.V.V.",
"V.V.V.V.V.V.V.V.V.      c Y I I I a                                   . X o @ $ $ - 2 -   I I I I I I I #     V.V.V.V.V.V.V.V.V.",
"V.V.V.V.V.V.V.V.V.    0 Y I I I Y a   2 3 3 3 2 - @ .                     . @ - 3 0 0 3   M I I I I I I H o     V.V.V.V.V.V.V.V.",
"V.V.V.V.V.V.V.V.    $ I I I I I Y s   3 0 3 - .   X 2 q v S H Y I I S M c q - .     @ 2   m I I I I I I Y S     V.V.V.V.V.V.V.V.",
"V.V.V.V.V.V.V.V.    H I I Y I I I s   3 @   . 3 m I I I I I I I I I I I I I Y I S q #     3 H Y I I I I I I 0     V.V.V.V.V.V.V.",
"V.V.V.V.V.V.V.    7 I I I I I I I a   . . p I I Y I I I I I I I Y I I I I I I I I I I H 0 . . 0 I I I I I I S     V.V.V.V.V.V.V.",
"V.V.V.V.V.V.V.    H I I I I I Y H @ . 0 I I I I I I I I U I I I I I I I I I Y I I I I I I I q . X v I I I I H     V.V.V.V.V.V.V.",
"V.V.V.V.V.V.V.  @ I I I I I Y M . @ M I I I I I I I Y I I I I I I I I I I I I I I I Y I I I I I 6   v I I I 3     V.V.V.V.V.V.V.",
"V.V.V.V.V.V.V.  @ Y I I I I H . $ I I I I I I I Y I I I I I I I I I I I I I I I I I I I I I I I I m H I m #     V.V.V.V.V.V.V.V.",
"V.V.V.V.V.V.V.    v I I I I 2 @ H I I I I I I I I I I I I I I I I Y Y I I I I I I I I I I I I I I M 0 @       V.V.V.V.V.V.V.V.V.",
"V.V.V.V.V.V.V.      2 c H H   m I I I I I I I I I I I I I I I I I I I I I I I I I I I S m a 7 - .           V.V.V.V.V.V.V.V.V.V.",
"V.V.V.V.V.V.V.V.          .   $ $ 2 3 3 2 3 3 2 2 3 3 2 2 3 3 2 3 2 2 3 2 $ $ # X .         q         V.V.V.V.V.V.V.V.V.V.V.V.V.",
"V.V.V.V.V.V.V.V.V.V.          1 9 4 4 4 3 4 4 4 1   c I I S H I H I H I R ` #     = ^ ] ^ O 0 .   V.V.V.V.V.V.V.V.V.V.V.V.V.V.V.",
"V.V.V.V.V.V.V.V.V.V.V.V.V.    z +.+.+.+.+.+.+.+.1 3 h.j.l.l.l.l.l.l.l.j.l.l.m o a.N.B.B.B.c.~       V.V.V.V.V.V.V.V.V.V.V.V.V.V.",
"V.V.V.V.V.V.V.V.V.V.V.V.V.    k +.+.+.+.+.+.+.x   9.l.l.l.l.l.l.l.l.l.l.l.g.. u.B.B.B.B.B.B.B.h     V.V.V.V.V.V.V.V.V.V.V.V.V.V.",
"V.V.V.V.V.V.V.V.V.V.V.V.V.    k +.+.+.+.+.+.P + R l.l.l.l.l.l.l.l.l.l.l.l.4.  N.B.B.B.B.B.B.B.d.    V.V.V.V.V.V.V.V.V.V.V.V.V.V.",
"V.V.V.V.V.V.V.V.V.V.V.V.V.    z +.+.+.+.+.+.k X e.l.l.l.l.l.l.l.l.l.l.l.l.:.u B.B.B.B.B.B.} O }     V.V.V.V.V.V.V.V.V.V.V.V.V.V.",
"V.V.V.V.V.V.V.V.V.V.V.V.V.    4 +.+.+.+.+.V . *.l.l.l.l.l.l.l.l.l.l.l.l.l.>.= B.B.B.B.B.B.g   ^     V.V.V.V.V.V.V.V.V.V.V.V.V.V.",
"V.V.V.V.V.V.V.V.V.V.V.V.V.V.  @ +.+.+.+.+.4 2 h.l.l.l.l.l.l.l.l.l.l.l.l.l.7.  M.B.B.B.B.B.c.} s.      V.V.V.V.V.V.V.V.V.V.V.V.V.",
"V.V.V.V.V.V.V.V.V.V.V.V.V.V.    L +.+.+.V   >.l.h.R 3 3 R g.l.l.l.l.l.l.l.h.# } B.B.B.B.B.B.B./ 0 $   V.V.V.V.V.V.V.V.V.V.V.V.V.",
"V.V.V.V.V.V.V.V.V.V.V.V.V.V.    x P +.+.4 0 j.l.T $ &.&.2 3.l.l.l.l.l.l.l.l.-.. s.B.B.B.B.N.] . 7.v     V.V.V.V.V.V.V.V.V.V.V.V.",
"V.V.V.V.V.V.V.V.V.V.V.V.V.V.    4 +.+.V   1.l.l.. >.l.l.l.l.l.l.l.l.l.l.l.l.l.R   ^ i.u.] =   .       V.V.V.V.V.V.V.V.V.V.V.V.V.",
"V.V.V.V.V.V.V.V.V.V.V.V.V.V.V.    B +.x # h.l.l.  6.l.l.l.l.l.l.l.l.l.l.l.l.l.l.6.M 2 2 m *.`         V.V.V.V.V.V.V.V.V.V.V.V.V.",
"V.V.V.V.V.V.V.V.V.V.V.V.V.V.V.    X V 9 w l.l.l.$ U h.l.h.0.l.l.l.l.l.l.l.l.l.l.l.l.j.l.l.h.3     V.V.V.V.V.V.V.V.V.V.V.V.V.V.V.",
"V.V.V.V.V.V.V.V.V.V.V.V.V.V.V.V.    +   ` l.l.l.3.. 3 U $ 0 l.l.l.l.l.l.l.l.l.l.l.l.l.l.l.`     V.V.V.V.V.V.V.V.V.V.V.V.V.V.V.V.",
"V.V.V.V.V.V.V.V.V.V.V.V.V.V.V.V.V.      M l.l.l.l.w.R c $.f.l.l.l.l.l.l.l.l.l.l.l.5.T ` ;.    V.V.V.V.V.V.V.V.V.V.V.V.V.V.V.V.V.",
"V.V.V.V.V.V.V.V.V.V.V.V.V.V.V.V.V.V.      T h.l.l.l.l.l.l.l.l.l.l.l.l.l.l.l.l.f.6   c #       V.V.V.V.V.V.V.V.V.V.V.V.V.V.V.V.V.",
"V.V.V.V.V.V.V.V.V.V.V.V.V.V.V.V.V.V.V.V.    m e.l.l.l.l.l.l.l.l.l.l.l.l.l.l.l.h.%.q.;..     V.V.V.V.V.V.V.V.V.V.V.V.V.V.V.V.V.V.",
"V.V.V.V.V.V.V.V.V.V.V.V.V.V.V.V.V.V.V.V.V.    # :.l.l.l.l.l.l.l.l.l.l.l.l.l.l.l.q.m       V.V.V.V.V.V.V.V.V.V.V.V.V.V.V.V.V.V.V.",
"V.V.V.V.V.V.V.V.V.V.V.V.V.V.V.V.V.V.V.V.V.V.      3 &.w.l.l.l.l.l.l.l.l.l.f.>.m .     . V.V.V.V.V.V.V.V.V.V.V.V.V.V.V.V.V.V.V.V.",
"V.V.V.V.V.V.V.V.V.V.V.V.V.V.V.V.V.V.V.V.V.V..   ; f o   0 H $.:.;.-.` S 0     + ..j     V.V.V.V.V.V.V.V.V.V.V.V.V.V.V.V.V.V.V.V.",
"V.V.V.V.V.V.V.V.V.V.V.V.V.V.V.V.V.V.V.V.V.V.    n =.=.8 e F r 5 5 5 % # C _ b , @.#.<     V.V.V.V.V.V.V.V.V.V.V.V.V.V.V.V.V.V.V.",
"V.V.V.V.V.V.V.V.V.V.V.V.V.V.V.V.V.V.V.V.V.V.    _ =.=.2 ,.r.r.r.r.r.E p =.=.J > @.@.o.    V.V.V.V.V.V.V.V.V.V.V.V.V.V.V.V.V.V.V.",
"V.V.V.V.V.V.V.V.V.V.V.V.V.V.V.V.V.V.V.V.V.V.    ' =.=.# <.r.r.r.r.r.Z s =.=.n , @.@.@.j     V.V.V.V.V.V.V.V.V.V.V.V.V.V.V.V.V.V.",
"V.V.V.V.V.V.V.V.V.V.V.V.V.V.V.V.V.V.V.V.V.V.  @ =.=.' O D ,.,.,.,.,.5 f =.=.n > X.O.O. .    V.V.V.V.V.V.V.V.V.V.V.V.V.V.V.V.V.V.",
"V.V.V.V.V.V.V.V.V.V.V.V.V.V.V.V.V.V.V.V.V.V.  2 =.=.' 7 2 X ; q   ; # K =.=.n               V.V.V.V.V.V.V.V.V.V.V.V.V.V.V.V.V.V.",
"V.V.V.V.V.V.V.V.V.V.V.V.V.V.V.V.V.V.V.V.V.V.  . ; p n n J ; I h.  f J J J J ;           V.V.V.V.V.V.V.V.V.V.V.V.V.V.V.V.V.V.V.V.",
"V.V.V.V.V.V.V.V.V.V.V.V.V.V.V.V.V.V.V.V.V.V.        & * O   I j.                V.V.V.V.V.V.V.V.V.V.V.V.V.V.V.V.V.V.V.V.V.V.V.V.",
"V.V.V.V.V.V.V.V.V.V.V.V.V.V.V.V.V.V.V.V.V.V.V.      y Q Q t a l.@ ( z.)         V.V.V.V.V.V.V.V.V.V.V.V.V.V.V.V.V.V.V.V.V.V.V.V.",
"V.V.V.V.V.V.V.V.V.V.V.V.V.V.V.V.V.V.V.V.V.V.V.V.V.  O W Q y 2 l.S g v.d     V.V.V.V.V.V.V.V.V.V.V.V.V.V.V.V.V.V.V.V.V.V.V.V.V.V.",
"V.V.V.V.V.V.V.V.V.V.V.V.V.V.V.V.V.V.V.V.V.V.V.V.V.      *   w j.1.  =     V.V.V.V.V.V.V.V.V.V.V.V.V.V.V.V.V.V.V.V.V.V.V.V.V.V.V.",
"V.V.V.V.V.V.V.V.V.V.V.V.V.V.V.V.V.V.V.V.V.V.V.V.V.V.    h   ` w.m o #     V.V.V.V.V.V.V.V.V.V.V.V.V.V.V.V.V.V.V.V.V.V.V.V.V.V.V.",
"V.V.V.V.V.V.V.V.V.V.V.V.V.V.V.V.V.V.                    2.i   .   k.~                     O V.V.V.V.V.V.V.V.V.V.V.V.V.V.V.V.V.V.",
"V.V.V.V.V.V.V.V.V.V.V.V.V.V.V.V.V.V..                   { n.v.2.p.b.o                   .   V.V.V.V.V.V.V.V.V.V.V.V.V.V.V.V.V.V.",
"V.V.V.V.V.V.V.V.      O .     .   .                     { m.m.m.m.y.                          . .     . .     . V.V.V.V.V.V.V.V.",
"V.V.V.V.V.V.V.V.      .   O .                           g 2.y.y.y.G                               O   . O       V.V.V.V.V.V.V.V.",
"V.V..     .   .                                         . i t 6 ; O                                             .   O   O   V.V.",
"V.V.O   .   O     .                                     h c.M.c.M.M.^                                             .   .   . V.V.",
".                                                                                                                             . ",
"                                                                                                                                ",
"      .       .                                                                                                         .       ",
"                                                                                                                .     O O       ",
"V.V.V.V.                    .                                                                       .                   V.V.V.V.",
"V.V.V.V..     O .                                                                           .               .       .   V.V.V.V.",
"V.V.V.V.V.V.V.V.V.V.  . .     O . .                                                         .     O   . O   V.V.V.V.V.V.V.V.V.V.",
"V.V.V.V.V.V.V.V.V.V.O       .                                                                   .         . V.V.V.V.V.V.V.V.V.V.",
"V.V.V.V.V.V.V.V.V.V.V.V.V.V.V.V.V.V.V.V.                                                V.V.V.V.V.V.V.V.V.V.V.V.V.V.V.V.V.V.V.V.",
"V.V.V.V.V.V.V.V.V.V.V.V.V.V.V.V.V.V.V.V.                                                V.V.V.V.V.V.V.V.V.V.V.V.V.V.V.V.V.V.V.V."
};
