/* XPM */
static char *result[] = {
/* columns rows colors chars-per-pixel */
"64 128 171 2 ",
"   c #010101",
".  c #090705",
"X  c #0C0906",
"o  c #0E0B08",
"O  c #130606",
"+  c #190606",
"@  c #110A07",
"#  c #130D0A",
"$  c #1A0D09",
"%  c #15110C",
"&  c #1B130D",
"*  c #151509",
"=  c #1E1711",
"-  c #1F1812",
";  c #171715",
":  c #240A0A",
">  c #2A0C0C",
",  c #210708",
"<  c #330C0E",
"1  c #390D0F",
"2  c #21120C",
"3  c #2B130F",
"4  c #2C180F",
"5  c #2D1311",
"6  c #241B14",
"7  c #291F16",
"8  c #201711",
"9  c #311211",
"0  c #321B11",
"q  c #391F14",
"w  c #24240F",
"e  c #252312",
"r  c #2B2017",
"t  c #2D2219",
"y  c #2C2819",
"u  c #30231A",
"i  c #3A221A",
"p  c #36291D",
"a  c #382A1F",
"s  c #3A3A19",
"d  c #242423",
"f  c #2B2A27",
"g  c #3D2E21",
"h  c #342E21",
"j  c #363023",
"k  c #393225",
"l  c #33322E",
"z  c #3A3A37",
"x  c #410E11",
"c  c #461012",
"v  c #4B1114",
"b  c #5E1519",
"n  c #551316",
"m  c #621619",
"M  c #69171B",
"N  c #412417",
"B  c #462618",
"V  c #4B2A1A",
"C  c #512D1D",
"Z  c #433325",
"A  c #483627",
"S  c #493728",
"D  c #453D2C",
"F  c #4C3B2B",
"G  c #5D3320",
"H  c #523E2D",
"J  c #613622",
"K  c #663823",
"L  c #6B3B25",
"P  c #733F28",
"I  c #713E27",
"U  c #49491F",
"Y  c #56412F",
"T  c #4B4231",
"R  c #554431",
"E  c #5C4532",
"W  c #534A35",
"Q  c #5F4834",
"!  c #594F39",
"~  c #5D523C",
"^  c #565625",
"/  c #754129",
"(  c #7C442B",
")  c #654C37",
"_  c #6D523A",
"`  c #75593F",
"'  c #71553C",
"]  c #62622A",
"[  c #6C6C2E",
"{  c #767633",
"}  c #787833",
"|  c #444444",
" . c #4D4D4D",
".. c #4E4D46",
"X. c #54534C",
"o. c #5A5957",
"O. c #6B5E45",
"+. c #7F5F44",
"@. c #605F56",
"#. c #6D6046",
"$. c #6F6248",
"%. c #726549",
"&. c #796B4E",
"*. c #69675F",
"=. c #7D6E51",
"-. c gray39",
";. c #77756B",
":. c #797979",
">. c #831D22",
",. c #942126",
"<. c #9D2329",
"1. c #A8252C",
"2. c #A02329",
"3. c #B2272E",
"4. c #BA2931",
"5. c #C32B32",
"6. c #CD2D35",
"7. c #D62F37",
"8. c #D72F38",
"9. c #DB3139",
"0. c #ED343D",
"q. c #E4323B",
"w. c #F4363F",
"e. c #81472D",
"r. c #F73640",
"t. c #FB3741",
"y. c #FF3842",
"u. c #8B694A",
"i. c #857556",
"p. c #987251",
"a. c #A67D59",
"s. c #A57C58",
"d. c #87873A",
"f. c #89893B",
"g. c #979741",
"h. c #AD825C",
"j. c #A7A748",
"k. c #BB8D64",
"l. c #B58961",
"z. c #C9976B",
"x. c #D09D6F",
"c. c #D29E70",
"v. c #D6A172",
"b. c #DAA474",
"n. c #DFA877",
"m. c #E2AA79",
"M. c #ECB27E",
"N. c #DFDF5F",
"B. c #D3D35A",
"V. c #E3E361",
"C. c #EBEB65",
"Z. c #F7F76A",
"A. c #FEFE6C",
"S. c #9B988B",
"D. c gray62",
"F. c gray53",
"G. c #BEBBAB",
"H. c #AEAEAE",
"J. c #F1B581",
"K. c #FCBE87",
"L. c #FFC088",
"P. c #C6C3B2",
"I. c #D2CFBD",
"U. c #C1C1C1",
"Y. c #DDDAC7",
"T. c #E6E2CF",
"R. c #F3EFDA",
"E. c #F7F3DE",
"W. c #E5E5E5",
"Q. c #FBFBFB",
"!. c None",
/* pixels */
"!.!.!.!.!.!.!.!.!.!.!.!.!.!.!.!.!.!.!.!.!.!.!.!.!.!.!.!.!.!.!.!.!.!.!.!.!.!.!.!.!.!.!.!.!.!.!.!.!.!.!.!.!.!.!.!.!.!.!.!.!.!.!.!.",
"!.!.!.!.!.!.!.!.!.!.!.!.!.!.!.!.!.!.!.!.!.!.!.!.!.!.!.!.!.!.!.!.!.!.!.!.!.!.!.!.!.!.!.!.!.!.!.!.!.!.!.!.!.!.!.!.!.!.!.!.!.!.!.!.",
"!.!.!.!.!.!.!.!.!.!.!.!.!.!.!.!.!.!.!.!.!.!.!.!.!.!.!.!.!.!.!.!.!.!.!.!.!.!.!.!.!.!.!.!.!.!.!.!.!.!.!.!.!.!.!.!.!.!.!.!.!.!.!.!.",
"!.!.!.!.!.!.!.!.!.!.!.!.!.!.!.!.!.!.!.!.!.!.!.!.!.!.!.!.!.!.!.!.!.!.!.!.!.!.!.!.!.!.!.!.!.!.!.!.!.!.!.!.!.!.!.!.!.!.!.!.!.!.!.!.",
"!.!.!.!.!.!.!.!.!.!.!.!.!.!.!.!.!.!.!.!.!.!.!.!.!.!.!.!.!.!.!.!.!.!.!.!.!.!.!.!.!.!.!.!.!.!.!.!.!.!.!.!.!.!.!.!.!.!.!.!.!.!.!.!.",
"!.!.!.!.!.!.!.!.!.!.!.!.!.!.!.!.!.!.!.!.!.!.!.!.!.!.!.!.!.!.!.!.!.!.!.!.!.!.!.!.!.!.!.!.!.!.!.!.!.!.!.!.!.!.!.!.!.!.!.!.!.!.!.!.",
"!.!.!.!.!.!.!.!.!.!.!.!.!.!.!.!.!.!.!.!.!.!.!.!.!.!.!.!.!.!.!.!.!.!.!.!.!.!.!.!.!.!.!.!.!.!.!.!.!.!.!.!.!.!.!.!.!.!.!.!.!.!.!.!.",
"!.!.!.!.!.!.!.!.!.!.!.!.!.!.!.!.!.!.!.!.!.!.!.!.!.!.!.!.!.!.!.!.!.!.!.!.!.!.!.!.!.!.!.!.!.!.!.!.!.!.!.!.!.!.!.!.!.!.!.!.!.!.!.!.",
"!.!.!.!.!.!.!.!.!.!.!.!.!.!.!.!.!.!.!.!.!.!.!.!.!.!.!.!.!.!.!.!.!.!.!.!.!.!.!.!.!.!.!.!.!.!.!.!.!.!.!.!.!.!.!.!.!.!.!.!.!.!.!.!.",
"!.!.!.!.!.!.!.!.!.!.!.!.!.!.!.!.!.!.!.!.!.!.!.!.!.!.!.!.!.!.!.!.!.!.!.!.!.!.!.!.!.!.!.!.!.!.!.!.!.!.!.!.!.!.!.!.!.!.!.!.!.!.!.!.",
"!.!.!.!.!.!.!.!.!.!.!.!.!.!.!.!.!.!.!.!.!.!.!.!.!.!.!.!.!.!.!.!.!.!.!.!.!.!.!.!.!.!.!.!.!.!.!.!.!.!.!.!.!.!.!.!.!.!.!.!.!.!.!.!.",
"!.!.!.!.!.!.!.!.!.!.!.!.!.!.!.!.!.!.!.!.!.!.!.!.!.!.!.!.!.!.!.!.!.!.!.!.!.!.!.!.!.!.!.!.!.!.!.!.!.!.!.!.!.!.!.!.!.!.!.!.!.!.!.!.",
"!.!.!.!.!.!.!.!.!.!.!.!.!.!.!.!.!.!.!.!.!.!.!.!.!.!.!.!.!.!.!.!.!.!.!.!.!.!.!.!.!.!.!.!.!.!.!.!.!.!.!.!.!.!.!.!.!.!.!.!.!.!.!.!.",
"!.!.!.!.!.!.!.!.!.!.!.!.!.!.!.!.!.!.!.!.!.!.!.!.!.!.!.!.!.!.!.!.!.!.!.!.!.!.!.!.!.!.!.!.!.!.!.!.!.!.!.!.!.!.!.!.!.!.!.!.!.!.!.!.",
"!.!.!.!.!.!.!.!.!.!.!.!.!.!.!.!.!.!.!.!.!.!.!.!.!.!.!.!.!.!.!.!.!.!.!.!.!.!.!.!.!.!.!.!.!.!.!.!.!.!.!.!.!.!.!.!.!.!.!.!.!.!.!.!.",
"!.!.!.!.!.!.!.!.!.!.!.!.!.!.!.!.!.!.!.!.!.!.!.!.!.!.!.!.!.!.!.!.!.!.!.!.!.!.!.!.!.!.!.!.!.!.!.!.!.!.!.!.!.!.!.!.!.!.!.!.!.!.!.!.",
"!.!.!.!.!.!.!.!.!.!.!.!.!.!.!.!.!.!.!.!.!.!.!.!.!.!.!.!.!.!.!.!.!.!.!.!.!.!.!.!.!.!.!.!.!.!.!.!.!.!.!.!.!.!.!.!.!.!.!.!.!.!.!.!.",
"!.!.!.!.!.!.!.!.!.!.!.!.!.!.!.!.!.!.!.!.!.!.!.!.!.!.!.!.!.!.!.!.!.!.!.!.!.!.!.!.!.!.!.!.!.!.!.!.!.!.!.!.!.!.!.!.!.!.!.!.!.!.!.!.",
"!.!.!.!.!.!.!.!.!.!.!.!.!.!.!.!.!.!.!.!.!.!.!.!.!.!.!.!.!.!.!.!.!.!.!.!.!.!.!.!.!.!.!.!.!.!.!.!.!.!.!.!.!.!.!.!.!.!.!.!.!.!.!.!.",
"!.!.!.!.!.!.!.!.!.!.!.!.!.!.!.!.!.!.!.!.!.!.!.!.!.!.!.!.!.!.!.!.!.!.!.!.!.!.!.!.!.!.!.!.!.!.!.!.!.!.!.!.!.!.!.!.!.!.!.!.!.!.!.!.",
"!.!.!.!.!.!.!.!.!.!.!.!.!.!.!.!.!.!.!.!.!.!.!.!.!.!.!.!.!.!.!.!.!.!.!.!.!.!.!.!.!.!.!.!.!.!.!.!.!.!.!.!.!.!.!.!.!.!.!.!.!.!.!.!.",
"!.!.!.!.!.!.!.!.!.!.!.!.!.!.!.!.!.!.!.!.!.!.!.!.!.!.!.!.!.!.!.!.!.!.!.!.!.!.!.!.!.!.!.!.!.!.!.!.!.!.!.!.!.!.!.!.!.!.!.!.!.!.!.!.",
"!.!.!.!.!.!.!.!.!.!.!.!.!.!.!.!.!.!.!.!.!.!.!.!.!.!.!.!.!.!.!.!.!.!.!.!.!.!.!.!.!.!.!.!.!.!.!.!.!.!.!.!.!.!.!.!.!.!.!.!.!.!.!.!.",
"!.!.!.!.!.!.!.!.!.!.!.!.!.!.!.!.!.!.!.!.!.!.!.!.!.!.!.!.!.!.!.!.!.!.!.!.!.!.!.!.!.!.!.!.!.!.!.!.!.!.!.!.!.!.!.!.!.!.!.!.!.!.!.!.",
"!.!.!.!.!.!.!.!.!.!.!.!.!.!.!.!.!.!.!.!.!.!.!.!.!.!.!.!.!.!.!.!.!.!.!.!.!.!.!.!.!.!.!.!.!.!.!.!.!.!.!.!.!.!.!.!.!.!.!.!.!.!.!.!.",
"!.!.!.!.!.!.!.!.!.!.!.!.!.!.!.!.!.!.!.!.!.!.!.!.!.!.!.!.!.!.!.!.!.!.!.!.!.!.!.!.!.!.!.!.!.!.!.!.!.!.!.!.!.!.!.!.!.!.!.!.!.!.!.!.",
"!.!.!.!.!.!.!.!.!.!.!.!.!.!.!.!.!.!.!.!.!.!.!.!.!.!.!.!.!.!.!.!.!.!.!.!.!.!.!.!.!.!.!.!.!.!.!.!.!.!.!.!.!.!.!.!.!.!.!.!.!.!.!.!.",
"!.!.!.!.!.!.!.!.!.!.!.!.!.!.!.!.!.!.!.!.!.!.!.!.!.!.!.!.!.!.!.!.!.!.!.!.!.!.!.!.!.!.!.!.!.!.!.!.!.!.!.!.!.!.!.!.!.!.!.!.!.!.!.!.",
"!.!.!.!.!.!.!.!.!.!.!.!.!.!.!.!.!.!.!.!.!.!.!.!.!.!.!.!.!.!.!.!.!.!.!.!.!.!.!.!.!.!.!.!.!.!.!.!.!.!.!.!.!.!.!.!.!.!.!.!.!.!.!.!.",
"!.!.!.!.!.!.!.!.!.!.!.!.!.!.!.!.!.!.!.!.!.!.!.!.!.!.!.!.!.!.!.!.!.!.!.!.!.!.!.!.!.!.!.!.!.!.!.!.!.!.!.!.!.!.!.!.!.!.!.!.!.!.!.!.",
"!.!.!.!.!.!.!.!.!.!.!.!.!.!.!.!.!.!.!.!.!.!.!.!.!.!.!.!.!.!.!.!.!.!.!.!.!.!.!.!.!.!.!.!.!.!.!.!.!.!.!.!.!.!.!.!.!.!.!.!.!.!.!.!.",
"!.!.!.!.!.!.!.!.!.!.!.!.!.!.!.!.!.!.!.!.!.!.!.!.!.!.!.!.!.!.!.!.!.!.!.!.!.!.!.!.!.!.!.!.!.!.!.!.!.!.!.!.!.!.!.!.!.!.!.!.!.!.!.!.",
"!.!.!.!.!.!.!.!.!.!.!.!.!.!.!.!.!.!.!.!.!.!.!.!.!.!.!.!.!.!.!.!.!.!.!.!.!.!.!.!.!.!.!.!.!.!.!.!.!.!.!.!.!.!.!.!.!.!.!.!.!.!.!.!.",
"!.!.!.!.!.!.!.!.!.!.!.!.!.!.!.!.!.!.!.!.!.!.!.!.!.!.!.!.!.!.!.!.!.!.!.!.!.!.!.!.!.!.!.!.!.!.!.!.!.!.!.!.!.!.!.!.!.!.!.!.!.!.!.!.",
"!.!.!.!.!.!.!.!.!.!.!.!.!.!.!.!.!.!.!.!.!.!.!.!.!.!.!.!.!.!.!.!.!.!.!.!.!.!.!.!.!.!.!.!.!.!.!.!.!.!.!.!.!.!.!.!.!.!.!.!.!.!.!.!.",
"!.!.!.!.!.!.!.!.!.!.!.!.!.!.!.!.!.!.!.!.!.!.!.!.!.!.!.!.!.!.!.!.!.!.!.!.!.!.!.!.!.!.!.!.!.!.!.!.!.!.!.!.!.!.!.!.!.!.!.!.!.!.!.!.",
"!.!.!.!.!.!.!.!.!.!.!.!.!.!.!.!.!.!.!.!.!.!.!.!.!.!.!.!.!.!.!.!.!.!.!.!.!.!.!.!.!.!.!.!.!.!.!.!.!.!.!.!.!.!.!.!.!.!.!.!.!.!.!.!.",
"!.!.!.!.!.!.!.!.!.!.!.!.!.!.!.!.!.!.!.!.!.!.!.!.!.!.!.!.!.!.!.!.!.!.!.!.!.!.!.!.!.!.!.!.!.!.!.!.!.!.!.!.!.!.!.!.!.!.!.!.!.!.!.!.",
"!.!.!.!.!.!.!.!.!.!.!.!.!.!.!.!.!.!.!.!.!.!.!.!.!.!.!.!.!.!.!.!.!.!.!.!.!.!.!.!.!.!.!.!.!.!.!.!.!.!.!.!.!.!.!.!.!.!.!.!.!.!.!.!.",
"!.!.!.!.!.!.!.!.!.!.!.!.!.!.!.!.!.!.!.!.!.!.!.!.!.!.!.!.!.!.!.!.!.!.!.!.!.!.!.!.!.!.!.!.!.!.!.!.!.!.!.!.!.!.!.!.!.!.!.!.!.!.!.!.",
"!.!.!.!.!.!.!.!.!.!.!.!.!.!.!.!.!.!.!.!.!.!.!.!.!.!.!.!.!.!.!.!.!.!.!.!.!.!.!.!.!.!.!.!.!.!.!.!.!.!.!.!.!.!.!.!.!.!.!.!.!.!.!.!.",
"!.!.!.!.!.!.!.!.!.!.!.!.!.!.!.!.!.!.!.!.!.!.!.!.!.!.!.!.!.!.!.!.!.!.!.!.!.!.!.!.!.!.!.!.!.!.!.!.!.!.!.!.!.!.!.!.!.!.!.!.!.!.!.!.",
"!.!.!.!.!.!.!.!.!.!.!.!.!.!.!.!.!.!.!.!.!.!.!.!.!.!.!.!.!.!.!.!.!.!.!.!.!.!.!.!.!.!.!.!.!.!.!.!.!.!.!.!.!.!.!.!.!.!.!.!.!.!.!.!.",
"!.!.!.!.!.!.!.!.!.!.!.!.!.!.!.!.!.!.!.!.!.!.!.!.!.!.!.!.!.!.!.!.!.!.!.!.!.!.!.!.!.!.!.!.!.!.!.!.!.!.!.!.!.!.!.!.!.!.!.!.!.!.!.!.",
"!.!.!.!.!.!.!.!.!.!.!.!.!.!.!.!.!.!.!.!.!.!.!.!.!.!.!.!.!.!.!.!.!.!.!.!.!.!.!.!.!.!.!.!.!.!.!.!.!.!.!.!.!.!.!.!.!.!.!.!.!.!.!.!.",
"!.!.!.!.!.!.!.!.!.!.!.!.!.!.!.!.!.!.!.!.!.!.!.!.!.!.!.!.!.!.!.!.!.!.!.!.!.!.!.!.!.!.!.!.!.!.!.!.!.!.!.!.!.!.!.!.!.!.!.!.!.!.!.!.",
"!.!.!.!.!.!.!.!.!.!.!.!.!.!.!.!.!.!.!.!.!.!.!.!.!.!.!.!.!.!.!.!.!.!.!.!.!.!.!.!.!.!.!.!.!.!.!.!.!.!.!.!.!.!.!.!.!.!.!.!.!.!.!.!.",
"!.!.!.!.!.!.!.!.!.!.!.!.!.!.!.!.!.!.!.!.!.!.!.!.!.!.!.!.!.!.!.!.!.!.!.!.!.!.!.!.!.!.!.!.!.!.!.!.!.!.!.!.!.!.!.!.!.!.!.!.!.!.!.!.",
"!.!.!.!.!.!.!.!.!.!.!.!.!.!.!.!.!.!.!.!.!.!.!.!.!.!.!.!.!.!.!.!.!.!.!.!.!.!.!.!.!.!.!.!.!.!.!.!.!.!.!.!.!.!.!.!.!.!.!.!.!.!.!.!.",
"!.!.!.!.!.!.!.!.!.!.!.!.!.!.!.!.!.!.!.!.!.!.!.!.!.!.!.!.!.!.!.!.!.!.!.!.!.!.!.!.!.!.!.!.!.!.!.!.!.!.!.!.!.!.!.!.!.!.!.!.!.!.!.!.",
"!.!.!.!.!.!.!.!.!.!.!.!.!.!.!.!.!.!.!.!.!.!.!.!.!.!.!.!.!.!.!.!.!.!.!.!.!.!.!.!.!.!.!.!.!.!.!.!.!.!.!.!.!.!.!.!.!.!.!.!.!.!.!.!.",
"!.!.!.!.!.!.!.!.!.!.!.!.!.!.!.!.!.!.!.!.!.!.!.!.!.!.!.!.!.!.!.!.!.!.!.!.!.!.!.!.!.!.!.!.!.!.!.!.!.!.!.!.!.!.!.!.!.!.!.!.!.!.!.!.",
"!.!.!.!.!.!.!.!.!.!.!.!.!.!.!.!.!.!.!.!.!.!.!.!.!.!.!.!.!.!.!.!.!.!.!.!.!.!.!.!.!.!.!.!.!.!.!.!.!.!.!.!.!.!.!.!.!.!.!.!.!.!.!.!.",
"!.!.!.!.!.!.!.!.!.!.!.!.!.!.!.!.!.!.!.!.!.!.!.!.!.!.!.!.!.!.!.!.!.!.!.!.!.!.!.!.!.!.!.!.!.!.!.!.!.!.!.!.!.!.!.!.!.!.!.!.!.!.!.!.",
"!.!.!.!.!.!.!.!.!.!.!.!.!.!.!.!.!.!.!.!.!.!.!.!.!.!.!.!.!.!.!.!.!.!.!.!.!.!.!.!.!.!.!.!.!.!.!.!.!.!.!.!.!.!.!.!.!.!.!.!.!.!.!.!.",
"!.!.!.!.!.!.!.!.!.!.!.!.!.!.!.!.!.!.!.!.!.!.!.!.!.!.!.!.!.!.!.!.!.!.!.!.!.!.!.!.!.!.!.!.!.!.!.!.!.!.!.!.!.!.!.!.!.!.!.!.!.!.!.!.",
"!.!.!.!.!.!.!.!.!.!.!.!.!.!.!.!.!.!.!.!.!.!.!.!.!.!.!.!.!.!.!.!.!.!.!.!.!.!.!.!.!.!.!.!.!.!.!.!.!.!.!.!.!.!.!.!.!.!.!.!.!.!.!.!.",
"!.!.!.!.!.!.!.!.!.!.!.!.!.!.!.!.!.!.!.!.!.!.!.!.        !.!.!.!.!.!.!.              !.!.!.!.!.!.!.!.!.!.!.!.!.!.!.!.!.!.!.!.!.!.",
"!.!.!.!.!.!.!.!.!.!.!.!.!.!.!.!.!.!.!.!.!.!.                  !.!.        X % X       !.!.!.!.!.!.!.!.!.!.!.!.!.!.!.!.!.!.!.!.!.",
"!.!.!.!.!.!.!.!.!.!.!.!.!.!.!.!.!.!.!.!.!.      = t t 6 #           . r F ) ) ) Z .     !.!.!.!.!.!.!.!.!.!.!.!.!.!.!.!.!.!.!.!.",
"!.!.!.!.!.!.!.!.!.!.!.!.!.!.!.!.!.!.!.!.!.    Z ) ) ) ) ) H 7     7 Y ) ) ) ) ) ) Z     !.!.!.!.!.!.!.!.!.!.!.!.!.!.!.!.!.!.!.!.",
"!.!.!.!.!.!.!.!.!.!.!.!.!.!.!.!.!.!.!.!.    r ) ) ) ) ) ) ) ) H A ) ) ) ) ) ) ) ) ) =     !.!.!.!.!.!.!.!.!.!.!.!.!.!.!.!.!.!.!.",
"!.!.!.!.!.!.!.!.!.!.!.!.!.!.!.!.!.!.!.!.  . R ) ) ) H = E ) ) ) ) ) A ) ) ) ) ) ) ) S     !.!.!.!.!.!.!.!.!.!.!.!.!.!.!.!.!.!.!.",
"!.!.!.!.!.!.!.!.!.!.!.!.!.!.!.!.!.!.!.    7 ) ) ) ) ) & k ) ) ) ) H # Y ) ) ) ) ) ) E #   !.!.!.!.!.!.!.!.!.!.!.!.!.!.!.!.!.!.!.",
"!.!.!.!.!.!.!.!.!.!.!.!.!.!.        !.    F ) ) ) ) ) Z # H ) ) Q = t ) ) ) ) ) ) ) ) t     !.!.  !.!.!.!.!.!.!.!.!.!.!.!.!.!.!.",
"!.!.!.!.!.!.!.!.!.!.!.!.                o ) ) ) ) ) ) ) u # g Z = 8 Q ) ) _ ) ) ) ) ) F                 !.!.!.!.!.!.!.!.!.!.!.!.",
"!.!.!.!.!.!.!.!.!.!.!.      7 g g t #   8 ) ) ) ) ) ) ) ) Z 6 6 p E ) ) ) ) ) ) ) ) ) E o   # 7 t 6 X     !.!.!.!.!.!.!.!.!.!.!.",
"!.!.!.!.!.!.!.!.!.!.    . F ) ) ) ) ) o h ) ) ) ) ) ) ) ) ) ) ) ) ) ) ) ) ) ) ) ) ) ) ) = 6 ) ) ) ) R r       !.!.!.!.!.!.!.!.!.",
"!.!.!.!.!.!.!.!.!.!.  . F ) ) ) ) ) R X F ) ) ) ) ) ) ) ) ) ) ) ) ) ) ) ) ) ) ) ) ) ) ) p # ) ) ) ) ) ) g     !.!.!.!.!.!.!.!.!.",
"!.!.!.!.!.!.!.!.!.    Z ) ) ) ) ) ) F . H ) ) ) ) ) ) ) ) ) ) ) ) ) ) ) ) ) ) ) ) ) ) ) S . H ) ) ) ) ) ) a     !.!.!.!.!.!.!.!.",
"!.!.!.!.!.!.!.!.    6 ) ) ) ) ) ) ) Z @ Q ) ) ) ) ) ) ) ) ) ) ) ) ) ) ) ) ) ) ) ) ) ) ) R . S ) ) ) ) ) ) ) =     !.!.!.!.!.!.!.",
"!.!.!.!.!.!.!.!.    F ) ) ) ) ) ) ) a # ) ) ) ) ) ) ) ) ) ) ) ) ) ) ) ) ) ) ) ) ) ) ) ) F   g ) ) ) ) ) ) ) F     !.!.!.!.!.!.!.",
"!.!.!.!.!.!.!.!.  & ) ) ) ) ) ) ) ) 7   6 F ) ) ) ) ) ) ) ) ) ) ) ) ) ) ) ) ) ) ) ) Q g .   7 ) ) ) ) ) ) ) ) %   !.!.!.!.!.!.!.",
"!.!.!.!.!.!.!.    u ) ) ) ) ) ) ) ) 8 o . . = A Q ) ) ) ) ) ) ) ) ) ) ) ) ) ) ) ) A &   = @ = ) ) ) ) ) ) ) ) t     !.!.!.!.!.!.",
"!.!.!.!.!.!.!.    A ) ) ) ) ) ) ) ) & % t 6 #   o 6 Z F Q ) ) ) ) ) ) ) ) Q H g $ . # 6 t = . ) ) ) ) ) ) ) ) a     !.!.!.!.!.!.",
"!.!.!.!.!.!.!.    H ) ) ) ) ) ) ) ) @ = t u u 7 = #   X X % 6 7 u a t 7 = X . . # 6 t u t = X Q ) ) ) ) ) ) ) a     !.!.!.!.!.!.",
"!.!.!.!.!.!.!.    H ) ) ) ) ) ) ) ) # & u u u u u 7 7 7 = = # # o # X # # = 6 7 u u u t 6   t ) ) ) ) ) ) ) ) a     !.!.!.!.!.!.",
"!.!.!.!.!.!.!.    A ) ) ) ) ) ) ) ) 8   = t u u u u i t t u t u 7 7 7 u t u u u u u u 6   6 ) ) ) ) ) ) ) ) ) 6   !.!.!.!.!.!.!.",
"!.!.!.!.!.!.!.    t ) ) ) ) ) ) ) ) E u . # 8 u u u u u t u u u i u u u u u u u t t &   7 Q ) ) ) ) ) ) ) ) E .   !.!.!.!.!.!.!.",
"!.!.!.!.!.!.!.!.  # E ) ) ) ) ) ) ) ) ) F 8   X = 7 u t u u t i u u u u u u u t 6 . . p ) ) ) ) ) ) ) ) ) ) p     !.!.!.!.!.!.!.",
"!.!.!.!.!.!.!.!.    p ) ) ) ) ) ) ) ) ) ) ) A e X . X & 6 6 7 7 u t t 7 6 6 & . . 6 H ) ) ) ) ) ) ) ) ) ) Y .   !.!.!.!.!.!.!.!.",
"!.!.!.!.!.!.!.!.!.    A ) ) ) ) ) ) ) ) ) ) ) ) R Z 7 # X   . . X X X . . X % h H ) ) ) ) ) ) ) ) ) ) ) E %     !.!.!.!.!.!.!.!.",
"!.!.!.!.!.!.!.!.!.    . g ) ) ) ) ) ) ) ) ) ) ) ) ) ) ) R H A g i h h Z S H ) ) ) ) ) ) ) ) ) ) ) ) ) H %     !.!.!.!.!.!.!.!.!.",
"!.!.!.!.!.!.!.!.!.!.      7 R ) ) ) ) ) ) ) ) ) ) ) ) ) ) ) ) ) ) ) ) ) ) ) ) ) ) ) ) ) ) ) ) ) ) Q g .     !.!.!.!.!.!.!.!.!.!.",
"!.!.!.!.!.!.!.!.!.!.!.!.    X p Y ) ) ) ) ) ) ) ) ) ) ) ) ) ) ) ) ) ) ) ) ) ) ) ) ) ) ) ) ) ) ) A $       !.!.!.!.!.!.!.!.!.!.!.",
"!.!.!.!.!.!.!.!.!.!.!.!.!.    $ $ e A E ) ) ) ) ) ) ) ) ) ) ) ) ) ) ) ) ) ) ) _ ) ) ) ) ) H h # & @     !.!.!.!.!.!.!.!.!.!.!.!.",
"!.!.!.!.!.!.!.!.!.!.!.!.!.    B K N 2 # 8 p F Y R ) ) ) ) ) ) ) ) ) ) ) ) ) ) H R F Z 7 $ $ 9 G P 2   !.!.!.!.!.!.!.!.!.!.!.!.!.",
"!.!.!.!.!.!.!.!.!.!.!.!.!.    $ ( e.( L C 0 2 & $ & # & 7 6 7 6 6 6 6 7 6 & % & $ & 5 B G I e.e.I     !.!.!.!.!.!.!.!.!.!.!.!.!.",
"!.!.!.!.!.!.!.!.!.!.!.!.!.      V e.e.e.e.e.( / I K G G C C C C C C C C C G K L / ( e.e.e.e.e.e.N     !.!.!.!.!.!.!.!.!.!.!.!.!.",
"!.!.!.!.!.!.!.!.!.!.!.!.!.    Z o K e.e.e.e.e.e.e.e.e.e.e.e.e.e.e.e.e.e.e.e.e.e.e.e.e.e.e.e.e.K .     !.!.!.!.!.!.!.!.!.!.!.!.!.",
"!.!.!.!.!.!.!.!.!.!.!.!.!.  6 n.8 $ / ( e.e.e.e.e.e.e.e.e.e.e.e.e.e.e.e.e.e.e.e.e.e.e.e.e.e.K # p &   !.!.!.!.!.!.!.!.!.!.!.!.!.",
"!.!.!.!.!.!.!.!.!.!.!.!.!.  6 M.)   # K e.e.e.e.e.e.e.e.e.e.e.e.e.e.e.e.e.e.e.e.e.e.e.e.( V @ u b.A   !.!.!.!.!.!.!.!.!.!.!.!.!.",
"!.!.!.!.!.!.!.!.!.!.!.!.!.    u.s.. & O C ( e.e.e.e.e.e.e.e.e.e.e.e.e.e.e.e.e.e.e.e.( V $ .   p.m.7   !.!.!.!.!.!.!.!.!.!.!.!.!.",
"!.!.!.!.!.!.!.!.!.!.!.!.!.      t   Y _ @ 0 K ( e.e.e.e.e.e.e.e.e.e.e.e.e.e.e.( L V & & _ F . H p     !.!.!.!.!.!.!.!.!.!.!.!.!.",
"!.!.!.!.!.!.!.!.!.!.!.!.!.!.          h.h.a @ 4 C I ( e.e.e.e.e.e.e.e.e.( I C 0 O 7 ) x.k.X         !.!.!.!.!.!.!.!.!.!.!.!.!.!.",
"!.!.!.!.!.!.!.!.!.!.!.!.!.!.!.!.!.    6 c.M.h.Y & O 2 q B B V B q B B 0 & @ 8 A s.M.L.b.u       !.!.!.!.!.!.!.!.!.!.!.!.!.!.!.!.",
"!.!.!.!.!.!.!.!.!.!.!.!.!.!.!.!.!.!.    p v.L.K.b.h.` t .   + n >.c   . H p.n.K.L.L.b.g     !.!.!.!.!.!.!.!.!.!.!.!.!.!.!.!.!.!.",
"!.!.!.!.!.!.!.!.!.!.!.!.!.!.!.!.!.!.!.    7 k.K.M.h.H i @ 1 7.t.y.0.1 > > q E l.J.k.t     !.!.!.!.!.!.!.!.!.!.!.!.!.!.!.!.!.!.!.",
"!.!.!.!.!.!.!.!.!.!.!.!.!.!.!.!.!.!.!.!.    o Y u < ,.5.< <.6.6.q.8.M >.r.6.>.: a o     !.!.!.!.!.!.!.!.!.!.!.!.!.!.!.!.!.!.!.!.",
"!.!.!.!.!.!.!.!.!.!.!.!.!.!.!.!.!.!.!.!.      * X M 1.1., : , + > : O m 3.,.m , s e       !.!.!.!.!.!.!.!.!.!.!.!.!.!.!.!.!.!.!.",
"!.!.!.!.!.!.!.!.!.!.!.!.!.!.!.!.!.!.!.!.  . } N.^   . . m 7.7.> <.0.4.1 . h k o f.C.f.X   !.!.!.!.!.!.!.!.!.!.!.!.!.!.!.!.!.!.!.",
"!.!.!.!.!.!.!.!.!.!.!.!.!.!.!.!.!.!.!.    { A.V.e h y m w.t.3.x t.y.t.9.3 O.i.D w V.Z.[     !.!.!.!.!.!.!.!.!.!.!.!.!.!.!.!.!.!.",
"!.!.!.!.!.!.!.!.!.!.!.!.!.!.!.!.!.!.    y C.A.j.@ $.= 5.t.t.2.b y.y.t.t.x ~ i.%.% j.A.B.o   !.!.!.!.!.!.!.!.!.!.!.!.!.!.!.!.!.!.",
"!.!.!.!.!.!.!.!.!.!.!.!.!.!.!.!.!.!.    f.A.A.] y %.5 q.t.t.,.x t.t.t.r.x O.i.i.r { A.Z.U     !.!.!.!.!.!.!.!.!.!.!.!.!.!.!.!.!.",
"!.!.!.!.!.!.!.!.!.!.!.!.!.!.!.!.!.!.  * N.A.C.w T %.5 7.0.<.: + 5.y.y.q.5 #.i.i.y ] Z.Z.g.    !.!.!.!.!.!.!.!.!.!.!.!.!.!.!.!.!.",
"!.!.!.!.!.!.!.!.!.!.!.!.!.!.!.!.!.!.  # ] f.f.# #.=.7 9 5 - ~ T > 4.r.,.6 i.i.i.k * U U s     !.!.!.!.!.!.!.!.!.!.!.!.!.!.!.!.!.",
"!.!.!.!.!.!.!.!.!.!.!.!.!.!.!.!.!.!.      7 X X %.i.=.$.#.i.i.i.W # v > ~ i.i.i.! @ ' E       !.!.!.!.!.!.!.!.!.!.!.!.!.!.!.!.!.",
"!.!.!.!.!.!.!.!.!.!.!.!.!.!.!.!.!.!.!.  % n.` X %.i.i.i.i.i.i.i.i.&.T ! i.i.i.=.~ & n.c.    !.!.!.!.!.!.!.!.!.!.!.!.!.!.!.!.!.!.",
"!.!.!.!.!.!.!.!.!.!.!.!.!.!.!.!.!.!.!.  # m.u.  y k D D T D D D k j j j j h e % o = m.v.    !.!.!.!.!.!.!.!.!.!.!.!.!.!.!.!.!.!.",
"!.!.!.!.!.!.!.!.!.!.!.!.!.!.!.!.!.!.!.  % n.a.                                    r K.b.    !.!.!.!.!.!.!.!.!.!.!.!.!.!.!.!.!.!.",
"!.!.!.!.!.!.!.!.!.!.!.!.!.!.!.!.!.!.    % m.h.                                    g L.v.    !.!.!.!.!.!.!.!.!.!.!.!.!.!.!.!.!.!.",
"!.!.!.!.!.!.!.!.!.!.!.!.!.!.!.!.!.!.      +._     l f                     o l #   r z._     !.!.!.!.!.!.!.!.!.!.!.!.!.!.!.!.!.!.",
"!.!.!.!.!.!.!.!.!.!.!.!.!.!.!.!.!.!.              *.T.S.X.l ;       d ;.S.I.I.#             !.!.!.!.!.!.!.!.!.!.!.!.!.!.!.!.!.!.",
"!.!.!.!.!.!.!.!.!.!.!.!.!.!.!.!.!.!.  .           ..E.E.E.E.;.      ;.E.E.E.G.              !.!.!.!.!.!.!.!.!.!.!.!.!.!.!.!.!.!.",
"!.!.!.!.!.!.!.!.    . . .   .     .               f Y.E.E.E.S.      o.P.G.S.X.              .   . . .   . .     !.!.!.!.!.!.!.!.",
"!.!.!.!.!.!.!.!.      .   . .                       ; z o.*.l       . . . ; d .                 .     .   .     !.!.!.!.!.!.!.!.",
"!.!..   .   .                                     z D.:.o. .d       F.W.W.Q.H..                                 .   . . .   !.!.",
"!.!.. . .     .   .                                  .H.P.-..       . | -.| .                                     . .   . . !.!.",
".                                                                                                                               ",
"                                                                                                                                ",
"    . .       .                                                                                                 .     .         ",
"      .   .                                                                                                             . .     ",
"!.!.!.!.    .   .     .     .                                                                 .     .                   !.!.!.!.",
"!.!.!.!..   .                                                                                             .         .   !.!.!.!.",
"!.!.!.!.!.!.!.!.!.!..   .     . . .                                                           .     .   . . !.!.!.!.!.!.!.!.!.!.",
"!.!.!.!.!.!.!.!.!.!.  .   . .                                                               .   . .   . .   !.!.!.!.!.!.!.!.!.!.",
"!.!.!.!.!.!.!.!.!.!.!.!.!.!.!.!.!.!.!.!.                                                !.!.!.!.!.!.!.!.!.!.!.!.!.!.!.!.!.!.!.!.",
"!.!.!.!.!.!.!.!.!.!.!.!.!.!.!.!.!.!.!.!.                                                !.!.!.!.!.!.!.!.!.!.!.!.!.!.!.!.!.!.!.!."
};
