/* XPM */
static char *result[] = {
/* columns rows colors chars-per-pixel */
"64 128 159 2 ",
"   c #010101",
".  c #0A0604",
"X  c #0C0906",
"o  c #04070B",
"O  c #05090D",
"+  c #0E0C0A",
"@  c #130A07",
"#  c #120E0A",
"$  c #190E09",
"%  c #16110D",
"&  c #1A140E",
"*  c #1A1A0B",
"=  c #111111",
"-  c #1D1710",
";  c #1D1913",
":  c #1C1C1B",
">  c #210708",
",  c #330B0D",
"<  c #23140C",
"1  c #3E0E10",
"2  c #251C14",
"3  c #2A1E16",
"4  c #331C12",
"5  c #22220F",
"6  c #262610",
"7  c #2B2017",
"8  c #20201D",
"9  c #2D2219",
"0  c #32261C",
"q  c #35291D",
"w  c #392B1F",
"e  c #373718",
"r  c #222221",
"t  c #2D2C2B",
"y  c #3D2E21",
"u  c #342E21",
"i  c #3D3224",
"p  c #353535",
"a  c #3A3A37",
"s  c #4D1114",
"d  c #581317",
"f  c #5C1418",
"g  c #601519",
"h  c #412417",
"j  c #542E1D",
"k  c #59311F",
"l  c #7A1B20",
"z  c #433224",
"x  c #493728",
"c  c #463E2D",
"v  c #4C392A",
"b  c #5E3421",
"n  c #523E2C",
"m  c #403F3A",
"M  c #613622",
"N  c #6A3A25",
"B  c #653823",
"V  c #703E27",
"C  c #713E28",
"Z  c #48481F",
"A  c #44441D",
"S  c #56412F",
"D  c #58432F",
"F  c #4D4331",
"G  c #5B4532",
"H  c #544A36",
"J  c #5F4834",
"K  c #514734",
"L  c #5E523C",
"P  c #754129",
"I  c #7C442B",
"U  c #654C37",
"Y  c #684E37",
"T  c #694F38",
"R  c #63573F",
"E  c #72563D",
"W  c #76583F",
"Q  c #63632B",
"!  c #7B7B35",
"~  c #424242",
"^  c #4D4C45",
"/  c #4B4B4B",
"(  c #535353",
")  c #7B5C42",
"_  c #6D6046",
"`  c #716348",
"'  c #7C6D4F",
"]  c #7F7052",
"[  c #6C6C6C",
"{  c #7B796F",
"}  c gray46",
"|  c #7C7C7C",
" . c #9B2228",
".. c #D52F37",
"X. c #DF313A",
"o. c #81472D",
"O. c #FA3741",
"+. c #FF3842",
"@. c #836246",
"#. c #896749",
"$. c #8C694B",
"%. c #946F4F",
"&. c #867656",
"*. c #957050",
"=. c #9A7452",
"-. c #A17956",
";. c #A77E59",
":. c #A87F5A",
">. c #8B8B3C",
",. c #B2865F",
"<. c #B2B24C",
"1. c #838176",
"2. c #B68961",
"3. c #BB8D64",
"4. c #C9976B",
"5. c #CC9A6D",
"6. c #C49469",
"7. c #D29E70",
"8. c #D6A172",
"9. c #DDA676",
"0. c #DFA877",
"q. c #E0A877",
"w. c #E2AA79",
"e. c #EBB17E",
"r. c #E8E863",
"t. c #FEFE6D",
"y. c #F1F167",
"u. c #868686",
"i. c #8F8D81",
"p. c #989689",
"a. c #9B988B",
"s. c #939393",
"d. c #9C9C9C",
"f. c #AEAB9D",
"g. c #B0AD9E",
"h. c #ACACAC",
"j. c gray63",
"k. c #B7B7B7",
"l. c #BBBBBB",
"z. c #F2B681",
"x. c #F5B883",
"c. c #FCBD86",
"v. c #FFC088",
"b. c #CBC8B7",
"n. c #D1CDBB",
"m. c gray78",
"M. c #D9D5C2",
"N. c gray84",
"B. c gray85",
"V. c #E4E0CD",
"C. c #EEEBD6",
"Z. c #EBE7D3",
"A. c #F0ECD8",
"S. c #F7F3DE",
"D. c #E3E3E3",
"F. c #ECECEC",
"G. c #F4F4F4",
"H. c #FEFEFE",
"J. c None",
/* pixels */
"J.J.J.J.J.J.J.J.J.J.J.J.J.J.J.J.J.J.J.J.J.J.J.J.J.J.J.J.J.J.J.J.J.J.J.J.J.J.J.J.J.J.J.J.J.J.J.J.J.J.J.J.J.J.J.J.J.J.J.J.J.J.J.J.",
"J.J.J.J.J.J.J.J.J.J.J.J.J.J.J.J.J.J.J.J.J.J.J.J.J.J.J.J.J.J.J.J.J.J.J.J.J.J.J.J.J.J.J.J.J.J.J.J.J.J.J.J.J.J.J.J.J.J.J.J.J.J.J.J.",
"J.J.J.J.J.J.J.J.J.J.J.J.J.J.J.J.J.J.J.J.J.J.J.J.J.J.J.J.J.J.J.J.J.J.J.J.J.J.J.J.J.J.J.J.J.J.J.J.J.J.J.J.J.J.J.J.J.J.J.J.J.J.J.J.",
"J.J.J.J.J.J.J.J.J.J.J.J.J.J.J.J.J.J.J.J.J.J.J.J.J.J.J.J.J.J.J.J.J.J.J.J.J.J.J.J.J.J.J.J.J.J.J.J.J.J.J.J.J.J.J.J.J.J.J.J.J.J.J.J.",
"J.J.J.J.J.J.J.J.J.J.J.J.J.J.J.J.J.J.J.J.J.J.J.J.J.J.J.J.J.J.J.J.J.J.J.J.J.J.J.J.J.J.J.J.J.J.J.J.J.J.J.J.J.J.J.J.J.J.J.J.J.J.J.J.",
"J.J.J.J.J.J.J.J.J.J.J.J.J.J.J.J.J.J.J.J.J.J.J.J.J.J.J.J.J.J.J.J.J.J.J.J.J.J.J.J.J.J.J.J.J.J.J.J.J.J.J.J.J.J.J.J.J.J.J.J.J.J.J.J.",
"J.J.J.J.J.J.J.J.J.J.J.J.J.J.J.J.J.J.J.J.J.J.J.J.J.J.J.J.J.J.J.J.J.J.J.J.J.J.J.J.J.J.J.J.J.J.J.J.J.J.J.J.J.J.J.J.J.J.J.J.J.J.J.J.",
"J.J.J.J.J.J.J.J.J.J.J.J.J.J.J.J.J.J.J.J.J.J.J.J.J.J.J.J.J.J.J.J.J.J.J.J.J.J.J.J.J.J.J.J.J.J.J.J.J.J.J.J.J.J.J.J.J.J.J.J.J.J.J.J.",
"J.J.J.J.J.J.J.J.J.J.J.J.J.J.J.J.J.J.J.J.J.J.J.J.J.J.J.J.J.J.J.J.J.J.J.J.J.J.J.J.J.J.J.J.J.J.J.J.J.J.J.J.J.J.J.J.J.J.J.J.J.J.J.J.",
"J.J.J.J.J.J.J.J.J.J.J.J.J.J.J.J.J.J.J.J.J.J.J.J.J.J.J.J.J.J.J.J.J.J.J.J.J.J.J.J.J.J.J.J.J.J.J.J.J.J.J.J.J.J.J.J.J.J.J.J.J.J.J.J.",
"J.J.J.J.J.J.J.J.J.J.J.J.J.J.J.J.J.J.J.J.J.J.J.J.J.J.J.J.J.J.J.J.J.J.J.J.J.J.J.J.J.J.J.J.J.J.J.J.J.J.J.J.J.J.J.J.J.J.J.J.J.J.J.J.",
"J.J.J.J.J.J.J.J.J.J.J.J.J.J.J.J.J.J.J.J.J.J.J.J.J.J.J.J.J.J.J.J.J.J.J.J.J.J.J.J.J.J.J.J.J.J.J.J.J.J.J.J.J.J.J.J.J.J.J.J.J.J.J.J.",
"J.J.J.J.J.J.J.J.J.J.J.J.J.J.J.J.J.J.J.J.J.J.J.J.J.J.J.J.J.J.J.J.J.J.J.J.J.J.J.J.J.J.J.J.J.J.J.J.J.J.J.J.J.J.J.J.J.J.J.J.J.J.J.J.",
"J.J.J.J.J.J.J.J.J.J.J.J.J.J.J.J.J.J.J.J.J.J.J.J.J.J.J.J.J.J.J.J.J.J.J.J.J.J.J.J.J.J.J.J.J.J.J.J.J.J.J.J.J.J.J.J.J.J.J.J.J.J.J.J.",
"J.J.J.J.J.J.J.J.J.J.J.J.J.J.J.J.J.J.J.J.J.J.J.J.J.J.J.J.J.J.J.J.J.J.J.J.J.J.J.J.J.J.J.J.J.J.J.J.J.J.J.J.J.J.J.J.J.J.J.J.J.J.J.J.",
"J.J.J.J.J.J.J.J.J.J.J.J.J.J.J.J.J.J.J.J.J.J.J.J.J.J.J.J.J.J.J.J.J.J.J.J.J.J.J.J.J.J.J.J.J.J.J.J.J.J.J.J.J.J.J.J.J.J.J.J.J.J.J.J.",
"J.J.J.J.J.J.J.J.J.J.J.J.J.J.J.J.J.J.J.J.J.J.J.J.J.J.J.J.J.J.J.J.J.J.J.J.J.J.J.J.J.J.J.J.J.J.J.J.J.J.J.J.J.J.J.J.J.J.J.J.J.J.J.J.",
"J.J.J.J.J.J.J.J.J.J.J.J.J.J.J.J.J.J.J.J.J.J.J.J.J.J.J.J.J.J.J.J.J.J.J.J.J.J.J.J.J.J.J.J.J.J.J.J.J.J.J.J.J.J.J.J.J.J.J.J.J.J.J.J.",
"J.J.J.J.J.J.J.J.J.J.J.J.J.J.J.J.J.J.J.J.J.J.J.J.J.J.J.J.J.J.J.J.J.J.J.J.J.J.J.J.J.J.J.J.J.J.J.J.J.J.J.J.J.J.J.J.J.J.J.J.J.J.J.J.",
"J.J.J.J.J.J.J.J.J.J.J.J.J.J.J.J.J.J.J.J.J.J.J.J.J.J.J.J.J.J.J.J.J.J.J.J.J.J.J.J.J.J.J.J.J.J.J.J.J.J.J.J.J.J.J.J.J.J.J.J.J.J.J.J.",
"J.J.J.J.J.J.J.J.J.J.J.J.J.J.J.J.J.J.J.J.J.J.J.J.J.J.J.J.J.J.J.J.J.J.J.J.J.J.J.J.J.J.J.J.J.J.J.J.J.J.J.J.J.J.J.J.J.J.J.J.J.J.J.J.",
"J.J.J.J.J.J.J.J.J.J.J.J.J.J.J.J.J.J.J.J.J.J.J.J.J.J.J.J.J.J.J.J.J.J.J.J.J.J.J.J.J.J.J.J.J.J.J.J.J.J.J.J.J.J.J.J.J.J.J.J.J.J.J.J.",
"J.J.J.J.J.J.J.J.J.J.J.J.J.J.J.J.J.J.J.J.J.J.J.J.J.J.J.J.J.J.J.J.J.J.J.J.J.J.J.J.J.J.J.J.J.J.J.J.J.J.J.J.J.J.J.J.J.J.J.J.J.J.J.J.",
"J.J.J.J.J.J.J.J.J.J.J.J.J.J.J.J.J.J.J.J.J.J.J.J.J.J.J.J.J.J.J.J.J.J.J.J.J.J.J.J.J.J.J.J.J.J.J.J.J.J.J.J.J.J.J.J.J.J.J.J.J.J.J.J.",
"J.J.J.J.J.J.J.J.J.J.J.J.J.J.J.J.J.J.J.J.J.J.J.J.J.J.J.J.J.J.J.J.J.J.J.J.J.J.J.J.J.J.J.J.J.J.J.J.J.J.J.J.J.J.J.J.J.J.J.J.J.J.J.J.",
"J.J.J.J.J.J.J.J.J.J.J.J.J.J.J.J.J.J.J.J.J.J.J.J.J.J.J.J.J.J.J.J.J.J.J.J.J.J.J.J.J.J.J.J.J.J.J.J.J.J.J.J.J.J.J.J.J.J.J.J.J.J.J.J.",
"J.J.J.J.J.J.J.J.J.J.J.J.J.J.J.J.J.J.J.J.J.J.J.J.J.J.J.J.J.J.J.J.J.J.J.J.J.J.J.J.J.J.J.J.J.J.J.J.J.J.J.J.J.J.J.J.J.J.J.J.J.J.J.J.",
"J.J.J.J.J.J.J.J.J.J.J.J.J.J.J.J.J.J.J.J.J.J.J.J.J.J.J.J.J.J.J.J.J.J.J.J.J.J.J.J.J.J.J.J.J.J.J.J.J.J.J.J.J.J.J.J.J.J.J.J.J.J.J.J.",
"J.J.J.J.J.J.J.J.J.J.J.J.J.J.J.J.J.J.J.J.J.J.J.J.J.J.J.J.J.J.J.J.J.J.J.J.J.J.J.J.J.J.J.J.J.J.J.J.J.J.J.J.J.J.J.J.J.J.J.J.J.J.J.J.",
"J.J.J.J.J.J.J.J.J.J.J.J.J.J.J.J.J.J.J.J.J.J.J.J.J.J.J.J.J.J.J.J.J.J.J.J.J.J.J.J.J.J.J.J.J.J.J.J.J.J.J.J.J.J.J.J.J.J.J.J.J.J.J.J.",
"J.J.J.J.J.J.J.J.J.J.J.J.J.J.J.J.J.J.J.J.J.J.J.J.J.J.J.J.J.J.J.J.J.J.J.J.J.J.J.J.J.J.J.J.J.J.J.J.J.J.J.J.J.J.J.J.J.J.J.J.J.J.J.J.",
"J.J.J.J.J.J.J.J.J.J.J.J.J.J.J.J.J.J.J.J.J.J.J.J.J.J.J.J.J.J.J.J.J.J.J.J.J.J.J.J.J.J.J.J.J.J.J.J.J.J.J.J.J.J.J.J.J.J.J.J.J.J.J.J.",
"J.J.J.J.J.J.J.J.J.J.J.J.J.J.J.J.J.J.J.J.J.J.J.J.J.J.J.J.J.J.J.J.J.J.J.J.J.J.J.J.J.J.J.J.J.J.J.J.J.J.J.J.J.J.J.J.J.J.J.J.J.J.J.J.",
"J.J.J.J.J.J.J.J.J.J.J.J.J.J.J.J.J.J.J.J.J.J.J.J.J.J.J.J.J.J.J.J.J.J.J.J.J.J.J.J.J.J.J.J.J.J.J.J.J.J.J.J.J.J.J.J.J.J.J.J.J.J.J.J.",
"J.J.J.J.J.J.J.J.J.J.J.J.J.J.J.J.J.J.J.J.J.J.J.J.J.J.J.J.J.J.J.J.J.J.J.J.J.J.J.J.J.J.J.J.J.J.J.J.J.J.J.J.J.J.J.J.J.J.J.J.J.J.J.J.",
"J.J.J.J.J.J.J.J.J.J.J.J.J.J.J.J.J.J.J.J.J.J.J.J.J.J.J.J.J.J.J.J.J.J.J.J.J.J.J.J.J.J.J.J.J.J.J.J.J.J.J.J.J.J.J.J.J.J.J.J.J.J.J.J.",
"J.J.J.J.J.J.J.J.J.J.J.J.J.J.J.J.J.J.J.J.J.J.J.J.J.J.J.J.J.J.J.J.J.J.J.J.J.J.J.J.J.J.J.J.J.J.J.J.J.J.J.J.J.J.J.J.J.J.J.J.J.J.J.J.",
"J.J.J.J.J.J.J.J.J.J.J.J.J.J.J.J.J.J.J.J.J.J.J.J.J.J.J.J.J.J.J.J.J.J.J.J.J.J.J.J.J.J.J.J.J.J.J.J.J.J.J.J.J.J.J.J.J.J.J.J.J.J.J.J.",
"J.J.J.J.J.J.J.J.J.J.J.J.J.J.J.J.J.J.J.J.J.J.J.J.J.J.J.J.J.J.J.J.J.J.J.J.J.J.J.J.J.J.J.J.J.J.J.J.J.J.J.J.J.J.J.J.J.J.J.J.J.J.J.J.",
"J.J.J.J.J.J.J.J.J.J.J.J.J.J.J.J.J.J.J.J.J.J.J.J.J.J.J.J.J.J.J.J.J.J.J.J.J.J.J.J.J.J.J.J.J.J.J.J.J.J.J.J.J.J.J.J.J.J.J.J.J.J.J.J.",
"J.J.J.J.J.J.J.J.J.J.J.J.J.J.J.J.J.J.J.J.J.J.J.J.J.J.J.J.J.J.J.J.J.J.J.J.J.J.J.J.J.J.J.J.J.J.J.J.J.J.J.J.J.J.J.J.J.J.J.J.J.J.J.J.",
"J.J.J.J.J.J.J.J.J.J.J.J.J.J.J.J.J.J.J.J.J.J.J.J.J.J.J.J.J.J.J.J.J.J.J.J.J.J.J.J.J.J.J.J.J.J.J.J.J.J.J.J.J.J.J.J.J.J.J.J.J.J.J.J.",
"J.J.J.J.J.J.J.J.J.J.J.J.J.J.J.J.J.J.J.J.J.J.J.J.J.J.J.J.J.J.J.J.J.J.J.J.J.J.J.J.J.J.J.J.J.J.J.J.J.J.J.J.J.J.J.J.J.J.J.J.J.J.J.J.",
"J.J.J.J.J.J.J.J.J.J.J.J.J.J.J.J.J.J.J.J.J.J.J.J.J.J.J.J.J.J.J.J.J.J.J.J.J.J.J.J.J.J.J.J.J.J.J.J.J.J.J.J.J.J.J.J.J.J.J.J.J.J.J.J.",
"J.J.J.J.J.J.J.J.J.J.J.J.J.J.J.J.J.J.J.J.J.J.J.J.J.J.J.J.J.J.J.J.J.J.J.J.J.J.J.J.J.J.J.J.J.J.J.J.J.J.J.J.J.J.J.J.J.J.J.J.J.J.J.J.",
"J.J.J.J.J.J.J.J.J.J.J.J.J.J.J.J.J.J.J.J.J.J.J.J.J.J.J.J.J.J.J.J.J.J.J.J.J.J.J.J.J.J.J.J.J.J.J.J.J.J.J.J.J.J.J.J.J.J.J.J.J.J.J.J.",
"J.J.J.J.J.J.J.J.J.J.J.J.J.J.J.J.J.J.J.J.J.J.J.J.J.J.J.J.J.J.J.J.J.J.J.J.J.J.J.J.J.J.J.J.J.J.J.J.J.J.J.J.J.J.J.J.J.J.J.J.J.J.J.J.",
"J.J.J.J.J.J.J.J.J.J.J.J.J.J.J.J.J.J.J.J.J.J.J.J.J.J.J.J.J.J.J.J.J.J.J.J.J.J.J.J.J.J.J.J.J.J.J.J.J.J.J.J.J.J.J.J.J.J.J.J.J.J.J.J.",
"J.J.J.J.J.J.J.J.J.J.J.J.J.J.J.J.J.J.J.J.J.J.J.J.J.J.J.J.J.J.J.J.J.J.J.J.J.J.J.J.J.J.J.J.J.J.J.J.J.J.J.J.J.J.J.J.J.J.J.J.J.J.J.J.",
"J.J.J.J.J.J.J.J.J.J.J.J.J.J.J.J.J.J.J.J.J.J.J.J.J.J.J.J.J.J.J.J.J.J.J.J.J.J.J.J.J.J.J.J.J.J.J.J.J.J.J.J.J.J.J.J.J.J.J.J.J.J.J.J.",
"J.J.J.J.J.J.J.J.J.J.J.J.J.J.J.J.J.J.J.J.J.J.J.J.J.J.J.J.J.J.J.J.J.J.J.J.J.J.J.J.J.J.J.J.J.J.J.J.J.J.J.J.J.J.J.J.J.J.J.J.J.J.J.J.",
"J.J.J.J.J.J.J.J.J.J.J.J.J.J.J.J.J.J.J.J.J.J.J.J.J.J.J.J.J.J.J.J.J.J.J.J.J.J.J.J.J.J.J.J.J.J.J.J.J.J.J.J.J.J.J.J.J.J.J.J.J.J.J.J.",
"J.J.J.J.J.J.J.J.J.J.J.J.J.J.J.J.J.J.J.J.J.J.J.J.J.J.J.J.J.J.J.J.J.J.J.J.J.J.J.J.J.J.J.J.J.J.J.J.J.J.J.J.J.J.J.J.J.J.J.J.J.J.J.J.",
"J.J.J.J.J.J.J.J.J.J.J.J.J.J.J.J.J.J.J.J.J.J.J.J.J.J.J.J.J.J.J.J.J.J.J.J.J.J.J.J.J.J.J.J.J.J.J.J.J.J.J.J.J.J.J.J.J.J.J.J.J.J.J.J.",
"J.J.J.J.J.J.J.J.J.J.J.J.J.J.J.J.J.J.J.J.J.J.J.J.J.J.J.J.J.J.J.J.J.J.J.J.J.J.J.J.J.J.J.J.J.J.J.J.J.J.J.J.J.J.J.J.J.J.J.J.J.J.J.J.",
"J.J.J.J.J.J.J.J.J.J.J.J.J.J.J.J.J.J.J.J.J.J.J.J.J.J.J.J.J.J.J.J.J.J.J.J.J.J.J.J.J.J.J.J.J.J.J.J.J.J.J.J.J.J.J.J.J.J.J.J.J.J.J.J.",
"J.J.J.J.J.J.J.J.J.J.J.J.J.J.J.J.J.J.J.J.J.J.J.J.J.J.J.J.J.J.J.J.J.J.J.J.J.J.J.J.J.J.J.J.J.J.J.J.J.J.J.J.J.J.J.J.J.J.J.J.J.J.J.J.",
"J.J.J.J.J.J.J.J.J.J.J.J.J.J.J.J.J.J.J.J.J.J.J.J.J.J.J.J.J.J.                    J.J.J.J.J.J.J.J.J.J.J.J.J.J.J.J.J.J.J.J.J.J.J.J.",
"J.J.J.J.J.J.J.J.J.J.J.J.J.J.J.J.J.J.J.J.J.J.J.J.J.                      X X       J.J.J.J.J.J.J.J.J.J.J.J.J.J.J.J.J.J.J.J.J.J.J.",
"J.J.J.J.J.J.J.J.J.J.J.J.J.J.J.J.J.J.J.J.J.J.            . & 7 y x n U U U U S X   J.J.J.J.J.J.J.J.J.J.J.J.J.J.J.J.J.J.J.J.J.J.J.",
"J.J.J.J.J.J.J.J.J.J.J.J.J.J.J.J.J.J.J.          # 9 x G U U U U U U U U U U U 0     J.J.J.J.J.J.J.J.J.J.J.J.J.J.J.J.J.J.J.J.J.J.",
"J.J.J.J.J.J.J.J.J.J.J.J.J.J.J.J.J.J.      # w D U U U U U U U U U U U U U U U S .   J.J.J.J.J.J.J.J.J.J.J.J.J.J.J.J.J.J.J.J.J.J.",
"J.J.J.J.J.J.J.J.J.J.J.J.J.J.J.J.J.    X x U U U U U U U U U U U G # # w U U U U ;     J.J.J.J.J.J.J.J.J.J.J.J.J.J.J.J.J.J.J.J.J.",
"J.J.J.J.J.J.J.J.J.J.J.J.J.J.J.J.J.  . S U U U U U U U U U U U U U U v % 2 G U U y     J.J.J.J.J.J.J.J.J.J.J.J.J.J.J.J.J.J.J.J.J.",
"J.J.J.J.J.J.J.J.J.J.J.J.J.J.J.J.    3 U U U U U U T U U U U U T U U U J - 0 U U S .   J.J.J.J.J.J.J.J.J.J.J.J.J.J.J.J.J.J.J.J.J.",
"J.J.J.J.J.J.J.J.J.J.J.J.J.J.J.J.    z U U U U U U U U U U U U U U U U U z 2 U U G %     J.J.J.J.J.J.J.J.J.J.J.J.J.J.J.J.J.J.J.J.",
"J.J.J.J.J.J.J.J.J.J.J.J.J.J.J.J.    n U U U U T U U U U U U U U U U U U 9 2 U U U 7         J.J.J.J.J.J.J.J.J.J.J.J.J.J.J.J.J.J.",
"J.J.J.J.J.J.J.J.J.J.J.J.J.J.J.    . J U U U U U U U U U U U U U U U J 3 # D U U U z . &         J.J.J.J.J.J.J.J.J.J.J.J.J.J.J.J.",
"J.J.J.J.J.J.J.J.J.J.J.J.J.J.      # G U U U U U U U U U U U U U n 7 + - G U U U U S . v S 2         J.J.J.J.J.J.J.J.J.J.J.J.J.J.",
"J.J.J.J.J.J.J.J.J.J.J.J.J.      % # U U U U U U U U U U U U U U z 0 x U U U U U U G # y U U n -       J.J.J.J.J.J.J.J.J.J.J.J.J.",
"J.J.J.J.J.J.J.J.J.J.J.J.    . n 0 & J U U U U U T U U U U U U U U U U U U U U U U U - 9 U U U U y .     J.J.J.J.J.J.J.J.J.J.J.J.",
"J.J.J.J.J.J.J.J.J.J.J.    # G U 0 & U U U U U U U U U U U U U U U U U U U U G v y 0 X & U U U U U n #     J.J.J.J.J.J.J.J.J.J.J.",
"J.J.J.J.J.J.J.J.J.J.    = U U U 0 - U U U U U U U U U U U G n x y q 3 - X         X . X U U U U U U G &     J.J.J.J.J.J.J.J.J.J.",
"J.J.J.J.J.J.J.J.J.    # G U U U 0 . 3 0 0 3 2 2 - & # .               X & 2 2 9 9 0 3 . n U U U U U U U &     J.J.J.J.J.J.J.J.J.",
"J.J.J.J.J.J.J.J.    . D U U U U 0   + X X + # # X                           X $ 2 9 7 . x U U U U U U U G X     J.J.J.J.J.J.J.J.",
"J.J.J.J.J.J.J.J.    x U U U U U 0   3 0 0 7 - .   . 2 w x S U U U U U G v z 9 -         0 U U U U U U U U z     J.J.J.J.J.J.J.J.",
"J.J.J.J.J.J.J.    3 U U U U U U u . 3 3 $   . 9 n U U U U U U U U U U U U U U U U v 9 @   % z U U U U U U G @   J.J.J.J.J.J.J.J.",
"J.J.J.J.J.J.J.  . G U U U U U U 3 . -   . y J U U U U U U U U U U U U U U U U U U U U U n 2   # x U U U U U #   J.J.J.J.J.J.J.J.",
"J.J.J.J.J.J.    u U U U U U U U y     u U U U U U U U T U U U U U U U U U U U U U U U U U U D 2   9 U U U z     J.J.J.J.J.J.J.J.",
"J.J.J.J.J.J.    G U U U U U U v . $ D U U U U U U U U U U U Y U U U U T U U U U U U U U U U U U x x U G 7       J.J.J.J.J.J.J.J.",
"J.J.J.J.J.J.  # U U U U U U x . 2 U U U U U U U U U U U U U U U U U U T U U U U U U U U U U U U U n 3         J.J.J.J.J.J.J.J.J.",
"J.J.J.J.J.J.  # J U U U U S . 2 U U U U U U U U U U U U U U U U U U U U U U U U U U U U U D z 3 X         J.J.J.J.J.J.J.J.J.J.J.",
"J.J.J.J.J.J.    i U U U U 2 % J U U U U U U U U U U U U U U U U U U U U U U G v z w 2 % .             J.J.J.J.J.J.J.J.J.J.J.J.J.",
"J.J.J.J.J.J.      & y n G X z U U U J D S v v x z y q 0 0 9 2 3 ; - $ X             p ~ t   &     J.J.J.J.J.J.J.J.J.J.J.J.J.J.J.",
"J.J.J.J.J.J.J.                                  .   w i z x U D ) ) %.=.2.#.  O } D.H.H.H.l.p     J.J.J.J.J.J.J.J.J.J.J.J.J.J.J.",
"J.J.J.J.J.J.J.J.J.          . k M M B C C I o.o.< n x.v.v.c.v.v.c.c.v.v.c.7.# h.H.H.H.H.H.H.F.p     J.J.J.J.J.J.J.J.J.J.J.J.J.J.",
"J.J.J.J.J.J.J.J.J.J.J.J.J.  @ I o.o.o.o.o.o.o.j X 6.v.v.v.v.v.v.v.v.v.v.v.%.r G.H.H.H.H.H.H.D.d.    J.J.J.J.J.J.J.J.J.J.J.J.J.J.",
"J.J.J.J.J.J.J.J.J.J.J.J.J.  . C o.o.o.o.o.o.I $ T c.v.v.v.v.v.v.v.v.v.v.v.) / H.H.H.H.H.G.(   / o   J.J.J.J.J.J.J.J.J.J.J.J.J.J.",
"J.J.J.J.J.J.J.J.J.J.J.J.J.    P o.o.o.o.o.o.k X 5.v.v.v.v.v.v.v.v.v.v.v.v.@.p H.H.H.H.H.G.~   ( .     J.J.J.J.J.J.J.J.J.J.J.J.J.",
"J.J.J.J.J.J.J.J.J.J.J.J.J.    N o.o.o.o.o.I < v c.v.v.v.v.v.v.v.v.v.v.v.v.;.r D.H.H.H.H.H.F.h.k.      J.J.J.J.J.J.J.J.J.J.J.J.J.",
"J.J.J.J.J.J.J.J.J.J.J.J.J.    j o.o.o.o.o.b . 3.v.v.v.v.v.v.v.v.v.v.v.v.v.8.$ j.H.H.H.H.H.H.G.( q Y     J.J.J.J.J.J.J.J.J.J.J.J.",
"J.J.J.J.J.J.J.J.J.J.J.J.J.    4 o.o.o.o.o.4 x x.v.x.2.-.5.c.v.v.v.v.v.v.v.c.E : m.H.H.H.H.F.[ . E x     J.J.J.J.J.J.J.J.J.J.J.J.",
"J.J.J.J.J.J.J.J.J.J.J.J.J.J.  $ I o.o.o.N . ;.v.0.9 . %   =.v.v.v.v.v.v.v.v.z.n = } k.k.u.r           J.J.J.J.J.J.J.J.J.J.J.J.J.",
"J.J.J.J.J.J.J.J.J.J.J.J.J.J.    k o.o.o.h 7 e.v.U 9 0.v.8.z.v.v.v.v.v.v.v.v.v.x.%.q     2 @.4.#     J.J.J.J.J.J.J.J.J.J.J.J.J.J.",
"J.J.J.J.J.J.J.J.J.J.J.J.J.J.    4 I o.I $ ) v.v.y ) v.v.v.v.v.v.v.v.v.v.v.v.v.v.v.v.v.v.v.v.#.    J.J.J.J.J.J.J.J.J.J.J.J.J.J.J.",
"J.J.J.J.J.J.J.J.J.J.J.J.J.J.J.    M o.N . 5.v.v.S G v.v.v.v.v.v.v.v.v.v.v.v.v.v.v.v.v.v.v.w.&   J.J.J.J.J.J.J.J.J.J.J.J.J.J.J.J.",
"J.J.J.J.J.J.J.J.J.J.J.J.J.J.J.    . N N X 8.v.v.=.+ E 8.;.q 2.v.v.v.v.v.v.v.v.v.v.v.5.#.=.n     J.J.J.J.J.J.J.J.J.J.J.J.J.J.J.J.",
"J.J.J.J.J.J.J.J.J.J.J.J.J.J.J.J.    @ < < w.v.v.v.*.2   X U e.v.v.v.v.v.v.v.v.v.w.D . 5 X     J.J.J.J.J.J.J.J.J.J.J.J.J.J.J.J.J.",
"J.J.J.J.J.J.J.J.J.J.J.J.J.J.J.J.J.      + ,.v.v.v.v.c.8.9.v.c.v.v.v.v.v.v.v.v.v.3.x ,.=.      J.J.J.J.J.J.J.J.J.J.J.J.J.J.J.J.J.",
"J.J.J.J.J.J.J.J.J.J.J.J.J.J.J.J.J.J.      # -.c.v.v.v.v.v.v.v.v.v.v.v.v.v.v.v.v.v.e.W       J.J.J.J.J.J.J.J.J.J.J.J.J.J.J.J.J.J.",
"J.J.J.J.J.J.J.J.J.J.J.J.J.J.J.J.J.J.J.J.      S 9.v.v.v.v.v.v.v.v.v.v.v.v.c.v.x.,.6       J.J.J.J.J.J.J.J.J.J.J.J.J.J.J.J.J.J.J.",
"J.J.J.J.J.J.J.J.J.J.J.J.J.J.J.J.J.J.J.J.J.      . U 4.c.v.v.v.v.v.e.v.v.c.8.` 2         J.J.J.J.J.J.J.J.J.J.J.J.J.J.J.J.J.J.J.J.",
"J.J.J.J.J.J.J.J.J.J.J.J.J.J.J.J.J.J.J.J.J.J.    6 -   ; D @.-.;.,.%.) n &     s X. .    J.J.J.J.J.J.J.J.J.J.J.J.J.J.J.J.J.J.J.J.",
"J.J.J.J.J.J.J.J.J.J.J.J.J.J.J.J.J.J.J.J.J.J.    L &.` F q %   X * 6 z Q >.6   s +.O.d     J.J.J.J.J.J.J.J.J.J.J.J.J.J.J.J.J.J.J.",
"J.J.J.J.J.J.J.J.J.J.J.J.J.J.J.J.J.J.J.J.J.J.  o _ &.&.&.&._ . <.t.t.t.t.t.Q   , +.+....   J.J.J.J.J.J.J.J.J.J.J.J.J.J.J.J.J.J.J.",
"J.J.J.J.J.J.J.J.J.J.J.J.J.J.J.J.J.J.J.J.J.J.  ; ' &.&.&.&.] ; ! t.t.t.t.<.A   s +.+.+.l     J.J.J.J.J.J.J.J.J.J.J.J.J.J.J.J.J.J.",
"J.J.J.J.J.J.J.J.J.J.J.J.J.J.J.J.J.J.J.J.J.    9 &.&.&.&.&.&.c e y.r.>.5   7 ; . s f f >     J.J.J.J.J.J.J.J.J.J.J.J.J.J.J.J.J.J.",
"J.J.J.J.J.J.J.J.J.J.J.J.J.J.J.J.J.J.J.J.J.    i &.&.&.&.&.&.R O Z X % U % K i             J.J.J.J.J.J.J.J.J.J.J.J.J.J.J.J.J.J.J.",
"J.J.J.J.J.J.J.J.J.J.J.J.J.J.J.J.J.J.J.J.      % u c H H H H F   . + 9 e.U % ;     J.J.J.J.J.J.J.J.J.J.J.J.J.J.J.J.J.J.J.J.J.J.J.",
"J.J.J.J.J.J.J.J.J.J.J.J.J.J.J.J.J.J.J.    7 T x +   o O O O         . *.8.&       J.J.J.J.J.J.J.J.J.J.J.J.J.J.J.J.J.J.J.J.J.J.J.",
"J.J.J.J.J.J.J.J.J.J.J.J.J.J.J.J.J.J.      $.c.5.%   O O O     . a ^   2 w.,.#       J.J.J.J.J.J.J.J.J.J.J.J.J.J.J.J.J.J.J.J.J.J.",
"J.J.J.J.J.J.J.J.J.J.J.J.J.J.J.J.J.J.      % v X   . { a.a.f.b.C.S.S.i.  @.c.n       J.J.J.J.J.J.J.J.J.J.J.J.J.J.J.J.J.J.J.J.J.J.",
"J.J.J.J.J.J.J.J.J.J.J.J.J.J.J.J.J.J.              ^ C.S.S.S.S.S.S.b.8   W v.U               J.J.J.J.J.J.J.J.J.J.J.J.J.J.J.J.J.J.",
"J.J.J.J.J.J.J.J.J.J.J.J.J.J.J.J.J.J.              g.S.S.S.S.S.S.n.8     & X             . o J.J.J.J.J.J.J.J.J.J.J.J.J.J.J.J.J.J.",
"J.J.J.J.J.J.J.J.o   .   o     .   . o           F Z.S.S.S.S.S.n.t             o : +             .   o     .     J.J.J.J.J.J.J.J.",
"J.J.J.J.J.J.J.J.      o .       o               / B.S.S.S.S.n.t           : u.D.D.t             o . .     o     J.J.J.J.J.J.J.J.",
"J.J.o     . o .                           t | a . : p.C.S.M.t       + d.D.H.H.B.a                               o   o     . J.J.",
"J.J.  .           .                       + h.H.}     : 1.u           s.m.k.[ +                                   . . .     J.J.",
".   o                                       + s.G.h.p                                                                         o ",
"                                                ( B.G.u.                                                                    .   ",
"              .             o                       : p +                                           o               o   o       ",
"                                                                                                                .   .         . ",
"J.J.J.J.    o . o                                                                                                       J.J.J.J.",
"J.J.J.J.  o           o                                                                                                 J.J.J.J.",
"J.J.J.J.J.J.J.J.J.J.  . o         . o                                                       o . .     . .   J.J.J.J.J.J.J.J.J.J.",
"J.J.J.J.J.J.J.J.J.J..     .                                                                     o o       o J.J.J.J.J.J.J.J.J.J.",
"J.J.J.J.J.J.J.J.J.J.J.J.J.J.J.J.J.J.J.J.                                                J.J.J.J.J.J.J.J.J.J.J.J.J.J.J.J.J.J.J.J.",
"J.J.J.J.J.J.J.J.J.J.J.J.J.J.J.J.J.J.J.J.                                                J.J.J.J.J.J.J.J.J.J.J.J.J.J.J.J.J.J.J.J."
};
