/* XPM */
static char *result[] = {
/* columns rows colors chars-per-pixel */
"64 128 174 2 ",
"   c black",
".  c #0D0C0C",
"X  c #090708",
"o  c #120E10",
"O  c #151314",
"+  c #1D1B1C",
"@  c #1B1518",
"#  c #271003",
"$  c #2E1304",
"%  c #221B1E",
"&  c #251E22",
"*  c #291F25",
"=  c #242424",
"-  c #2B2B2B",
";  c #30262B",
":  c #352D31",
">  c #382F34",
",  c #333233",
"<  c #393537",
"1  c #3D3D3D",
"2  c #3C3438",
"3  c #461C06",
"4  c #4D1F06",
"5  c #522107",
"6  c #5B2407",
"7  c #4E3A07",
"8  c #652807",
"9  c #6C2C09",
"0  c #6B2A07",
"q  c #722E08",
"w  c #7C320A",
"e  c #62341C",
"r  c #75391E",
"t  c #773514",
"y  c #463129",
"u  c #433C3F",
"i  c #4C3525",
"p  c #603323",
"a  c #653E2A",
"s  c #604809",
"d  c #574327",
"f  c #795825",
"g  c #6F4128",
"h  c #454545",
"j  c #4B4B4B",
"k  c #535353",
"l  c #595557",
"z  c #5B5B5B",
"x  c #5A5759",
"c  c #69574E",
"v  c #646464",
"b  c #6B6B6B",
"n  c #77726F",
"m  c #717171",
"M  c #7B7B7B",
"N  c #853306",
"B  c #85360A",
"V  c #8A370A",
"C  c #8D390B",
"Z  c #923B0B",
"A  c #9B3E0B",
"S  c #953907",
"D  c #843D1D",
"F  c #A43F08",
"G  c #9E400C",
"H  c #884418",
"J  c #93421A",
"K  c #9B4419",
"L  c #9A4714",
"P  c #A3410C",
"I  c #AC440C",
"U  c #B0470D",
"Y  c #B3480D",
"T  c #BB4B0D",
"R  c #A74717",
"E  c #AD4811",
"W  c #B04A13",
"Q  c #B6561D",
"!  c #BC7E1D",
"~  c #854C2C",
"^  c #854F32",
"/  c #9C5733",
"(  c #A55627",
")  c #B65F2F",
"_  c #BE6529",
"`  c #A56039",
"'  c #AD643C",
"]  c #C44E0D",
"[  c #C94F0C",
"{  c #CE520E",
"}  c #D5530D",
"|  c #D9550D",
" . c #C55D1D",
".. c #CA5211",
"X. c #DC5B15",
"o. c #E2570B",
"O. c #E6590C",
"+. c #EF5B0B",
"@. c #EF5F11",
"#. c #F05F11",
"$. c #F16316",
"%. c #F1671B",
"&. c #F2681E",
"*. c #DF6726",
"=. c #C96730",
"-. c #E76925",
";. c #E76F2E",
":. c #F36B21",
">. c #F16F29",
",. c #F3712B",
"<. c #E07135",
"1. c #EC7637",
"2. c #F47A39",
"3. c #F87E3C",
"4. c #895F49",
"5. c #976950",
"6. c #986A51",
"7. c #AD6744",
"8. c #B7714B",
"9. c #AB7050",
"0. c #BB7651",
"q. c #BC7954",
"w. c #937768",
"e. c #997865",
"r. c #8B766A",
"t. c #AD7F65",
"y. c #C97C53",
"u. c #CF9B13",
"i. c #E3981F",
"p. c #FFBF17",
"a. c #F8803F",
"s. c #CA845E",
"d. c #FB8A4D",
"f. c #F48E57",
"g. c #C98B69",
"h. c #C28F74",
"j. c #EA9161",
"k. c #F59866",
"l. c #E39E77",
"z. c #F6A376",
"x. c #838383",
"c. c #8C8C8C",
"v. c #959595",
"b. c #9A9A9A",
"n. c #A48C80",
"m. c #BF9E8B",
"M. c #B79E8F",
"N. c #B2A59E",
"B. c #A3A3A3",
"V. c #ADADAD",
"C. c #B5B5B5",
"Z. c gray75",
"A. c #C7A897",
"S. c #E2A481",
"D. c #E6A886",
"F. c #E8A986",
"G. c #FDBD9B",
"H. c #F8B490",
"J. c #F1B08D",
"K. c #C7AFA3",
"L. c #C6BDB8",
"P. c #F1CEBB",
"I. c #F9C5A9",
"U. c #C5C5C5",
"Y. c gray80",
"T. c #D2D2D2",
"R. c #DEDEDE",
"E. c #F4D9CA",
"W. c #FDE3D6",
"Q. c #E2E2E2",
"!. c gray92",
"~. c #F0F0F0",
"^. c white",
"/. c None",
/* pixels */
"/./././././././././././././././././././././././././././././././././././././././././././././././././././././././././././././././.",
"/./././././././././././././././././././././././././././././././././././././././././././././././././././././././././././././././.",
"/./././././././././././././././././././././././././././././././././././././././././././././././././././././././././././././././.",
"/./././././././././././././././././././././././././././././././././././././././././././././././././././././././././././././././.",
"/./././././././././././././././././././././././././././././././././././././././././././././././././././././././././././././././.",
"/./././././././././././././././././././././././././././././././././././././././././././././././././././././././././././././././.",
"/./././././././././././././././././././././././././././././././././././././././././././././././././././././././././././././././.",
"/./././././././././././././././././././././././././././././././././././././././././././././././././././././././././././././././.",
"/./././././././././././././././././././././././././././././././././././././././././././././././././././././././././././././././.",
"/./././././././././././././././././././././././././././././././././././././././././././././././././././././././././././././././.",
"/./././././././././././././././././././././././././././././././././././././././././././././././././././././././././././././././.",
"/./././././././././././././././././././././././././././././././././././././././././././././././././././././././././././././././.",
"/./././././././././././././././././././././././././././././././././././././././././././././././././././././././././././././././.",
"/./././././././././././././././././././././././././././././././././././././././././././././././././././././././././././././././.",
"/./././././././././././././././././././././././././././././././././././././././././././././././././././././././././././././././.",
"/./././././././././././././././././././././././././././././././././././././././././././././././././././././././././././././././.",
"/./././././././././././././././././././././././././././././././././././././././././././././././././././././././././././././././.",
"/./././././././././././././././././././././././././././././././././././././././././././././././././././././././././././././././.",
"/./././././././././././././././././././././././././././././././././././././././././././././././././././././././././././././././.",
"/./././././././././././././././././././././././././././././././././././././././././././././././././././././././././././././././.",
"/./././././././././././././././././././././././././././././././././././././././././././././././././././././././././././././././.",
"/./././././././././././././././././././././././././././././././././././././././././././././././././././././././././././././././.",
"/./././././././././././././././././././././././././././././././././././././././././././././././././././././././././././././././.",
"/./././././././././././././././././././././././././././././././././././././././././././././././././././././././././././././././.",
"/./././././././././././././././././././././././././././././././././././././././././././././././././././././././././././././././.",
"/./././././././././././././././././././././././././././././././././././././././././././././././././././././././././././././././.",
"/./././././././././././././././././././././././././././././././././././././././././././././././././././././././././././././././.",
"/./././././././././././././././././././././././././././././././././././././././././././././././././././././././././././././././.",
"/./././././././././././././././././././././././././././././././././././././././././././././././././././././././././././././././.",
"/./././././././././././././././././././././././././././././././././././././././././././././././././././././././././././././././.",
"/./././././././././././././././././././././././././././././././././././././././././././././././././././././././././././././././.",
"/./././././././././././././././././././././././././././././././././././././././././././././././././././././././././././././././.",
"/./././././././././././././././././././././././././././././././././././././././././././././././././././././././././././././././.",
"/./././././././././././././././././././././././././././././././././././././././././././././././././././././././././././././././.",
"/./././././././././././././././././././././././././././././././././././././././././././././././././././././././././././././././.",
"/./././././././././././././././././././././././././././././././././././././././././././././././././././././././././././././././.",
"/./././././././././././././././././././././././././././././././././././././././././././././././././././././././././././././././.",
"/./././././././././././././././././././././././././././././././././././././././././././././././././././././././././././././././.",
"/./././././././././././././././././././././././././././././././././././././././././././././././././././././././././././././././.",
"/./././././././././././././././././././././././././././././././././././././././././././././././././././././././././././././././.",
"/./././././././././././././././././././././././././././././././././././././././././././././././././././././././././././././././.",
"/./././././././././././././././././././././././././././././././././././././././././././././././././././././././././././././././.",
"/./././././././././././././././././././././././././././././././././././././././././././././././././././././././././././././././.",
"/./././././././././././././././././././././././././././././././././././././././././././././././././././././././././././././././.",
"/./././././././././././././././././././././././././././././././././././././././././././././././././././././././././././././././.",
"/./././././././././././././././././././././././././././././././././././././././././././././././././././././././././././././././.",
"/./././././././././././././././././././././././././././././././././././././././././././././././././././././././././././././././.",
"/./././././././././././././././././././././././././././././././././././././././././././././././././././././././././././././././.",
"/./././././././././././././././././././././././././././././././././././././././././././././././././././././././././././././././.",
"/./././././././././././././././././././././././././././././././././././././././././././././././././././././././././././././././.",
"/./././././././././././././././././././././././././././././././././././././././././././././././././././././././././././././././.",
"/./././././././././././././././././././././././././././././././././././././././././././././././././././././././././././././././.",
"/./././././././././././././././././././././././././././././././././././././././././././././././././././././././././././././././.",
"/././././././././././././././././././.m m m m m m m m m m m m m /./././././././././././././././././././././././././././././././.",
"/././././././././././././././././././.x.x.x.c.b.v.b.v.v.v.v.v.v././././././././././././././././././././././././././././././././.",
"/././././././././././././././././././.b.b.b.C.U.U.U.U.U.U.U.U.U.m m m /././././././././././././././././././././././././././././.",
"/././././././././././././././././././.b.b.b.U.R.Q.Q.Q.Q.Q.Q.Q.Q.x.x.x.M m m /./././././././././././././././././././././././././.",
"/././././././././././././././././././.b.b.b.R.^.^.^.^.^.^.^.^.^.b.b.b.M m m /./././././././././././././././././././././././././.",
"/./././././././././././././././././././.b.b.U.Y.Y.Q.^.^.^.^.^.^.Y.Y.Y.B.b.b.c.m m /././././././././././././././././././././././.",
"/./././././././././././././././././././././.b.b.b.U.^.^.^.^.^.^.^.^.^.T.U.U.c.m m m /./././././././././././././././././././././.",
"/./././././././././././././././././././././.4.4.4.n.U.U.T.^.^.^.G.G.G.F.S.S.q.` ` / w w /./././././././././././././././././././.",
"/./././././././././././././././././././././.w w w 4.b.b.V.^.^.^.d.d.d.d.d.d.*.{ { I w w w /././././././././././././././././././.",
"/././././././././././././././././././././././././.^ 4.4.e.R.R.R.d.d.d.d.d.d.-.{ { I w w w /././././././././././././././././././.",
"/./././././././././././././././././././././././././.w w ~ U.U.U.d.d.d.d.d.d.*.{ { I w w w /././././././././././././././././././.",
"/././././././././././././././././././././././././././././.5.5.6.d.d.d.d.d.d.*.} { Y G G A w w w /./././././././././././././././.",
"/././././././././././././././././././././././././././././.w w w d.d.d.d.d.d.*.{ { ] Y Y I w w w /./././././././././././././././.",
"/././././././././././././././././././././././././././././.w w w &.:.:.:.:.&.X.{ { ] Y Y Z # # # /./././././././././././././././.",
"/././././././././././././././././././././././././././././.w w w +.+.+.+.+.+.| { { ] Y Y Z       /./././././././././././././././.",
"/././././././././././././././././././././././././././././.w w w +.+.+.+.+.+.| { { ] W Y Z       /./././././././././././././././.",
"/././././././././././././././././././././././././././././.w w w +.+.+.+.+.+.| { { ] Y Y Z       /./././././././././././././././.",
"/././././././././././././././././././././././././././././.w w w } | | +.+.+.| { { { ..] ] A A A       /././././././././././././.",
"/././././././././././././././././././././././././././././.w w w { { { O.+.+.| { { { { { { { { {       /././././././././././././.",
"/././././././././././././././././././././././././././././.w w w O.O.+.+.+.+.| { } { { { { { { {       /././././././././././././.",
"/././././././././././././././././././././././././././././.w w w +.+.+.+.+.+.| { { { { { { { { {       /././././././././././././.",
"/././././././././././././././././././././././././././././.w w w | } } O.+.+.| { { { { { { Y T Y       /././././././././././././.",
"/././././././././././././././././././././././././././././.w w w { { { O.+.+.| { { { { { ..Y Y Y       /././././././././././././.",
"/./././././././././././././././././././././.w w w w w w w w w w B B B V C V V B B B B V C Y Y Y       /././././././././././././.",
"/./././././././././././././././././././././.w w w w w w w w w w w w w w w w w w w w w w V Y Y Y       /././././././././././././.",
"/./././././././././././././././.w w w w w w A I I T ] ] ] ] ] ] ..] ] ] ] ] ..] ] T I I R B B B 9 9 9 /././././././././././././.",
"/./././././././././././././././.w w w w w w G Y U T { { { { { { { { { { { { { { { ] Y Y P w w w w w w /././././././././././././.",
"/././././././././././././.w w w U U U U U U T { { | +.+.+.+.+.+.+.+.+.+.+.+.| { { { { { ..I U U Y I W B w w /./././././././././.",
"/././././././././././././.w w w Y U Y Y Y Y ..{ { | +.+.+.+.+.+.+.+.+.+.+.+.| { { { { { ..U Y U Y Y Y B w w /./././././././././.",
"/./././././././././.w w B Y Y Y { { { { { } o.+.+.+.+.+.$.d.d.d.d.d.d.@.+.+.+.+.+.o.{ { { { { } { { { T Y Y Z w w w /./././././.",
"/./././././././././.w w B Y Y Y { { { { { { o.+.+.+.+.+.$.d.d.d.d.d.d.$.+.+.+.+.+.o.{ { { { { { { { { Y Y Y Z w w w /./././././.",
"/./././././.w w w w w w V Y Y Y { { { { { { o.+.+.+.+.+.+.+.+.+.O.+.+.+.+.+.+.+.+.o.{ { { { { { { { { T Y U Z w w w w w w /././.",
"/./././././.w w w N B B V Y W I ....] { { { o.+.+.+.+.+.+.+.+.+.+.+.+.+.+.+.+.+.+.o.{ { { { { { { [ ] Y U U Z N B N q q q /././.",
"/./././././.w w w I +.+.| w w w w w w I Y Y | +.+.+.+.+.+.+.+.+.+.+.+.+.+.+.+.+.+.o.{ { { Y U U w w w w w w ] +.+.N       /././.",
"/./././././.w w w I +.+.| V V V B B B P I I { o.o.O.O.O.+.+.+.+.+.+.+.+.O.O.O.o.| } ] ] T I U I B B B V V V [ +.+.N       /././.",
"/./././././.w w w I +.+.+.+.+.+.U Y Y B w w w w w Z Y Y T +.+.+.+.+.+.T Y Y Z w w w w w w w w w Y Y Y o.+.+.+.+.+.N       /././.",
"/./././././.w w w I +.+.+.,.,.:.T Y T S V V N B B G T T ..+.+.+.+.+.+.] T T G V V V B B B V V V T Y T -.>.>.$.+.+.N       /././.",
"/./././././.w w w I +.+.2.^.^.^.+.+.+.+.+.+.{ Y U { +.+.+.+.+.+.+.+.+.+.+.+.+.+.+.} Y U T +.+.+.+.+.+.W.^.^.k.+.+.N       /././.",
"/./././././.w w w I +.+.2.^.^.^.2.2.2.$.+.+.{ T T } +.+.+.$.$.$.$.%.$.+.+.+.+.+.+.| ] T { +.+.+.2.2.2.W.^.^.k.+.+.N       /././.",
"/./././././.w w w I +.+.2.^.^.^.^.^.^.2.+.+.+.+.+.+.+.+.$.d.d.d.d.d.d.$.+.+.+.+.+.+.+.+.+.+.+.+.^.^.^.^.^.^.k.+.+.N       /././.",
"/./././././.w w w I O.O.1.~.~.~.~.~.~.1.+.+.+.+.+.#.%.%.&.d.d.d.d.d.d.:.%.%.@.+.+.+.+.+.+.O.O.O.~.~.~.~.~.~.j.O.O.N       /././.",
"/./././././.w w w F { { =.U.U.U.U.U.U.>.+.+.+.+.+.,.d.d.d.d.d.d.d.d.d.d.d.d.:.+.+.+.+.+.+.{ { { U.U.U.U.U.U.y.{ { q       /././.",
"/./././././.w w w A ] ] =.U.U.U.A.A.A.-.+.+.+.+.+.&.3.a.3.d.d.d.d.d.d.d.3.3.&.+.+.+.+.+.+.} | } A.A.A.L.U.U.y.] [ q       /././.",
"/./././././.w w w Z Y Y ) U.U.U.{ { { O.+.+.+.+.+.+.+.+.$.d.d.d.d.d.d.$.+.+.+.+.+.+.+.+.+.+.+.+.} { { A.U.U.q.Y Y 8       /././.",
"/./././././.w w w V P P ( m.m.m.| | | +.+.+.+.+.+.+.+.+.$.3.2.2.2.2.2.#.+.+.+.+.+.+.+.+.+.+.+.+.{ { { h.m.m.' P P 6       /././.",
"/./././././.w w w w w w V Y Y Y +.+.+.+.+.+.+.+.+.+.+.+.+.+.+.+.+.+.+.+.+.+.+.+.+.+.+.+.+.+.+.+.{ } { T Y Y C w w 3       /././.",
"/./././././.w w w B Z C Z T T T F F F F F F } +.+.+.+.+.+.+.+.+.f.f.f.$.+.+.+.+.+.+.+.+.o.P P P C C V Y T T G C C 5       /././.",
"/./././././.w w w Z Y Y T { { {             S +.+.+.+.+.+.+.+.+.^.^.^.2.+.+.+.+.+.+.+.+.]             P { { T Y Y 8       /././.",
"/./././././.w w w A T T W J Z J       7 s s H R R ..+.+.$.k.k.k.^.^.^.J.k.k.,.+.+.| R E L s s s       t J J W T T 0       /././.",
"/./././././.w w w P { { W ; ; ;       u.p.p.f ; ; D +.+.2.^.^.^.^.^.^.^.^.^.k.+.+.K ; ; d p.p.p.      & ; ; J { ..q       /././.",
"/./././././.3 3 4 g 8.8.7.r r r O O O ! i.i.f ; ; D +.+.2.^.^.^.^.^.^.^.^.^.k.+.+.K ; ; i i.i.i.O O O e r r ` 8.8.g       /././.",
"/./././././.      h b.b.n.{ { { ; ; - ( _ _ a ; ; D +.+.2.^.^.^.^.^.^.^.^.^.k.+.+.K ; ; y _ _ _ ; ; ; W } [ t.b.b.z       /././.",
"/./././././., h h m V.V.N.s.s.s.r r r Q  . .J r r 7.z.z.H.^.^.^.^.^.^.^.^.^.I.z.z.0.r r D  . . .r r r 0.s.g.M.V.V.r.h h h /././.",
"/././.      v b.b.V.U.U.U.U.U.U.{ { { { { { { { { l.^.^.^.^.^.^.^.^.^.^.^.^.^.^.^.J.{ { { { { { { { } K.U.U.U.U.U.C.b.b.M       ",
"/./././.    1 j j M V.V.C.U.U.U.g.g.g.S.D.D.F.F.D.P.^.^.^.^.^.^.^.^.^.^.^.^.^.^.^.E.D.D.F.F.D.D.g.g.g.L.U.U.C.V.V.x.j j h       ",
"/./././././.      h b.b.B.U.U.U.U.U.U.~.^.^.^.^.^.^.^.^.^.^.^.^.^.^.^.^.^.^.^.^.^.^.^.^.^.^.^.^.U.U.U.U.U.U.V.v.b.z       /././.",
"/./././././.3 3 3 y h h h k z k V.V.V.C.V.V.Y.R.R.R.R.R.Q.^.^.^.^.^.^.^.^.^.!.R.R.R.R.R.T.V.V.C.V.V.V.v z k j h h , /./././././.",
"/./././././.w w w 3             b.b.b.M m m B.U.U.U.U.U.T.^.^.^.^.^.^.^.^.^.R.U.U.U.U.U.C.m m m v.v.b.+             /./././././.",
"/./././././.w w w 0 8 8 8 8 8 8 h h h , , , M V.V.V.V.V.C.R.R.R.R.R.R.R.R.R.Z.V.V.V.V.V.v., : , h h h & @ @ X       /./././././.",
"/./././././.w w w S Y U Y Y Y Y             z b.b.b.b.b.B.U.U.U.U.U.U.U.U.U.V.b.b.b.b.b.M             & ; - O       /./././././.",
"/././././././././.V Z Z A | | | 9 q q 5 4 4 y 1 1 l x.M m j j j j j j j j j b x.M v 1 < , + % + = - = , < < O       /./././././.",
"/./././././././././.w w Z +.+.+.Y Y Y B w w $     , m m z                   j m m h     X ; ; ; 1 d 1 1 1 u @       /./././././.",
"/./././././././././.w w S +.+.+.<.<.<...] ] e - = - - - , h j h h h j h h h , - - , j h j l l k j j j j j j +       /./././././.",
"/./././././././././.w w Z +.+.+.d.d.d.$.+.+.~ 1 1 =     O m m m b m m m m m -     , m m m m m m k k k k k k +       /./././././.",
"/./././././././././.w w Z +.+.+.d.d.d.9.6.6.c j j 1 - - - = = = = = = = = = - - - h m m m m m m k k k = + + O /././././././././.",
"/./././././././././.w w Z +.+.+.d.d.d.r.m m z k k j 1 1 ,                   = 1 1 k m m m m m m k k k .     /./././././././././.",
"/././././././././././././.p p p w.w.w.m m m z l k j 1 1 ,       /././.% & & < 1 1 j z z z z z z O O O /././././././././././././.",
"/././././././././././././.; ; ; m m m m m m z k k h 1 1 ,       /././.; ; ; < 1 1 j k k k k k k       /././././././././././././.",
"/././././././././././././.; ; ; z z z b m m v k k k j j h , , -       * ; ; < 1 1 h k k j O O @ /./././././././././././././././.",
"/././././././././././././.; ; ; k k k b m m z k k k k k j 1 1 1       * ; ; < 1 1 h k k h       /./././././././././././././././.",
"/./././././././././././././././.: : : k z k v b b b b b b v b v       /././././././././././././././././././././././././././././.",
"/./././././././././././././././.; ; ; j k k v m m m m m m m m m       /././././././././././././././././././././././././././././.",
"/././././././././././././././././././.: : : l m m l > < u m m m       /././././././././././././././././././././././././././././.",
"/././././././././././././././././././.; ; ; l m m k ; ; 2 m m m       /././././././././././././././././././././././././././././.",
"/./././././././././././././././././././././././././././././././././././././././././././././././././././././././././././././././."
};
