/* XPM */
static char *a5af27326ed04437b53733465ce96f8fPYmQh3RQfPfeKDZR[] = {
/* columns rows colors chars-per-pixel */
"63 126 9 1 ",
"  c None",
". c black",
"X c #37221D",
"o c #686665",
"O c #9B2A00",
"+ c #F54500",
"@ c #F9802D",
"# c #B1A39A",
"$ c #EEEBEA",
/* pixels */
"                                                               ",
"                                                               ",
"                                                               ",
"                                                               ",
"                                                               ",
"                                                               ",
"                                                               ",
"                                                               ",
"                                                               ",
"                                                               ",
"                                                               ",
"                                                               ",
"                                                               ",
"                                                               ",
"                                                               ",
"                                                               ",
"                                                               ",
"                                                               ",
"                                                               ",
"                                                               ",
"                                                               ",
"                           oooooooooooo                        ",
"                           oooooooooooo                        ",
"                           oooooooooooo                        ",
"                           oooooo###oooooo                     ",
"                           oooooo###oooooo                     ",
"                           oooooo###oooooo                     ",
"                              ###$$$$$$###ooo                  ",
"                              ###$$$$$$###ooo                  ",
"                              ###$$$$$$###ooo                  ",
"                              ###$$$$$$$$$###ooo               ",
"                              ###$$$$$$$$$###ooo               ",
"                              ###$$$$$$$$$###ooo               ",
"                              ######$$$$$$###ooo               ",
"                              ######$$$$$$###ooo               ",
"                              ######$$$$$$###ooo               ",
"                                 OOO###@@@@@@+++OOO            ",
"                                 OOO###@@@@@@+++OOO            ",
"                                 OOO###@@@@@@+++OOO            ",
"                                    OOO@@@@@@+++OOO            ",
"                                    OOO@@@@@@+++OOO            ",
"                                    OOO@@@@@@+++OOO            ",
"                                    OOO@@@@@@+++OOOOOO         ",
"                                    OOO@@@@@@+++OOOOOO         ",
"                                    OOO@@@@@@+++OOOOOO         ",
"                                    OOO+++++++++OOO...         ",
"                                    OOO+++++++++OOO...         ",
"                                    OOO+++++++++OOO...         ",
"                                 OOOOOO+++++++++OOO...         ",
"                                 OOOOOO+++++++++OOO...         ",
"                                 OOOOOO+++++++++OOO...         ",
"                                 OOO++++++++++++OOO...         ",
"                                 OOO++++++++++++OOO...         ",
"                                 OOO++++++++++++OOO...         ",
"                              OOOOOO++++++++++++OOO...         ",
"                              OOOOOO++++++++++++OOO...         ",
"                              OOOOOO++++++++++++OOO...         ",
"                        OOOOOOOOOOOOOOOOOOOOO+++OOO...         ",
"                        OOOOOOOOOOOOOOOOOOOOO+++OOO...         ",
"                        OOOOOOOOOOOOOOOOOOOOO+++OOO...         ",
"                     OOOOOO+++++++++++++++OOOOOOOOO...         ",
"                     OOOOOO+++++++++++++++OOOOOOOOO...         ",
"                     OOOOOO+++++++++++++++OOOOOOOOO...         ",
"               OOOOOO+++++++++++++++++++++++++++OOOOOOOOO      ",
"               OOOOOO+++++++++++++++++++++++++++OOOOOOOOO      ",
"               OOOOOO+++++++++++++++++++++++++++OOOOOOOOO      ",
"            OOOOOOOOO++++++++++++@@@+++++++++++++++OOOOOOOOO   ",
"            OOOOOOOOO++++++++++++@@@+++++++++++++++OOOOOOOOO   ",
"            OOOOOOOOO++++++++++++@@@+++++++++++++++OOOOOOOOO   ",
"            OOOOOOOOO+++++++++++++++++++++++++++OOO+++OOOXXX   ",
"            OOOOOOOOO+++++++++++++++++++++++++++OOO+++OOOXXX   ",
"            OOOOOOOOO+++++++++++++++++++++++++++OOO+++OOOXXX   ",
"            OOO++++++OOOOOO+++++++++++++++OOOOOOOOO+++XXX...   ",
"            OOO++++++OOOOOO+++++++++++++++OOOOOOOOO+++XXX...   ",
"            OOO++++++OOOOOO+++++++++++++++OOOOOOOOO+++XXX...   ",
"            OOO+++@@@+++++++++++++++++++++OOO+++@@@@@@XXX...   ",
"            OOO+++@@@+++++++++++++++++++++OOO+++@@@@@@XXX...   ",
"            OOO+++@@@+++++++++++++++++++++OOO+++@@@@@@XXX...   ",
"            OOO+++$$$$$$+++++++++@@@++++++++++++$$$@@@XXX...   ",
"            OOO+++$$$$$$+++++++++@@@++++++++++++$$$@@@XXX...   ",
"            OOO+++$$$$$$+++++++++@@@++++++++++++$$$@@@XXX...   ",
"            OOO+++###$$$++++++@@@@@@@@@++++++@@@$$$@@@XXX...   ",
"            OOO+++###$$$++++++@@@@@@@@@++++++@@@$$$@@@XXX...   ",
"            OOO+++###$$$++++++@@@@@@@@@++++++@@@$$$@@@XXX...   ",
"            OOOOOO###++++++++++++@@@++++++++++++@@@@@@XXX...   ",
"            OOOOOO###++++++++++++@@@++++++++++++@@@@@@XXX...   ",
"            OOOOOO###++++++++++++@@@++++++++++++@@@@@@XXX...   ",
"            OOOOOO+++++++++++++++++++++++++++++++++OOO......   ",
"            OOOOOO+++++++++++++++++++++++++++++++++OOO......   ",
"            OOOOOO+++++++++++++++++++++++++++++++++OOO......   ",
"            OOOOOO+++...XXX++++++###@@@++++++...XXX+++XXX...   ",
"            OOOOOO+++...XXX++++++###@@@++++++...XXX+++XXX...   ",
"            OOOOOO+++...XXX++++++###@@@++++++...XXX+++XXX...   ",
"            OOOOOOOOO...@@@XXX@@@$$$$$$+++XXX@@@XXXOOOXXX...   ",
"            OOOOOOOOO...@@@XXX@@@$$$$$$+++XXX@@@XXXOOOXXX...   ",
"            OOOOOOOOO...@@@XXX@@@$$$$$$+++XXX@@@XXXOOOXXX...   ",
"         ...XXXooo@@@OOO+++OOO###$$$$$$@@@OOO+++OOO###ooo...   ",
"         ...XXXooo@@@OOO+++OOO###$$$$$$@@@OOO+++OOO###ooo...   ",
"         ...XXXooo@@@OOO+++OOO###$$$$$$@@@OOO+++OOO###ooo...   ",
"         ...XXX###$$$@@@@@@###$$$$$$$$$$$$@@@@@@######ooo...   ",
"         ...XXX###$$$@@@@@@###$$$$$$$$$$$$@@@@@@######ooo...   ",
"         ...XXX###$$$@@@@@@###$$$$$$$$$$$$@@@@@@######ooo...   ",
"            ...XXXooo######$$$$$$$$$$$$$$$$$$######ooo......   ",
"            ...XXXooo######$$$$$$$$$$$$$$$$$$######ooo......   ",
"            ...XXXooo######$$$$$$$$$$$$$$$$$$######ooo......   ",
"               XXXOOOXXXXXX######$$$$$$######XXXXXXOOOOOO      ",
"               XXXOOOXXXXXX######$$$$$$######XXXXXXOOOOOO      ",
"               XXXOOOXXXXXX######$$$$$$######XXXXXXOOOOOO      ",
"               OOO++++++OOOXXXoooXXXXXXoooXXXOOO+++OOO...      ",
"               OOO++++++OOOXXXoooXXXXXXoooXXXOOO+++OOO...      ",
"               OOO++++++OOOXXXoooXXXXXXoooXXXOOO+++OOO...      ",
"               OOO+++++++++XXXXXXooooooXXXOOO++++++XXX...      ",
"               OOO+++++++++XXXXXXooooooXXXOOO++++++XXX...      ",
"               OOO+++++++++XXXXXXooooooXXXOOO++++++XXX...      ",
"               +++XXXoooooooooXXX......XXXooooooXXX......      ",
"               +++XXXoooooooooXXX......XXXooooooXXX......      ",
"               +++XXXoooooooooXXX......XXXooooooXXX......      ",
"                  XXXXXXooooooXXX...XXXXXXooooooXXX...         ",
"                  XXXXXXooooooXXX...XXXXXXooooooXXX...         ",
"                  XXXXXXooooooXXX...XXXXXXooooooXXX...         ",
"                     XXXooooooXXX...XXXooooooXXX...            ",
"                     XXXooooooXXX...XXXooooooXXX...            ",
"                     XXXooooooXXX...XXXooooooXXX...            ",
"                     XXXooooooXXX...XXXooooooXXX...            ",
"                     XXXooooooXXX...XXXooooooXXX...            ",
"                     XXXooooooXXX...XXXooooooXXX...            "
};
