/* XPM */
static char *result[] = {
/* columns rows colors chars-per-pixel */
"64 128 185 2 ",
"   c #000000",
".  c #0D0100",
"X  c #02010C",
"o  c #0C0709",
"O  c #0E0C0C",
"+  c #000902",
"@  c #130300",
"#  c #1B0601",
"$  c #150804",
"%  c #1D0901",
"&  c #120B0D",
"*  c #1A0B0C",
"=  c #1E1804",
"-  c #04111D",
";  c #141415",
":  c #1B191A",
">  c #191212",
",  c #210501",
"<  c #220C02",
"1  c #2A0F02",
"2  c #2E0000",
"3  c #320E03",
"4  c #241303",
"5  c #2B1303",
"6  c #231905",
"7  c #2B1A05",
"8  c #321604",
"9  c #3B1404",
"0  c #351A05",
"q  c #3C1D05",
"w  c #221C1D",
"e  c #2B1D18",
"r  c #301D13",
"t  c #3F2006",
"y  c #3E2109",
"u  c #061421",
"i  c #2A2525",
"p  c #2E2A2A",
"a  c #332F2F",
"s  c #3C3939",
"d  c #411F07",
"f  c #422207",
"g  c #452408",
"h  c #4A2609",
"j  c #4D290A",
"k  c #532C0C",
"l  c #582F0D",
"z  c #5C310E",
"x  c #53300C",
"c  c #573910",
"v  c #5B3B12",
"b  c #61350F",
"n  c #643710",
"m  c #663B11",
"M  c #6B3C12",
"N  c #683711",
"B  c #723E13",
"V  c #433C3A",
"C  c #6C4214",
"Z  c #6D4B15",
"A  c #664A1B",
"S  c #754114",
"D  c #7A4416",
"F  c #774817",
"G  c #7E4917",
"H  c #7E4C18",
"J  c #72521C",
"K  c #7C531A",
"L  c #47413F",
"P  c #454342",
"I  c #4C4A4A",
"U  c #484747",
"Y  c #6A6A6A",
"T  c #747474",
"R  c #7C7C7C",
"E  c #824C19",
"W  c #894F1A",
"Q  c #84511A",
"!  c #8C551B",
"~  c #825B1B",
"^  c #8E5A1D",
"/  c #965B1E",
"(  c #995D1F",
")  c #91571D",
"_  c #8B631E",
"`  c #9D5E20",
"'  c #8A6826",
"]  c #9E6121",
"[  c #996D22",
"{  c #946921",
"}  c #8F702C",
"|  c #9D732F",
" . c #A36522",
".. c #AA6622",
"X. c #A76823",
"o. c #AC6B25",
"O. c #B06F26",
"+. c #A57626",
"@. c #AE7226",
"#. c #AD7A26",
"$. c #AF7128",
"%. c #AC7A28",
"&. c #B17126",
"*. c #B47429",
"=. c #B97529",
"-. c #B47D2A",
";. c #B97C2B",
":. c #9F8034",
">. c #A88527",
",. c #B4812A",
"<. c #BB852C",
"1. c #BE8A2D",
"2. c #B98227",
"3. c #BD972D",
"4. c #AF8236",
"5. c #B98232",
"6. c #BF8B32",
"7. c #BF8D3C",
"8. c #D5AB12",
"9. c #C18C2F",
"0. c #C28E30",
"q. c #C59232",
"w. c #C3923E",
"e. c #C99E3E",
"r. c #CA9735",
"t. c #D6AC27",
"y. c #CCA13F",
"u. c #D3AA33",
"i. c #D9AE35",
"p. c #D7B03D",
"a. c #AD914A",
"s. c #C79540",
"d. c #CEA442",
"f. c #D2AB46",
"g. c #D4AE49",
"h. c #D0A745",
"j. c #D7B046",
"k. c #D8B246",
"l. c #D7B14A",
"z. c #D9B34C",
"x. c #C4A455",
"c. c #D9B452",
"v. c #D9B65A",
"b. c #DAB760",
"n. c #DBBA65",
"m. c #DBBA6D",
"M. c #E1BE63",
"N. c #838383",
"B. c gray55",
"V. c gray58",
"C. c #9F9F9F",
"Z. c #A09F9F",
"A. c #A5A4A4",
"S. c #ACACAC",
"D. c #B3B3B3",
"F. c #BBBCBC",
"G. c #C1BCB6",
"H. c #DFC384",
"J. c #E0C58D",
"K. c #E1CD85",
"L. c #E2D28D",
"P. c #E4D593",
"I. c #E5DA9A",
"U. c #E4D897",
"Y. c #E3CDA1",
"T. c #C4C3C4",
"R. c #CDCDCD",
"E. c #DAD5CE",
"W. c #D4D4D4",
"Q. c #DCDCDC",
"!. c #D8D7D7",
"~. c #E0DFDE",
"^. c #DEDFE1",
"/. c #E1E1E0",
"(. c #EEEEEE",
"). c #EDEAE4",
"_. c #F2EDE5",
"`. c #F0EFEF",
"'. c #F5F1EB",
"]. c #FAF6EE",
"[. c #EFF0F1",
"{. c #F5F5F5",
"}. c #F9FAFB",
"|. c #F7F8F8",
" X c None",
/* pixels */
" X X X X X X X X X X X X X X X X X X X X X X X X X X X X X X X X X X X X X X X X X X X X X X X X X X X X X X X X X X X X X X X X",
" X X X X X X X X X X X X X X X X X X X X X X X X X X X X X X X X X X X X X X X X X X X X X X X X X X X X X X X X X X X X X X X X",
" X X X X X X X X X X X X X X X X X X X X X X X X X X X X X X X X X X X X X X X X X X X X X X X X X X X X X X X X X X X X X X X X",
" X X X X X X X X X X X X X X X X X X X X X X X X X X X X X X X X X X X X X X X X X X X X X X X X X X X X X X X X X X X X X X X X",
" X X X X X X X X X X X X X X X X X X X X X X X X X X X X X X X X X X X X X X X X X X X X X X X X X X X X X X X X X X X X X X X X",
" X X X X X X X X X X X X X X X X X X X X X X X X X X X X X X X X X X X X X X X X X X X X X X X X X X X X X X X X X X X X X X X X",
" X X X X X X X X X X X X X X X X X X X X X X X X X X X X X X X X X X X X X X X X X X X X X X X X X X X X X X X X X X X X X X X X",
" X X X X X X X X X X X X X X X X X X X X X X X X X X X X X X X X X X X X X X X X X X X X X X X X X X X X X X X X X X X X X X X X",
" X X X X X X X X X X X X X X X X X X X X X X X X X X X X X X X X X X X X X X X X X X X X X X X X X X X X X X X X X X X X X X X X",
" X X X X X X X X X X X X X X X X X X X X X X X X X X X X X X X X X X X X X X X X X X X X X X X X X X X X X X X X X X X X X X X X",
" X X X X X X X X X X X X X X X X X X X X X X X X X X X X X X X X X X X X X X X X X X X X X X X X X X X X X X X X X X X X X X X X",
" X X X X X X X X X X X X X X X X X X X X X X X X X X X X X X X X X X X X X X X X X X X X X X X X X X X X X X X X X X X X X X X X",
" X X X X X X X X X X X X X X X X X X X X X X X X X X X X X X X X X X X X X X X X X X X X X X X X X X X X X X X X X X X X X X X X",
" X X X X X X X X X X X X X X X X X X X X X X X X X X X X X X X X X X X X X X X X X X X X X X X X X X X X X X X X X X X X X X X X",
" X X X X X X X X X X X X X X X X X X X X X X X X X X X X X X X X X X X X X X X X X X X X X X X X X X X X X X X X X X X X X X X X",
" X X X X X X X X X X X X X X X X X X X X X X X X X X X X X X X X X X X X X X X X X X X X X X X X X X X X X X X X X X X X X X X X",
" X X X X X X X X X X X X X X X X X X X X X X X X X X X X X X X X X X X X X X X X X X X X X X X X X X X X X X X X X X X X X X X X",
" X X X X X X X X X X X X X X X X X X X X X X X X X X X X X X X X X X X X X X X X X X X X X X X X X X X X X X X X X X X X X X X X",
" X X X X X X X X X X X X X X X X X X X X X X X X X X X X X X X X X X X X X X X X X X X X X X X X X X X X X X X X X X X X X X X X",
" X X X X X X X X X X X X X X X X X X X X X X X X X X X X X X X X X X X X X X X X X X X X X X X X X X X X X X X X X X X X X X X X",
" X X X X X X X X X X X X X X X X X X X X X X X X X X X X X X X X X X X X X X X X X X X X X X X X X X X X X X X X X X X X X X X X",
" X X X X X X X X X X X X X X X X X X X X X X X X X X X X X X X X X X X X X X X X X X X X X X X X X X X X X X X X X X X X X X X X",
" X X X X X X X X X X X X X X X X X X X X X X X X X X X X X X X X X X X X X X X X X X X X X X X X X X X X X X X X X X X X X X X X",
" X X X X X X X X X X X X X X X X X X X X X X X X X X X X X X X X X X X X X X X X X X X X X X X X X X X X X X X X X X X X X X X X",
" X X X X X X X X X X X X X X X X X X X X X X X X X X X X X X X X X X X X X X X X X X X X X X X X X X X X X X X X X X X X X X X X",
" X X X X X X X X X X X X X X X X X X X X X X X X X X X X X X X X X X X X X X X X X X X X X X X X X X X X X X X X X X X X X X X X",
" X X X X X X X X X X X X X X X X X X X X X X X X X X X X X X X X X X X X X X X X X X X X X X X X X X X X X X X X X X X X X X X X",
" X X X X X X X X X X X X X X X X X X X X X X X X X X X X X X X X X X X X X X X X X X X X X X X X X X X X X X X X X X X X X X X X",
" X X X X X X X X X X X X X X X X X X X X X X X X X X X X X X X X X X X X X X X X X X X X X X X X X X X X X X X X X X X X X X X X",
" X X X X X X X X X X X X X X X X X X X X X X X X X X X X X X X X X X X X X X X X X X X X X X X X X X X X X X X X X X X X X X X X",
" X X X X X X X X X X X X X X X X X X X X X X X X X X X X X X X X X X X X X X X X X X X X X X X X X X X X X X X X X X X X X X X X",
" X X X X X X X X X X X X X X X X X X X X X X X X X X X X X X X X X X X X X X X X X X X X X X X X X X X X X X X X X X X X X X X X",
" X X X X X X X X X X X X X X X X X X X X X X X X X X X X X X X X X X X X X X X X X X X X X X X X X X X X X X X X X X X X X X X X",
" X X X X X X X X X X X X X X X X X X X X X X X X X X X X X X X X X X X X X X X X X X X X X X X X X X X X X X X X X X X X X X X X",
" X X X X X X X X X X X X X X X X X X X X X X X X X X X X X X X X X X X X X X X X X X X X X X X X X X X X X X X X X X X X X X X X",
" X X X X X X X X X X X X X X X X X X X X X X X X X X X X X X X X X X X X X X X X X X X X X X X X X X X X X X X X X X X X X X X X",
" X X X X X X X X X X X X X X X X X X X X X X X X X X X X X X X X X X X X X X X X X X X X X X X X X X X X X X X X X X X X X X X X",
" X X X X X X X X X X X X X X X X X X X X X X X X X X X X X X X X X X X X X X X X X X X X X X X X X X X X X X X X X X X X X X X X",
" X X X X X X X X X X X X X X X X X X X X X X X X X X X X X X X X X X X X X X X X X X X X X X X X X X X X X X X X X X X X X X X X",
" X X X X X X X X X X X X X X X X X X X X X X X X X X X X X X X X X X X X X X X X X X X X X X X X X X X X X X X X X X X X X X X X",
" X X X X X X X X X X X X X X X X X X X X X X X X X X X X X X X X X X X X X X X X X X X X X X X X X X X X X X X X X X X X X X X X",
" X X X X X X X X X X X X X X X X X X X X X X X X X X X X X X X X X X X X X X X X X X X X X X X X X X X X X X X X X X X X X X X X",
" X X X X X X X X X X X X X X X X X X X X X X X X X X X X X X X X X X X X X X X X X X X X X X X X X X X X X X X X X X X X X X X X",
" X X X X X X X X X X X X X X X X X X X X X X X X X X X X X X X X X X X X X X X X X X X X X X X X X X X X X X X X X X X X X X X X",
" X X X X X X X X X X X X X X X X X X X X X X X X X X X X X X X X X X X X X X X X X X X X X X X X X X X X X X X X X X X X X X X X",
" X X X X X X X X X X X X X X X X X X X X X X X X X X X X X X X X X X X X X X X X X X X X X X X X X X X X X X X X X X X X X X X X",
" X X X X X X X X X X X X X X X X X X X X X X X X X X X X X X X X X X X X X X X X X X X X X X X X X X X X X X X X X X X X X X X X",
" X X X X X X X X X X X X X X X X X X X X X X X X X X X X X X X X X X X X X X X X X X X X X X X X X X X X X X X X X X X X X X X X",
" X X X X X X X X X X X X X X X X X X X X X X X X X X X X X X X X X X X X X X X X X X X X X X X X X X X X X X X X X X X X X X X X",
" X X X X X X X X X X X X X X X X X X X X X X X X X X X X X X X X X X X X X X X X X X X X X X X X X X X X X X X X X X X X X X X X",
" X X X X X X X X X X X X X X X X X X X X X X X X X X X X X X X X X X X X X X X X X X X X X X X X X X X X X X X X X X X X X X X X",
" X X X X X X X X X X X X X X X X X X X X X X X X X X X X X X X X X X X X X X X X X X X X X X X X X X X X X X X X X X X X X X X X",
" X X X X X X X X X X X X X X X X X X X X X X X X X X X X X X X X X X X X X X X X X X X X X X X X X X X X X X X X X X X X X X X X",
" X X X X X X X X X X X X X X X X X X X X X X X X X X X X X X X X X X X X X X X X X X X X X X X X X X X X X X X X X X X X X X X X",
" X X X X X X X X X X X X X X X X X X X X X X X X X X X X X X X X X X X X X X X X X X X X X X X X X X X X X X X X X X X X X X X X",
" X X X X X X X X X X X X X X X X X X X X X X X X X X X X X X X X X X X X X X X X X X X X X X X X X X X X X X X X X X X X X X X X",
" X X X X X X X X X X X X X X X X X X X X X X X X X X X X X X X X X X X X X X X X X X X X X X X X X X X X X X X X X X X X X X X X",
" X X X X X X X X X X X X X X X X X X X X X X X X X X X X X X X X X X X X X X X X X X X X X X X X X X X X X X X X X X X X X X X X",
" X X X X X X X X X X X X X X X X X X X X X X X X X X X X X X X X X X X X X X X X X X X X X X X X X X X X X X X X X X X X X X X X",
" X X X X X X X X X X X X     X X X X X X X X X X X X X X X X X X X X X X X X X X X X X X X X X X X       X X X X X X X X X X X X",
" X X X X X X X X X X X X# # #  X X X X X X X X X X X X X X X X X X X X X X X X X X X X X X X X X X# # #  X X X X X X X X X X X X",
" X X X X X X X X X@   j S S k   @  X X X X X X X X X X X X X X X X X X X X X X X X X X X X X  .   b S B q   @  X X X X X X X X X",
" X X X X X X X X X@   k D G z   #  X X X X X X X X X X X X X X X X X X X X X X X X X X X X X@ #   N G D q   @  X X X X X X X X X",
" X X X X X X X X X@   8 j g z S S j   .  X X X X X X X X X X X X X X X X X X X X X X X X.   z S S k g j < . .  X X X X X X X X X",
" X X X X X X X X X@ . 5 f q b D D j   %  X X X X X X X X X X X X X X X X X X X X X X X# %   z D D x q f %   .  X X X X X X X X X",
" X X X X X X X X X.   5 g f h j h n S S f   @  X X X X X X X X X X X X X X X X X X@   k S S z g j g f g < . @  X X X X X X X X X",
" X X X X X X X X X@   5 g f f q q b S D h   #  X X X X X X X X X X X X X X X X X X%   l G D z q f f f f < . @  X X X X X X X X X",
" X X X X X X X X X@   5 g f g g g h j j f t t < . .  X X X X X X X X X X X X.   5 f q g j h g g g f f f <   .  X X X X X X X X X",
" X X X X X X X X X@   5 g f f f f t q f f g g < . @  X X X X X X X X X X X X@ . 5 h g f q q f f f f g f % . .  X X X X X X X X X",
" X X X X X X X X X@   5 g f f f f g g g f f f %                             .   < g f f g g g g f f f g % . .  X X X X X X X X X",
" X X X X X X X X X.   5 g f f f g f f f f g g 4 % % % # # % # # % % % # # % < @ 8 g g g f g g d f f f f % . @  X X X X X X X X X",
" X X X X X X X X X. . 5 g g f f f f f q N S M ]  . . . . . . . . . . . . . . .X.) M S z q f d g f f g g < . .  X X X X X X X X X",
" X X X X X X X X X@   5 f f f g g g g g M E D X.&.o.&.o.&.O.O.O.@.@.o.O.O.o.&.*.` D G n f g g g g f f f % . .  X X X X X X X X X",
" X X X X X X X X X X X X% @ 8 f q b D M ( ..X.;.1.1.O.o.o.o.o.o.o...o.o.o.&.1.1.-.....) M S k q f 5 @ #  X X X X X X X X X X X X",
" X X X X X X X X X X X X@   8 j d N G S  .&.o.<.1.1.&.o.o.o.O.o.o.o.o.o.o.*.1.1.;.o.O./ B E z g h 5   @  X X X X X X X X X X X X",
" X X X X X X X X X X X X@   k S B S S B ] o.o.o.&.@.<.1.1.1.<.1.1.1.1.1.1.<.o.&.O.o.O./ B D B B S q   @  X X X X X X X X X X X X",
" X X X X X X X X X X X X<   l E S D D B  .O.o.o.o.o.1.1.1.1.1.6.9.1.9.1.6.2.o.o.o.o.O./ B D D D G g   %  X X X X X X X X X X X X",
" X X X X X X. . @ @   j S B B D D D D B ] o.o.o.o.o.o.&.&.@.&.$.O.@.&.o.&.@.o.o.o.o.O.) B D D S S S B B q   @ . . .  X X X X X X",
" X X X X X X. @ . @   k G S S S S D D B ( o.o.o.o.o...o.o.o.o.X.o.X...o.X.o.o.o.o.o.O.) B S S D S D D D q   @ . . .  X X X X X X",
" X X X X X X X X X@   8 j h h j g N D D E E G X.@.o.x 5 0 5 8 8 8 8 7 q # C O.O.] D E G D D b g j h h j < . @  X X X X X X X X X",
" X X X X X X X X X. . 4 f f d f q n S S S S B  .o.o.h + 6 6 = 6 = = = 6   m o.o.` M S S S S z q f f t t < . .  X X X X X X X X X",
" X X X X X X X X X X X X% @ 0 g f h j j 8 # , 8 8 8 )  .] %.,.%.-.,.#.( ..W # q 5 # @ q k j g f g 5 @ <  X X X X X X X X X X X X",
" X X X X X X X X X X X X.   5 g f f t f 7 4 4 6 = 7 o.-.*.q.q.q.q.q.0.*.;.{   7 4 4 4 0 f f f t f <   .  X X X X X X X X X X X X",
" X X X X X X X X X X X X X X# % % @ #   ! ..` #.,.%.d.f.h.f.f.f.f.g.f.h.f.y.#.,.@.] X.S   % @ % %  X X X X X X X X X X X X X X X",
" X X X X X X X X X X X X X X X.   $ 5   / =.o.9.q.q.l.z.z.z.z.z.z.z.z.z.z.g.9.q.<.O.=.Q   5 . . .  X X X X X X X X X X X X X X X",
" X X X X X X X X X X X X X X. #   E X.] -.1.<.h.g.g.l.l.z.z.z.g.z.z.g.z.z.z.g.z.s.2.1.#.] X.C   %  X X X X X X X X X X X X X X X",
" X X X X X X X X X X X X X X@ 4   ! =.o.<.q.1.h.z.z.l.l.l.z.z.z.z.z.z.z.g.l.z.z.h.1.q.;.o.*.Z   4  X X X X X X X X X X X X X X X",
" X X X X X X X X X X X X X X X.   { 9.,.d.l.g.z.z.z.5.$.-.g.z.z.g.z.h.&.&.7.z.z.z.g.g.e.2.9.K   .  X X X X X X X X X X X X X X X",
" X X X X X X X X X X X X X X7 0   [ q.1.h.z.z.g.g.j.*...&.g.l.z.z.z.d.....5.g.g.l.l.z.y.1.q.K + 0  X X X X X X X X X X X X X X X",
" X X X X X X X X X X X X%   F X.` -.0.<.h.z.z.} v A ,.1.6.g.z.z.z.z.f.1.9.+.A c 4.z.z.d.1.1.@.` X.v   #  X X X X X X X X X X X X",
" X X X X X X X X X X X X<   Q =.o.2.9.1.d.z.l.J   9 ,.0.0.l.z.l.z.z.h.1.q.+.,   } z.l.s.1.9.-.&.=.m   %  X X X X X X X X X X X X",
" X X X X X X X X X X X X4   _ 1.<.1.1.1.q.q.q.J 0 j ,.9.6.g.z.l.z.z.h.1.9.+.y 8 _ r.3.q.1.1.1.<.1.Z   %  X X X X X X X X X X X X",
" X X X X X X X X X X X X%   _ q.1.1.1.1.1.<.2.F q j ,.0.0.g.z.z.z.z.g.1.0.+.d 9 ~ 1.2.<.1.1.1.9.0.Z   =  X X X X X X X X X X X X",
" X X X X X X X X X X X X4   _ q.9.-.o.*.K c v (  . .1.1.0.g.z.l.g.z.f.<.9.;.] ..^ c c ^ &.o.<.1.q.Z   %  X X X X X X X X X X X X",
" X X X X X X X X X X X X4   _ q.1.-...O.M , 3 ] *.O.1.6.0.l.l.z.z.z.g.9.9.<.O.=.! , , E &...-.1.9.Z   <  X X X X X X X X X X X X",
" X X X X X X X X X X X X%   H =.&.o.o.O.S 0 d +.9.<.h.g.g.k.g.z.l.k.j.f.z.y.;.9.[ 3 q Q &.o.@.&.&.C   %  X X X X X X X X X X X X",
" X X X X X X X X X X X X<   H o.X.o.o.O.S 8 q 4.s.w.l.z.z.z.c.c.c.c.z.z.z.f.7.s.| 2 8 Q O.O.....o.n   %  X X X X X X X X X X X X",
" X X X X X X X X X X X X#   b Q G ` o.O.C   @ 3.u.u.l.j.c.L.P.P.P.P.K.j.z.g.u.i.>.  . H O.o./ E W h   @  X X X X X X X X X X X X",
" X X X X X X X X X X X X@   k S N / O.o.m     x.n.b.c.c.v.U.I.I.I.I.P.z.c.v.b.M.a.    H O.O.! N B f   @  X X X X X X X X X X X X",
" X X X X X X X X X X X X X X8 t @ ^ O.&.M X   E.]._.m.t.c.P.I.U.U.I.L.j.8.H.'.].G.  u H *.O.F @ q  X X X X X X X X X X X X X X X",
" X X X X X X X X X X X X X X X    ! o.o.M X   ^.}.|.H.z.b.P.I.P.U.I.L.v.p.Y.}.}.T.  u G O.o.C      X X X X X X X X X X X X X X X",
" X X X X X X X X X X X X X X@ %   n W E k &   T./.!._.'._.n.c.c.v.k.H.'.'.).Q.^.S.  : n E E k   <  X X X X X X X X X X X X X X X",
" X X X X X X X X X X X X X X X@   z S S h * X F.Q.!.{.}.{.n.z.z.c.i.J.}.}.{.W.Q.S.  w k D B j   @  X X X X X X X X X X X X X X X",
" X X X X X X X X X X X X X X X@   q j j 5 &   T.Q.Q.{.}.}.'.'.'.'.'.'.|.}.(.!./.S.  : 0 j j 8   @  X X X X X X X X X X X X X X X",
" X X X X X X X X X X X X X X X. . 8 f d 4 &   F.Q.W.`.{.{.}.}.}.}.}.|.{.|.(.W.Q.A.  : 7 f f 5   @  X X X X X X X X X X X X X X X",
" X X X X X X X X X X X X X X X@   0 g g 4 o   A.F.D.Q.Q./.{.|.}.|.|.{.Q.^.W.D.F.V.  ; 8 g g 5   .  X X X X X X X X X X X X X X X",
" X X X X X X X X X X X X X X@ @ . 8 g f 5 &   V.S.A.R.W.!.{.{.{.{.|.[.W.W.R.C.S.N.  > 8 g g 5 . @  X X X X X X X X X X X X X X X",
" X X X X X X X X X X X X X X X.   8 g g f q q P U U D.F.F.Q.Q.Q.^.^.W.D.F.C.s I V q q d f g 5   .  X X X X X X X X X X X X X X X",
" X X X X X X X X X X X X X X# # @ 0 g f f g h       A.S.S.W.W.W.W.!.R.S.D.B.    # j d g f g 5 @ #  X X X X X X X X X X X X X X X",
" X X X X X X X X X X X X@   k S S x t g f f f e : w R B.B.D.D.D.D.F.S.N.B.T . w r d d g g q b S S f   @  X X X X X X X X X X X X",
" X X X X X X X X X X X X#   x G D z q g f g f <   @ T R N.S.D.S.S.S.A.R N.Y   . 5 g g f f q N D D g   @  X X X X X X X X X X X X",
" X X X X X X X X X X X X@   0 j h g f g f g f <   $ R N.N.S.S.D.D.D.A.N.N.Y   o 5 g d g g f h j j 5   .  X X X X X X X X X X X X",
" X X X X X X X X X X X X@   5 f f f f f f t f <   $ T R R S.S.S.S.D.A.T N.Y   o 5 f f f d g d d f < . @  X X X X X X X X X X X X",
" X X X X X X X X X      @   8 h g 0 < 1 1 5 1 @ . . a i P S.D.D.D.D.A.w a i . . # 5 1 1 1 < q g g 5 # < .      X X X X X X X X X",
" X X X X X X X X X    . @   5 f f 5 # , , , # @ . .     w A.S.S.S.S.V.      . . @ , # , < # 0 f f 5 < < .      X X X X X X X X X",
" X X X                      @ % # # @ # # @ @ .     & O ; P P U P U s O ; o     . # @ @ @ @ # # % @   .                    X X X",
" X X X                          . . . . . . .                                   . . . . . . .   .                          X X X",
"                              .     .                     : : : : : ;               .         .                                 ",
"                                                                                                                                ",
"                                                                                                                                ",
"                                                                                                                                ",
" X X X                                                                                                                     X X X",
" X X X                                                                                                                     X X X",
" X X X X X X X X X                                                                                             X X X X X X X X X",
" X X X X X X X X X                                                                                             X X X X X X X X X",
" X X X X X X X X X X X X X X X X X                                                           X X X X X X X X X X X X X X X X X X",
" X X X X X X X X X X X X X X X X X                                                           X X X X X X X X X X X X X X X X X X",
" X X X X X X X X X X X X X X X X X X X X X X X X X X X X X X X X X X X X X X X X X X X X X X X X X X X X X X X X X X X X X X X X"
};
