/* XPM */
static char *result[] = {
/* columns rows colors chars-per-pixel */
"64 128 172 2 ",
"   c #000000",
".  c #0C0100",
"X  c #00000A",
"o  c #130300",
"O  c #1A0601",
"+  c #1D0A01",
"@  c #1E0C0B",
"#  c #160801",
"$  c #030414",
"%  c #000816",
"&  c #1F1417",
"*  c #111114",
"=  c #230C02",
"-  c #290D02",
";  c #220701",
":  c #271303",
">  c #2C1303",
",  c #2B150D",
"<  c #311604",
"1  c #351904",
"2  c #3B1D06",
"3  c #2F1D18",
"4  c #3F2006",
"5  c #2F2624",
"6  c #302827",
"7  c #322C2A",
"8  c #421F06",
"9  c #432207",
"0  c #452408",
"q  c #492609",
"w  c #4E2A0A",
"e  c #542D0B",
"r  c #582F0D",
"t  c #57320D",
"y  c #5D320E",
"u  c #62350F",
"i  c #643710",
"p  c #6A3710",
"a  c #643B11",
"s  c #6B3B12",
"d  c #723E13",
"f  c #6C4113",
"g  c #6A4815",
"h  c #754214",
"j  c #7A4416",
"k  c #7A4917",
"l  c #7D4C18",
"z  c #705017",
"x  c #7A5519",
"c  c #7D7878",
"v  c #814A02",
"b  c #814917",
"n  c #834C18",
"m  c #84511A",
"M  c #8C541B",
"N  c #815B1A",
"B  c #8E591C",
"V  c #90561C",
"C  c #955B1E",
"Z  c #985D1F",
"A  c #94611F",
"S  c #9B5F20",
"D  c #976421",
"F  c #9D6421",
"G  c #9E7123",
"H  c #93722C",
"J  c #967931",
"K  c #987B32",
"L  c #A46522",
"P  c #AA6522",
"I  c #AC6C25",
"U  c #A36B24",
"Y  c #B16E26",
"T  c #B06E28",
"R  c #A37525",
"E  c #AC7326",
"W  c #A77927",
"Q  c #AE7B27",
"!  c #AD7D2B",
"~  c #A47D2E",
"^  c #B37227",
"/  c #B07D26",
"(  c #B67328",
")  c #B87228",
"_  c #B57929",
"`  c #BA7D2B",
"'  c #BD8312",
"]  c #A1812D",
"[  c #B3822B",
"{  c #BB852C",
"}  c #BE8A2D",
"|  c #BD8C32",
" . c #B78632",
".. c #B9963D",
"X. c #BB953B",
"o. c #A78939",
"O. c #C08800",
"+. c #D5AC1E",
"@. c #C18D2E",
"#. c #C0872D",
"$. c #C5902F",
"%. c #C28E31",
"&. c #C38F39",
"*. c #C49234",
"=. c #CB9432",
"-. c #C69638",
";. c #C79939",
":. c #CB9D3C",
">. c #D6AD28",
",. c #CCA03F",
"<. c #D6AD32",
"1. c #D5AB38",
"2. c #D2A739",
"3. c #DAB134",
"4. c #DBB33A",
"5. c #BD9B41",
"6. c #AE8F6E",
"7. c #B99E7E",
"8. c #CEA443",
"9. c #D0A744",
"0. c #D3AB44",
"q. c #D5AE49",
"w. c #D7B046",
"e. c #D7B14A",
"r. c #D9B34C",
"t. c #DFB84E",
"y. c #DCB543",
"u. c #D9B552",
"i. c #DAB95A",
"p. c #E0B94F",
"a. c #DCBE6A",
"s. c #C0A877",
"d. c #E7C052",
"f. c #DEC475",
"g. c #DEC77B",
"h. c #8C8A89",
"j. c #908E8D",
"k. c #969595",
"l. c #939599",
"z. c gray60",
"x. c #BCA181",
"c. c #ACACAC",
"v. c #AAADB0",
"b. c #ADB1B4",
"n. c #BDBCBC",
"m. c #C9B387",
"M. c #D5BB89",
"N. c #C0BFBE",
"B. c #D9C395",
"V. c #E1CD84",
"C. c #E2CB9B",
"Z. c #E3D592",
"A. c #E4D897",
"S. c #E4D899",
"D. c #E3CEA4",
"F. c #E5D0A8",
"G. c #C5C5C4",
"H. c #CBCBCA",
"J. c #D2CEC9",
"K. c #D7D7D7",
"L. c #DBDCDC",
"P. c #D5D9DF",
"I. c #E1DDD8",
"U. c #E5E4E3",
"Y. c #EBEAEA",
"T. c #F1EDE8",
"R. c #F5F2EB",
"E. c #EFF0F0",
"W. c #F5F5F5",
"Q. c #FAFAFA",
"!. c #F8F8F7",
"~. c None",
/* pixels */
"~.~.~.~.~.~.~.~.~.~.~.~.~.~.~.~.~.~.~.~.~.~.~.~.~.~.~.~.~.~.~.~.~.~.~.~.~.~.~.~.~.~.~.~.~.~.~.~.~.~.~.~.~.~.~.~.~.~.~.~.~.~.~.~.",
"~.~.~.~.~.~.~.~.~.~.~.~.~.~.~.~.~.~.~.~.~.~.~.~.~.~.~.~.~.~.~.~.~.~.~.~.~.~.~.~.~.~.~.~.~.~.~.~.~.~.~.~.~.~.~.~.~.~.~.~.~.~.~.~.",
"~.~.~.~.~.~.~.~.~.~.~.~.~.~.~.~.~.~.~.~.~.~.~.~.~.~.~.~.~.~.~.~.~.~.~.~.~.~.~.~.~.~.~.~.~.~.~.~.~.~.~.~.~.~.~.~.~.~.~.~.~.~.~.~.",
"~.~.~.~.~.~.~.~.~.~.~.~.~.~.~.~.~.~.~.~.~.~.~.~.~.~.~.~.~.~.~.~.~.~.~.~.~.~.~.~.~.~.~.~.~.~.~.~.~.~.~.~.~.~.~.~.~.~.~.~.~.~.~.~.",
"~.~.~.~.~.~.~.~.~.~.~.~.~.~.~.~.~.~.~.~.~.~.~.~.~.~.~.~.~.~.~.~.~.~.~.~.~.~.~.~.~.~.~.~.~.~.~.~.~.~.~.~.~.~.~.~.~.~.~.~.~.~.~.~.",
"~.~.~.~.~.~.~.~.~.~.~.~.~.~.~.~.~.~.~.~.~.~.~.~.~.~.~.~.~.~.~.~.~.~.~.~.~.~.~.~.~.~.~.~.~.~.~.~.~.~.~.~.~.~.~.~.~.~.~.~.~.~.~.~.",
"~.~.~.~.~.~.~.~.~.~.~.~.~.~.~.~.~.~.~.~.~.~.~.~.~.~.~.~.~.~.~.~.~.~.~.~.~.~.~.~.~.~.~.~.~.~.~.~.~.~.~.~.~.~.~.~.~.~.~.~.~.~.~.~.",
"~.~.~.~.~.~.~.~.~.~.~.~.~.~.~.~.~.~.~.~.~.~.~.~.~.~.~.~.~.~.~.~.~.~.~.~.~.~.~.~.~.~.~.~.~.~.~.~.~.~.~.~.~.~.~.~.~.~.~.~.~.~.~.~.",
"~.~.~.~.~.~.~.~.~.~.~.~.~.~.~.~.~.~.~.~.~.~.~.~.~.~.~.~.~.~.~.~.~.~.~.~.~.~.~.~.~.~.~.~.~.~.~.~.~.~.~.~.~.~.~.~.~.~.~.~.~.~.~.~.",
"~.~.~.~.~.~.~.~.~.~.~.~.~.~.~.~.~.~.~.~.~.~.~.~.~.~.~.~.~.~.~.~.~.~.~.~.~.~.~.~.~.~.~.~.~.~.~.~.~.~.~.~.~.~.~.~.~.~.~.~.~.~.~.~.",
"~.~.~.~.~.~.~.~.~.~.~.~.~.~.~.~.~.~.~.~.~.~.~.~.~.~.~.~.~.~.~.~.~.~.~.~.~.~.~.~.~.~.~.~.~.~.~.~.~.~.~.~.~.~.~.~.~.~.~.~.~.~.~.~.",
"~.~.~.~.~.~.~.~.~.~.~.~.~.~.~.~.~.~.~.~.~.~.~.~.~.~.~.~.~.~.~.~.~.~.~.~.~.~.~.~.~.~.~.~.~.~.~.~.~.~.~.~.~.~.~.~.~.~.~.~.~.~.~.~.",
"~.~.~.~.~.~.~.~.~.~.~.~.~.~.~.~.~.~.~.~.~.~.~.~.~.~.~.~.~.~.~.~.~.~.~.~.~.~.~.~.~.~.~.~.~.~.~.~.~.~.~.~.~.~.~.~.~.~.~.~.~.~.~.~.",
"~.~.~.~.~.~.~.~.~.~.~.~.~.~.~.~.~.~.~.~.~.~.~.~.~.~.~.~.~.~.~.~.~.~.~.~.~.~.~.~.~.~.~.~.~.~.~.~.~.~.~.~.~.~.~.~.~.~.~.~.~.~.~.~.",
"~.~.~.~.~.~.~.~.~.~.~.~.~.~.~.~.~.~.~.~.~.~.~.~.~.~.~.~.~.~.~.~.~.~.~.~.~.~.~.~.~.~.~.~.~.~.~.~.~.~.~.~.~.~.~.~.~.~.~.~.~.~.~.~.",
"~.~.~.~.~.~.~.~.~.~.~.~.~.~.~.~.~.~.~.~.~.~.~.~.~.~.~.~.~.~.~.~.~.~.~.~.~.~.~.~.~.~.~.~.~.~.~.~.~.~.~.~.~.~.~.~.~.~.~.~.~.~.~.~.",
"~.~.~.~.~.~.~.~.~.~.~.~.~.~.~.~.~.~.~.~.~.~.~.~.~.~.~.~.~.~.~.~.~.~.~.~.~.~.~.~.~.~.~.~.~.~.~.~.~.~.~.~.~.~.~.~.~.~.~.~.~.~.~.~.",
"~.~.~.~.~.~.~.~.~.~.~.~.~.~.~.~.~.~.~.~.~.~.~.~.~.~.~.~.~.~.~.~.~.~.~.~.~.~.~.~.~.~.~.~.~.~.~.~.~.~.~.~.~.~.~.~.~.~.~.~.~.~.~.~.",
"~.~.~.~.~.~.~.~.~.~.~.~.~.~.~.~.~.~.~.~.~.~.~.~.~.~.~.~.~.~.~.~.~.~.~.~.~.~.~.~.~.~.~.~.~.~.~.~.~.~.~.~.~.~.~.~.~.~.~.~.~.~.~.~.",
"~.~.~.~.~.~.~.~.~.~.~.~.~.~.~.~.~.~.~.~.~.~.~.~.~.~.~.~.~.~.~.~.~.~.~.~.~.~.~.~.~.~.~.~.~.~.~.~.~.~.~.~.~.~.~.~.~.~.~.~.~.~.~.~.",
"~.~.~.~.~.~.~.~.~.~.~.~.~.~.~.~.~.~.~.~.~.~.~.~.~.~.~.~.~.~.~.~.~.~.~.~.~.~.~.~.~.~.~.~.~.~.~.~.~.~.~.~.~.~.~.~.~.~.~.~.~.~.~.~.",
"~.~.~.~.~.~.~.~.~.~.~.~.~.~.~.~.~.~.~.~.~.~.~.~.~.~.~.~.~.~.~.~.~.~.~.~.~.~.~.~.~.~.~.~.~.~.~.~.~.~.~.~.~.~.~.~.~.~.~.~.~.~.~.~.",
"~.~.~.~.~.~.~.~.~.~.~.~.~.~.~.~.~.~.~.~.~.~.~.~.~.~.~.~.~.~.~.~.~.~.~.~.~.~.~.~.~.~.~.~.~.~.~.~.~.~.~.~.~.~.~.~.~.~.~.~.~.~.~.~.",
"~.~.~.~.~.~.~.~.~.~.~.~.~.~.~.~.~.~.~.~.~.~.~.~.~.~.~.~.~.~.~.~.~.~.~.~.~.~.~.~.~.~.~.~.~.~.~.~.~.~.~.~.~.~.~.~.~.~.~.~.~.~.~.~.",
"~.~.~.~.~.~.~.~.~.~.~.~.~.~.~.~.~.~.~.~.~.~.~.~.~.~.~.~.~.~.~.~.~.~.~.~.~.~.~.~.~.~.~.~.~.~.~.~.~.~.~.~.~.~.~.~.~.~.~.~.~.~.~.~.",
"~.~.~.~.~.~.~.~.~.~.~.~.~.~.~.~.~.~.~.~.~.~.~.~.~.~.~.~.~.~.~.~.~.~.~.~.~.~.~.~.~.~.~.~.~.~.~.~.~.~.~.~.~.~.~.~.~.~.~.~.~.~.~.~.",
"~.~.~.~.~.~.~.~.~.~.~.~.~.~.~.~.~.~.~.~.~.~.~.~.~.~.~.~.~.~.~.~.~.~.~.~.~.~.~.~.~.~.~.~.~.~.~.~.~.~.~.~.~.~.~.~.~.~.~.~.~.~.~.~.",
"~.~.~.~.~.~.~.~.~.~.~.~.~.~.~.~.~.~.~.~.~.~.~.~.~.~.~.~.~.~.~.~.~.~.~.~.~.~.~.~.~.~.~.~.~.~.~.~.~.~.~.~.~.~.~.~.~.~.~.~.~.~.~.~.",
"~.~.~.~.~.~.~.~.~.~.~.~.~.~.~.~.~.~.~.~.~.~.~.~.~.~.~.~.~.~.~.~.~.~.~.~.~.~.~.~.~.~.~.~.~.~.~.~.~.~.~.~.~.~.~.~.~.~.~.~.~.~.~.~.",
"~.~.~.~.~.~.~.~.~.~.~.~.~.~.~.~.~.~.~.~.~.~.~.~.~.~.~.~.~.~.~.~.~.~.~.~.~.~.~.~.~.~.~.~.~.~.~.~.~.~.~.~.~.~.~.~.~.~.~.~.~.~.~.~.",
"~.~.~.~.~.~.~.~.~.~.~.~.~.~.~.~.~.~.~.~.~.~.~.~.~.~.~.~.~.~.~.~.~.~.~.~.~.~.~.~.~.~.~.~.~.~.~.~.~.~.~.~.~.~.~.~.~.~.~.~.~.~.~.~.",
"~.~.~.~.~.~.~.~.~.~.~.~.~.~.~.~.~.~.~.~.~.~.~.~.~.~.~.~.~.~.~.~.~.~.~.~.~.~.~.~.~.~.~.~.~.~.~.~.~.~.~.~.~.~.~.~.~.~.~.~.~.~.~.~.",
"~.~.~.~.~.~.~.~.~.~.~.~.~.~.~.~.~.~.~.~.~.~.~.~.~.~.~.~.~.~.~.~.~.~.~.~.~.~.~.~.~.~.~.~.~.~.~.~.~.~.~.~.~.~.~.~.~.~.~.~.~.~.~.~.",
"~.~.~.~.~.~.~.~.~.~.~.~.~.~.~.~.~.~.~.~.~.~.~.~.~.~.~.~.~.~.~.~.~.~.~.~.~.~.~.~.~.~.~.~.~.~.~.~.~.~.~.~.~.~.~.~.~.~.~.~.~.~.~.~.",
"~.~.~.~.~.~.~.~.~.~.~.~.~.~.~.~.~.~.~.~.~.~.~.~.~.~.~.~.~.~.~.~.~.~.~.~.~.~.~.~.~.~.~.~.~.~.~.~.~.~.~.~.~.~.~.~.~.~.~.~.~.~.~.~.",
"~.~.~.~.~.~.~.~.~.~.~.~.~.~.~.~.~.~.~.~.~.~.~.~.~.~.~.~.~.~.~.~.~.~.~.~.~.~.~.~.~.~.~.~.~.~.~.~.~.~.~.~.~.~.~.~.~.~.~.~.~.~.~.~.",
"~.~.~.~.~.~.~.~.~.~.~.~.~.~.~.~.~.~.~.~.~.~.~.~.~.~.~.~.~.~.~.~.~.~.~.~.~.~.~.~.~.~.~.~.~.~.~.~.~.~.~.~.~.~.~.~.~.~.~.~.~.~.~.~.",
"~.~.~.~.~.~.~.~.~.~.~.~.~.~.~.~.~.~.~.~.~.~.~.~.~.~.~.~.~.~.~.~.~.~.~.~.~.~.~.~.~.~.~.~.~.~.~.~.~.~.~.~.~.~.~.~.~.~.~.~.~.~.~.~.",
"~.~.~.~.~.~.~.~.~.~.~.~.~.~.~.~.~.~.~.~.~.~.~.~.~.~.~.~.~.~.~.~.~.~.~.~.~.~.~.~.~.~.~.~.~.~.~.~.~.~.~.~.~.~.~.~.~.~.~.~.~.~.~.~.",
"~.~.~.~.~.~.~.~.~.~.~.~.~.~.~.~.~.~.~.~.~.~.~.~.~.~.~.~.~.~.~.~.~.~.~.~.~.~.~.~.~.~.~.~.~.~.~.~.~.~.~.~.~.~.~.~.~.~.~.~.~.~.~.~.",
"~.~.~.~.~.~.~.~.~.~.~.~.~.~.~.~.~.~.~.~.~.~.~.~.~.~.~.~.~.~.~.~.~.~.~.~.~.~.~.~.~.~.~.~.~.~.~.~.~.~.~.~.~.~.~.~.~.~.~.~.~.~.~.~.",
"~.~.~.~.~.~.~.~.~.~.~.~.~.~.~.~.~.~.~.~.~.~.~.~.~.~.~.~.~.~.~.~.~.~.~.~.~.~.~.~.~.~.~.~.~.~.~.~.~.~.~.~.~.~.~.~.~.~.~.~.~.~.~.~.",
"~.~.~.~.~.~.~.~.~.~.~.~.~.~.~.~.~.~.~.~.~.~.~.~.~.~.~.~.~.~.~.~.~.~.~.~.~.~.~.~.~.~.~.~.~.~.~.~.~.~.~.~.~.~.~.~.~.~.~.~.~.~.~.~.",
"~.~.~.~.~.~.~.~.~.~.~.~.~.~.~.~.~.~.~.~.~.~.~.~.~.~.~.~.~.~.~.~.~.~.~.~.~.~.~.~.~.~.~.~.~.~.~.~.~.~.~.~.~.~.~.~.~.~.~.~.~.~.~.~.",
"~.~.~.~.~.~.~.~.~.~.~.~.~.~.~.~.~.~.~.~.~.~.~.~.~.~.~.~.~.~.~.~.~.~.~.~.~.~.~.~.~.~.~.~.~.~.~.~.~.~.~.~.~.~.~.~.~.~.~.~.~.~.~.~.",
"~.~.~.~.~.~.~.~.~.~.~.~.~.~.~.~.~.~.~.~.~.~.~.~.~.~.~.~.~.~.~.~.~.~.~.~.~.~.~.~.~.~.~.~.~.~.~.~.~.~.~.~.~.~.~.~.~.~.~.~.~.~.~.~.",
"~.~.~.~.~.~.~.~.~.~.~.~.~.~.~.~.~.~.~.~.~.~.~.~.~.~.~.~.~.~.~.~.~.~.~.~.~.~.~.~.~.~.~.~.~.~.~.~.~.~.~.~.~.~.~.~.~.~.~.~.~.~.~.~.",
"~.~.~.~.~.~.~.~.~.~.~.~.~.~.~.~.~.~.~.~.~.~.~.~.~.~.~.~.~.~.~.~.~.~.~.~.~.~.~.~.~.~.~.~.~.~.~.~.~.~.~.~.~.~.~.~.~.~.~.~.~.~.~.~.",
"~.~.~.~.~.~.~.~.~.~.~.~.~.~.~.~.~.~.~.~.~.~.~.~.~.~.~.~.~.~.~.~.~.~.~.~.~.~.~.~.~.~.~.~.~.~.~.~.~.~.~.~.~.~.~.~.~.~.~.~.~.~.~.~.",
"~.~.~.~.~.~.~.~.~.~.~.~.~.~.~.~.~.~.~.~.~.~.~.~.~.~.~.~.~.~.~.~.~.~.~.~.~.~.~.~.~.~.~.~.~.~.~.~.~.~.~.~.~.~.~.~.~.~.~.~.~.~.~.~.",
"~.~.~.~.~.~.~.~.~.~.~.~.~.~.~.~.~.~.~.~.~.~.~.~.~.~.~.~.~.~.~.~.~.~.~.~.~.~.~.~.~.~.~.~.~.~.~.~.~.~.~.~.~.~.~.~.~.~.~.~.~.~.~.~.",
"~.~.~.~.~.~.~.~.~.~.~.~.~.~.~.~.~.~.~.~.~.~.~.~.~.~.~.~.~.~.~.~.~.~.~.~.~.~.~.~.~.~.~.~.~.~.~.~.~.~.~.~.~.~.~.~.~.~.~.~.~.~.~.~.",
"~.~.~.~.~.~.~.~.~.~.~.~.~.~.~.~.~.~.~.~.~.~.~.~.~.~.~.~.~.~.~.~.~.~.~.~.~.~.~.~.~.~.~.~.~.~.~.~.~.~.~.~.~.~.~.~.~.~.~.~.~.~.~.~.",
"~.~.~.~.~.~.~.~.~.~.~.~.~.~.~.~.~.~.~.~.~.~.~.~.~.~.~.~.~.~.~.~.~.~.~.~.~.~.~.~.~.~.~.~.~.~.~.~.~.~.~.~.~.~.~.~.~.~.~.~.~.~.~.~.",
"~.~.~.~.~.~.~.~.~.~.~.~.~.~.~.~.~.~.~.~.~.~.~.~.~.~.~.~.~.~.~.~.~.~.~.~.~.~.~.~.~.~.~.~.~.~.~.~.~.~.~.~.~.~.~.~.~.~.~.~.~.~.~.~.",
"~.~.~.~.~.~.~.~.~.~.~.~.~.~.~.~.~.~.~.~.~.~.~.~.~.~.~.~.~.~.~.~.~.~.~.~.~.~.~.~.~.~.~.~.~.~.~.~.~.~.~.~.~.~.~.~.~.~.~.~.~.~.~.~.",
"~.~.~.~.~.~.~.~.~.~.~.~.~.~.~.~.~.~.~.~.~.~.~.~.~.~.~.~.~.~.~.~.~.~.~.~.~.~.~.~.~.~.~.~.~.~.~.~.~.~.~.~.~.~.~.~.~.~.~.~.~.~.~.~.",
"~.~.~.~.~.~.~.~.~.~.~.~.~.~.~.~.~.~.~.~.~.~.~.~.~.~.~.~.~.~.~.~.~.~.~.~.~.~.~.~.~.~.~.~.~.~.~.~.~.~.~.~.~.~.~.~.~.~.~.~.~.~.~.~.",
"~.~.~.~.~.~.~.~.~.~.~.~.~.~.~.~.~.~.~.~.~.~.~.~.~.~.~.~.~.~.~.~.~.~.~.~.~.~.~.~.~.~.~.~.~.~.~.~.~.~.~.~.~.~.~.~.~.~.~.~.~.~.~.~.",
"~.~.~.~.~.~.~.~.~.~.~.~.~.~.~.~.~.~.~.~.~.~.~.~.~.~.~.~.~.~.~.~.~.~.~.~.~.~.~.~.~.~.~.~.~.~.~.~.~.~.~.~.~.~.~.~.~.~.~.~.~.~.~.~.",
"~.~.~.~.~.~.~.~.~.~.~.~.~.~.~.~.~.~.~.~.~.~.~.~.~.~.~.~.~.~.~.~.~.~.~.~.~.~.~.~.~.~.~.~.~.~.~.~.~.~.~.~.~.~.~.~.~.~.~.~.~.~.~.~.",
"~.~.~.~.~.~.~.~.~.~.~.~.      ~.~.~.~.~.~.~.~.~.~.~.~.~.~.~.~.~.~.~.~.~.~.~.~.~.~.~.~.~.~.~.~.~.~.      ~.~.~.~.~.~.~.~.~.~.~.~.",
"~.~.~.~.~.~.~.~.~.~.~.~.+ ; + ~.~.~.~.~.~.~.~.~.~.~.~.~.~.~.~.~.~.~.~.~.~.~.~.~.~.~.~.~.~.~.~.~.~.+ ; + ~.~.~.~.~.~.~.~.~.~.~.~.",
"~.~.~.~.~.~.~.~.~.o   1 h j u       ~.~.~.~.~.~.~.~.~.~.~.~.~.~.~.~.~.~.~.~.~.~.~.~.~.~.~.~.      u j h 1   o ~.~.~.~.~.~.~.~.~.",
"~.~.~.~.~.~.~.~.~.o   1 d h a + > > ~.~.~.~.~.~.~.~.~.~.~.~.~.~.~.~.~.~.~.~.~.~.~.~.~.~.~.~.> > + i h f 1   o ~.~.~.~.~.~.~.~.~.",
"~.~.~.~.~.~.~.~.~.. . = q 9 t h j t     ~.~.~.~.~.~.~.~.~.~.~.~.~.~.~.~.~.~.~.~.~.~.~.~.    t j j t 9 q + . . ~.~.~.~.~.~.~.~.~.",
"~.~.~.~.~.~.~.~.~.. . # 9 2 e h h y > 2 < ~.~.~.~.~.~.~.~.~.~.~.~.~.~.~.~.~.~.~.~.~.~.> 2 > u h h e 4 4 + . . ~.~.~.~.~.~.~.~.~.",
"~.~.~.~.~.~.~.~.~.o . + 0 0 9 0 2 u j j e   . ~.~.~.~.~.~.~.~.~.~.~.~.~.~.~.~.~.~.o   e j j y 2 9 9 0 0 + . o ~.~.~.~.~.~.~.~.~.",
"~.~.~.~.~.~.~.~.~.o . + 9 9 9 9 2 r d d w . - O ~.~.~.~.~.~.~.~.~.~.~.~.~.~.~.~.# - . e d h r 2 9 9 9 9 ; . . ~.~.~.~.~.~.~.~.~.",
"~.~.~.~.~.~.~.~.~.. . + 9 9 9 9 0 9 8 9 9 0 q :   . ~.~.~.~.~.~.~.~.~.~.~.~.o   : 0 0 8 8 9 9 9 9 9 9 9 # . . ~.~.~.~.~.~.~.~.~.",
"~.~.~.~.~.~.~.~.~.o . # 9 9 9 9 9 9 9 9 0 9 0 > . o ~.~.~.~.~.~.~.~.~.~.~.~.O . : 0 9 9 9 9 9 9 9 9 0 9 + . . ~.~.~.~.~.~.~.~.~.",
"~.~.~.~.~.~.~.~.~.. . + 9 9 9 9 9 9 9 9 8 2 8 > - = . . .             .   . - ; < 9 2 9 9 9 9 9 9 9 9 9 + . o ~.~.~.~.~.~.~.~.~.",
"~.~.~.~.~.~.~.~.~.. . + 9 9 4 0 9 0 q 9 w r r 1 O - 6 7 6 h.z.z.k.z.h.6 7 5 - O 1 r r e 9 9 9 9 0 9 9 4 + . . ~.~.~.~.~.~.~.~.~.",
"~.~.~.~.~.~.~.~.~.o . + 0 q q 4 9 8 2 < i n b e . ,       U.Q.Q.Q.Q.U.      , . e l b u 1 2 8 9 9 0 9 q = . . ~.~.~.~.~.~.~.~.~.",
"~.~.~.~.~.~.~.~.~.. . + 1 1 1 q 9 w y y y i i 8 @ o c j.h.Y.Q.!.Q.Q.Y.h.j.c o @ 9 i i y y y w 9 0 2 1 1 + . . ~.~.~.~.~.~.~.~.~.",
"~.~.~.~.~.~.~.~.~.~.~.~..   ; 4 1 y j n e     . 3   N.U.L.W.!.!.Q.!.W.L.U.N.  3 .     e b b y 1 2 ;   . ~.~.~.~.~.~.~.~.~.~.~.~.",
"~.~.~.~.~.~.~.~.~.~.~.~.#   1 u y y y y s k k w ,   n.L.K.W.!.Q.!.!.W.K.L.n.  & w k k s r u y t u 1   o ~.~.~.~.~.~.~.~.~.~.~.~.",
"~.~.~.~.~.~.~.~.~.~.~.~.    9 b n y     l ) ^ h %   n.L.K.W.Q.!.!.!.W.K.L.N.  % h ^ ( l     y n b 9     ~.~.~.~.~.~.~.~.~.~.~.~.",
"~.~.~.~.~.~.~.~.~.~.~.< r e r t r s n k Z I I f $ . c.H.G.E.Q.!.!.Q.W.G.H.c.o * f Y I Z l n s r t r r r < ~.~.~.~.~.~.~.~.~.~.~.",
"~.~.~.~.~.~.. o o o   2 j b s     h ) Y ^ Y ( f X   l.b.c.E.Q.Q.!.Q.Y.c.b.l.    p ( Y Y Y ) h     s n j 2   o o o . ~.~.~.~.~.~.",
"~.~.~.~.~.~.~.~.~.o   : y y e 1 . x { { D h k m m v 6.x.7.I.U.U.W.Q.Y.m.m.s.] o.H k h D [ { x . 1 e y t >   o ~.~.~.~.~.~.~.~.~.",
"~.~.~.~.~.~.~.~.~.. . + 8 9 <     x #.@.N     V ( ^ ' ' ' J.L.K.Q.Q.R.4.4.y.t.d...    N @.@.x     < 9 4 + . . ~.~.~.~.~.~.~.~.~.",
"~.~.~.~.~.~.~.~.~.~.~.~.> O t V n ! 9.9.H   # B I I } | | M.B.B.D.F.C.r.r.0.;.,.~     H 0.9.! n B t O 1 ~.~.~.~.~.~.~.~.~.~.~.~.",
"~.~.~.~.~.~.~.~.~.~.~.~.#   a ) P *.r.t.K   + B Y I { } } <.3.<.>.+.<.r.r.9.{ @.G .   K p.r.&.P ) i   # ~.~.~.~.~.~.~.~.~.~.~.~.",
"~.~.~.~.~.~.~.~.~.~.~.~.+   g } / ;.r.t.K     V ^ I { @.} q.u.r.r.r.r.r.r.8.^ ` A     K t.r.-._ { g   + ~.~.~.~.~.~.~.~.~.~.~.~.",
"~.~.~.~.~.~.~.~.~.~.~.~.>   z *.} :.r.t.K     V Y I { @.} q.r.q.r.q.e.r.u.8.L ^ M     K p.r.:.} *.z   : ~.~.~.~.~.~.~.~.~.~.~.~.",
"~.~.~.~.~.~.~.~.~.~.~.~.#   f _ E { ;.;.[ G W x y y Q %.} q.r.r.r.r.q.-.:.[ y i x W G [ ;.-.{ E _ f   # ~.~.~.~.~.~.~.~.~.~.~.~.",
"~.~.~.~.~.~.~.~.~.~.~.~.#   i I P _ } { @.*.=.x     W %.} q.r.q.q.r.0.{ #.R     x =.$.@.{ } _ P I i   O ~.~.~.~.~.~.~.~.~.~.~.~.",
"~.~.~.~.~.~.~.~.~.#   w D C U { ` -.0.e.;.{ @.x   ; F ( ^ %.-.;.e.r.0._ _ F ;   x %.{ ;.w.w.;.[ } U C Z w   # ~.~.~.~.~.~.~.~.~.",
"~.~.~.~.~.~.~.~.~.#   e Y Y _ *.} :.r.r.,.{ %.x   # C I I { } } e.r.9.I I S o   x *.{ ,.r.r.:.} } _ Y ^ t   # ~.~.~.~.~.~.~.~.~.",
"~.~.~.~.~.~..   = d p m { { *.q.0.0.e.r.e.0.e.X.Q [ g 9 w [ @.| *.*. .w 8 g [ / [ @.{ :.r.e.q.0.q.*.{ } x p d -   o ~.~.~.~.~.~.",
"~.~.~.~.~.~.O . > j j B @.{ :.r.r.r.r.e.r.r.r.:.@.*.g   : [ %.} } @.Q ,   g %.%.@.%.#.8.r.e.e.r.r.;.} @.B d j > . O ~.~.~.~.~.~.",
"~.~.~.~.~.~.    1 L L I } } ;.r.r.r.e.r.w.w.w.0.q.e.| Q [ { #.} } { { [ / | q.q.q.0.0.r.r.r.e.e.r.-.} } E L L 1     ~.~.~.~.~.~.",
"~.~.~.~.~.~.> O 0 I Y ^ @.} ;.e.e.e.r.e.r.u.u.r.r.r.:.*.-.*.*.*.*.X.*.=.*.:.u.r.r.u.u.r.r.r.e.e.r.;.{ @.^ I I 9 O > ~.~.~.~.~.~.",
"~.~.~.. . O s d h I I E } } ;.r.r.r.r.w.g.S.A.f.1.w.0.9.9.0.4.0.0.1.q.9.2.q.w.1.a.S.S.g.0.r.r.r.t.;.{ #.^ I I j d s O . . ~.~.~.",
"~.~.~.o . # h j l I I ^ } } ;.w.q.e.r.1.g.S.Z.f.u.i.i.i.i.i.i.i.i.i.i.i.i.i.i.u.f.A.A.g.1.r.q.q.q.-.} | E I I l j h O . o ~.~.~.",
"~.~.~..   # h j b I I ^ @.} @.%.} ,.r.r.r.u.e.V.S.S.A.S.A.Z.S.S.Z.A.A.A.A.A.A.S.V.r.u.r.r.u.:.} %.@.| } _ I I l j d o   . ~.~.~.",
"~.~.~.O O = s s j L L I } { { } { ;.0.0.0.0.1.g.Z.Z.Z.Z.Z.Z.Z.Z.Z.Z.Z.Z.Z.Z.Z.Z.g.1.0.0.9.0.-.{ } } { } I L L h s s = O + ~.~.~.",
". . . 2 9 8 - o < j j n Y I _ *.%.` T I ` *.| 9.r.r.r.r.r.e.e.e.e.r.r.r.r.r.r.r.0.@.*.{ Y Y { %.@._ I I n j j < O - 9 9 2 . . . ",
". o . 2 9 8 < - 1 s s j L L I [ { Q S S E [ Q -.9.8.9.0.9.q.e.w.e.q.q.0.9.9.8.9.;.Q _ R S S E { { I L L j s s 1 - > 9 9 2 . . . ",
". . . 2 q q 9 9 8 .   < j d M Y ^ V - 2 i j d L ^ Y } $.$.r.t.t.t.p.r.@.@.{ I ^ F d j i 2 - V ) Y M d h <   o 2 9 9 q q 2 . o . ",
". . . 1 2 1 9 q q q q r h h n S F l 1 9 r s i m Z V G W R ..5...5.5.X.W W R C S n i s t 0 1 l F S n d j r q q 0 q 9 1 2 1 . . . ",
"~.~.~.. . . 2 2 0 d d h j j s < 1 2 9 q < ; - .                         .         .   > q 0 2 1 < s j j d d d 0 2 1 . . . ~.~.~.",
"~.~.~.. . o e e y M V n j j s r y e 8 9 < O O ; = = .                         . . .   > 0 8 w r e d j j M M M u r e o . . ~.~.~.",
"~.~.~.o . + h j n I Y L d d h j j s 9 q <     1 q q : # + ~.~.~.~.~.~.~.~.~.# # # .   < q 4 s j j h d d L ^ I n j j O . o ~.~.~.",
"~.~.~.. . O y i s I Y L M V n j j u : 1 < : : 2 0 9 =   . ~.~.~.~.~.~.~.~.~.. . O > : > 1 > u j h n V M P I I a u y # . . ~.~.~.",
"~.~.~.~.~.~.    > I Y I I ^ L h n y     < q q 9 9 9 = . . ~.~.~.~.~.~.~.~.~..   : 0 q >     y b h L ) I Y Y I 1     ~.~.~.~.~.~.",
"~.~.~.~.~.~.#   1 C S F I I C e u q : > 2 9 9 9 9 0 = . o ~.~.~.~.~.~.~.~.+ > > 1 9 9 2 > > q u e Z I I S Z C 1   # ~.~.~.~.~.~.",
"~.~.~.~.~.~.o   : h d n Y ( C     = q 0 0 9 9 9 0 0 +   . ~.~.~.~.~.~.o . = q 9 0 9 9 0 0 q =     C ( ^ n d d :   o ~.~.~.~.~.~.",
"~.~.~.~.~.~.~.~.: r r i l n f   O > 9 9 4 9 9 9 9 0 1 > > # ~.~.~.~.~..   ; 9 9 8 9 9 9 9 9 > #   f n l u r t : ~.~.~.~.~.~.~.~.",
"~.~.~.~.~.~.~.~.~.            #   > q 9 0 9 9 9 9 9 0 0 q ; . . ~.~.~.. . = q 9 0 0 0 0 0 q >   #             ~.~.~.~.~.~.~.~.~.",
"~.~.~.~.~.~.~.~.~.~.~.~.~.~.~.~.~.= < : 2 9 9 9 9 9 4 0 4 # . .       .   # > < > > < > > < = ~.~.~.~.~.~.~.~.~.~.~.~.~.~.~.~.~.",
"~.~.~.~.~.~.~.~.~.~.~.~.~.~.~.~.~.~..   1 q 0 0 0 0 q 9 9 # . o                       .     ~.~.~.~.~.~.~.~.~.~.~.~.~.~.~.~.~.~.",
"~.~.~.~.~.~.~.~.~.                . .   + > : : : > > > > .   .             . . . . .   . . .                 ~.~.~.~.~.~.~.~.~.",
"~.~.~.~.~.~.~.~.~.                                                                                            ~.~.~.~.~.~.~.~.~.",
"~.~.~.                                    . . . . . . . .                                                                 ~.~.~.",
"~.~.~.                                                                                                                    ~.~.~.",
"                                                                                                                                ",
"                                                                                                                                ",
"                                                                                                                                ",
"                                                                                                                                ",
"~.~.~.                                                                                                                    ~.~.~.",
"~.~.~.                                                                                                                    ~.~.~.",
"~.~.~.~.~.~.~.~.~.                                                                                            ~.~.~.~.~.~.~.~.~.",
"~.~.~.~.~.~.~.~.~.                                                                                            ~.~.~.~.~.~.~.~.~.",
"~.~.~.~.~.~.~.~.~.~.~.~.~.~.~.~.~.~.                                                        ~.~.~.~.~.~.~.~.~.~.~.~.~.~.~.~.~.~.",
"~.~.~.~.~.~.~.~.~.~.~.~.~.~.~.~.~.~.                                                        ~.~.~.~.~.~.~.~.~.~.~.~.~.~.~.~.~.~.",
"~.~.~.~.~.~.~.~.~.~.~.~.~.~.~.~.~.~.~.~.~.~.~.~.~.~.~.~.~.~.~.~.~.~.~.~.~.~.~.~.~.~.~.~.~.~.~.~.~.~.~.~.~.~.~.~.~.~.~.~.~.~.~.~."
};
