/* XPM */
static char *ab7031799ce3461fdc94a98528bd96cfv96NjH13UayZRMZB[] = {
/* columns rows colors chars-per-pixel */
"64 64 240 2 ",
"   c None",
".  c #0B0B0B",
"X  c #181818",
"o  c #0C1115",
"O  c #211F1A",
"+  c #24231C",
"@  c #2B231C",
"#  c #34251C",
"$  c #3C3916",
"%  c #131B26",
"&  c #091737",
"*  c #0C1428",
"=  c #1A232A",
"-  c #182837",
";  c #242422",
":  c #252C2D",
">  c #2C2A26",
",  c #2F302E",
"<  c #3A352A",
"1  c #292E33",
"2  c #2C3438",
"3  c #373633",
"4  c #382E28",
"5  c #201324",
"6  c #44362A",
"7  c #483D34",
"8  c #543625",
"9  c #5C291F",
"0  c #7C6D0E",
"q  c #6C6108",
"w  c #474234",
"e  c #4A4435",
"r  c #4D473B",
"t  c #514B3B",
"y  c #584739",
"u  c #5A4C31",
"i  c #67493A",
"p  c #714C36",
"a  c #5B5010",
"s  c #001144",
"d  c #07194B",
"f  c #051753",
"g  c #021955",
"h  c #0D1C55",
"j  c #03175B",
"k  c #03195C",
"l  c #08195A",
"z  c #131D4E",
"x  c #1E3347",
"c  c #142859",
"v  c #1B2E52",
"b  c #273949",
"n  c #253B55",
"m  c #373C4E",
"M  c #021B63",
"N  c #081A61",
"B  c #041F6A",
"V  c #1E3B6B",
"C  c #1B3562",
"Z  c #00257F",
"A  c #0A2376",
"S  c #102874",
"D  c #323F6B",
"F  c #243B71",
"G  c #3C414E",
"H  c #2A4358",
"J  c #3A435D",
"K  c #2B4A67",
"L  c #32546B",
"P  c #3E4B7B",
"I  c #2E5278",
"U  c #32587B",
"Y  c #384B65",
"T  c #5A5755",
"R  c #4E4A4E",
"E  c #675B54",
"W  c #6F594A",
"Q  c #786457",
"!  c #756151",
"~  c #565A66",
"^  c #5D626F",
"/  c #696868",
"(  c #776B65",
")  c #616774",
"_  c #636875",
"`  c #7C7673",
"'  c #847718",
"]  c #894B39",
"[  c #875543",
"{  c #9E5F4C",
"}  c #846A5B",
"|  c #986D57",
" . c #A36D59",
".. c #87756B",
"X. c #947868",
"o. c #867A73",
"O. c #8F766B",
"+. c #A97B66",
"@. c #A15E4B",
"#. c #B19701",
"$. c #D5BA15",
"%. c #E0C102",
"&. c #E3C214",
"*. c #EACC2B",
"=. c #9A8477",
"-. c #928175",
";. c #A7826D",
":. c #B5856A",
">. c #A78978",
",. c #B48C79",
"<. c #B9947C",
"1. c #A6907D",
"2. c #C3947C",
"3. c #C78E75",
"4. c #EDD874",
"5. c #E3CB54",
"6. c #012684",
"7. c #0C2788",
"8. c #193186",
"9. c #1A3389",
"0. c #143197",
"q. c #1835A3",
"w. c #1134B2",
"e. c #1338BC",
"r. c #1031A9",
"t. c #293F97",
"y. c #3D4E89",
"u. c #335A86",
"i. c #354990",
"p. c #396497",
"a. c #3C6A97",
"s. c #3B668D",
"d. c #3044A9",
"f. c #406E97",
"g. c #4273A2",
"h. c #487CAA",
"j. c #497EB0",
"k. c #5A699B",
"l. c #1339C3",
"z. c #113BCA",
"x. c #183DC2",
"c. c #153FD6",
"v. c #1542DD",
"b. c #1645E7",
"n. c #1847F2",
"m. c #194AFE",
"M. c #1647F8",
"N. c #2141C3",
"B. c #4D86B9",
"V. c #7882A5",
"C. c #7887B6",
"Z. c #5695CC",
"A. c #589AD5",
"S. c #518CC5",
"D. c #5FA5E4",
"F. c #62A9EA",
"G. c #61A7E8",
"H. c #65AEF4",
"J. c #66B2FE",
"K. c #69B5FF",
"L. c #68B4F9",
"P. c #5DA2DC",
"I. c #858484",
"U. c #9A9999",
"Y. c #989796",
"T. c #958F8C",
"R. c #AA9689",
"E. c #B69A88",
"W. c #A9978D",
"Q. c #B7A497",
"!. c #B3A295",
"~. c #8590B6",
"^. c #8C98BF",
"/. c #8893BA",
"(. c #A7A7A6",
"). c #B9B2AD",
"_. c #B3B2B1",
"`. c #B6B6B8",
"'. c #BCBAB9",
"]. c #B6ABA5",
"[. c #C49C84",
"{. c #C69A8D",
"}. c #CCA58B",
"|. c #C6A38A",
" X c #C8AA97",
".X c #D1AC93",
"XX c #D6AB98",
"oX c #D4B39B",
"OX c #D9B69B",
"+X c #D0AC93",
"@X c #C6B4A6",
"#X c #DCBCA4",
"$X c #D8BAA7",
"%X c #CFB8AF",
"&X c #E1BCA9",
"*X c #E8D582",
"=X c #DCC1AA",
"-X c #DAC5B6",
";X c #C6C1BD",
":X c #E3C3AC",
">X c #E6C0A5",
",X c #E4C5B2",
"<X c #E5CAB4",
"1X c #E9CCB5",
"2X c #EACEBB",
"3X c #E6CAB6",
"4X c #ECD2BC",
"5X c #E5D0BE",
"6X c #F2D7BF",
"7X c #ECE2B6",
"8X c #939EC1",
"9X c #8F9CC1",
"0X c #97A0C3",
"qX c #C7C7C6",
"wX c #DAD9D8",
"eX c #D6D0C9",
"rX c #E8CDC5",
"tX c #ECD4C3",
"yX c #E9D6C6",
"uX c #F1D9C5",
"iX c #F3DCCB",
"pX c #F1D6C3",
"aX c #EDDCD3",
"sX c #F2DED2",
"dX c #F5E0CE",
"fX c #F8E3CF",
"gX c #F6E3D4",
"hX c #F9E4D4",
"jX c #F5E5D9",
"kX c #FAE9DB",
"lX c #F8E6D9",
"zX c #E9E3CE",
"xX c #E4E3E2",
"cX c #EEEDEA",
"vX c #FBECE2",
"bX c #F0EFEF",
"nX c #FDF3E8",
"mX c #FFFFFE",
"MX c #F5F5F5",
"NX c #EFF0F0",
/* pixels */
"                          H.J.                                                                                                  ",
"                    G.H.L.J.J.                                                                                                  ",
"              A.F.L.J.J.J.J.L.j.n - % o = %                                                                                     ",
"              L.J.J.J.J.J.G.U = $ W Q ! t 6 # X = -                                                                             ",
"                  J.J.K.H.U ; ! ;.=.Q.E.;.] p u 6 # X % %                                                                       ",
"                    J.K.Z.: } +.=.E. X$X].>.} W p u 6 # X X                                                                     ",
"                    K.K.f.y | =.1.!.].1.} -.Q.!.X.! i i u 6 X -                                                                 ",
"                      P.L W -.=.-.1.-.W ( !.W.O.} ` Q Q y u 8 @ %                                                               ",
"                    X.Q E ..-.O.>.R.O.O.W...Q E o.-.o.( ( Q ! u # X x                                                           ",
"            * w E.Q.W.=...=.R.R.Q. X X$X{.,.+.;.1.=.....` ( ..Q i # o                                                           ",
"            O =.E.=.X.X.R.!.$X,X1XuXuXiX3X<X2XpX1X$X|.>...Q ` -.! u # X         J.J.    J.J.J.J.J.J.J.                          ",
"          o W E.X.} } >.XX2XuXgXkXkXlXhXsXhXgXsXiX4X<X>XE.=.!.).T.R 6 ; I K.J.J.J.J.J.J.J.J.J.J.J.J.J.J.                        ",
"          X X.;.! ! ,.4XsXlXhXhXgXjXgXgXdXdXdXuX4X2X<X:X#XoX-XwX%X-.y 6 n D.K.J.J.J.J.J.J.J.J.J.J.J.J.J.                        ",
"          @ | } } >.tXkXsXhXhXhXgXjXgXgXgXgXiX6X4X<X:X=XOXOX-XzXqX]...7 % Z.K.K.K.J.K.J.J.K.K.J.K.K.K.                          ",
"        * 4 X.O.1.$XhXhXiXgXhXjXjXgXgXgXgXgXuX4X1X1X:X=XOX+XOXeXeX).W.R ; n p.p.p.p.p.p.p.p.p.p.p.a.j.                          ",
"          7 W.]. XtXhXiXdXgXhXjXvXjXgXgXjXgXdXuX6X4X:X#X=X+X+XyXeX).(.( , f e.l.l.l.l.l.l.l.l.l.l.w.S                           ",
"          i ).@X@XdXdXiXdXhXlXkXjXjXgXjXjXjXgXiXuXtX,X$XoX.X}.#XqX%XW.( 4 0.m.m.m.m.m.m.m.m.m.m.m.m.v.d                         ",
"          R Q.@X-XgXhXdXhXhXjXjXjXkXsXgXlXjXpX#X[.,.,.>.>.|.|.+X X%XT.T h v.m.m.m.m.m.m.m.m.m.m.m.m.v.z                         ",
"          7 !.).=XdXhX4X$XoXoX$X-XiXiXgXsXiX&X}.oX$X=XoX|.|.E.}.W.o.E 7 z c.m.m.m.m.m.m.m.m.m.m.m.m.v.c                         ",
"          ; T.!.@XkXhX,X-X5XrX3X-X4XiXgXpX<X:XsXkXhX4XOX+X+XE.}.E.I.! ] 9 N n.m.m.m.m.m.m.m.m.m.m.m.v.c                         ",
"          % R o.W.kXzXzXgXdXvXvXdX:X$XtX#X[.2XgXaXeX=X+X2.2..XOX3.R.R. .9 5 N.m.m.m.m.m.m.m.m.m.m.m.v.c                 J.J.    ",
"            = o.W.-X<XdXpXgXaXeXoXOX|.yX4X:.[. X%X;X-X+X|.|.OX+X,.R. . .] # r.m.m.m.m.m.m.m.m.m.m.m.v.C               J.J.J.J.  ",
"            b | -XyX-X2X:X<X%X@X X$X XyXkX.X XtXjXaXtXtXuX=XoX|.E.!.[ p @.9 S q.q.q.q.q.q.q.q.q.q.w.v.C B.          J.J.J.J.J.  ",
"  - 1 2 2 2 O ;.5XuX1X,XiXgXpXtXuXyXrXhXkX>X=XyXaXjXsXtX:X=XoX2.,.{. .9 @.6 T.`.`.`.`.`.`.`.`.`.(.n z.& 1 2 2 2 2 b A.J.J.J.    ",
"F.H > > > 3 X =.iX5XuX5XyXjXsXjXyXtXgXjXlX&X&XiXlXsXsXsXiXrX&X2.,.Q.O.[ @.7 xXmXmXmXmXmXmXmXmXmXxXD v.& + , > @ @ 2 Z.J.J.J.    ",
"H.B.- X x g.K E uXuX6XdXiXsXaXaXsXtXgXkXsXpXXX1X1XiXvXsXiXpXOX<.,.Q.>. .] R bXmXmXmXmXmXmXmXmXmXxXK e.c B.B.K X % a.F.J.J.      ",
"H 2 ; + ; b x , oXuX4XdXhXvXnXfXOX&XkXvXnXiX&X3X[.3.2XpXtX,X.X<.,.E.R.@.p / MXmXmXmXmXmXmXmXmXmXxXK N.V f.G : + O 2 H A.J.      ",
"+ w t r t w b x E 1X5XdXfXhXiX}.3.uX,X#X,X}.@.[ @.[.&X&X:XOX[.:.,.E.X.8 y qXmXmXmXmXmXmXmXmXmXmXxXD l.V L > t t t e , B.K.J.    ",
"; e t t t w H K X  X2XtXuXuX>X:.3XvXtX&X$X[.E.{.&X3XpX3X&X:X2.:.|.,.} E eXmXmXmXmXmXmXmXmXmXmXmXxXD z.V L < t t t t , S.K.J.    ",
"; e t t t w b I * Q =X1X1X2X2.OXvXvXnXMXnXvXvXsXrX&XXX{.&XhX[.<.OX,.Q ` mXmXmXmXmXmXmXmXmXmXmXmXxXD z.V L < t t t t , S.K.      ",
"; e t t t w H U Z * Q 4X4X5X.XfXuX-X%XoXXX X+.+.+.[ i +.6XkX|.}.OX:.R -.mXmXmXmXmXmXmXmXmXmXmXmXxXD z.V L < t t r t , B.K.      ",
"+ e t t t w b I r.A < $XuX6X1X1XoX} +.%X%XeX-X%XXX,.{.&XhXhX2.OX}.X.r (.mXmXmXmXmXmXmXmXmXmXmXmXxXD z.V L < t t t t 2 a.        ",
"; e t t t w b U w.A X =.6XuX6XdXvXsX&X$XrXrXrX&XXX+XOX1XkX1X3.OX:.} R wXmXmXmXmXNXNXMXmXmXmXmXmXxXD z.V L < t t t t ,           ",
"= < w w 3 < H u.w.8.r <  X4X6XfXvXjXiXpXrX&X&X&XXX+X=X<XkXOX3.:.[ 4 ` MXmXmXMX'.(.(.(.wXmXmXmXmXxXD z.V U # w < < w >           ",
"        - H Z.u.w.9.(.T 6 Q.:X7XjXsXsXiXrXrXrX4X<X3X6XuX6X:. .p # T xXmXmXmXxXU.U.Y.Y._.MXmXmXmXxXD z.V Z.f.n - -               ",
"            K.I w.8._.cX~ $ ;.:XsXsXlXsXvXvXjXsXiXiX6X7X:.[ p # / xXmXmXmXmXwXU.U.U.U._.MXmXmXmXxXK z.V F.K.K.                  ",
"              n w.8._.mXNXV.# Q &XiXlXkXvXlXsXhXpX:XOX+.p 9 # V.NXmXmXmXmXmXwXU.U.U.U._.mXmXmXmXxXD z.C G.J.J.J.                ",
"              v w.8._.mXmXmX).< R <.1XuXpX3X3X&X}.3. .p 6 = ( MXmXmXmXmXmXmXMX;XU.U.(.wXmXmXmXmXxXD z.V G.J.J.J.                ",
"              v w.8._.mXmXmXmXeXr O 7 Q X.+.R.O.Q W < X T '.Y.eXmXmXmXmXmXmXmXNX(.U.qXmXmXmXmXmXxXD z.V G.J.J.J.J.              ",
"              v w.8._.mXmXmXmXNXT._.I.3 , # % = % , ` ( eXmXwXT.MXmXmXmXmXMXqX_.U.U.(.'.wXmXmXmXxXD z.V G.J.J.J.J.              ",
"              v w.8.).mXmXmXmX;X(.mXmX(.U.o.D N.t./ ;XY.bXmXmX(.'.mXmXmXmX;XY.Y.U.U.U.Y.U.xXmXmXxXD z.V D.J.J.J.J.              ",
"              n w.8._.mXMXmXMXT.qXmXmXwX` `.(.d.i.).I.(.MXmXmXwXT.bXmXmXNX(.Y.Y.Y.Y.Y.U.Y.qXmXmXwXD z.V F.J.J.J.J.              ",
"              K w.7.R _ _ ) ^ m ^ ) ) ^ ~ ) R c z ~ ~ ~ _ _ ) ^ m ~ ^ ) ^ G G G G G G G G ~ ) _ ~ v l.V F.J.J.J.J.J.            ",
"              u.w.A s M M M M M M M M M M M M M M M B N M M M M M M M M B M M M M M M B M M M M g d z.V F.J.J.J.J.J.            ",
"            K.u.w.0.l N N l N N N N N N N N j f f f f f f f f f f f f f f N N N M N M N N M N M l A z.V F.J.J.J.J.              ",
"        J.J.K.u.w.m.n.n.M.M.n.n.n.n.n.n.n.w.f f h z h h h h h h h h h h f 7.b.n.n.n.n.n.n.n.n.n.n.M.c.V F.J.J.J.J.J.            ",
"    J.J.J.J.K.u.w.m.m.m.m.m.m.m.m.m.m.m.m.7.h k././.~././.~./.~.~.~.~.~.F f n.m.m.m.m.m.m.m.m.m.m.m.b.V F.J.J.J.J.              ",
"      J.J.J.K.u.w.m.m.M.M.M.M.M.m.m.m.m.m.7.c 9X0X8X8X8X8X8X0X0X8X8X8X^.i.f n.m.m.m.m.M.m.M.M.M.m.m.v.C F.J.J.J.                ",
"      J.J.J.J.u.w.m.t.Y y.i.y.y.d.e.M.m.m.7.c C.9X8X8X9X8X8X8X0X8X9X9X9Xi.g n.m.m.v.i.i.p.y.y.y.F b.v.V F.J.J.J.                ",
"    J.J.J.J.K.u.w.n.t &.7XcX*X7X*X' q.m.m.7.c ~.0X9X0X9X^.8X8X^.^.8X8X9XI g b.m.v.R $.zXcX4.7X4.' z.v.V F.J.J.J.                ",
"      J.J.J.K.u.w.n.t 5.cX5X4.zX*.%.r b.m.7.z k.V.V.V.V.V.V.~.k.k.~.k.~.F f n.m.F #.4.xX6X4.7X*.' c.b.V F.J.J.                  ",
"      J.J.J.L.U r.v.S P y.y.y.~ J D F c.b.e.N N N N N N N N l N N h N N N 7.v.b.9.J ~ y.P y.P J C z.z.n D.J.                    ",
"    J.J.J.J.B.& d l k k k k k j k k M j j k k k j j k k j j j j l l j j k k k l N k k k g M g M N j j & F                       ",
"      J.J.K.a.g 6.Z 6.Z Z Z Z Z Z 6.Z Z Z B - : : : : : : : : : , : : : = k 6.Z Z Z Z Z Z Z 6.Z Z 6.6.B *                       ",
"    J.J.J.K.a.g 6.6.6.6.6.6.6.6.6.6.6.6.6.k q %.%.%.%.%.%.%.%.%.%.%.%.%.#.s 6.6.6.6.6.6.6.6.6.6.6.6.6.B &                       ",
"      J.J.J.a.g 6.6.6.6.6.6.6.6.6.6.6.6.6.B $ 0 0 0 0 0 0 0 0 0 0 0 0 ' a d 6.6.6.6.6.6.6.6.6.Z 6.6.6.B &                       ",
"        J.K.B.d k M j g g g g g g g g g g g d s s s s s s s s s s s s s s j k k g g g g g g g g k k k d                         ",
"          L.L.  n K s.= O + + + + + = s.g.g.g.g.g.g.g.g.g.g.g.g.g.g.g.g.g.g.g.a.- O + + > ; + o U g.g.j.                        ",
"          J.K.      F.b X + + + + O = P.K.K.K.K.K.K.K.K.K.K.K.K.J.L.G.j.B.D.K.K.H X + + + + + % Z.K.K.K.K.                      ",
"        H.L.          = < < w e w w 1 Z.F.F.F.F.F.F.F.F.H.L.J.J.D.    . .   Z.H.H < e w w w w + g.Z.A.H.K.                      ",
"                      . . . X   t w X - - - - - - - -       G.H.S.            A.Y < t t w + X o o % % x x                       ",
"                                  O . =                                         L : 3     X ; / _.T.    .                       ",
"                                                                                                mX                              ",
"                                                                                                                                "
};
