/* XPM */
static char *result[] = {
/* columns rows colors chars-per-pixel */
"64 64 183 2 ",
"   c #675139",
".  c #6C563A",
"X  c #6F5A3B",
"o  c #745D3D",
"O  c #7D643E",
"+  c #7E6540",
"@  c #7E6841",
"#  c #80663F",
"$  c #856B3E",
"%  c #886C3F",
"&  c #816741",
"*  c #856A41",
"=  c #8B6E41",
"-  c #916E42",
";  c #8D7243",
":  c #947544",
">  c #967945",
",  c #9B7C46",
"<  c #917648",
"1  c #957A49",
"2  c #9D7D49",
"3  c #A07D45",
"4  c #A17E48",
"5  c #E69232",
"6  c #E59934",
"7  c #E79538",
"8  c #E79D3A",
"9  c #9E8046",
"0  c #9F8149",
"q  c #A38446",
"w  c #A98447",
"e  c #A68946",
"r  c #AA8C46",
"t  c #A3844A",
"y  c #AA854D",
"u  c #A6894C",
"i  c #AB8C4C",
"p  c #B2894F",
"a  c #AE9147",
"s  c #AE914C",
"d  c #B39547",
"f  c #B2954C",
"g  c #B6994C",
"h  c #BA9C4C",
"j  c #AD8750",
"k  c #AC8D52",
"l  c #B18654",
"z  c #B28A52",
"x  c #AC9150",
"c  c #B39352",
"v  c #BB9555",
"b  c #B49A54",
"n  c #BB9C54",
"m  c #BEA24B",
"M  c #BDA255",
"N  c #BCA359",
"B  c #BFA85C",
"V  c #D39D45",
"C  c #C29956",
"Z  c #C3965B",
"A  c #D39A5E",
"S  c #E49C4B",
"D  c #EA9E4F",
"F  c #C0A44C",
"G  c #C8A74F",
"H  c #C6AB4D",
"J  c #CBAF4C",
"K  c #DEAB4A",
"L  c #CCB247",
"P  c #CEB44C",
"I  c #D1B54D",
"U  c #D1B94F",
"Y  c #DEBC4F",
"T  c #C1A452",
"R  c #C9A155",
"E  c #C5AB54",
"W  c #C8AE54",
"Q  c #C4AB5C",
"!  c #CBAD59",
"~  c #DBAA58",
"^  c #CDB353",
"/  c #CFB857",
"(  c #C4B05E",
")  c #CBB35C",
"_  c #CFB85A",
"`  c #D1B652",
"'  c #D9B653",
"]  c #D3BB54",
"[  c #DABB55",
"{  c #D2B65A",
"}  c #D5BD5A",
"|  c #D9BE5C",
" . c #EDAE52",
".. c #E5AD5F",
"X. c #E3B55E",
"o. c #E6B859",
"O. c #E3BD5C",
"+. c #EAB85E",
"@. c #C6AB60",
"#. c #DBA464",
"$. c #D0A860",
"%. c #DEAD66",
"&. c #CCB561",
"*. c #CEBA65",
"=. c #CEBD69",
"-. c #D3BD63",
";. c #D9BB64",
":. c #DEB16E",
">. c #D3BF6A",
",. c #DFB96C",
"<. c #E2AA65",
"1. c #E4AA69",
"2. c #EBAF68",
"3. c #F1A763",
"4. c #F3AD6D",
"5. c #E5B462",
"6. c #ECB664",
"7. c #E4BC62",
"8. c #EEB966",
"9. c #E7B46B",
"0. c #EDB66B",
"q. c #E3BF69",
"w. c #ECBB6A",
"e. c #F4B367",
"r. c #F5B26D",
"t. c #F2BC6D",
"y. c #F7AF71",
"u. c #ECB374",
"i. c #F6B272",
"p. c #F8B572",
"a. c #F6BA73",
"s. c #F8B975",
"d. c #F8BB7A",
"f. c #DCC157",
"g. c #D7C15C",
"h. c #D9C25E",
"j. c #E0C95F",
"k. c #D6C162",
"l. c #DBC562",
"z. c #DDC966",
"x. c #D5C269",
"c. c #DBC669",
"v. c #DECB6A",
"b. c #DFD06D",
"n. c #DDCC70",
"m. c #DFD173",
"M. c #E3C463",
"N. c #E8C566",
"B. c #E1CB65",
"V. c #E6C56C",
"C. c #EAC36B",
"Z. c #E1CD6C",
"A. c #EACB6D",
"S. c #EED167",
"D. c #E2D16E",
"F. c #E9D26E",
"G. c #EFC271",
"H. c #E3CF70",
"J. c #EDCE72",
"K. c #F4C373",
"L. c #F2CC75",
"P. c #F9C17F",
"I. c #F5CF79",
"U. c #E4D372",
"Y. c #EAD472",
"T. c #E6D976",
"R. c #EADB76",
"E. c #E6DB79",
"W. c #EADD79",
"Q. c #F1D376",
"!. c #F1D37A",
"~. c #F3DB7D",
"^. c #EDE17D",
"/. c #F1E17D",
"(. c #F1E87F",
"). c #F9C581",
"_. c #FACC86",
"`. c #FACF89",
"'. c #FBD48C",
"]. c #FCD88E",
"[. c #F4E481",
"{. c #F9E782",
"}. c #F5E882",
/* pixels */
"].].].'.P.r.i.+.7.A.J.C.0.0.G.J.B.M.N.G.t.8.t.K.K.C.C.X.8.5.5.6.w.w.I.!.L.6.6.5.7.q.7.7.j.} { h.[ ' O.A.Q.Y.K.t.0.i.i.y.y.y.y.y.",
"'.'.'._.P.r.8.[ f.A.F.A.q.N.J.Y.S.h.B.B.N.M.A.Q.!.V.l.| [ [ ] [ N.N.Y.F.J.M.' | l.B.M.l.M.| { } ] I f.F.Y.D.J.C.q.w.a.s.i.y.y.y.",
"d.d.d.d.a.8.7.[ U h.D.D.c.M.U.U.D.Z.z.h.B.B.D.F.U.Z.B.l.f.f.I f.Y.U.D.D.Y.;.J B.D.Z.h.B.H.} ) ^ ^ f.D.D.h.h.D.F.A.;.M.I.a.y.y.y.",
"y.y.y.r.8.O.f.f.] ] h.D.Z.Z.Z.H.R.T.z.l.l.Z.Z.D.B.v.l.f.B.D.h.` A.R.A.D.D.` ! l.D.l.f.z.U.{ ` | h.z.D.B.f.B.D.D.U.c.U.{.L.a.y.i.",
"y.y.y.6.O.M.h.l.z.g.] Z.U.D.v.Z.R.E.U.z.z.b.m.U.l.z.c.h.D.T.z.] h.R.z.z.z.| *.l.U.D.l.l.z.{ ] l.l.z.b.z.l.D.z.l.D.m.U.}.^.K.y.y.",
"y.y.p.o.[ l.z.Z.U.Z.} z.U.D.z.B.U.T.D.l.z.U.U.T.z.l.c.z.D.b.Z.} [ z.h.g.z.Z.c.z.U.U.D.h.h.| l.z.z.z.h.h.z.z./ l.Z.U.Y.Y.^.Q.p.y.",
"y.y.K.M.f.h.D.v.z.B.l.l.Z.D.D.D.z.l.k.] z.U.b.b.Z.v.-.c.z.l.l.l.h.} h.g.D.D.b.U.Z.Z.B.l.g.l.z.z.B.z.g.} h.g.^ c.H.B.D.Z.U.~.a.p.",
"y.i.I.Y.z.M.Z.h.` l.Z.z.l.v.T.v.] / { ] D.D.h.f.H.B.;.x._ ] ] z.z.} D.l.D.D.v.D.z.l.l.l.l.v.b.z.v.Z.g.] h.g.g.v.D.;.D.U.Z.^.K.y.",
"y.p.Q.R.Z.Z.Z.` P h.D.D.z.D.R.z./ ` } l.D.z.} h.Z.v.D.x.P ` } l.U.b.T.b.h.D.D.l.z.Z.l.f.Z.U.Z.z.l.z.v.z.l.v.U.z.z.} v.W.U.[.Y.y.",
"y.p.C.~.M.v.h.{ z.z.Z.D.D.D.T.Z.v.Z.Z.l.D.l.l.D.c.l.H.Z.| ` ' z.U.^.U.v.z.E.B.` h.Z.g.` b.D.z.h.h.l.Z.v.h.v.U.l.] { k.T.T.(.L.r.",
"y.r.| Z.h.} | z.Z.z.T.T.D.D.T.U.T.U.Z.l.z.h.D.v.} h.v.H.H.| L l.m.E.h.v.^.b.g.U I | ` I g.b.b.v.z.v.Z.Z.Z.l.v.v.U ] ] z.z.R.Q.p.",
"i.r.' [ h.` B.c.b.D.Z.b.l.z.D.Z.v.T.T.D.] U g.] L v.U.v.b.v.U ] l.v.f.h.D.D.l.} U { l.} l.U.U.Z.D.D.U.H.v.l.h.z.l.z.z.l.h.F.Q.r.",
"i.i.{ [ B.l.l.v.b.D.b.h.] l.U.U.v.c.n.h.] l.b.z.h.k.z.} h.v.] ] l.z.v.h.] v.z.` ] f.z.c.;.l.z.z.z.Z.Z.k.*.c.l.l.z.g.l.] ] Y.Q.r.",
"y.r.A.h.l.D.l.z.D.U.D.h.z.z.z.v.v.z.v.l.h.b.D.l.h.^ l.} } z.l.v.v.h.D.z.P z.z.` l.l.c.v.| { g.} l.D.Z.{ _ U.Z.Z.z./ f.h.f.D.Q.p.",
"y.p.U.h.l.Z.Z.z.l.b.b.z.b.l.` h.v.v.Z.D.z.z.b.h.g.} D.l.} z.H.U.z.h.v.D.} D.B.z.v.v.v.v.h.g.h.l.l.Z.Z.h.l.v.Z.U.z.h.h.h.z.F.Q.p.",
"y.K.D.l.Z.v.R.v.U z.h.z.z.] ` z.U.U.U.D.z.h.z.l.l.v.U.v.v.z.U.v.;.v.z.Z.z.D.D.D.T.v.B.H.h.h.z.b.v.v.H.Z.D.z.z.U.z.v.h.[ z.F.Q.a.",
"y.t.j.l.H.V.U.l.U } z.D.z.] h.U.T.U.v.h.l.g.{ k.D.D.l.Z.W.z.h.z.l.v.l.l.v.D.Z.v.W.B.l.z.| h.v.U.z.z.U.U.T.v.z.l.l.z.k.l.l.A.Y.a.",
"y.t.[ B.H.Z.g.h.U U h.U.D.z.z.b.U.U.D.l.z.} ) c.Z.Z.h.] D.z.h.Z.l.| h.` v.U.z.v.U.] } h.;.k.B.z.| Z.H.H.D.l.` ` z.h.l.v.z.M.!.s.",
"y.C.j.h.D.v.` l.{ ` v.v.D.Z.l.l.D.D.v.B.z.h._ v.Z.Z.v.{ z.z.z.Z.h.P h.P } D.h.z.v.} { l.l.| z.l.} l.Z.Z.v.g.} z.D.g.z.Z.B.B.~.s.",
"y.t.j.M.z.z.h.D.h.l.Z.B.z.D.z.] l.D.Z.b.b.c.c.v.B.D.D.z.b.z.v.D.z.l.h.I ] D.h.l.l.v.v.v.l.h.l.h.] l.B.Z.z.} l.U.U.h.l.D.H.R.~.i.",
"p.6.h.z.Z.Z.z.D.v.v.H.Z.v.D.h.g.z.D.U.U.D.U.D.z.z.Z.B.H.T.v.z.D.v.T.l.P k.c.v.g.U v.D.U.Z.v.z.| h.l.z.z.b.z.v.v.T.z.} Z.U.Y.Y.s.",
"y.6.[ v.U.D.z.v.U.v.Z.U.D.b.h.h.Z.U.U.T.U.Z.U.v.v.z.z.v.T.n.h.v.U.U.h.} v.} v.l.P h.v.D.D.D.v.l.z.l.h.h.z.b.l.l.U.Z.h.l.V.Y.L.s.",
"y.6.[ | U.U.l.z.U.l.v.Z.D.Z.l.D.D.U.U.T.v.l.U.U.Z.v.z.B.Z.Z.} l.v.v.z.l.D.l.z.v.h.] z.D.v.Z.z.l.Z.l.f.` h.D.h.l.U.v.Z.l.M.B.Q.a.",
"p.6.] P z.v.g.v.c.c.z.l.v.D.D.D.D.D.D.D.l.h.v.U.U.Z.U.U.k.k.} z.z.l.v.D.D.T.l.l.D.z.z.v.Z.l.l.Z.U.l.g.} } h.} z.v.c.U.D.h.B.~.s.",
"y.1.I I ;.h.} z.c.v.H.v.U.U.z.h.v.b.l.l.h.h.z.U.b.b.E.E.k.^ g.h.z.z.U.Z.Z.Y.k./ D.v.z.v.U.z.l.U.T.D.z.l.h.h.` h.v.v.U.^.v.B.~.d.",
"y.1.J [ l.h.h.h.z.v.U.U.E.U.l.g.l.z.z.h.h.l.b.U.c.k.D.D.} ) l.] D.D.U.v.v.H.*.^ Z.l.f.v.E.v.Z.U.R.U.D.v.Z.z.] z.Z.v.U.W.Z.U.~.d.",
"y.<.J B.U.;.B.] g.-.c.U.v.v.z.l.f.h.z.b.h.l.z.z.c.h.g.f.k.x.v.h.U.U.z.b.Z.v.{ / l.h.} | v.T.U.U.U.U.Z.U.U.z.l.v.H.c.z.U.D.^.R.K.",
"y.<.` Y.U.B.H.l.^ ) c.v.f.l.D.U.h.h.h.v.z.f.] ` z.z.g./ b.c.v.T.v.z.z.v.z.z.l.} ;.v.l.` c.v.b.D.Z.D.U.D.D.l.D.D.v.z.] B.D.R.S.a.",
"y.<.` H.H.Z.Z.Z.^ ^ z.D.l.h.Z.D.b.h.g.l.z.l.{ P h.b.v.h.U.v.v.T.l.h.U.z.h.f.v.l.h.U.c.{ b.h.l.z.z.U.D.v.D.v.D.Z.h.g.} z.D.D.f.t.",
"y.1.` B.Z.B.c.v.U } v.D.B.c.z.l.v.b.l.g.h.v.l.P l.U.D.b.Z.v.v.v.Z.g.D.z.` } v.v.l.Z.z.k.b.z.z.l.l.Z.z.h.z.D.Z.v.] ` z.Z.f.h.[ e.",
"y.1.{ l.c.| Z.l.} g.v.z.Z.Z.v.;.l.D.D.h.g.c.z.} v.D.v.z.B.D.b.c.z.U b.D.h.] l.U.l.l.l.D.D.D.D.l.g.l.h.f.l.v.D.z.{ z.U.B.h.B.M.r.",
"y.1.;.z.z.| z.l.l.l.z.v.v.Z.B.l.l.v.D.v.h.f.h.v.D.z.v.h.D.T.U.h.] } z.z.D.g.g.v.z.z.Z.D.D.U.T.b.z.l.g.g.z.z.z.b.h.v.U.D.B.F.Y.s.",
"y.1.;.v.z.l.} g.U.l.h.z.D.Z.c.z.z.l.v.D.k.f.f.z.D.h.b.] z.T.T.] ` D.D.f.D.l./ h.b.v.D.D.D.D.U.T.D.v.l.l.z.h.z.D.Z.l.Z.U.U.R.~.s.",
"y.1.l.B.l.D.] I z.h.P h.U.z.l.v.D.b.D.b.z.h./ h.Z.g.l.h.l.U.U.] l.T.D.} l.z.] h.U.D.D.v.z.l.Z.T.T.U.U.U.h.} ] D.b.} Z.n.n.R.].s.",
"y.9.c.H.l.b.z.` h.h.U ] z.v.v.U.D.U.b.l.v.v.] g.z.h.g.h.h.z.D.v.z.Z.U.z.} D.z.b.b.D.D.z.h.h.z.U.U.T.T.U.g.} ` l.l.} Z.l.Z.R.R.d.",
"y.a.B.U.v.f.z.l.v.D.h.{ l.B.U.U.D.b.k._ z.z.] h.l.h.z.z.| g.v.T.h.z.U.Z.h.b.T.D.h.v.D.z.z.h.z.D.U.E.U.D.z.z.] { } h.z.v.D./.~.s.",
"y.K.z.l.B.{ ] h.b.T.T.z.z.z.U.H.z.z.z.l.h.z.z.g.z.H.U.U.h.I h.D.} Z.c.n.b.l.D.z.P ` z.z.l.Z.z.h.v.U.c.k.U.v.h.l.h.D.b.b.l././.s.",
"y.a.B.{ h.l.h.} l.D.T.D.z.v.v.v.l.z.D.| ` g.D.l.k.U.Z.U.D.} ] l.} z.c.b.D.b.D.l.I P z.z.l.b.z.h.z.c.^ W D.Z.Z.U.Z.E.U.f.` F.~.s.",
"y.w.h.` | v.l.k.l.z.Z.z.v.n.c.v.h.h.z._ } g.v.U.l.z.z.v.Z.h.z.} h.] z.c.z.T.T.z.g.g.h.D.z.z.l.z.D.U.} ^ l.Z.U.E.D.D.z.I L j.Q.p.",
"p.6.[ ] ] h.;.Z.M.h.z.z.U.H.c.| } h.l._ h.] h.Z.l.l.v.| ] Z.T.h.U.] _ *.z.U.v.l.z.z.] z.D.h.v.v.z.D.v.h.l.Z.v.D.U.h.` ] U D.Q.p.",
"4.+.I l.h.{ ` z.z./ h.D.b.Z.l.^ } v.z.g.] U P h.h.b.T.} P D.E.z.U.B.E E z.Z.] ] U.D.U I | k.v.z.} l.Z.z.z.b.] } Z.} ] l.l.R.!.e.",
"y.6.f.Z.z.h.f.h.z.g.g.z.D.v.f.h.U.D.h.] U P P P ` D.T.z.} Z.D.z.c.U.{ J Z.D.v.;.Z.Z.` L L { z.U.z.} z.D.z.l.} g.l.} l.l.M.W.F. .",
"y.6.B.B.l.n.v.l.l./ h.z.Z.Z.z.c.D.U.D.h.U l.h.P l.U.H.U.D.z.D.h.v.c.^ h.Z.Z.D.Z.z.U } } ^ l.b.T.Z.z.B.D.v.z.g.f.z.z.H.v.h.j.Y 6 ",
"y.6.B.U.U.U.H.U.h.h.v.g.g.z.D.z.l.D.D.h.l.b.v.} } U.n.U.T.h.h.g.Z.x.g.h.Z.B.z.U.l.` } z.h.c.U.v.l.Z.D.z.] z.z.h.l.U.Z.U.D.F.o.7 ",
"i.w.Y.R.D.Z.Z.H.l.v.z.f.` g.v.l.z.Z.v.D.z.l.h.g.L k.D.v.v.l.l.l.h.h.D.D.l.b.Z.D.z.h.h.l.v.v.v.v.l.z.l.{ { h.b.z.l.U.Z.U.R./.S.8 ",
"y.a.W.W.B.Z.z.h.v.U.l.l.] } h.g.l.v.z.D.D.z.Z.} L ^ v.l.l.c.-.b.} P b.l.E c.T.v.z.z.z.Z.U.v.c.z.| h.} ^ } h.b.U.l.k.Z.U.R.R.R. .",
"y.9.H.U.B.U.c.{ z.U.z.l.h.h.h.} h.l.v.b.D.T.U.} / { h.l.v.v.} b.l.P h.l.F -.D.v.D.D.D.T.v.v.v.l.h.| h.| h.l.B.U.| l.H.Y.Z.c.Z.t.",
"i.%.&.&.c.Y.D.Z.l.D.b.l.z.D.l.l.h.l.D.k.l.T.D.] l.z.} Z.b.U.v.z.v._ g.Z.-.} v.v.U.U.U.D.k.v.v.l.h.l.v.b.z.l.H.v.v.v.U.U.-.N @.i.",
"i.<.g u >.n.T.W.Z.Z.D.l.U.U.Z.v.| l.U.z.} g.| g.v.U.^ v.D.U.^.h.D.x.*.T.U.h.l.D.v.m.z.h.} m.v.| k.v.D.T.v.l.U.v.U.^.U.c.N i C i.",
"p.<.t ; @.*.m.W.D.U.m.k.T.m.Z.v.&.&.x.x./ H H -.v.x.T n.D.c.E.-.D.c.B x.W.k.h.D.*.=._ H g.c.x.) -.m.v.U.n.c.T.U.E.E.x.Q i k $.i.",
"y.5.q & x u @.x.=.x.c.@.&.) x.v.Q b Q ) E r d ) *.N c n.v.( *.M -.c.M m n.&.) D.Q B b g ) @.B n =.v.*.&.&.@.n.>.=.=.B r t N ,.s.",
"y...u @ @ ; u i u N B u c t b =.N t u g i : > h b 0 u &.@.9 f 9 c *.b q *.Q g -.b i u 9 g s t i ( ( s t f k @.b u u f b x -.V.a.",
"d.5.w * + 1 t 9 : k s 2 q , u M u 1 , e q : : w 0 < 2 b b : w = 9 N u 2 n b t n t t t 1 w 9 , 9 b b 2 , q 2 x u 2 0 n M M Z.A.s.",
"].,.u : ; 2 u u 0 u u 9 , , t e : : > > : > % 1 : : 4 i f > : : 1 i 0 0 t s , > 0 k a , > 1 > % 9 r t > , 3 u t 0 r ^ E E F.A.s.",
"_.:.t : : 2 y g r i i r t 0 u a q 2 2 > > : : , 1 2 r g g ; + > 0 t t t u s : ; u f d , 1 , 2 2 e a t 2 e r s r t f { W W j.A.s.",
"d.#.t = = 1 2 m f g i f a u r g g y 4 q 2 % ; t 9 t f F g * . q s t e u g g ; % s s a , 9 t 0 i h g t t a e d f k s W J W f.N.s.",
"y.<.w # $ > , m h g i g i u y h h i t u 2 @ * u t y g F d #   e b u t r m M > % r s t : 0 u t f m g u u r 9 a h s i H H E f.O.p.",
"y.1.j = % , 2 f g g g r t 2 r h m s u u 2 o O u u i g F r $ o q f 0 2 t m m q > t f < ; 0 i u g m f 4 2 0 > d m g i m W ) f.5.i.",
"y.y.Z , ; 4 0 r d h d w 2 > t h h s t t < X o 0 t u h F r = O 1 i 2 1 t f m r : e g * O 9 0 u g m f 9 1 9 0 f h g f m ! ! { 2.y.",
"y.y.<.p % 9 9 t a g g t , 1 t g g i 0 ; & X X < 2 u f h r = & : s 2 > t i m a : t f & O = < 0 x g d 0 2 0 i g f x F m @.! ~ 4.y.",
"y.y.4.A y 0 0 t f f c i q > t d f t 1 & % O O : 1 u k h w ; = : h t : q i g u = 2 i < % * * 2 i f r 2 t u a x k p ` T R V D 4.y.",
"y.y.d.u.v c 2 t h s f s q > 4 g f u < & - : % : > 4 i h t > : > m r - w s a 9 $ > i t : = & < i g e > 2 u a t u c } ! G S D 3.3.",
"y.u.).`.:.v 2 2 h f z s t 2 t g b u 1 : 3 > , 4 4 t c T t 4 4 2 H h : q r r , 1 , h g 2 > ; 1 x h w : 2 w r t i v ~ K A 4.3.7 5 ",
"y.y.`.].d.#.l j C v b z k j z C C k 4 y p y y k y j v h y y w w G g 2 4 w i w w 3 T n 4 j t t c v y 3 3 w w y C A S 7 D y.3.5 5 "
};
