/* XPM */
static char *_4a0836de3df4559a742cfd57f5fe5aaQ4LuL7dYOR3jNJ9f[] = {
/* columns rows colors chars-per-pixel */
"64 64 41 1 ",
"  c #E38D23",
". c #E48F2B",
"X c #E5902E",
"o c #E69234",
"O c #E7943A",
"+ c #E8973E",
"@ c #E7993D",
"# c #E99740",
"$ c #EA9944",
"% c #EB9D4B",
"& c #ED9F51",
"* c #EEA154",
"= c #EFA35A",
"- c #EEAD5B",
"; c #F1A65D",
": c #F0AC5D",
"> c #EFB15E",
", c #F1A762",
"< c #F3A965",
"1 c #F5AD6C",
"2 c #F3B367",
"3 c #F2B966",
"4 c #F4B26D",
"5 c #F6AF71",
"6 c #F7B172",
"7 c #F8B475",
"8 c #F6BA75",
"9 c #F8B877",
"0 c #F8B778",
"q c #F7B979",
"w c #F8BC7A",
"e c #F4C272",
"r c #F7C67B",
"t c #F9C27E",
"y c #F9C87E",
"u c #F9C581",
"i c #FACB85",
"p c #FBCF88",
"a c #FBD58C",
"s c #FCD98F",
"d c #FCD990",
/* pixels */
"aasat56555656565665555555555555655idi555556555555556565555555555",
"aaapt56655565556555655566556555555iau555655665665655566566566555",
"wwww765565566556655565qii855556555qwq556555556655565555556565555",
"5155115566655556655565wapq55556655555566666666655565665566665665",
"5555<*;5566655566555quuuu6556556656555556wuruw65656666556qu06665",
"5551*.#1665555565665usi655556665556655667issaiq566661555qiau6665",
"5565;#*1666556666556wiu65555665666660qqqweerit55q81=<1556uiq6556",
"555551555556666566556666555565566556qsadi-O=655qip>o*16666q66555",
"556566555651,15655555555655665556555qapar-o&555qup-#&,>,<5565656",
"55556665565*#*16656655666555665555566qqwq1,15555881<&$$$$<566566",
"57555115561&o&16556566565565565656555515555555656666=#X.o=<15555",
"5555;%=1555;*;5665556555565655556555555555555quiuuq6<=%Oo$%,5555",
"5561*X$56655656665655556655665665666555656555wpsapt666<#XX.*1666",
"7454;%:ww6556556555555555655556555555555555qtuuiiuq556<*%%%,5555",
"5556519apw555665555555556665565565556665556uaiq66866555111155665",
"5555569iu055555655qq85555556665555555555556wiu555555565566655556",
"555555790655556656uaw66655565655555555555566q0655555566655665555",
"55755554555555666wist1<11555566566556655556556665556665555<56666",
"5575555566655557uias3%#$%15555555566556555565555665555551&$=5555",
"5555755555566659isss>O.oO<5556565655556566555565556655561$.*1765",
"5555555555555wuiaait2=$oo%&&&&&&&&&&=65655555555556556555=*<5656",
"5555555555551waasaw655;X.XXooooooXo.%656665565555556555555155565",
"754555555550wuiiiiww96<%%$%OXoXo%$$%=655666556565566655566656655",
"55755557557uau9660iat6511<1%..Xo<1<11666666666555565655556655555",
"55555555757tat7557iat655666&OOO#55655565551111555555166555555566",
"5775755555590665557766665551<><<555565551&o##%166555565566655556",
"5545555555556655651655555555555565665555,$ ..$<65565665555555556",
"555555555555556666666665555556555555557iu4===,555556656656665556",
"575575515555556756665665566556555555550sar1555555556555555656555",
"5555557ww759w4<<16566556565555555555556iiq5565555555555556565655",
"574555wap97ia3o+<66565566555565565555555555555556565655565566555",
"555577wap97ta3@$,55556656656666555555555555555555556555566656666",
"57iaaaiq6656655=@@,56555555usi55666655556556566<$O=5655656565565",
"56iddsi65555557,Oo=55555655usi55555556565555555<$.*5566555556655",
"660wwww555656561,,155555555qqq556665666555556565,,15555556555555",
"6555555556556556666555555655556665565565555666556655555655555555",
"5555555555555565655566565555565555556655555556555556556555555556",
"5766666556655556665555555555555665665565556655555556566555555655",
"5565555555687008555665556555555566655656655565666555565566566555",
"76655555556uaaaiq56556655655555655665565555656555565655556655665",
"5566566565qupaaiq55566556555655665665566565656666665566665566511",
"55655556555qqqqq55555556665556661655666556656qiipiw6555566566<%$",
"555567665555555566655555565566566767666555556qaaaaq6666656556,X.",
"55569tw655556656qtq6555565566656ttttq556555556uuuuq5quq656556<oX",
"5666tdi05555665qapw5655655655666adaai165555655155555uai055556<oX",
"5566wit65555555quiq5556665556655iiipt565566565665565qiu855667<%$",
"565567055555555668665666655566567777655555155555555666065566551<",
"566555555qqqq655555565555655555555615655556556555555555555555566",
"566665557tiiit76555555555656555566555655665555556555655555555555",
"56656767wpsssy41556555565556556q66656555665555155555555655565565",
"55569iytiaaas8**1555565556555quuiuq5555555665<**<655555565665555",
"5556tssaassaa3@$,555565566655qdsdaw5665555666=oO,665566556655656",
"tw76wipasssit2*%&=156655555qwiaaui<*,56555555<**<655586566555555",
"ap9557wassat854;@O,55556655upsdsq6*.*65555565511565655666666q666",
"ii95559iiiiw556<%%,56556555upiiu55*@=65555566666555556555,,,,<55",
"99755579997656611<15655555588qqq56<,<55555556566655555561&@OO&15",
"556655655555556666656556656655555556656666655555566655551%Ooo%15",
"556556565565665565665656666656556655555655555555556555555,,,=<55",
"5555655566665566665155566666665555555555655556555555555555556565",
"656655566156666566wuuu8&&&&&&-55666565666666666656666555556,*=55",
"655555656655555556iaad8oXXX. %55555656655556555555665755567*.$56",
"569975656560w766qwuppp8&%$$$$=555555556555565555651,,,<55<,&$%,,",
"56iat556550tat6wppq8855111511155655555555555555551&ooX%<5$X*<,OX",
"60iat555557uau6wpaq5555555555565656655655555555551&XX.$<5$.=6<oX"
};
