/* XPM */
static char *result[] = {
/* columns rows colors chars-per-pixel */
"64 64 235 2 ",
"   c #000100",
".  c #0C0200",
"X  c #030B00",
"o  c #090B03",
"O  c #040208",
"+  c #080708",
"@  c #090B08",
"#  c #140100",
"$  c #1C0100",
"%  c #180C00",
"&  c #031300",
"*  c #0A1304",
"=  c #021B00",
"-  c #0B1C00",
";  c #1D1400",
":  c #2B0400",
">  c #370400",
",  c #321B00",
"<  c #032300",
"1  c #0D2300",
"2  c #012B00",
"3  c #0D2B00",
"4  c #122400",
"5  c #142B00",
"6  c #182804",
"7  c #023400",
"8  c #0C3200",
"9  c #0B3A00",
"0  c #143400",
"q  c #1A3300",
"w  c #173901",
"e  c #1C3B00",
"r  c #222A00",
"t  c #372D00",
"y  c #223B00",
"u  c #253906",
"i  c #383600",
"p  c #37313A",
"a  c #38343A",
"s  c #3A3B3A",
"d  c #430300",
"f  c #4A1B00",
"g  c #6D0200",
"h  c #680900",
"j  c #730100",
"k  c #7B0200",
"l  c #700D00",
"z  c #6C1A00",
"x  c #751600",
"c  c #432001",
"v  c #6D2700",
"b  c #722401",
"n  c #792901",
"m  c #6C3200",
"M  c #783501",
"N  c #014500",
"B  c #0A4400",
"V  c #014C00",
"C  c #0B4B00",
"Z  c #1C4200",
"A  c #184900",
"S  c #015300",
"D  c #015B00",
"F  c #0E5800",
"G  c #135C00",
"H  c #185B01",
"J  c #244400",
"K  c #274705",
"L  c #2B4500",
"P  c #2A4B00",
"I  c #344905",
"U  c #2A5500",
"Y  c #355701",
"T  c #374B10",
"R  c #046500",
"E  c #146200",
"W  c #1B6800",
"Q  c #1C7005",
"!  c #286800",
"~  c #3B6400",
"^  c #336C00",
"/  c #396A03",
"(  c #277600",
")  c #2A7300",
"_  c #357400",
"`  c #397400",
"'  c #367A00",
"]  c #3B7B00",
"[  c #3E443A",
"{  c #4C4D08",
"}  c #784200",
"|  c #4B6700",
" . c #416C00",
".. c #516D01",
"X. c #427400",
"o. c #437C00",
"O. c #457B07",
"+. c #4B7B00",
"@. c #547500",
"#. c #424E3A",
"$. c #45563A",
"%. c #4E733A",
"&. c #800000",
"*. c #8B1500",
"=. c #BF0B00",
"-. c #8A2C01",
";. c #9D3300",
":. c #993600",
">. c #A32E00",
",. c #A33400",
"<. c #A43A00",
"1. c #A93800",
"2. c #CC0100",
"3. c #C80700",
"4. c #D20000",
"5. c #D20C00",
"6. c #D20009",
"7. c #CB1A01",
"8. c #D21502",
"9. c #CA2902",
"0. c #D12905",
"q. c #CB3602",
"w. c #D0390F",
"e. c #9A4500",
"r. c #A54802",
"t. c #B15001",
"y. c #C94601",
"u. c #CC4B00",
"i. c #D24C00",
"p. c #C75704",
"a. c #CD5200",
"s. c #CB5A01",
"d. c #D15201",
"f. c #D15806",
"g. c #CD4614",
"h. c #D14D1E",
"j. c #C86701",
"k. c #CF691D",
"l. c #3E8200",
"z. c #458400",
"x. c #4B8300",
"c. c #458B00",
"v. c #4B8C00",
"b. c #478309",
"n. c #528400",
"m. c #538D00",
"M. c #598800",
"N. c #4E9200",
"B. c #4A9900",
"V. c #529400",
"C. c #5A9501",
"Z. c #559B00",
"A. c #5B9C01",
"S. c #648300",
"D. c #668A00",
"F. c #659400",
"G. c #6A9500",
"H. c #6D9B00",
"J. c #729800",
"K. c #55A600",
"L. c #5BA200",
"P. c #5EAB01",
"I. c #62A300",
"U. c #63AB00",
"Y. c #69A902",
"T. c #71A000",
"R. c #63B200",
"E. c #6BB400",
"W. c #65BB00",
"Q. c #6EBB00",
"!. c #6DB308",
"~. c #70BA00",
"^. c #71BA08",
"/. c #58833A",
"(. c #72AD3A",
"). c #75B534",
"_. c #76B43A",
"`. c #65C400",
"'. c #6CC200",
"]. c #6CCB00",
"[. c #73C400",
"{. c #7CC705",
"}. c #75CB00",
"|. c #7ACD00",
" X c #75D200",
".X c #7CD200",
"XX c #7ED20C",
"oX c #7AAF4F",
"OX c #B79702",
"+X c #BB9600",
"@X c #BC9D00",
"#X c #BA9D19",
"$X c #BDA101",
"%X c #BEA20E",
"&X c #BFA41A",
"*X c #C09A00",
"=X c #C0A50E",
"-X c #C0A820",
";X c #83C400",
":X c #8AC703",
">X c #83CB00",
",X c #8CCC01",
"<X c #93CC00",
"1X c #98CC09",
"2X c #84D100",
"3X c #8CD200",
"4X c #82D20D",
"5X c #92D201",
"6X c #9AD20A",
"7X c #8FC912",
"8X c #94CB15",
"9X c #96D013",
"0X c #98D115",
"qX c #9AD21A",
"wX c #9DC92C",
"eX c #9FCF32",
"rX c #A6C12A",
"tX c #A3CB2D",
"yX c #A1D12E",
"uX c #A9C73B",
"iX c #AACA3E",
"pX c #B3C93D",
"aX c #A6D330",
"sX c #ADD13D",
"dX c #D0BD5A",
"fX c #AFCC41",
"gX c #B3CE41",
"hX c #AED341",
"jX c #B3D242",
"kX c #CEC85D",
"lX c #D0C55E",
"zX c #CFCE61",
"xX c #D1C760",
"cX c #D1CC62",
"vX c #D1D265",
/* pixels */
"oX)._._._._._._._._._.(.$.p s s s s a [ (._._.(.#.p s s s s s s s s s s s s a #.(._._.(.[ a s s s s p $.(._._._._._._._._._.).oX",
").Q.Q.Q.Q.Q.~.Q.Q.~.Q.Q.Z             = E.~.Q.Q.0                             0 Q.Q.~.E.=             Z Q.Q.~.~.Q.~.Q.Q.~.Q.'.).",
"_.Q.^.^.^.^.^.^.^.^.^.^.K O @ + + @ O 6 !.^.^.!.u O @ + + + + O O + O + + @ O e !.^.^.!.6 O + + + @ O K ^.^.^.^.^.^.^.^.^.^.~._.",
"_.Q.^.^.~.~.~.~.~.~.~.Q.J   *     X   4 E.Q.Q.Q.e   &     X   X   o   X   X O y Q.~.~.E.4   X     X   K Q.~.~.~.~.~.~.~.^.^.~._.",
"_.~.^.~.~.~.~.~.~ L P P z.v.v.v.N.N.N.N.Y P P P z.x.v.v.P.R.P.R.R.R.R.R.L.A.L.Z.U P P Y I.U.U.I.! H H U U P J ~ ~.~.~.~.~.^.Q._.",
"_.Q.^.~.~.~.~.~.J       v.Z.V.V.A.Z.A.Z.1       v.V.N.V.'.Q.'.'.].].'.'.R.P.R.L.X     q Q.Q.~.Y.) ! ! W       y ~.~.~.~.~.^.Q._.",
"_.Q.^.~.~.~.~.~.P   & - N.V.N.V.Z.Z.Z.Z.0     1 v.V.v.V.W.'.W.Q.Q.'.`.Q.P.P.U.L.5     y E.E.Q.U.! W W U & *   P ~.~.~.~.~.^.~._.",
"_.~.^.~.~.~.~.Q.J   X & v.N.B.V.Z.Z.Z.Z.e   * 4 v.V.v.V.W.Q.Q.`.'.Q.'.Q.U.U.P.L.4     y E.E.Q.Y.! ! ! ! & *   P Q.~.~.~.~.^.Q._.",
"_.Q.^.~.~ y P J C S V S H H H ! '.}.].].[.[.[.[.U 0 w U }..X|.}.' Q ( ( J A K J X     q C.A.A.J.p.p.s.t.m.v.v.z.P L y ~ ~.^.Q._.",
"_.~.^.~.J     O S D D S S S V F ]. X X X.X2X2X|.J     w }..X.X}.W D R D &         &   q C.C.C.D.a.d.d.s.Z.B.V.v.      P ~.^.Q._.",
"_.Q.^.~.P   & X V S S V S S V F ]. X X X|.2X.X|.J   X w }.|..X|.! D R D < = = =       5 C.C.C.G.a.i.i.s.V.V.V.v.& X   P ~.^.Q._.",
"_.Q.^.~.P   - * H H H H F G F H ]. X}.[..X|.|.|.P < 1 J {..X|.}.( R R E 5 3 3 3 - - & y M.F.C.J.a.d.i.p.V.N.V.v.* -   P Q.^.Q._.",
"$.Z K J c.v.v.v.uXfXuXuX8X:X7X1Xj.y.u.p.O.l.' l.;X:X:X;X' ) ) _ [.>X|.;X;X{.{.;X[.[.].[.j.p.p.p.1.<.1.r.v.x.v.v.c.N.v.z.J K w $.",
"p   O   v.Z.V.Z.uXjXjXjXqX6X6X1Xy.4.4.2.| R E ! ,X5X5X<XU N N H >X3X3X2X3X3X3X3X X X X:Xd.i.i.u.,.,.,.e.x.z.z.x.V.V.V.N.  O   a ",
"s   @ & v.N.N.V.uXjXgXjXqX6X1X6Xu.4.8.7.| R W ) :X3X5X,X! V S H >X2X3X3X3X2X3X2X X.X X>Xd.i.d.u.,.,.>.e.z.z.z.c.V.V.V.v.  O   s ",
"s   +   v.Z.N.Z.uXjXjXpXqX1X1X1Xu.6.3.8.| Q ^ ' ,X6X5X,X! S V ! |.,X>X2X,X,X3X,X.X|. X;Xj.h.f.f.<.<.1.e.n.n.n.x.N.B.N.x.4 6 X [ ",
"s   O o ~.|.|.|.9X9X9X9Xj.y.u.u.*.k k -.uXfXfXfXfXsXsXiXT & 2 8 ' ' ( @.j.j.j.j.j.j.j.k.lXxXlXlX@XOX@X+Xp.p.s.t.y q 4 U E.!.E.(.",
"s   O X [.2X2X2X5X5X5X<Xu.4.6.2.k h g n fXfXfXfXjXjXjXfXT   - < R E R  .i.i.i.i.i.i.q.k.vXvXvXzX%X$X$X*Xd.i.d.y.#     P ~.^.~._.",
"s   O X [.2X.X|.5X5X5X5Xu.6.6.6.&.g j b fXjXfXjXjXjXjXjXI   & < E W R / u.i.d.i.d.d.i.k.zXvXvXzX%X@X$X*Xa.i.a.y.. &   P Q.^.Q._.",
"s   O o [.2X>X>X<X<X<X1Xp.8.w.0.-.z x M uXjXjXfXfXfXjXhXT < 0 w ! ) Q | s.f.f.s.i.d.u.k.xXvXvXxX%X@X@X*Xd.a.d.y.: ; $ I Q.^.Q._.",
"s   + . y.y.y.y.y.y.u.u.dXcXxXxX&XOXOXOXh.g.g.g.{ T { T [.}.[.{.7X8X7X8XtXtXtXrXr.,.1.r.&X-X-X&X$X@X$XOX1.1.<.<.;.;.;.e.x.b.z./.",
"s   @ o 3.4.4.4.4.4.4.6.xXvXvXvX-X$X*X*X0.2.4.2.> O O 2 }..X X.X0X0X0X0XyXyXyXtXr.,.,.r.@X@X@X@X$X$X$X+X<.,.,.,.,.,.>.e.X.O.o.%.",
"a   O   3.5.5.5.5.8.6.0.xXvXvXcX-X@X$X@Xq.4.5.8., < & Z }..X.X.X9X0X0X0XeXyXeXtXr.>.>.r.@X$X$X$X$X@X$X@X<.,.,.,.,.,.>.e.o.b.o./.",
"[ < 6 5 =.2.2.2.2.2.2.7.lXvXzXzX-X@X$X*Xq.2.2.3.f < $ y [.|.}..X9X0X0XqXyXyXyXeXr.:.r.r.@X*X@X$X@X@X@XOX<.;.,.;.;.;.;.e.o.O.o.%.",
"(.E.!.E.{ > d d j k k *.#X&X&X&X@X@X$X@X-.k k k g g g h L K Z Y 8XqX8XqXsXsXsXiX!.I.L.T.j.f.f.s.r.r.r.:., > > , I I I L 4 6 & [ ",
"_.~.^.Q.P   & X g g g z OX$X@X$X@X$X$X@XM g l h j j j g # X   y 8X0XqXqXhXsXsXiXP.K.K.Y.d.i.i.y.>.>.,.;.      = V V V N   O   a ",
"_.Q.^.~.L       g j g x OX$X$X$X$X$X$X@XM j j j j j j g ; <   L 8XqX0XqXsXsXsXiXU.P.K.Y.a.d.d.a.,.,.,.;.#     & N C C N   +   s ",
"(.Q.!.Q.Y 6 y y h j g l OX*X*X@X@X@X@XOXM z v b g j j h r 8 < K 8XqX0XqXsXsXhXaXP.K.K.T.a.i.u.u.,.;.;.:.6 1 4 3 C V V C   +   s ",
"#.8 q y ;X:X:X:XY # ; : 9.9.9.0.n M n M M.V.V.m.u % ; r v.V.N.V.:X3X3X3XXXXXXX}.J 5 7 t ,.1.,.;.> : : i v.v.N.c._ _ ' ^   +   s ",
"p   O   ;X5X5X3XY   & $ 3.4.4.2.k g j z V.Z.Z.V.9 & = 7 N.Z.V.A.3X3X3X,X X X X].5     > ;.,.,.;.o X   9 N.N.N.c.] ' ] _ X +   s ",
"s   @ & ;X5X,X3XI   X $ 3.4.4.5.k j j x m.Z.N.N.0 X X 3 v.V.N.Z.,X3X3X3X.X X.X{.5     > ,.,.,.;.$     q N.N.N.N.] _ ] ^   +   s ",
"s   O o ;X3X,X3XY   = ; =.2.2.2.n v b m C.A.A.A.Z < < w Z.Z.Z.L.<X<X<X<X}.}.}.'.P q 9 i ;.;.;.:.r 3 4 Z c.v.v.v._ ' ' _   +   s ",
"s   +   L.W.R.R.) R E W b k k x C.A.A.A.wXaXtXwXO.) ) ' [.|.|.|.p.0.q.q.I 9 q P [.}.}.'.t : : i N.V.Z.N.5 1 4 0 E E E G   +   s ",
"s   + X K.P.P.P.) E W W v j j z A.P.L.U.tXaXaXtXb.) ' ] |..X.X:Xq.4.4.2.>     J  X X X}.2     0 Z.Z.K.V.X     = E E E G   +   s ",
"s   +   K.U.P.P.) W W W z j g l F.L.L.L.eXaXaXaXb.( _ ' }..X X>Xq.4.8.3.> &   J }. X.X].4     q Z.Z.Z.V.X     < E R E G   +   s ",
"s   +   K.P.P.P.( E W E m b b v L.P.L.L.wXtXwXwXO.) ) ' XX4X4X4Xq.4.5.2.> o $ L ].}.}.'.J 5 5 J Z.Z.A.V.1 < - 3 G G E F   +   s ",
"s   +   l.B.c.B.E S D S X.+.o.x.}.|.|.|.Y u K u 3 3 = K uXiXsXpXw.2.5.2.k h g m K.Z.K.K.I.I.I.I.L.L.L.Z.' _ _ _ = & & &   +   s ",
"s   @ X l.c.c.c.H S S D ] z.o.z.}..X.X|.P   & & & = O u fXgXjXpXw.6.8.3.k l j m Z.B.V.Z.U.I.U.U.L.L.L.A.' ' ' )           @   s ",
"p   O   l.B.B.c.E S S D ] o.o.z.|.2X.X|.K   X   = < O K uXgXfXfXq.4.2.2.k g j v B.B.B.B.U.U.U.I.L.L.L.A.' ' ' _ X       O O   s ",
"#.9 u y l.l.l.l.H V S F o.x.z.x.[.}.}.[.Y L P L < - + u uXgXfXuXh.w.h.g.-.M n } F.H.F.F.H.I.I.I.Z.Z.A.V.' _ ' )         - 1   [ ",
"_.Q.^.Q.P   1 - 7 7 7 9 F.T.H.H.P 0 0 L :X<X,X,XL   < , q.w.0.h.cXvXcXxX#X@X@X+Xq.7.0.9.b b b v A C A C C C C B       1 ^ / U %.",
"_.Q.^.~.P   X   7 7 7 9 F.T.T.H.y     5 :X5X5X<XI   = , 2.4.6.w.cXvXvXvX=X$X$X@X8.4.4.2.j j j h B N N N C B C B X X   5 ^ / ! %.",
"_.Q.^.~.P       2 7 7 7 F.T.T.H.y X X 0 :X5X5X,XZ   < , 5.5.4.w.zXvXvXcX&X@X$X@X0.4.4.2.j j j z B N N N C C C B       1 / / ! %.",
"(.E.!.Y.P = 5 5 Z Z A Z F.G.G.F.L 3 3 J :X5X5X,X{ d c f 3.3.3.w.lXvXzXkX%X@X$XOX7.3.3.3.g g g l A A A A B B B B 4 4 - q ! ! ! $.",
"[ = 6 4 o.c.z.z.m.m.m.m.J 1 5 0 X.o.o.o.'.].].[.y.4.5.2.&.j j n #X%X%X%X$X@X$XOXb j j j $ . # 6 ....@.| & X   5 X.X.X./ @ * O s ",
"a   O   l.c.z.c.N.m.V.V.w   = = X.+.o.+.`.].`.].i.4.5.2.k g j n OX@X@X@X@X$X$XOXb j g g .     6 ..@.@.| o     5 X.X.+.X.O O   s ",
"s   @ o z.c.c.z.V.C.C.m.w   & = X.+.o.z.`.].].[.q.4.4.2.k j j n @X$X$X@X$X$X*X@Xb j k g # X   6 @........     5 X.X.X./   +   s ",
"s   +   ] c.z.z.m.m.v.m.L q q y +.x.+.x.W.`.`.'.t.7.9.9.l g g n OX*X*X*XOXOX@XOXz g g g #     4 | ..| | = = X 5  . .X./   +   s ",
"s   +   / ` ` ` ` ` _ ` @.S.S.S.G.G.G.F.J < 3 0 o.+.x.+.6 #   > 7.8.8.7.x z x z $ . # .         o o o - V V S V & X & X   +   s ",
"s   +   ^ ` ` ` ` _ ` ` S.D.S.D.G.G.H.F.y   & < ] z.z.] 1   X > 2.4.4.4.k g j g #                     = S V S V         o *   s ",
"s   +   ^ ` ` ` ` ` ^ ` @.D.S.S.G.G.G.F.y & = 3 o.z.z.o.*     d 2.4.4.4.k j j g #                     = S S V V           O   p ",
"s   +   ^ ` _ ^ ^ ^ ^ ^ D.D.@.S.F.G.G.F.q X = 3 o.z.z.o.y q 2 t 9.q.q.1.k j j g . X X X               = V V S N       - J K Z $.",
"s   + O G E E E <   X * |  . . .n.n.M.n.0 & = 3 C.A.C.C.n.x.n.+.m.M.m.n.b g j h 5 2 2 2               & N V V N   X   P ~.^.Q.(.",
"s   * X F E G E 1   X & | | ~  .n.n.n.x.0 & = 3 C.A.A.C.M.+.n.+.v.v.v.n.z j j g 5 2 2 2               & N N V N & *   P ~.^.~._.",
"p   O   F E E G X        . . . .n.n.n.n.q X X 3 C.A.A.A.n.n.n.n.m.m.m.M.z j j g 5 2 2 2               & N N V 7       J ~.^.~._.",
"$.Z K P H F G F P L P L ~ ~ ~ ~ n.n.n.n.w < 2 0 x.C.m.m.+.+.+.+.x.x.x.+.v g g h 4 2 2 <         = = & < N N N B L P J ~ ~.^.~._.",
"_.Q.^.~.P   X & U.~.~.Q.L   o * +.M.n.n.H D D D < . X o X X   & V S V V *     .               & V V V N X X   P Q.~.~.~.~.^.Q.(.",
"_.Q.^.~.P   * - E.~.~.~.J   & - +.M.n.n.H D D D =   X X X X o & V V V V & o X X X X X o X & o - V V V N X *   P ~.~.~.~.~.^.~._.",
"_.Q.^.~.L       Y.~.~.Q.y       +.M.M.M.E D D D                 V V V V                         V V V N       y ~.~.~.~.~.^.~._.",
"_.Q.^.~.~ J P P E.~.~.Q.~ L P P +.+.+.x.G S S S P P P P P P P P N V V N P P P P P P P U P P P P N N V B P P J ~ ~.~.~.~.~.^.~._.",
"_.~.^.~.~.~.~.~.~.~.~.~.Q.Q.~.Q.y   X     X   5 E.~.Q.~.~.~.~.Q.q   O e Q.~.~.~.~.~.~.~.~.~.~.U.-     J Q.Q.~.~.Q.~.~.~.~.^.Q._.",
"_.Q.^.^.^.^.^.^.^.^.^.^.^.^.^.^.K O @ + + @ O 6 !.^.^.^.^.^.^.!.q O O e !.^.^.^.^.^.^.^.^.^.^.!.6 + O K ^.^.^.^.^.^.^.^.^.^.^._.",
").'.Q.Q.~.Q.Q.~.Q.Q.~.Q.Q.~.Q.Q.w             = E.~.Q.Q.Q.~.~.E.2 O   3 Q.~.Q.Q.~.Q.Q.Q.~.Q.Q.E.X   O w Q.Q.~.Q.Q.~.Q.~.Q.Q.Q.).",
"oX).oX_._._._._._._._._._._._.(.$.a s s s s s [ (._._._._._._.(.#.a a #.(._._._._._._._._._._.(.[ s a $._._._._._._._._._._.).oX"
};
