/* XPM */
static char *result[] = {
/* columns rows colors chars-per-pixel */
"64 64 181 2 ",
"   c black",
".  c #01010C",
"X  c #050B0E",
"o  c #0A0E0E",
"O  c #001400",
"+  c #051D00",
"@  c #06120F",
"#  c #0B130F",
"$  c #0F1A0F",
"%  c #14160D",
"&  c #141C0E",
"*  c #0D1710",
"=  c #0F1810",
"-  c #121B11",
";  c #0B2100",
":  c #102500",
">  c #1A220F",
",  c #1D3200",
"<  c #162211",
"1  c #1A2511",
"2  c #1E2B13",
"3  c #1F2A18",
"4  c #223500",
"5  c #233800",
"6  c #212E13",
"7  c #222E18",
"8  c #253314",
"9  c #283715",
"0  c #2B3C16",
"q  c #243119",
"w  c #2C3D19",
"e  c #303F1B",
"r  c #2C4300",
"t  c #374F02",
"y  c #3B5405",
"u  c #2F4017",
"i  c #2E4119",
"p  c #314217",
"a  c #32441A",
"s  c #39461D",
"d  c #364A1C",
"f  c #394D1D",
"g  c #3D531D",
"h  c #324620",
"j  c #364B22",
"k  c #3A4E22",
"l  c #3D5523",
"z  c #3F5825",
"x  c #40561D",
"c  c #435A1E",
"v  c #577118",
"b  c #5D771C",
"n  c #5E791C",
"m  c #414E25",
"M  c #425324",
"N  c #425B24",
"B  c #495E25",
"V  c #465628",
"C  c #4E5E29",
"Z  c #456125",
"A  c #4A6425",
"S  c #4C6A26",
"D  c #45622A",
"F  c #4A6529",
"G  c #4D6A2B",
"H  c #526D24",
"J  c #53642B",
"K  c #526D2C",
"L  c #5B6B2C",
"P  c #577325",
"I  c #597526",
"U  c #53732C",
"Y  c #59752C",
"T  c #57792E",
"R  c #5B7B2D",
"E  c #496B30",
"W  c #536D30",
"Q  c #5C7533",
"!  c #5C7B32",
"~  c #62762E",
"^  c #61792B",
"/  c #647633",
"(  c #637C35",
")  c #687D34",
"_  c #617E39",
"`  c #6E7C39",
"'  c #414441",
"]  c #454B42",
"[  c #4B5343",
"{  c #4F5A43",
"}  c #566445",
"|  c #677948",
" . c #6B7E49",
".. c #5E812F",
"X. c #5E8132",
"o. c #60822F",
"O. c #638434",
"+. c #6A8335",
"@. c #658A34",
"#. c #698C35",
"$. c #658239",
"%. c #69843A",
"&. c #668D38",
"*. c #6B8B3A",
"=. c #75823D",
"-. c #78843E",
";. c #718E3D",
":. c #679037",
">. c #6C9434",
",. c #6F9834",
"<. c #679139",
"1. c #6C933C",
"2. c #6E993C",
"3. c #739537",
"4. c #729C35",
"5. c #72943D",
"6. c #7A943C",
"7. c #739C3C",
"8. c #7B9C3C",
"9. c #75A137",
"0. c #7DA435",
"q. c #76A23B",
"w. c #7BA43D",
"e. c #7DAA3E",
"r. c #719540",
"t. c #749A40",
"y. c #799F42",
"u. c #77A140",
"i. c #7AA442",
"p. c #7DAC41",
"a. c #7EB042",
"s. c #809B3E",
"d. c #81A92E",
"f. c #8BB82A",
"g. c #80A736",
"h. c #82AA37",
"j. c #85A13F",
"k. c #84AC3B",
"l. c #86B031",
"z. c #8BB734",
"x. c #8DB935",
"c. c #87B039",
"v. c #8CB63B",
"b. c #8EB93C",
"n. c #90BB3D",
"m. c #829D40",
"M. c #86A340",
"N. c #89A541",
"B. c #82AC41",
"V. c #85B443",
"C. c #8AB545",
"Z. c #86BB45",
"A. c #8ABB45",
"S. c #8DB24E",
"D. c #8DBE49",
"F. c #90BF4A",
"G. c #85A650",
"H. c #89AC51",
"J. c #8DB152",
"K. c #8FAD61",
"L. c #8DC147",
"P. c #8EC349",
"I. c #8FC84A",
"U. c #91C547",
"Y. c #91C44A",
"T. c #94CB4B",
"R. c #98CE4B",
"E. c #96D24E",
"W. c #9CD44D",
"Q. c #9FD94F",
"!. c #9BD650",
"~. c #9CDB51",
"^. c #A1DA4F",
"/. c #A3DD51",
"(. c #A6E152",
"). c #A9E554",
"_. c #ADEB56",
"`. c #AFEF58",
"'. c #B0EF57",
"]. c #B1F057",
"[. c #B2F158",
/* pixels */
"v.v.v.v.v.v.v.b.v.x.b.h.1 1 2 2 1 2 @ g n.b.b.h.2 2 2 8 2 6 2 2 2 2 2 2 2 6 @ z v.v.b.h.2 2 2 2 6 6 = g v.v.v.v.v.v.v.v.v.b.x.H.",
"v.v.v.v.v.v.v.v.v.v.b.h.2 2 2 2 1 2 @ g b.v.b.e.2 6 2 2 6 2 6 6 2 6 2 2 2 q ; c v.v.v.h.6 2 6 6 6 8 = c v.v.v.v.v.v.v.v.v.v.x.J.",
"v.v.v.v.v.v.v.v.v.v.b.h.< < < < < 1 . g v.b.b.h.1 1 2 1 1 1 1 1 < < < < < 2 . l b.x.x.e.< < 1 1 2 2 # c b.x.v.b.v.v.x.v.v.v.z.J.",
"v.b.v.v.v.v.v.v.c.c.c.g.9 0 0 9 0 u 6 c c.c.z.9.0 0 0 u a a i i a a a a i i 8 Z c.c.v.0.a a a i 9 9 2 c c.c.c.c.v.v.v.v.b.b.z.J.",
"v.x.v.v.v.v.b.h.i i u g ,.,.,.,.4.4.9.>.u 0 9 g >.,.>.4.V.V.c.V.V.v.Z.c.e.e.e.,.i i 9 B B.k.V.j.U Y I U e p 9 A v.v.v.v.c.v.z.H.",
"v.v.v.v.v.v.b.h.< 1 O d 4.4.4.4.9.9.q.,.< 2 # d 4.4.4.9.C.C.Z.Z.A.A.Z.C.e.e.c.9.< 1 . l C.C.C.k.R R R P > 6 X g v.v.v.v.b.b.x.J.",
"v.v.v.v.v.x.b.h.1 2 < d 4.4.4.4.9.9.9.>.$ < . a ,.4.4.4.v.V.Z.b.Z.A.C.Z.e.e.a.9.2 8 % x C.v.C.k.I R Y H 1 6 o x v.v.b.b.v.v.x.H.",
"v.v.v.v.c.c.c.0.q 9 2 g ,.,.,.4.e.9.q.,.d d i N >.>.>.4.Z.A.C.C.v.C.Z.c.e.w.e.7.2 2 = g C.V.C.B.R ^ o.Y 0 a 8 c c.c.k.c.v.b.x.J.",
"v.v.b.h.p p i f S S S S U U S ..Y.D.P.P.U.U.T.Z.N Z z Q T.Y.T.D.T T X.U N D D z 8 9 2 g 8.7.8.w.C.C.C.B.,.,.4.@.e p 9 B v.v.z.J.",
"v.v.b.h.8 8 2 i U U H H S S S ..P.I.Y.U.R.R.R.L.z z l T T.T.R.L.U U T G z z N l 9 9 6 g 8.7.7.8.C.C.C.C.4.4.4.>.> 2 # g v.v.z.J.",
"v.v.b.h.8 8 6 u S S S Z Z Z Z ..U.U.I.I.R.R.R.D.l z j W T.T.E.L.U S U G z l l f > 6 & f y.8.8.w.C.D.C.C.4.,.4.>.2 2 # x b.b.z.J.",
"c.c.z.0.p i i y ..............X.D.A.A.L.U.Y.T.A.G G F ! Y.Y.Y.Z.X.X.X.X.S S G S g g f N 3.3.3.8.C.C.C.v.9.9.9.>.0 p 9 c c.c.l.H.",
"u 0 9 g ,.,.,.e._._._._.~.^.(.E.D F Z G R o.R >.Q.W.Q.T.Y Y H @.E.E.W.R.R.W.R.E.I.I.I.Z.i i 9 c C.C.B.C.D.D.F.A.,.,.,.#.0 w 5 [ ",
"1 2 $ d 4.9.,.e.].]._._.~.~.).R.l z z N R R U #././.(.T.S S A ..E.E.W.W.W.W.Q.W.T.I.I.L.8 8 2 N C.C.C.C.Y.F.F.A.4.,.9.>.1 6 + ] ",
"2 8 < d ,.4.,.0.]._.]._.(.(.(.W.l l g z Y R U #./.^./.T.H U S O.W.W.W.W.Q.W.Q.W.I.I.E.Z.2 6 $ g C.C.C.C.F.F.Y.A.9.,.4.>.- 3 O ] ",
"2 6 < f 9.9.9.l._.].]._.Q.Q.^.T.G U G Y @.@.O.4./.^./.E.S H A ..R.R.R.T.R.R.R.T.I.T.I.L.f g d A B.B.B.B.D.D.D.v.,.,.,.@.d d r { ",
"2 8 o c T.U.R.R././.(.W.@.@...9.).).(.)._._._._.`._.'.(.N N N D ......R p d 9 S E.E.E.E.F.F.Y.V.w p w c 4.2.q.<.9 u 2 c v.c.l.S.",
"6 6 o Z R.R.R.R.^.^./.R.....T ,._._._._.`.`.].].`.`.[.^.N N z Z T P R U 8 9 & A E.!.E.E.F.F.T.C.6 6 > f 2.2.2.<.1 1 * g b.b.z.J.",
"2 6 @ Z U.R.U.R.^./.(.W.....I ,.)._.).).`._.].].[.[.[.(.l z l N P T R H 1 2 . Z !.!.!.!.Y.Y.Y.C.8 9 6 f 2.2.9.:.2 8 $ g v.v.z.J.",
"2 8 o Z R.R.R.R.W.W.Q.R.@.>.@.9._.)._._.].].]._.).).`.~.A G G G @...@...c c g T I.I.I.T.F.F.Y.V.9 0 9 g :.:.2.X.2 8 $ g v.v.z.J.",
"2 8 . S ).).).^.@.>.o.7.(.(.(.).'.'.`.`._._.`.^.F F Z ! U.U.U.T.~./././.(.(.).E.h d i Z B.p.B.w.A F E Z u u p u 2 6 $ c v.v.z.J.",
"6 9 . H ).).).^.@.o...7.).).).).`.`.'.]._.).`.Q.l z j U R.T.U.R.(.(.(.(.)._._.~.3 q < l B.p.B.8.E F D Z 2 2 2 9 2 8 $ g v.v.z.J.",
"< 1   S )._._.^.@.@.X.7.).).(.).'.].[.[.`.`.[.^.l l d U T.T.T.E.(.(./.(.).).).W.2 8 < g B.p.V.q.F S S Z 9 9 9 2 2 2 X g b.v.x.J.",
"d f 0 b ^.^.^.W.o.@.O.7.).).).).).).).(.(.(.(.Q.U U U o.L.L.L.Y.(./.(.(.).)._.Q.d f p Z u.w.w.9.Z Z S N 2 9 9 9 0 i 8 Z c.c.l.H.",
"z.c.v.h.u i 0 g R ..R ,.`.).`./.A A A F F F z X.`.).`.^.Z D z X.(./.(.(._._.[.).q.p.p.2.i i u a N N B x 8 9 8 d &.@.&.X.w w , [ ",
"v.v.b.h.2 2 < i R ..Y >.).).`.~.l M z z z z j ..`.`.].^.z N j R (.(.(.(._._.`.).p.e.p.q.8 8 2 u V M B l 8 8 8 d &.&.*.X.1 3 + ' ",
"b.b.b.h.- - o 0 R ..R 2._._.`.(.j l l l l z d R '.'.[.(.l z h R (.(.(.(.`.`.`.).a.a.a.q.1 2 2 9 B M N z 8 2 < d &.&.&.X.2 q ; ] ",
"h.h.c.0.g M x V R R Y #.(.(.(.W.U U U K K U A @.).).).W.G K G +./.(./.(.).)._.(.u.q.q.,.g f f f c M z g d d i l &.&.&.X.2 7 ; ] ",
"p p 6 S W.W.^.Y.N N N N D F z X.(.(.^.^.W.W.^.U.Z A N ! E.E.R.W.Q.Q.Q.Q.I.T.T.Z.0 0 8 B C.C.C.e.9 9 6 g 2.2.r.2.O.O.O.! 2 q ; ' ",
"8 9 % A ^.^.^.T.z N z N z N j T (.(.).(.W.^.^.U.l l j T ^.W.R.^.Q.Q.Q.Q.I.Y.R.Z.8 9 > B C.C.A.B.8 9 6 f r.t.t.2.O.X.&.! 2 7 ; ] ",
"9 9 & S ^.^./.T.z z z z l z h T (.(.(.(.W.W.W.U.N N l T R.^.R.R.Q.Q.Q.W.T.Y.R.Z.2 6 o x C.S.A.j.2 6 > f t.t.t.r.O.&.&.! 2 7 ; ] ",
"8 9 & S W.W.^.Y.N N N D K K E @.(.(.(.(.^.W.^.T.N Z l R W.R.R.^.Q.Q.^.W.L.L.L.c.g g g K N.C.V.j.d d d N 1.1.1.<.$.X.O.! 2 q ; ] ",
"8 9 1 z a.a.a.p.I R U @.E.T.T.E.(././.(.).).)./.....! :.T.T.T.T.^.^./.R.w i 8 A I.I.I.Z.W Q ~ ~ 8.u.u.2.9 0 9 d Y W ! K 2 7 ; ] ",
"8 9 1 z a.a.a.i.R R I @.E.E.E.W.(.(.(./._.)._./.o.O...>.T.T.T.R./././.T.6 9 & Z T.T.T.P.L L L ~ u.u.u.2.8 q 8 a T Q Y K 6 7 ; ] ",
"9 9 1 z p.p.a.p.T R Y @.E.E.R.E./.(./.(._._.`./.o.@.^ >.T.U.U.R./././.R.9 9 > Z I.I.T.Z.L ~ L ~ u.u.i.2.8 8 2 i Q T Q K 2 7 ; ] ",
"8 9 3 z p.p.a.i.T T U @.T.T.R.E./././././././.!.R ..R >.R.R.R.E././.(.R.8 9 > A T.I.E.L.~ ~ ~ ^ u.w.u.2.i d i j K U U F 2 7 ; ] ",
"8 9 6 f 2.<.2.<.H K K ( F.C.A.D.R.T.R.D.Z Z D D N N j X.`.`.`._.`._.[.(.8 9 & S ~.!.~.E.M.B.B.B.i.u.i.u.O.X.&.! 6 6 8 6 2 7 ; ] ",
"9 9 8 f 1.1.<.<.K U K R C.C.C.F.T.T.R.D.z z z z z N j X.`.`._.`._.`.[.^.8 9 > S ~.~.~.E.p.i.B.B.i.i.i.u.&.O.X.! 2 2 2 2 6 7 ; ] ",
"2 6 & d 2.2.2.:.K K K ( F.F.A.D.R.T.!.D.j l l l z N j X.[.[.`.[.[.`.[.(.> 2   A ~.~.~.!.B.B.B.B.i.i.i.u.X.$.&.X.2 2 6 2 1 3 O ] ",
"g g f B &.<.<.@.K K S R C.C.C.A.P.P.P.Z.T U U U z Z j X.).).).).(.(.).W.g c f T E.T.E.U.w.y.i.w.i.u.i.y.$.X.X.! 2 2 2 8 w w 4 [ ",
"c.x.v.h.6 6 6 w Z F B K M.M.N.s.N N l ! ~.^./.T.z N l G B.p.B.9.0 p 8 A L.L.U.V.9 w 0 d J J A K *.*.*.O.L L L J 2 6 1 a ^ I b  .",
"v.v.b.h.6 6 2 9 Z D N K m.M.j.6.z N k T /.^.^.E.z z l E e.e.k.7.6 8 & c U.L.U.Z.8 8 6 0 F A A K O.#.*.%.J J J J 2 q 1 a ^ ^ b  .",
"v.b.b.h.< 1 > 8 N C B K N.M.N.s.z z j R ^.^.(.R.z N l K i.e.B.7.9 9 > A I.L.I.a.6 8 6 0 A J A J *.#.*.O.L J L J 1 1 - w ^ ^ n  .",
"h.h.c.0.i a i f G G F Q s.s.s.6.D F N ! ^.^.^.T.z N l S e.p.e.7.9 9 > Z P.I.I.V.p a s d B C B H *.%.*.%.J J J C i a w j ^ Y v | ",
"8 8 3 j r.r.X.r.r.7.t.*.N N N A #.+.+.#.L.L.P.a.z N l G B.k.c.8.6 9 > Z L.D.P.S.) ) +.~ 9 9 6 s ` ` %./ 9 9 6 s _ | ` _ 2 7 : ] ",
"1 2 < h r.&.r.r.t.r.t.1.z N N Z +.#.+.1.Z.A.P.a.z N l G B.j.B.8.9 9 1 c D.D.D.C.) +.+./ 8 9 6 s ` ` ` / 8 9 6 d %.Q r.Q 2 6 + ] ",
"6 7 < j <.r.&.r.t.t.t.r.z z l N +.#.O.3.L.I.I.a.z N l K B.j.c.8.6 9 & c P.P.P.Z.+.) +.~ 8 9 6 s ` ` =.) 6 8 6 j %.%.%._ 6 7 : ] ",
"2 6 - h &.<.&.&.r.r.r.*.C F C K *.*.#.2.a.a.a.a.Z Z N K 8.w.8.,.u u 9 Z C.Z.S.V.) +.+.~ 8 9 6 s / ` ` / e e 9 j _ Q ( Q 6 7 ; ] ",
"6 6 1 i _ O._ $.O._ $.$.r.` m.-.m.s.m.6.N N z F *.O.*.O.9 9 9 p G S G K ( ! Q ( -.` ` ` 8 8 8 w m m m V J E W F 6 7 6 6 2 7 ; ] ",
"2 6 1 h O.O.O.( $.( ! $.r.s.-.m.m.m.m.6.z N z F @.*.*.X.8 9 8 e H G S K Y Q Y / -. .m.` 8 8 8 9 m V m V W W W F 2 6 2 2 6 q : ] ",
"2 7 1 i O.( O.O.$.$.X.%.s.-.-.s.m.m.m.6.z N z D *.#.#.X.6 6 6 0 S S A S ! / Q ( -.` -.` 8 8 8 w V m V V W E G E 2 2 6 2 - -   ' ",
"2 6 1 i O.( ( o.Q ! ! ( ` m.` -.m.s.m.6.z N z D *.#.1.O.s d s k U U U Y K Y L Y ` -.` ` 8 9 8 9 m m m m K K E D 6 2 3 8 g M t } ",
"6 6 2 0 P P I H 6 6 1 a ` ` ` / ;.;.;.*.z N z G y.y.y.y.*.;.*.;.r.1.r.$.8 9 7 d ` _ ( Q 8 8 9 9 8 8 8 w G F S N 2 8 = x b.v.c.J.",
"6 8 2 u P P I H 6 8 1 e / / _ ` ;.;.;.%.z N l G y.y.y.t.%.;.;.*.r.r.r.&.8 8 6 d ` _ _ Q 9 8 8 8 9 8 8 i F F E Z 6 8 & c b.v.z.J.",
"= $ X 9 I I I H - - X 0 ` ) / _ ;.;.r.%.z z l F u.i.i.y.r.;.;.;.r.r.r.*.8 9 7 h r.! | Q 8 8 9 8 7 8 6 w E D E Z = - . g c.b.z.J.",
"g z g c H H H H g x g M Q Q / ( ;.*.=.r.N N N G 5.5.r.;.` $.$.%.r.&.r.$.8 9 6 e W Q ! W 8 8 8 8 e i 0 a Z Z D N x x f H v.b.z.J.",
"v.v.b.h.2 8 $ x v.v.b.h.6 6 < j ;.;.;.*.Y K W S 2 2 6 2 6 6 1 w D J W D 6 6 6 6 2 2 6 2 2 2 2 w E E E D 2 8 $ x v.v.v.v.v.b.z.H.",
"v.v.b.h.2 8 & x v.v.b.h.6 6 1 s ;.;.r.=.U K Y G 6 8 6 6 6 6 2 w J E F F 7 7 6 6 8 6 6 8 6 8 1 w E E E D 2 8 & x v.v.v.v.x.b.x.J.",
"v.v.b.h.= - . g v.v.b.g.= - . a ;.;.r.*.U U U S - $ - - - - o 8 E W W F = = = = = - = - = - o 8 E E E D $ - . g v.v.v.v.v.v.x.H.",
"v.v.b.h.g c g J v.v.b.g.x x x B %.%.%.$.G G S F x g x x x g x N F D F F x x x x x x x g x x g N D z D Z x c g J v.v.v.v.v.b.x.J.",
"v.v.v.v.v.v.v.v.b.c.v.v.v.v.b.h.2 2 2 2 2 6 $ c v.v.v.v.v.v.v.h.6 8 % x v.v.v.v.v.v.v.v.v.v.b.h.3 7 = z v.v.v.v.v.v.v.v.v.b.z.H.",
"v.v.b.v.v.b.v.b.b.v.b.b.b.v.b.h.7 7 q 7 7 q - M b.b.v.v.v.v.b.h.7 q - N b.v.v.v.v.v.v.b.v.v.b.k.3 q < z b.b.v.v.v.v.b.b.v.C.x.J.",
"z.z.z.z.x.z.x.x.z.z.z.z.z.z.x.g.; ; ; ; ; :   y z.z.z.z.x.z.x.g.+ :   y z.z.x.c.z.z.z.z.z.z.x.d.; ;   y z.z.z.z.x.c.z.z.z.b.f.S.",
"J.J.J.J.J.J.H.J.J.H.J.J.J.J.J.G.] ] ] ] ] ] ' } J.J.J.J.J.J.J.G.] ] ' } J.J.J.J.J.J.J.J.J.J.J.G.] ] ' } J.J.S.J.J.J.J.J.J.H.S.K."
};
