/* XPM */
static char *result[] = {
/* columns rows colors chars-per-pixel */
"64 64 23 1 ",
"  c #5DAC3D",
". c #67B43F",
"X c #6ABB3F",
"o c #68AD45",
"O c #74AE4D",
"+ c #67B242",
"@ c #6CB545",
"# c #6EBA43",
"$ c #6EB349",
"% c #71B647",
"& c #73BC45",
"* c #79BC47",
"= c #74B54A",
"- c #79B64D",
"; c #75BA4A",
": c #7ABC4C",
"> c #76B450",
", c #7DB551",
"< c #7CBC51",
"1 c #74C044",
"2 c #79C247",
"3 c #7BC249",
"4 c #83C153",
/* pixels */
"::$O::1@&::;#$+;:;$>;:1@&::;%;+;;;$>:31@;::;&#+;;;$>&:3@;:<;#$+%",
";;%;:3;&<,3=,=;<:;;;::%2:,:=,=&<::#;::%::,:;,O&<<;#;<;;2-,3%,=:3",
";@&&%=$;<$##;;#$:@1;%=$;<@%%&&@=<@&&%%=;-@#@&&%$:@;%%;@;:$##1;@$",
":$#&#;&%;@$&##@$;@@#&;&@;%@1##%o;$@#&;&@;#$&##$$&@#&#;;@;@$&&#%o",
"-=;;12##@@=--%;:-=&;13@&@@===;=-=>;;&2#&#@=-=&-:,=;;12#&@@=->&=:",
";;;##3>@&&+2;&=O:;:@&&;@#&@1=*=O;;;#&2=@%%+2;;OO&;;@#3>@&&+2;;=O",
"=&$1@>;&-@:X&$$O@&$1@>&::$:#;@===1$1@:;&:o*#;@===&$1@>1;=%:X;$$=",
"%#@%+#;%;%;=::*%;#+#@%%=;%:$*:*&%#+%+%%=:%:%::1&=#+&+%;%;%-=&:;;",
"&@&@@X:$--O%=4%X&@&@@X-%-,=%;4;#&@;@#X;%-,-%;4=#&@&@@X;=-,O%=4%X",
"@3;;2:$--<:%;;*@@3;;3&==:-:$=;1++3;13*==:-;O;%1++3;;3:$>-::=;;*X",
"@$3;%=;O:%&=++:*@$3&&==O=;&;+@<;@$3;%==O;&&=+#<;@$3;&=;O:&&%.@-*",
"$$&&#@@;%&#&.&*%$$;1#+@:%X#&+&;>$$;&#@@%$&#&+#;>=$&&#+@;$&@&.&*=",
">,<#####1+# &<::=,<###@#&$# 1<;3><<##%@#&+# &<33><-###+#1o# &:&<",
"@&&#1;%##;;#%;%;=%&%1;%#%&%&%;%%$;&#1&;#&;&&%-%%$&&&1;;#@;&&%;%-",
":@&1#2;&+::;&@#@<@&1#2=&@;:&1@#@<@&&#3;&.&:&;+#%:%&1#2%&+3;;;##@",
"==:;#;;%$o21+@;:=:;;&&;#$@3&+@%:==:;&&&%$o:&+#&;==;;;;1@$$31++;;",
"::@O::2@%::;#;+&<;$>::1@%::;#;+&:&$=:32@;<;;#=@&::@O&<1@&:;&#;+%",
":;#;::=3:,3;,O;<:;#;::%3:,:;,O;<:;%;::=3<,3%,=;<:=%:::;::,:;,><3",
"=@&&%=@;-$@#;;#$<@;&%;$&:$#@&&#$<@&&$=$&-@@#;%@%:@;&=;$;,$@#;;+$",
":%@&&;&@;#$1##@@;@@#%=&@%&$&##$$:$##%;&@;#@1#1%o;@###;1@;#@&#&%o",
">$31&3#&@@=-=%-:==;;13#&@@=-=&=:-=;&13##@@$-=&=:--;;13##@@=-;%:;",
"3;>+&3-+#%+*;;$O;;;@&3=@&%+2%:=O;;:@#;-@%&@&;*OO&;;##3>@&&+2;;=O",
"$;$1@-&&:$*#;$===1$1@>&&:o*#;$==$1$#@>&&;$:#;$===&$1@>1;=%:X;$==",
";#+%+&%=;%:=*:11;#+;+#;=:%:=*:1&;#+;+&;=:%;=*:*&=#+#+%;$;%==*<&%",
"&@&@#X;%-,=%;3-##$&@#X;=-,=%=4;#&@&#@#&=;,=%=4;X#$1%@#&=--O%=4%X",
"+3;&3*==-::O;;;+@2;&3*==:--=;&&++3&;2&=:-<==;;1@+2;;2;=>-<:%;;*@",
"@$3;%-=O;&&=++:;@$3;;==O*;&=+@<&@$:;;-=O;;1>++-:@$3;&-=O:%&=.@%*",
"$$;&#+@;$&#&.;;>$=;#@+@;%X#&+&;=$=;1@+@=$##&.&&==$&##+@;%&#&.&*:",
"><:##%+#&+# ;:33><:##%+#&$# &<3<>,:X@&X#1@@ ;:3<><:###+#1+# &:::",
"@;&&1&;#%;&&%=%%$;&&1&;##%;&$;%%=&&&1%%#@;1&@;$=$;&#1&;#@;;%%==;",
"<@&##3;&.:&&;##%:@&##2:&+:&&&##%:@&&&3;%+:<&&##@:@&&#2;&+3;1;##@",
"=-:;&&&%$o3;+#%;=-:;&&&%$o3;+@&;==:;&&&#@o31+@;:==:;&;;@$$31+@%;",
"::$=::&@;:;;#;@%:&=>::1@;<&%#;@%::#>::2$%::;#;+%;;$>;:2@;:&&&;o&",
";;%;::;3:,:;,=&<<=#&::;3:,3;>>&::;%&::%*:,3;>O;<::%%::;&<,<;,O;3",
":@&%%=$&<$@#;;@%:@&%%=$&,$@#;;%%:@;%%=@&-$#%&;#$;@1;%;@;-$@#;;$$",
":$##&;&@;#$1##%o:$X&&=&@;#$1&#%o:$.&&;%%;#$&%1@$;$###;;@;#@&#1%o",
"-=:;13##@@===&=--=;;13##@@===;%:=>;;13%1@@==-%=-,=;;13#&@@O->#::",
"&;;@1;-@#%@:;*=O:;;@#:-@#%@:;*OO;;;#&&=@#%@*;;=O&;;@#3>@#&.2&;$O",
"=&$1@>&;:$*X;$%=$1$1@>&&;$*X;@%=$1$1@:&;:$*#;@;==&$1@>1;:o:X;$$>",
"&#+%+&%=;%;=*:;&;#+#+&;=;%:=*<&&;#+%+%%;&%:=*:&&;@##+%&$:%:=*<&%",
"1$&#@#&=;,=%-4%&&@1#@#&==,=@-4%&&$&@#X;==,O%=4;#&$&$@X;=:,O%=4%X",
"+2;;2&=:-<==;%1@@:;;2&O:<<-$;;&@+3;;3*==:<:=;#&@@3&&3:$--:;%:;&@",
"@$<;;==O;;1>+@;*@$3;%-=O;%1>+@=:@%3;%==O**&=+#<;@$3;%;=O;%&=+.:*",
"$$&1@+@=$##&.&;=$$;&#+@%@1#&+&&;$$;##@@%$X#&+#;>=$&1@+@;=&#&.;*;",
"><:X#&X&1@@ &<::>::##&@#1$@ &<;3><:##%@#;+# ;:33>:<#####&@# &:::",
"%&*&&%%#@%1&$;%;=&&&1%%#@;1#%=;%$;&&1&;#@;&;%=%%$%&&1#%##;##%=%;",
":$&&#3;%+:;&&##@:$&&&2;&+;3;;##$:@&##2:%.::&;##%:@&&#2;&+;<;;##@",
"O-&;&:&#$$31+@=:==;;;&&#$o31++;:=-:;&&;#$@&&+#%;==:;;;;%@$21++;:",
":;$O&:3@&:&;&;o&::$O:31@%::;&%@#::==:31@;<;;#=@;::%O;:1@&::;#;+%",
";;%;::;&:,:;,=;<::#%:<=2:,3%>=;<:;@;::;:<,3%,=;::=#;:3;::,:;,=;<",
";@&&;=$;,$@@1;@@:@&;$=$;:$$#&;@%:@&&==$&-@%#;&@%:@&;==$&-$@#;;#@",
":$#&#;&%;#$1&#$$;@##&;&@;#$1&%%o:$.&#;&@;#@1##%o:@@&#:&$;#$&#&$o",
"-=&&23##@.O->;=;-=;;12@&@@O=-%=:-=:;13##@+=--&=--=;;12##@@O-;&-;",
";;;@#3>@%;.2;&=O:&;#&3=@#%@1;*=O;;;@&;-@%&@&%*=O;;;@#3>@%&.2;;=O",
"=&$1@<&;:$:X;$==$&$1@>&::$&#;@===#$#@>&&;$:#;$%=%&$1@>2&;%:X;$$=",
"%#@#o#%$&%;=*<&%;#+%+#%%:%<$&<*&;###+&;$:;;$*:;&%@@&+#;$;%;=*::%",
"&$&$@X;=:,O%=4%&&$&@@#;=-,O%=4%##@1@##&==<-%=4;&&$&$@X;=-,=%=4;%",
"@3&&2;=--<*O;;1.+3;&3&O--:;=;;1@+3&;2&$--<==;%1@@3&&3:$-::-%%;&.",
"@$3&%-=O:;&%@@-*@$3&&==O;;&;+@::@$3;&==O;%;;+@-*@$3&&==O=%&;.@:*",
"=$&&#+@;$X&&.&&===&&#+#;=X#&.&&==$;;#+$=@1#&.&&==$&&#+$;=&#&.&*;",
"><:#####1+# &:&<=-,##&@&&o& &<&:><:X#&@#;+# #<::>-<#####;+# &:::",
"@%&%1;%##;;#%;=;%;&&1&%#&&;X#==;=&&&&;###;;#%-#;$&&#1#%##;;&%=$;",
":$&1#1;%@;:;&@##:$&&#1;%@::;&#@%:$&&#3;%+;;&;##@:$&1#2;&+3;&&@#@",
"=;:;&;;#$$2&+@;;=;:;&&;#@+:&@+;:==:;&&&&$$3&++;-=;:;;;;%@o3&@@;&"
};
