/* XPM */
static char *result[] = {
/* columns rows colors chars-per-pixel */
"64 64 60 1 ",
"  c #4F7D01",
". c #4D7A0E",
"X c #507E02",
"o c #4F7C10",
"O c #517E12",
"+ c #4F7920",
"@ c #547E23",
"# c #567F28",
"$ c #59860C",
"% c #568215",
"& c #598517",
"* c #5C8719",
"= c #5D891A",
"- c #6B9A06",
"; c #6D9A1E",
": c #568023",
"> c #5B8425",
", c #5F8827",
"< c #578028",
"1 c #5B8429",
"2 c #5F882A",
"3 c #608927",
"4 c #638C29",
"5 c #6E9A23",
"6 c #67902B",
"7 c #6C952D",
"8 c #6F992E",
"9 c #709A2F",
"0 c #6E9731",
"q c #6F9831",
"w c #729C30",
"e c #76A032",
"r c #7BA533",
"t c #7FA935",
"y c #638347",
"u c #6B8B49",
"i c #759945",
"p c #76984C",
"a c #6C8657",
"s c #6F8957",
"d c #708B58",
"f c #7B9957",
"g c #7A975A",
"h c #7C995A",
"j c #82AE2F",
"k c #87B32D",
"l c #8BB72F",
"z c #8BB82F",
"x c #82AC37",
"c c #85AF38",
"v c #85B030",
"b c #8BB734",
"n c #8CB833",
"m c #87B139",
"M c #8CB63B",
"N c #8EB83C",
"B c #89AD51",
"V c #8FAE5F",
"C c #8DB152",
"Z c #809867",
/* pixels */
"CbMMMMMM3@@@7999mNNMMMNMMMMNMMMMMMMMNMMM>@@:9999MMMMMMMMMMMMMMMM",
"CbMMMMMM,@@#7999mNMMMNMMMMMMMMMMMMMMMMMM>@@:8999MMMMMMMMMMMMNMNM",
"CbMNMMMM3@@@7999mNMMMMNMMMMMMMMMNMMMMMMM>@@#8999bMMMMMMMNMMMNMMN",
"BbmMmbMM,@@@7999mMMMMMMMMMNMMMMMMMMNMMMb3>:>7879mMMMMMMMMbmMmMmm",
"y&>>>::>:@@@79999w9wMNMMMNMMMMMMMMNMMMMMMMbm3@::qw9wMMMM3@>#>#3#",
"yO#@@@@@@:@@79998899mMMMMMMMMMMMNMMMMMMMMMMM>@:@8989MMMM>@@@@@#O",
"yO#@@@@::@@@89998988MNNNMMMMMMMMMMMMMNNMMMMM>@@@8w9wMMMm>@@@@@@@",
"yO#@@@:@@:@@78888888mmmmbMMMMMMMMMNMMMMMMMMM4:>>6888MMMM3>>>>>>3",
"yO#@@@#@@:@@:::::::::::>99999999MMMMNMMNMMNMMMMm>@@>mNNMMbMMmMMM",
"yO:@:@@@:@@@:@@@@:@:@:@@89989899MMMMMMMMMMMMMMMM3@#1mNMMMMMMMMMM",
"y.#@@@@@@@@@:@:@:@:@:@::89899989MMMMMMMMNMMNMMMM>OO#mNMMMMMMMMMM",
"u&,>>>>>>3>>::@:@:@@@:@:68888888cMMMMMMMMMMMMMMM31>4mNNMMMMMMMMM",
"BbmMMMbMMMMM3@@@@:@:@:@@::::::::899wMMMMMMMMMMMMMmMMMMMMMMMNMNMM",
"CnMMMNMMMMMM3@@@:@:@:@:::@:@:@@:8899MMMMMNMMMMMNMMMMMMMMNMMMMMMM",
"CzMMMMMMMMMM>@@@:@@@@::@@@@@@@@@7999MNMMMMMMMMNMMMMMNNMMMMMMMMMN",
"CzCMMMMMMMMM3@@::>:::@::::>:>,>>999wcmbmMmMMMMMMNMMMmmmmMMmMNMMM",
"CnCnNMNMMMMM,+::7888>@:@7889MMMMMMMM4@@@9999MMNMMMMM3@:>9999MMMM",
"CnMMMMMMNMMM,:::8888>:@:8989mMMMMMMM3@@#7999mMMMMMMm>@@@8989MMMN",
"CnMMMMnNMMMN,+@+7888:@::8889MNMMMMMM#O@@8999MNNNMMCn>@@:8999MMMN",
"BkmmMmMMMMMM6>,,8eew>@@@7888mmMmMMMM43137878cmmmmcbm>@@>7888mMmb",
"y%##7w89mNMMmMMMMMMM,@@@@:@:8w99mMMMMMMM3@@@#@>@#@>@@@:@@>@:8w88",
"yo#@7889mNMMNMMNMMMM,@::@@@:8999MMMMMMMM>@@@@@@@@@@@@:@@@@@#888w",
"y.#@8w99bNNNNNNNMMMM,+@+@@@@7889MMMMMMMM#O@@#@@@@:@@@:@:@@@@8w88",
"u*3,6788mmmmmmmMMMMM6>,,,,,,9e9emMNMMMMM43331O#@@@:@:@:@>>>>wwww",
"CbMM3@:@89999999mNMMMMMMMMMMMMMMMMMMMMMNMMMM3O@@@@@##@@@8899NNMM",
"CbMM>@@#78898889mNMMMMMMMMMMMMNMMNMNNMMMNmMm1#@##@##O#@#8999MMMM",
"CnMM,@:@8999999qMNNMMNMNMMMMMNMMMNMMMMMMMNNM>@@@O#@O#@O#8999MMMM",
"Bvcc,@::68787877xmMmmbmMMMMMMMMNMMMMMMNMmmmm>@@@#3#>34349w9emMMN",
"yO##@@@@:@@@:@:@88999999MMMMMMMMMMNMMMNM>@#@>@@@8989MMMNMMNMNNMM",
"yO#@:@:@@::@::::88889888mMMMMMMMMMMMMMMM1#@@@@@@8999mMMMMMMMMMMM",
"yo@@@@@@@@@@+@+:89999999MMMMNMMMNMMMNMMM>O@@@@@@9w99MNNMNMMMMMMN",
"u=4,,3,,,,,,,4,,77778787mMmMmMMmMMMMccmx3@@@>>>3wwwwmMMMMMMNMMMM",
"CnCMMMNMMNMMMMMM>@@@@:@@79999999MMMM3+@@@@@:899wMMMMMMMMMMMMMMMM",
"CnbMMMMMMMMMMMMM3@@@:@:@89899999mMMm3@@###@@9999MMMMMMMMMMMMMMNM",
"CnMMNNNNNMMMMMMM>O@@@:@@89999999MMMM#O@@#@O@8999MMMMMNNNNMMMMNMM",
"CbMMmxxxmMcMMNMM6344>@@@77778999mMNM634433449wweMMMMcccmMmMmMMMM",
"CbMN,@:@7989mMMMCMMM3@#@@@@@8889MNMMMMMMMMNMMMMMMMMM:@@:898wMMMM",
"CbNm3@::7989MMMMMMMM3@@@@@O#8889mMMMMMMMMMMMMMMMMMMM:@::898wbMMM",
"CbNM,+@@8999MMMNMMMM3++@+@#@8999MNMMMMNNMNMMMMMMMMNM>@@:8wwwMMMN",
"CbMN6,,37778xmMmMMMM634444447788cmmmMmcMMMMNMMMMcccx>@@:6768cMcM",
"CbNMNNNN,@@@8988bMMMMNMMMNMM>@@#09q88889MMMMMMMM>@@@@@@##@@#8888",
"CmNmmNNm>@@@8988bMMMMMNMMMMM>@@@79899889MMMMMMMM>@:::::#::#:8899",
"CnNNMMNm3@@@799wMMMMMMMMNNNN3@@@8w999999MNMMMMMM:+@+@@O@O@+#8899",
"BtmmmNNN3@@@6877xmMmMNMMcxxx>@@@68777888xmcMMMMM6444434444447778",
"yo@@mNmN,@#@@@@@8989MMMM>@@@@@##@@@@@@@@8989MMMMMNMNNNMNNMMM>@@@",
"yo#@mNMM2@#@@@@@7989MMMM3@@@#@@#@@##@#@:8889MMMMMMMMMMMMMMMm>@:@",
"yO::mNNN>O@@@:@@8999MMMM>+@@O#@O@@O@@@@:8989MMMNMMMMMMNMMMMM@@@@",
"yO::rmxt7444:@@@7777cmmc644444446444@@@:7777xxxxmmcMMMMMMMMM6443",
"yo<:@@+@mNMN,+::@@@@8989mNNMMNMNNNMM3@@@#@@#@@@@8989MMMMMMNMNNNM",
"y%<::@::mMMM,@@:#1@#8989mNMMMMMMmMMb>@@#@@@#@@@@8999MMMMMMMMMMMM",
"y.+@@:::mNNN,@:@#O##8999MNNNMMNNNNCM#OO#O@@O@@@@7989bMMMMMMMMNNM",
"u444:@@:rxxx>@@:##O#6777jxxxvmmmmmcc744664464446eeeeMMMMMMMMMMMM",
"CnNM,@::@@@@@@:@O##O@@O#@@@@78888889MNNNCMNNNNMNMNNMMMMMMMMMMMMM",
"CnMM,@::@#@<::::########@@@@89899989mNmNmMMMMMMMMMMMMMMMMMMMMMMM",
"CnNM1+@++@@++@O+O##O#OO#@@@>89989999mNNMNMMMMMMMMMNMNMNMNNMMMMNN",
"CnNM746444664664########@@@@67777678xmmmmcmbMMNMMMMMcxxxxxxxmccb",
"CnMMMNNNNNNNNNNM3@#@@@O#@@@@@@@@O#@@88888889MMMMMMCm#+@@@@O#0q88",
"CbMMMMbMMNMMMMMM###@O####@@#:@@:@#@@89999999MMMMMMMM3@@##@##0899",
"CNMNMMMMMMMNMMMM3O#+#+@+O#O#@@@@@@:@899999qqMNMMMMMm@O@+O@+#8999",
"BvcmMMMMMMMMMMMM746666666666>@@@@@@>6777899wxxmmMMMM766666467786",
"p5q8MMMnMMMMMMMMNNNNNNNNMMnN>@@@@@@@O##@789w8889MMMMNNNNnCNM>@@@",
"p8wwmMMCMMMMMMbCMMNMCMMMMCMM1###########8q9qww99mNNNMMMMNMMm<###",
"i-5;klzznnzzzzzzllllllnzkzzz$ XXXXXXXXXX;;;;;;;;kzzzzzzzzznkX X ",
"ZghgVVVVVVVVVVVVVVVVVCVVVVVVsaaaaaaaaaaaghhhhhfZVVVVVVVVVVVVdaaa"
};
