/* XPM */
static char *result[] = {
/* columns rows colors chars-per-pixel */
"64 64 205 2 ",
"   c #000100",
".  c #0C0000",
"X  c #020D01",
"o  c #0A0C01",
"O  c #031401",
"+  c #091401",
"@  c #051B02",
"#  c #091E03",
"$  c #121201",
"%  c #131E03",
"&  c #191E03",
"*  c #350000",
"=  c #3B0602",
"-  c #211D03",
";  c #391503",
":  c #351D05",
">  c #3B1D05",
",  c #042203",
"<  c #0B2404",
"1  c #042C03",
"2  c #0D2A05",
"3  c #0C2F08",
"4  c #132405",
"5  c #1B2204",
"6  c #122B06",
"7  c #1A2906",
"8  c #142F08",
"9  c #1A2D08",
"0  c #033203",
"q  c #0C3207",
"w  c #0E3508",
"e  c #023B0A",
"r  c #0B3A0A",
"t  c #123206",
"y  c #153B07",
"u  c #133509",
"i  c #1B350A",
"p  c #163B0B",
"a  c #193D0C",
"s  c #1B2B13",
"d  c #1D3D15",
"f  c #232605",
"g  c #232906",
"h  c #292D08",
"j  c #362406",
"k  c #3B2306",
"l  c #342907",
"z  c #392807",
"x  c #322E08",
"c  c #3C2B08",
"v  c #223509",
"b  c #223D0D",
"n  c #313109",
"m  c #393309",
"M  c #3E380C",
"N  c #362C14",
"B  c #392A14",
"V  c #412707",
"C  c #422A09",
"Z  c #47300A",
"A  c #4B350C",
"S  c #59360C",
"D  c #543B0F",
"F  c #533E16",
"G  c #5A3E10",
"H  c #004300",
"J  c #07460E",
"K  c #16420D",
"L  c #1B430E",
"P  c #1D480F",
"I  c #174510",
"U  c #1C4512",
"Y  c #1E4A11",
"T  c #24430E",
"R  c #32440F",
"E  c #3B430F",
"W  c #244411",
"Q  c #294511",
"!  c #234D14",
"~  c #2B4C14",
"^  c #224519",
"/  c #284218",
"(  c #264D1B",
")  c #3A4510",
"_  c #3A4D12",
"`  c #235214",
"'  c #2B5315",
"]  c #2D5917",
"[  c #26541A",
"{  c #2A551D",
"}  c #275819",
"|  c #2B5B1B",
" . c #305216",
".. c #325519",
"X. c #325C19",
"o. c #1F7700",
"O. c #207600",
"+. c #267900",
"@. c #2A7C00",
"#. c #2C611D",
"$. c #2E6D1B",
"%. c #35621B",
"&. c #3A641D",
"*. c #316F1C",
"=. c #24721A",
"-. c #2E751C",
";. c #2F781D",
":. c #33741E",
">. c #34791E",
",. c #387B1F",
"<. c #2D5B21",
"1. c #326525",
"2. c #316921",
"3. c #3E6A21",
"4. c #367C20",
"5. c #397E22",
"6. c #5C420F",
"7. c #444112",
"8. c #574612",
"9. c #5B4211",
"0. c #564C14",
"q. c #485A1A",
"w. c #58551A",
"e. c #5A5B1C",
"r. c #6C5719",
"t. c #6C5A1A",
"y. c #725719",
"u. c #735C1B",
"i. c #795E1C",
"p. c #77601C",
"a. c #7C621D",
"s. c #6C5720",
"d. c #6D5820",
"f. c #447625",
"g. c #4A4E49",
"h. c #4C5A4A",
"j. c #4E614B",
"k. c #2D8105",
"l. c #2F8208",
"z. c #30830A",
"x. c #398509",
"c. c #3C9E17",
"v. c #378124",
"b. c #3A8224",
"n. c #3E842A",
"m. c #3F8829",
"M. c #418B12",
"N. c #438626",
"B. c #458927",
"V. c #40872C",
"C. c #438B2C",
"Z. c #4A8D2A",
"A. c #429927",
"S. c #4C912C",
"D. c #459E2B",
"F. c #52952E",
"G. c #458C32",
"H. c #479333",
"J. c #499634",
"K. c #479936",
"L. c #4A9A36",
"P. c #499738",
"I. c #4D9E38",
"U. c #519E36",
"Y. c #529F3B",
"T. c #47A02C",
"R. c #4BA12D",
"E. c #52A52E",
"W. c #4EA039",
"Q. c #54A434",
"!. c #54A33A",
"~. c #59A53B",
"^. c #68A537",
"/. c #6DAD3B",
"(. c #71AD3B",
"). c #6FB632",
"_. c #6EB23D",
"`. c #73BB35",
"'. c #72B43D",
"]. c #75B93F",
"[. c #78BB3F",
"{. c #76C22A",
"}. c #79C138",
"|. c #57824E",
" X c #58844F",
".X c #598550",
"XX c #5B8951",
"oX c #5E9C52",
"OX c #608E52",
"+X c #619957",
"@X c #639C58",
"#X c #6EB240",
"$X c #72B440",
"%X c #75BA40",
"&X c #7ABD41",
"*X c #67A058",
"=X c #6AA15A",
"-X c #7CAF5B",
";X c #7FB757",
":X c #7DB25B",
">X c #709B69",
",X c #7DC142",
"<X c #81B65C",
"1X c #82B85C",
"2X c #85AF6D",
/* pixels */
"<X}.Z.>.L.W.b.>.J.W.b.4.L.W.v.>.I.I.` u p w u U L.I.v.5.L.W.W.I.b.4.5.4.v.v.v.,.L u < < p p t [ I.W.W.L.;.C.,X'.W.L.,.b.W.L.+..X",
":X`.Z.4.J.I.m.v.L.!.b.>.K.L.N.b.L.L.` u ~ ` U Y H.L.5.5.L.I.L.J.5.>.4.4.>.>.>.:.Y L < < L P p } J.I.J.J.4.B.&X_.I.L.v.m.W.I.@..X",
"*XE.I.L.m.5.J.I.'.}.C.4.` ! _.&X..@ < 6 _.&Xb.;.a a 4.v.I.I.U 8 < < U L 2 2 L ! 4.:.@ u 4.4.4.:.K L Y } 4.b.Q.I.>.b.L.L.Y.P.+.|.",
"@Xm.!.!.b.>.L.I.'.[.B.4.P p /.&X'   < 8 (.%XB.4.8 O :.4.P.J.8   u u p p 2 8 u K 4.>.# t :.4.4.4.' ! t P >.b.K.K.b.B.!.W.I.U.k.XX",
".Xk.#X,XC.4.L.I.N.,.P < t r 5.b.4.4.L p i b J.L.~ u u 6 Y Y @ u P.L.P K ,.>.2 < a a # # 6 t w X.[._.a K K T p &.%X&X%X].L.~.`.<X",
"|.k./.&XB.;.J.L.m.5.P # ~ ' :.,.b.b.Y L < q H.L.` a 2 @ u p 3 a J.J.L K ,.>.< < P L < < O 2 r X.[./.K a P P 1 &.%X%X%X$XI.~.`.:X",
"oXT.m.b.b.4.K   /.,X%.O '.&XX.r J.I.! q :.4.! U w q a a p L :.:.! L a K L L a L >.>.a p O u 4.5.b.5.u P ,.>.3 } !.L.4.Z.&X#X@.XX",
"oXD.n.;.4.4.~ i /.[.&.W (.[.X.r H.L.} Y 5.b.L u ` ' L a p P b.b.P p a a a a p P 5.,.L p @ p >.>.>.:.L ` 4.:.a | I.L.4.Z.&X#X+.XX",
".X@.b.v.` K /.,X&.a /.[.Z.,.v.4.L u G.I.I.L.` P ].%X' p p Y L.I.v.,.8 # p p @ t 5.>.< < a p < 8 L ` ,.:.a ! 4.b.I.!.I.W.!.I.D.@X",
".Xk.5.v.P w ^.&X%.0 /.[.N.;.5.>.t # J.W.L.J.! a _.$X~ w p U H.J.5.:.t < P L # u 5.:.< # a p # 2 u P v.>.K ` >.5.J.J.J.L.I.I.D.@X",
"@XD.n.4.L O T T :.4.' ! ,.b.! a p K K.I.` r 2 # i i < # a a u 8 w r u L 4.4.p L 5.4.< # < < a a u W 4.v.,.:.L K u p a #.I.U.+..X",
"@XD.m.,.L   K P :.4.Y r ;.,.Y L b T G.L.X.W 8 # @ O < < p a @ # ' ' P Y >.4.P Y 4.:.2 # @ < a L L ` >.>.4.:.a p X < 2 } Y.P.@..X",
"@XD.V.,.L   H.W.} y ,.v.Y L >.5.0.G Q Y '.&X] q p u K p O @ u ` ].].b.>.a K 4.>.L p L p # < p Y v.>.L L K K a y < t p | I.Y.D.@X",
"@XD.n.>.a X G.W.[ u :.,.P u :.>.0.G b a /.%X' w ' ' L p a a u ~ '.].5.:.' ' 4.>.Y L a p < < p P ,.:.p y p a W L @ 2 t } J.I.D.@X",
" X@.{ a 2 @ >.b.P u :.v.a O L L % $ p L W W @ 8 '.%XT , L.L.U L 5.5.L ' [.[.v.,.v.:.2 # @ < a a P a , 2 p ! 4.:.# # @ t K 1.K.@X",
".X@.[ t < # $.>.! P :.>.p o p a w q a L r u @ 8 (.%Xb , J.J.P a >.>.u ` ]._.,.:.4.:.2 # < 6 p p p u % 6 u P v.:.# # < 2 < { D.@X",
"@XT.{   < # < 2 :.v.K @ z k b K :.,.P a K p < # Y W K a L p @ 6 4.4.L p W L 2 8 L L p a p u @ 4 a b k j X a v.:.@ # , < O ^ @..X",
"+XD.<.  2 < # @ *.>.p % j k a u >.v.P i P P 4 < u u a K L L 6 u 4.4.L p K p < < p p L L Y L 9 8 p p k j % a >.$.< < < 2 O ^ k.XX",
" X@.d   p a a a 8 <     @ 4 # < >.v.u @ >.4.P p L a p a 4.4.w w 4.5.< 2 4.4.L p p L u L 4.4.0 1 < < < @     < 3 a a a a   ( D.@X",
" Xk.{ p a p a a < @ W ~ 6 @ # # :.:.u # :.>.L p p a P Y >.>.] ] >.>.2 8 >.>.a p p p L ` :.:.] ' < @ @ 7 ~ T # < p a a p u <.D.@X",
"@XD.I.I.[   < < y L /.&X~   4 @ a K a a 2 < < < O 6 >.4., a ].[.' w K p < < < < O u 5.4.  ~ ,X(.6 O    .&X'.K p , <   ! Y.P.+..X",
"@XD.P.L.!   6 9 t a ^.[.X., 8 < K L a a < # # < @ 8 >.5., i (._.' p L p < # # < @ u 4.4.X Q ]./.8 < 1 ..].^.u u 4 8   ! J.P.@.XX",
"|.@.{ p L a r e < # L ! :.v.! p >.5.P a # X # < p L 4.5.P p 7 u 4.4.L p @ O # < u P 5.4.K p 8 9 p P v.:.W L < < e r a L i <.D.@X",
".Xk.[ a L a Q R 7 # 8 q :.,.P u :.>.L p p u 4 2 u L :.:.L p 2 w :.:.L p u u 4 6 p P :.*.a p 2 q u P >.:.u q % 7 R R a L p 1.D.@X",
"@XD.n.4.` q t.a.n O 4 6 u a < @ < < O @ :.4.,   @ < p L @ 2 5.4.t @ + < 5.>.X   # < L L O u v.:.< # a u 6 4 O n a.u.0 ` 4.n.D.@X",
"@XE.m.>.` L t.p.M g 4 @ P P 6 < < 6 t u :.:.' ~ 6 < a L < 8 :.:.u < u p :.:.~ ~ < 2 L a @ u >.*.< 2 P P @ 4 f M u.t.K } >.n.D.@X",
":X[.3.O 4.v.b o u.a.x O :.v.P p     :.b.q i ].&X] 1 u 0 p a L L   O >.4.@ W &X].W w w 1 a a L L p P v.:.@ x a.u.$ L v.:.2 <.T.@X",
":X`.f.I :.4.p O t.u.n O *.>.Y a ~  .:.5., 4 /.'.' w X.X.L a p a ~  .>.4.X b (./.! p X.] L a p a a P >.$.@ x p.t.O r ,.:.! 1.D.@X",
"@XT.L.L.[ 2 a a < + # < , , t a '.&XQ   < < < 7 q ! %X%X~ q a ` ].].6   < < < 8 0 ..&X'.T q L a p u < , # # + < a L 2 } I.I.D.@X",
"@XT.!.!.2.Y U p u t < # % & L ! /.].&.W i < , 2 q W (.'.] K p W '.]...W 8 , @ 6 1 ' ]./.~ K L a P P & % # < t u p L Y 2.I.Y.R.@X",
"@XD.%X,X~.K.`   >.5.p O j k ,.5.4.b.[.[.' , P a # 2 4.b.4.4.L P ;.b.&X[.~ q L a O i 5.v.v.>.a Y 5.,.k j X a 5.:.  ! I.I.L.~.}.<X",
"*XR.#X].~.I.[   :.4.p O j z *.4.:.5./.'.%.K L a < 6 -.:.>.:.L Y 5.Z._./.~ p L a < u :.:.>.-.p L >.:.j j X p 4.:.  ( I.I.L.~.`.-X",
"1X`.G.;.I.W.^   a a < # O + p L 4.b.w @ ;.>.Y p a a L a < < q ~ &X[.a O 3 0 L p     4 4 O @ # < L p + O @ < L a   ^ !.I.I.P.@..X",
"<X`.H.4.J.J.} p a p 8 4 u u p p *.:.v - N.B.U u L L P P < < K ' (.(.i , X...p a  .~ # , u u @ < p p u u < 9 p a K { J.J.W.P.@..X",
"@XD.L.I.Y   H.!.^       :.v.t   , 4 D 9.].&XQ       ,.,.< @ 4.5.! L u ' &X%X< W &X].4 8 v.,.< <   u v.:.      ! !.H.  ! Y.P.O.|.",
"+XD.!.~.} 2 G.L.U   ~  .:.>.P y , 4 D 9.(.(.Q X ' ..:.:.K a :.:.p t w ~ '.(.< b './.< 3 :.:.# < t P :.:.' ~ X U K.G., } ~.Y.x.OX",
"|.+.].,XZ.;.L + @ < '.,X .  4.b.u   z k G 9.& 3 ].&Xb @ 4.4.a u < # @ < u u # < p p < @ O @ O u v.,.   .,X'.O < X L ;.Z.&X&X[.1X",
" Xk./.].Z.v.P X @ < ^.].~   :.2.L u j > D G - 7 (.'.a @ 4.4.` P p u < < ! P < < v i , < i u O u :.*.  ~ '.^.O <   L v.S.&X%X).:X",
"@XD.V.>.L.I.!   < # @ # p a < < >.v.u + z k > c 5.4.7 < 4.v.4.,.v.,.2 2 ;.>.K a c z O u 5.4.< @ < < L a # # # <   ` K.~.,X#X+.|.",
"@XA.n.>.L.W.`   < < 2 8 p p < # :.:.u # x k : j :.;.2 2 -.>.4.,.>.:.2 t f.f.T v j j + u :.$.< # # < p p u 3 @ 4   [ W.!.&X/.k..X",
"|.+.5.,.L.W.^   # @ 4.5.p X a L O X p a K a < # @ # @ < + 8 >.5.K u , f i.i.V : % @ < @ @ # # < K a X p b.,.@ <   ^ W.W.W.W.T.@X",
"XXz.V.v.J.L.} y 8 9 $.4.u O p p p p a a p p < # p p 4 < @ 2 :.:.~ P , f u.t.z : 6 < # < < # # < p p O p :.*.@ 8 t | !.!.K.I.A.@X",
"@XD.Y.W.b.4.4.,.1   @ < # < # < ,.v.W p < < @ < >.5.U p < < t K v.,.2 @ p p # < a p # @ @ @ # # # # < @ < <   a ;.B.,X'.!.P.+..X",
"@XD.P.I.m.b.b.b.X...u @ < < # # *.:.L y < # # < :.:.L a < 2 P ! >.:.2 < Y Y < < a p < 4 h f # < # < < < # 4 p ` v.Z.[._.L.J.z..X",
"@XT.m.>.L.W.I.K.%X,X]   O   @ # @ @ @ @ < # @ , # @ @ , u P 5.v.L y X < v.5.P p L p @ 4 9.D # @ # @       u ;.v.I.I.I.L.4.n.D.@X",
"+XA.V.b.L.L.!.!.'.%X%.0 ~ ^ 8 < < 4 6 2 < < 4 & # < & 5 u L :.2.L p p L :.:.a p a a g x 9.9.< < < 8 ` ~ y [ C.S.L.L.!.P.b.G.D.@X",
" X+.P.!.v.-.].,X!.K.b.>.I.I.I       t p O o > k < @ > k % @ # 2 p P 4.4.P p < @ O 5 S S S S   X   p I.K.;.B.&X].>.v.I.I.I.I.D.@X",
"XXk.J.L.C.N./.].~.!.C.b.L.I.| U ~ ! ` Y L a l z 5 5 l z 5 4 @ < u L :.*.p u 7 f f n e.e.e.e.! ! U | ~.!.b.C.%X_.b.m.I.I.I.I.A.@X",
"@XT.V.-._.,XN.=.[.,XQ.K.W.L.W.W.W.W.b.>.v.>.1   ; ; i u k k < @ , @ @ @ , % * = S w.L.K.L.W.L.W.I.~.&X[.I.L.W.W.W.W.W.L.W.L.+.|.",
"+XA.C.v._.'.F.B._.'.!.!.W.W.W.L.L.K.m.b.b.b.} ! E E ! ! C V f & & & & 5 4 g q.q.0.e.~.!.W.I.W.W.K.I.'._.W.L.I.L.J.J.L.W.W.L.z..X",
"|.+.P.!.W.W.'.,XN.-.'.,X~.L.W.L.b.,.L.W.W.W.L.W.b.>.v.,.0.G k : k k > c * 7.&X].>.v.[.[.W.L.W.L.4.b.W.W.I.I.W.L.>.b.W.W.I.Y.T.@X",
".Xz.L.W.L.K.$X,XF.N.'.,X!.L.W.W.m.b.J.L.W.I.W.L.N.v.>.:.8.S A A k k k c x q.[.[.Z.S.[.[.W.I.W.L.b.b.K.L.I.I.W.J.b.m.W.W.I.I.A.+X",
"@XT.Y.W.v.>._.,X[.,X&X,X~.L.W.K.W.I.v.,.L.W.I.W.W.I.u . j V i.i.C k > M >.B.&X,X}.&X,X%XW.L.I.L.W.I.,.b.W.W.W.W.W.I.I.I.W.P.+..X",
"+XA.I.I.C.b.$X}.'.'.'._.W.L.Q.~.W.I.m.b.L.W.J.J.J.J.L 5 j C i.u.C : > m *.5././.'.'._._.I.W.~.!.I.L.b.m.W.L.K.L.L.I.I.L.L.J.z.XX",
"|.+.L.W.L.K.].,X!.W.v.;.L.W.%X,XQ.L.W.W.W.I.b.,.v.,.J r j C i.a.V : k k e e u P 4.v.>.b.L.Q.,X[.W.I.I.I.W.L.>.b.W.W.W.L.:.V.T.@X",
"XXz.P.Y.~.~._._.!.K.S.Z.K.K._.'.U.K.L.W.J.J.v.>.:.:._ E k V y.u.Z V k c E ) p K :.:.4.b.K.W.'._.L.L.I.I.L.J.b.C.L.L.!.P.b.V.A.@X",
"oXD.W.L.%X&XB.;.L.W.[.,XN.;.L.W.>.;.L.W.b.v.v.5.I b a.a.C > G G 9.G k c a.a.T a p Y 5.v.,.b.W.L.;.v.W.L.>.v.I.K.:.v.W.L.W.P.+.|.",
"=XQ.I.J.].,XS.b.K.L._.'.Z.b.K.K.S.C.J.J.b.>.:.-.I b t.t.C C 9.9.G G C C y.r.T p p P :.:.4.b.J.J.B.S.J.J.b.m.~.!.b.C.W.W.Q.!.l.XX",
"<X}.Z.-._.,X!.K.v.>.L.I.W.W.v.>.[.,XN.;.b.,.P y K a e r 9.9.9.G > k 9.G : : a p a p p Y 4.v.>.N.,X[.>.b.L.~.&X%XW.W.L.~.,X%XD.@X",
":X`.H.v./.%X~.~.C.b.L.W.L.J.B.b._.'.m.4.>.:.P a a K ) ) D G D D C C D F A A a p b b p Y 4.v.v.Z.'._.b.m.K.!.%X_.I.I.L.!.#X#XD.@X",
"oXD.I.I.I.W.%X&X~.L.W.I.v.>.K.L.W.L.b.>.L 6 y a r b a.a.V ; k k 6.G @ f a.i.& @ k z u P >.v.L.L.W.I.W.L.>.v.I.L.I.I.I.K.:.n.D.oX",
"@XK.~.~.P.J.#X%XY.K.Y.I.C.m.!.~.P.L.C.n.| ( ^ ^ U / s.y.M N B B F F s s d.d.s s N N ~ | m.C.~.~.K.L.I.L.V.C.I.Y.L.L.W.I.n.G.~.=X",
"oXc.'.}.M.o.A.T.l.+.A.T.D.T.`.}.x.+.A.T.k.@.H 0 0 0     0 0                 0 0 1 H +.z.A.R.[.`.@.k.D.T.D.D.D.A.+.z.K.T.D.Q.{.;X",
">XoX:X;XOX|.+X@X.X|.+X@X@X@X:X<XXX|.@X@X.X Xj.h.h.h.g.g.h.h.g.g.g.g.g.g.g.g.h.j.h.j.|..X@X*X<X-X.X.X@X@X@X@X@X+X|.XX@X@XoX*X;X2X"
};
